<svg width="421" height="323" viewBox="0 0 421 323" fill="none" xmlns="http://www.w3.org/2000/svg">
<path d="M223.136 12.071C287.705 12.0712 335.332 68.0237 335.332 120.716C335.332 146.66 323.762 166.841 304.145 180.708C284.363 194.692 256.172 202.377 223.136 202.377C190.099 202.377 160.603 194.692 139.531 180.634C118.605 166.672 105.97 146.47 105.97 120.716C105.97 94.6642 118.9 67.485 140.239 46.7359C161.535 26.0276 190.865 12.071 223.136 12.071Z" fill="#5A8DC4" stroke="#404F6F" stroke-width="6.83465"/>
<path d="M150.327 100.247C157.723 104.691 169.449 98.7554 176.518 86.9898C183.588 75.2243 183.323 62.0841 175.928 57.6405C168.532 53.1968 156.806 59.1323 149.737 70.8979C142.667 82.6634 142.932 95.8036 150.327 100.247Z" fill="white" fill-opacity="0.4"/>
<path d="M321.839 154.8C341.365 120.006 321.839 82.3708 321.839 82.3708C321.839 82.3708 307.633 126.137 289.884 150.54C272.137 174.943 236.628 196.695 236.628 196.695C236.628 196.695 298.328 196.695 321.839 154.8Z" fill="#4C79AA"/>
<path d="M226.687 13.4918H214.615L222.426 22.0129L213.195 29.824L230.947 25.5633L246.569 29.824L240.178 22.7231L247.989 13.4918H236.628L230.947 2.84038L226.687 13.4918Z" fill="#736546" stroke="#594824" stroke-width="3.90552" stroke-linejoin="round"/>
<path d="M210.12 322.536C326.166 322.536 420.24 310.659 420.24 296.008C420.24 281.357 326.166 269.48 210.12 269.48C94.0739 269.48 0 281.357 0 296.008C0 310.659 94.0739 322.536 210.12 322.536Z" fill="black" fill-opacity="0.15"/>
<g filter="url(#filter0_g_0_1)">
<path d="M111.827 127.192C112.783 128.065 113.694 128.994 114.598 129.936C114.758 130.102 114.918 130.269 115.083 130.44C115.589 130.971 116.094 131.504 116.597 132.039C116.831 132.287 116.831 132.287 117.07 132.54C118.103 133.651 119.046 134.82 119.966 136.053C120.173 136.322 120.38 136.591 120.587 136.86C122.845 139.847 124.665 143.041 126.389 146.449C126.923 147.493 127.471 148.526 128.019 149.561C128.173 149.553 128.326 149.545 128.485 149.537C134.737 149.23 140.753 149.091 146.92 150.483C147.757 150.634 147.757 150.635 148.598 150.58C149.045 150.063 149.045 150.063 149.404 149.35C149.549 149.089 149.694 148.829 149.844 148.56C149.996 148.281 150.147 148.001 150.304 147.713C151.615 145.383 152.921 143.367 154.637 141.405C154.958 141.01 155.275 140.612 155.592 140.213C157.148 138.251 158.714 136.428 160.547 134.798C161.329 134.081 162.063 133.309 162.798 132.53C165.512 129.859 168.916 128.005 172.532 128.2C176.33 128.619 179.551 130.691 182.454 133.417C182.843 133.779 183.238 134.131 183.635 134.482C184.896 135.595 186.136 136.721 187.325 137.934C188.289 138.887 189.316 139.761 190.343 140.625C190.805 141.082 191.17 141.529 191.564 142.059C192.64 143.472 193.817 144.763 194.994 146.066C195.921 147.107 196.752 148.151 197.512 149.356C197.937 150.015 198.42 150.609 198.899 151.217C200.693 153.583 202.1 156.528 202.073 159.692C202.071 159.99 202.068 160.288 202.066 160.596C202.063 160.937 202.063 160.937 202.059 161.285C201.911 161.285 201.763 161.285 201.611 161.285C201.59 161.474 201.569 161.663 201.547 161.858C201.224 163.276 200.127 164.193 199.092 164.985C196.352 166.693 192.965 167.205 189.957 166.257C186.271 164.978 183.489 162.322 181.032 158.991C180.784 158.656 180.784 158.656 180.531 158.314C178.818 155.964 177.23 153.521 175.706 151.01C175.553 150.759 175.553 150.759 175.397 150.502C174.851 149.596 174.352 148.679 173.882 147.72C173.453 146.88 172.969 146.08 172.49 145.276C171.44 143.505 171.44 143.504 171.19 142.934C170.369 143.096 169.831 143.502 169.153 144.043C168.823 144.306 168.823 144.306 168.486 144.574C168.257 144.758 168.029 144.943 167.793 145.132C167.568 145.311 167.344 145.489 167.113 145.673C163.998 148.162 161.117 150.818 158.664 154.148C159.28 154.617 159.885 154.942 160.564 155.272C164.237 157.063 167.98 159.062 171.19 161.794C171.364 161.942 171.537 162.089 171.716 162.241C173.117 163.435 174.505 164.649 175.887 165.872C176.022 165.991 176.157 166.11 176.296 166.232C178.866 168.504 181.039 171.12 183.045 174.028C183.24 174.297 183.435 174.567 183.63 174.835C188.861 182.114 188.861 182.114 188.861 184.732C189.126 184.72 189.392 184.709 189.665 184.696C195.095 184.527 200.416 186.63 204.511 190.801C204.953 191.164 204.953 191.164 205.476 191.041C206.164 190.824 206.716 190.507 207.342 190.115C207.586 189.965 207.829 189.816 208.08 189.661C208.34 189.501 208.6 189.341 208.867 189.176C212.845 186.769 216.851 185.153 221.263 184.11C221.756 183.982 221.756 183.982 222.234 183.701C223.128 183.354 223.971 183.38 224.909 183.381C225.21 183.38 225.21 183.38 225.518 183.378C225.944 183.376 226.371 183.376 226.797 183.377C227.432 183.378 228.067 183.372 228.702 183.366C234.81 183.341 240.577 184.357 245.453 188.81C245.645 188.712 245.645 188.712 245.84 188.613C261.395 180.708 279.69 175.794 296.218 182.915C299.415 184.353 302.266 186.09 304.953 188.555C305.157 188.739 305.362 188.923 305.572 189.112C306.925 190.348 308.207 191.657 309.477 193.001C309.984 193.533 310.497 194.05 311.021 194.561C313.938 197.464 315.939 200.722 317.846 204.518C318.155 205.131 318.471 205.74 318.788 206.348C321.731 212.043 323.999 217.921 325.93 224.134C326.322 225.377 326.738 226.609 327.168 227.837C327.239 228.04 327.31 228.243 327.383 228.453C327.884 229.863 328.464 231.185 329.148 232.493C329.461 233.605 329.097 234.442 328.668 235.464C328.407 236.035 328.133 236.596 327.853 237.155C327.753 237.356 327.653 237.558 327.55 237.765C326.199 240.461 324.742 242.887 322.848 245.136C322.678 245.345 322.508 245.555 322.333 245.771C319.539 249.116 316.113 251.171 312.559 253.291C312.259 253.474 311.959 253.657 311.659 253.84C306.624 256.862 301.167 258.895 295.782 260.937C295.782 261.843 295.987 262.225 296.363 263.018C296.486 263.281 296.61 263.544 296.736 263.815C296.869 264.096 297.002 264.376 297.138 264.665C297.963 266.416 298.745 268.126 299.318 270.005C299.806 271.658 299.806 271.658 300.852 272.89C301.539 273.208 302.229 273.44 302.94 273.681C305.481 275.093 307.874 276.988 308.98 280.052C309.863 283.553 309.248 287.501 307.775 290.656C307.457 291.232 307.118 291.757 306.743 292.286C306.609 292.479 306.476 292.672 306.338 292.871C303.252 297.088 298.706 298.516 294.082 299.086C289.522 299.505 285.183 299.268 281.318 296.136C279.856 294.635 279.341 292.261 279.181 290.098C279.036 285.306 281.24 281.912 283.927 278.523C284.077 278.328 284.226 278.133 284.38 277.933C286.03 275.902 288.238 274.593 290.414 273.426C290.071 272.073 289.535 270.918 288.932 269.698C288.833 269.498 288.735 269.297 288.634 269.09C287.805 267.42 286.908 265.821 285.94 264.251C285.662 264.306 285.383 264.361 285.096 264.418C282 264.971 278.946 265.1 275.818 265.111C275.524 265.114 275.524 265.114 275.224 265.116C271.217 265.148 267.4 264.498 263.502 263.47C263.12 263.372 263.12 263.372 262.73 263.272C261.508 262.957 260.298 262.624 259.098 262.212C259.199 262.407 259.299 262.603 259.403 262.804C260.344 264.653 261.252 266.52 262.132 268.408C262.238 268.635 262.344 268.862 262.454 269.096C263.039 270.369 263.524 271.63 263.941 272.986C264.446 274.682 264.446 274.682 265.511 275.952C266.199 276.267 266.889 276.499 267.598 276.739C270.138 278.151 272.532 280.046 273.637 283.111C274.521 286.612 273.906 290.56 272.433 293.714C272.115 294.291 271.776 294.815 271.401 295.344C271.267 295.537 271.134 295.731 270.996 295.93C267.91 300.146 263.364 301.575 258.74 302.144C254.18 302.564 249.841 302.326 245.976 299.194C244.514 297.693 243.999 295.32 243.839 293.156C243.694 288.365 245.897 284.971 248.585 281.581C248.734 281.387 248.884 281.192 249.038 280.991C250.688 278.961 252.895 277.651 255.072 276.484C253.79 271.52 250.514 266.727 247.718 262.737C247.607 262.576 247.495 262.415 247.38 262.249C246.555 261.106 245.624 260.25 244.559 259.408C244.404 259.593 244.25 259.777 244.091 259.968C242.849 261.431 241.639 262.705 240.085 263.741C240.206 263.966 240.328 264.191 240.453 264.423C241.942 267.243 242.987 269.945 242.441 273.306C241.945 275.486 240.894 277.292 239.414 278.778C239.249 278.948 239.249 278.948 239.08 279.122C234.562 283.4 228.249 283.977 222.637 283.62C219.162 283.178 216.125 281.337 213.69 278.523C213.542 278.355 213.395 278.187 213.243 278.013C213.317 279.948 213.39 281.882 213.466 283.875C214.165 284.246 214.165 284.246 214.878 284.624C218.457 286.631 221.264 290.032 222.637 294.325C223.275 296.506 223.076 299.489 222.273 301.576C220.466 305.402 217.443 307.661 213.914 309.107C212.877 309.439 211.846 309.686 210.782 309.872C210.519 309.918 210.256 309.965 209.985 310.013C205.305 310.652 199.703 310.61 195.725 307.355C195.446 307.095 195.171 306.83 194.901 306.558C194.765 306.425 194.63 306.292 194.491 306.154C192.657 304.215 191.575 301.863 191.448 299.008C191.52 294.895 193.907 291.336 196.373 288.551C198.219 286.556 200.455 285.353 202.73 284.13C202.736 283.243 202.74 282.357 202.744 281.47C202.745 281.222 202.747 280.973 202.749 280.718C202.754 279.199 202.68 277.735 202.506 276.229C202.387 276.429 202.267 276.629 202.144 276.836C199.218 281.538 194.752 283.29 189.932 284.277C184.992 284.905 180.019 284.504 175.914 281.037C173.839 279.015 172.479 276.742 172.246 273.598C172.172 270.422 172.696 267.008 174.665 264.594C174.993 264.219 175.328 263.852 175.664 263.486C175.492 263.469 175.32 263.453 175.143 263.436C169.688 262.896 164.415 261.93 159.377 259.339C158.792 259.117 158.569 259.186 157.993 259.408C157.48 259.862 156.995 260.319 156.511 260.81C156.372 260.948 156.233 261.086 156.09 261.229C155.679 261.639 155.27 262.052 154.861 262.466C154.655 262.675 154.449 262.884 154.237 263.099C153.874 263.47 153.512 263.842 153.151 264.216C152.795 264.584 152.437 264.95 152.076 265.313C150.042 267.369 148.118 269.529 146.361 271.896C146.163 272.157 145.965 272.418 145.766 272.678C144.597 274.221 143.496 275.76 142.559 277.504C142.686 277.564 142.813 277.625 142.944 277.688C145.083 279.055 146.215 281.829 146.878 284.401C147.289 287.079 147.022 289.415 145.718 291.728C145.172 292.598 144.608 293.36 143.901 294.07C143.735 294.24 143.735 294.24 143.567 294.414C139.072 298.671 132.715 299.321 127.124 298.912C123.623 298.437 120.535 296.841 118.106 293.877C116.351 291.213 116.001 288.654 116.164 285.404C116.575 282.158 117.88 279.253 120.19 277.249C122.868 275.327 126.529 273.48 129.738 274.093C130.695 274.248 131.583 274.375 132.493 273.935C133.562 272.776 134.195 271.179 134.877 269.709C135.572 268.28 136.502 267.036 137.414 265.78C137.522 265.63 137.631 265.481 137.743 265.327C139.057 263.528 140.402 261.793 141.887 260.173C142.072 259.962 142.257 259.752 142.447 259.536C142.631 259.325 142.816 259.115 143.006 258.898C143.123 258.756 143.241 258.613 143.362 258.466C144.536 257.068 145.83 255.898 147.174 254.722C147.888 254.096 148.58 253.444 149.269 252.782C149.158 252.671 149.048 252.561 148.934 252.447C148.598 252.017 148.598 252.017 148.598 251.252C148.466 251.27 148.334 251.288 148.198 251.306C146.734 251.49 145.288 251.552 143.815 251.559C143.454 251.562 143.454 251.562 143.085 251.564C142.304 251.569 141.523 251.57 140.741 251.571C140.474 251.571 140.206 251.572 139.931 251.572C136.384 251.571 132.856 251.485 129.319 251.173C129.145 251.158 128.97 251.143 128.79 251.127C124.99 250.791 121.306 250.193 117.674 248.847C117.525 248.793 117.375 248.738 117.222 248.683C112.21 246.858 107.254 244.695 102.519 242.077C102.367 241.993 102.215 241.909 102.059 241.823C97.4862 239.259 94.0203 235.683 90.8875 231.118C90.7419 230.918 90.5963 230.718 90.4462 230.513C87.8484 226.935 85.9062 223.183 84.7691 218.704C84.5623 217.894 84.3681 217.299 83.9533 216.59C83.8939 215.929 83.8939 215.929 83.8974 215.189C83.8956 214.822 83.8956 214.822 83.8939 214.448C83.9533 213.787 83.9533 213.787 84.4007 213.022C84.548 212.349 84.681 211.679 84.8061 210.999C85.4948 207.515 86.6907 204.574 88.7544 201.844C90.2285 199.869 90.8554 198.174 91.271 195.642C91.43 194.68 91.6168 193.725 91.8006 192.769C91.8363 192.579 91.8721 192.391 91.9089 192.196C92.403 189.623 93.1897 187.186 94.0191 184.732C94.1146 184.444 94.2102 184.155 94.3086 183.858C95.4826 180.317 96.7026 176.857 98.2691 173.518C98.4051 173.205 98.5402 172.891 98.6745 172.576C99.8277 169.923 101.33 167.653 102.966 165.362C103.138 165.12 103.138 165.12 103.313 164.873C107.193 159.426 112.111 155.021 117.73 152.109C116.182 149.107 114.311 146.386 111.914 144.209C111.67 143.979 111.427 143.75 111.183 143.521C108.025 140.524 108.025 140.524 104.532 138.092C104.486 138.256 104.439 138.42 104.391 138.589C103.96 139.685 103.371 140.627 102.771 141.612C102.641 141.826 102.512 142.039 102.379 142.259C100.399 145.507 98.3103 148.617 96.0322 151.6C95.8849 151.793 95.7375 151.987 95.5857 152.186C95.3327 152.517 95.0785 152.846 94.8229 153.175C94.5806 153.49 94.3431 153.81 94.1099 154.134C91.6844 157.459 88.2166 160.352 84.4007 161.03C81.0336 161.246 77.8453 160.733 75.1256 158.228C74.1293 157.14 73.5235 156.266 73.365 154.663C73.3157 150.052 75.7752 146.845 78.4381 143.65C78.9911 142.984 79.5228 142.302 80.0528 141.612C80.8815 140.561 81.7612 139.614 82.6942 138.684C83.0908 138.285 83.4805 137.876 83.8633 137.46C85.7354 135.429 87.7749 133.694 89.8578 131.954C90.4265 131.477 90.9913 130.994 91.5551 130.509C97.7449 125.203 104.7 120.974 111.827 127.192ZM207.203 256.859C207.711 258.672 208.316 260.42 208.951 262.18C209.911 264.872 210.736 267.58 211.453 270.367C211.675 270.241 211.675 270.241 211.901 270.112C212.009 269.66 212.099 269.202 212.18 268.743C212.703 266.227 213.768 264.371 215.256 262.466C215.087 262.371 215.087 262.371 214.915 262.273C212.411 260.839 210.11 259.294 207.874 257.369C207.653 257.201 207.431 257.033 207.203 256.859Z" fill="#4A2013"/>
<mask id="mask0_0_1" style="mask-type:luminance" maskUnits="userSpaceOnUse" x="73" y="124" width="257" height="187">
<path d="M111.827 127.192C112.783 128.065 113.694 128.994 114.598 129.936C114.758 130.102 114.918 130.269 115.083 130.44C115.589 130.971 116.094 131.504 116.597 132.039C116.831 132.287 116.831 132.287 117.07 132.54C118.103 133.651 119.046 134.82 119.966 136.053C120.173 136.322 120.38 136.591 120.587 136.86C122.845 139.847 124.665 143.041 126.389 146.449C126.923 147.493 127.471 148.526 128.019 149.561C128.173 149.553 128.326 149.545 128.485 149.537C134.737 149.23 140.753 149.091 146.92 150.483C147.757 150.634 147.757 150.635 148.598 150.58C149.045 150.063 149.045 150.063 149.404 149.35C149.549 149.089 149.694 148.829 149.844 148.56C149.996 148.281 150.147 148.001 150.304 147.713C151.615 145.383 152.921 143.367 154.637 141.405C154.958 141.01 155.275 140.612 155.592 140.213C157.148 138.251 158.714 136.428 160.547 134.798C161.329 134.081 162.063 133.309 162.798 132.53C165.512 129.859 168.916 128.005 172.532 128.2C176.33 128.619 179.551 130.691 182.454 133.417C182.843 133.779 183.238 134.131 183.635 134.482C184.896 135.595 186.136 136.721 187.325 137.934C188.289 138.887 189.316 139.761 190.343 140.625C190.805 141.082 191.17 141.529 191.564 142.059C192.64 143.472 193.817 144.763 194.994 146.066C195.921 147.107 196.752 148.151 197.512 149.356C197.937 150.015 198.42 150.609 198.899 151.217C200.693 153.583 202.1 156.528 202.073 159.692C202.071 159.99 202.068 160.288 202.066 160.596C202.063 160.937 202.063 160.937 202.059 161.285C201.911 161.285 201.763 161.285 201.611 161.285C201.59 161.474 201.569 161.663 201.547 161.858C201.224 163.276 200.127 164.193 199.092 164.985C196.352 166.693 192.965 167.205 189.957 166.257C186.271 164.978 183.489 162.322 181.032 158.991C180.784 158.656 180.784 158.656 180.531 158.314C178.818 155.964 177.23 153.521 175.706 151.01C175.553 150.759 175.553 150.759 175.397 150.502C174.851 149.596 174.352 148.679 173.882 147.72C173.453 146.88 172.969 146.08 172.49 145.276C171.44 143.505 171.44 143.504 171.19 142.934C170.369 143.096 169.831 143.502 169.153 144.043C168.823 144.306 168.823 144.306 168.486 144.574C168.257 144.758 168.029 144.943 167.793 145.132C167.568 145.311 167.344 145.489 167.113 145.673C163.998 148.162 161.117 150.818 158.664 154.148C159.28 154.617 159.885 154.942 160.564 155.272C164.237 157.063 167.98 159.062 171.19 161.794C171.364 161.942 171.537 162.089 171.716 162.241C173.117 163.435 174.505 164.649 175.887 165.872C176.022 165.991 176.157 166.11 176.296 166.232C178.866 168.504 181.039 171.12 183.045 174.028C183.24 174.297 183.435 174.567 183.63 174.835C188.861 182.114 188.861 182.114 188.861 184.732C189.126 184.72 189.392 184.709 189.665 184.696C195.095 184.527 200.416 186.63 204.511 190.801C204.953 191.164 204.953 191.164 205.476 191.041C206.164 190.824 206.716 190.507 207.342 190.115C207.586 189.965 207.829 189.816 208.08 189.661C208.34 189.501 208.6 189.341 208.867 189.176C212.845 186.769 216.851 185.153 221.263 184.11C221.756 183.982 221.756 183.982 222.234 183.701C223.128 183.354 223.971 183.38 224.909 183.381C225.21 183.38 225.21 183.38 225.518 183.378C225.944 183.376 226.371 183.376 226.797 183.377C227.432 183.378 228.067 183.372 228.702 183.366C234.81 183.341 240.577 184.357 245.453 188.81C245.645 188.712 245.645 188.712 245.84 188.613C261.395 180.708 279.69 175.794 296.218 182.915C299.415 184.353 302.266 186.09 304.953 188.555C305.157 188.739 305.362 188.923 305.572 189.112C306.925 190.348 308.207 191.657 309.477 193.001C309.984 193.533 310.497 194.05 311.021 194.561C313.938 197.464 315.939 200.722 317.846 204.518C318.155 205.131 318.471 205.74 318.788 206.348C321.731 212.043 323.999 217.921 325.93 224.134C326.322 225.377 326.738 226.609 327.168 227.837C327.239 228.04 327.31 228.243 327.383 228.453C327.884 229.863 328.464 231.185 329.148 232.493C329.461 233.605 329.097 234.442 328.668 235.464C328.407 236.035 328.133 236.596 327.853 237.155C327.753 237.356 327.653 237.558 327.55 237.765C326.199 240.461 324.742 242.887 322.848 245.136C322.678 245.345 322.508 245.555 322.333 245.771C319.539 249.116 316.113 251.171 312.559 253.291C312.259 253.474 311.959 253.657 311.659 253.84C306.624 256.862 301.167 258.895 295.782 260.937C295.782 261.843 295.987 262.225 296.363 263.018C296.486 263.281 296.61 263.544 296.736 263.815C296.869 264.096 297.002 264.376 297.138 264.665C297.963 266.416 298.745 268.126 299.318 270.005C299.806 271.658 299.806 271.658 300.852 272.89C301.539 273.208 302.229 273.44 302.94 273.681C305.481 275.093 307.874 276.988 308.98 280.052C309.863 283.553 309.248 287.501 307.775 290.656C307.457 291.232 307.118 291.757 306.743 292.286C306.609 292.479 306.476 292.672 306.338 292.871C303.252 297.088 298.706 298.516 294.082 299.086C289.522 299.505 285.183 299.268 281.318 296.136C279.856 294.635 279.341 292.261 279.181 290.098C279.036 285.306 281.24 281.912 283.927 278.523C284.077 278.328 284.226 278.133 284.38 277.933C286.03 275.902 288.238 274.593 290.414 273.426C290.071 272.073 289.535 270.918 288.932 269.698C288.833 269.498 288.735 269.297 288.634 269.09C287.805 267.42 286.908 265.821 285.94 264.251C285.662 264.306 285.383 264.361 285.096 264.418C282 264.971 278.946 265.1 275.818 265.111C275.524 265.114 275.524 265.114 275.224 265.116C271.217 265.148 267.4 264.498 263.502 263.47C263.12 263.372 263.12 263.372 262.73 263.272C261.508 262.957 260.298 262.624 259.098 262.212C259.199 262.407 259.299 262.603 259.403 262.804C260.344 264.653 261.252 266.52 262.132 268.408C262.238 268.635 262.344 268.862 262.454 269.096C263.039 270.369 263.524 271.63 263.941 272.986C264.446 274.682 264.446 274.682 265.511 275.952C266.199 276.267 266.889 276.499 267.598 276.739C270.138 278.151 272.532 280.046 273.637 283.111C274.521 286.612 273.906 290.56 272.433 293.714C272.115 294.291 271.776 294.815 271.401 295.344C271.267 295.537 271.134 295.731 270.996 295.93C267.91 300.146 263.364 301.575 258.74 302.144C254.18 302.564 249.841 302.326 245.976 299.194C244.514 297.693 243.999 295.32 243.839 293.156C243.694 288.365 245.897 284.971 248.585 281.581C248.734 281.387 248.884 281.192 249.038 280.991C250.688 278.961 252.895 277.651 255.072 276.484C253.79 271.52 250.514 266.727 247.718 262.737C247.607 262.576 247.495 262.415 247.38 262.249C246.555 261.106 245.624 260.25 244.559 259.408C244.404 259.593 244.25 259.777 244.091 259.968C242.849 261.431 241.639 262.705 240.085 263.741C240.206 263.966 240.328 264.191 240.453 264.423C241.942 267.243 242.987 269.945 242.441 273.306C241.945 275.486 240.894 277.292 239.414 278.778C239.249 278.948 239.249 278.948 239.08 279.122C234.562 283.4 228.249 283.977 222.637 283.62C219.162 283.178 216.125 281.337 213.69 278.523C213.542 278.355 213.395 278.187 213.243 278.013C213.317 279.948 213.39 281.882 213.466 283.875C214.165 284.246 214.165 284.246 214.878 284.624C218.457 286.631 221.264 290.032 222.637 294.325C223.275 296.506 223.076 299.489 222.273 301.576C220.466 305.402 217.443 307.661 213.914 309.107C212.877 309.439 211.846 309.686 210.782 309.872C210.519 309.918 210.256 309.965 209.985 310.013C205.305 310.652 199.703 310.61 195.725 307.355C195.446 307.095 195.171 306.83 194.901 306.558C194.765 306.425 194.63 306.292 194.491 306.154C192.657 304.215 191.575 301.863 191.448 299.008C191.52 294.895 193.907 291.336 196.373 288.551C198.219 286.556 200.455 285.353 202.73 284.13C202.736 283.243 202.74 282.357 202.744 281.47C202.745 281.222 202.747 280.973 202.749 280.718C202.754 279.199 202.68 277.735 202.506 276.229C202.387 276.429 202.267 276.629 202.144 276.836C199.218 281.538 194.752 283.29 189.932 284.277C184.992 284.905 180.019 284.504 175.914 281.037C173.839 279.015 172.479 276.742 172.246 273.598C172.172 270.422 172.696 267.008 174.665 264.594C174.993 264.219 175.328 263.852 175.664 263.486C175.492 263.469 175.32 263.453 175.143 263.436C169.688 262.896 164.415 261.93 159.377 259.339C158.792 259.117 158.569 259.186 157.993 259.408C157.48 259.862 156.995 260.319 156.511 260.81C156.372 260.948 156.233 261.086 156.09 261.229C155.679 261.639 155.27 262.052 154.861 262.466C154.655 262.675 154.449 262.884 154.237 263.099C153.874 263.47 153.512 263.842 153.151 264.216C152.795 264.584 152.437 264.95 152.076 265.313C150.042 267.369 148.118 269.529 146.361 271.896C146.163 272.157 145.965 272.418 145.766 272.678C144.597 274.221 143.496 275.76 142.559 277.504C142.686 277.564 142.813 277.625 142.944 277.688C145.083 279.055 146.215 281.829 146.878 284.401C147.289 287.079 147.022 289.415 145.718 291.728C145.172 292.598 144.608 293.36 143.901 294.07C143.735 294.24 143.735 294.24 143.567 294.414C139.072 298.671 132.715 299.321 127.124 298.912C123.623 298.437 120.535 296.841 118.106 293.877C116.351 291.213 116.001 288.654 116.164 285.404C116.575 282.158 117.88 279.253 120.19 277.249C122.868 275.327 126.529 273.48 129.738 274.093C130.695 274.248 131.583 274.375 132.493 273.935C133.562 272.776 134.195 271.179 134.877 269.709C135.572 268.28 136.502 267.036 137.414 265.78C137.522 265.63 137.631 265.481 137.743 265.327C139.057 263.528 140.402 261.793 141.887 260.173C142.072 259.962 142.257 259.752 142.447 259.536C142.631 259.325 142.816 259.115 143.006 258.898C143.123 258.756 143.241 258.613 143.362 258.466C144.536 257.068 145.83 255.898 147.174 254.722C147.888 254.096 148.58 253.444 149.269 252.782C149.158 252.671 149.048 252.561 148.934 252.447C148.598 252.017 148.598 252.017 148.598 251.252C148.466 251.27 148.334 251.288 148.198 251.306C146.734 251.49 145.288 251.552 143.815 251.559C143.454 251.562 143.454 251.562 143.085 251.564C142.304 251.569 141.523 251.57 140.741 251.571C140.474 251.571 140.206 251.572 139.931 251.572C136.384 251.571 132.856 251.485 129.319 251.173C129.145 251.158 128.97 251.143 128.79 251.127C124.99 250.791 121.306 250.193 117.674 248.847C117.525 248.793 117.375 248.738 117.222 248.683C112.21 246.858 107.254 244.695 102.519 242.077C102.367 241.993 102.215 241.909 102.059 241.823C97.4862 239.259 94.0203 235.683 90.8875 231.118C90.7419 230.918 90.5963 230.718 90.4462 230.513C87.8484 226.935 85.9062 223.183 84.7691 218.704C84.5623 217.894 84.3681 217.299 83.9533 216.59C83.8939 215.929 83.8939 215.929 83.8974 215.189C83.8956 214.822 83.8956 214.822 83.8939 214.448C83.9533 213.787 83.9533 213.787 84.4007 213.022C84.548 212.349 84.681 211.679 84.8061 210.999C85.4948 207.515 86.6907 204.574 88.7544 201.844C90.2285 199.869 90.8554 198.174 91.271 195.642C91.43 194.68 91.6168 193.725 91.8006 192.769C91.8363 192.579 91.8721 192.391 91.9089 192.196C92.403 189.623 93.1897 187.186 94.0191 184.732C94.1146 184.444 94.2102 184.155 94.3086 183.858C95.4826 180.317 96.7026 176.857 98.2691 173.518C98.4051 173.205 98.5402 172.891 98.6745 172.576C99.8277 169.923 101.33 167.653 102.966 165.362C103.138 165.12 103.138 165.12 103.313 164.873C107.193 159.426 112.111 155.021 117.73 152.109C116.182 149.107 114.311 146.386 111.914 144.209C111.67 143.979 111.427 143.75 111.183 143.521C108.025 140.524 108.025 140.524 104.532 138.092C104.486 138.256 104.439 138.42 104.391 138.589C103.96 139.685 103.371 140.627 102.771 141.612C102.641 141.826 102.512 142.039 102.379 142.259C100.399 145.507 98.3103 148.617 96.0322 151.6C95.8849 151.793 95.7375 151.987 95.5857 152.186C95.3327 152.517 95.0785 152.846 94.8229 153.175C94.5806 153.49 94.3431 153.81 94.1099 154.134C91.6844 157.459 88.2166 160.352 84.4007 161.03C81.0336 161.246 77.8453 160.733 75.1256 158.228C74.1293 157.14 73.5235 156.266 73.365 154.663C73.3157 150.052 75.7752 146.845 78.4381 143.65C78.9911 142.984 79.5228 142.302 80.0528 141.612C80.8815 140.561 81.7612 139.614 82.6942 138.684C83.0908 138.285 83.4805 137.876 83.8633 137.46C85.7354 135.429 87.7749 133.694 89.8578 131.954C90.4265 131.477 90.9913 130.994 91.5551 130.509C97.7449 125.203 104.7 120.974 111.827 127.192ZM207.203 256.859C207.711 258.672 208.316 260.42 208.951 262.18C209.911 264.872 210.736 267.58 211.453 270.367C211.675 270.241 211.675 270.241 211.901 270.112C212.009 269.66 212.099 269.202 212.18 268.743C212.703 266.227 213.768 264.371 215.256 262.466C215.087 262.371 215.087 262.371 214.915 262.273C212.411 260.839 210.11 259.294 207.874 257.369C207.653 257.201 207.431 257.033 207.203 256.859Z" fill="white"/>
</mask>
<g mask="url(#mask0_0_1)">
<path d="M111.827 127.192C112.783 128.065 113.694 128.994 114.598 129.936C114.758 130.102 114.918 130.269 115.083 130.44C115.589 130.971 116.094 131.504 116.597 132.039C116.831 132.287 116.831 132.287 117.07 132.54C118.103 133.651 119.046 134.82 119.966 136.053C120.173 136.322 120.38 136.591 120.587 136.86C122.845 139.847 124.665 143.041 126.389 146.449C126.923 147.493 127.471 148.526 128.019 149.561C128.173 149.553 128.326 149.545 128.485 149.537C134.737 149.23 140.753 149.091 146.92 150.483C147.757 150.634 147.757 150.635 148.598 150.58C149.045 150.063 149.045 150.063 149.404 149.35C149.549 149.089 149.694 148.829 149.844 148.56C149.996 148.281 150.147 148.001 150.304 147.713C151.615 145.383 152.921 143.367 154.637 141.405C154.958 141.011 155.275 140.612 155.592 140.213C157.148 138.251 158.714 136.428 160.547 134.798C161.329 134.081 162.063 133.309 162.798 132.53C165.512 129.859 168.916 128.005 172.532 128.2C176.33 128.619 179.551 130.691 182.454 133.417C182.843 133.779 183.238 134.131 183.635 134.482C184.896 135.596 186.136 136.721 187.325 137.934C188.289 138.887 189.316 139.761 190.343 140.625C190.805 141.082 191.17 141.529 191.564 142.059C192.64 143.472 193.817 144.763 194.994 146.066C195.921 147.107 196.752 148.151 197.512 149.356C197.937 150.015 198.42 150.609 198.899 151.217C200.693 153.583 202.1 156.528 202.073 159.692C202.071 159.99 202.068 160.288 202.066 160.596C202.063 160.937 202.063 160.937 202.059 161.285C201.911 161.285 201.763 161.285 201.611 161.285C201.59 161.474 201.569 161.663 201.547 161.858C201.224 163.276 200.127 164.193 199.092 164.985C196.352 166.693 192.965 167.205 189.957 166.257C186.271 164.978 183.489 162.322 181.032 158.991C180.784 158.656 180.784 158.656 180.531 158.314C178.818 155.964 177.23 153.521 175.706 151.01C175.553 150.759 175.553 150.759 175.397 150.502C174.851 149.596 174.352 148.679 173.882 147.72C173.453 146.88 172.969 146.08 172.49 145.276C171.44 143.505 171.44 143.505 171.19 142.934C170.369 143.096 169.831 143.502 169.153 144.043C168.823 144.306 168.823 144.306 168.486 144.574C168.257 144.758 168.029 144.943 167.793 145.132C167.568 145.311 167.344 145.489 167.113 145.673C163.998 148.162 161.117 150.818 158.664 154.148C159.28 154.617 159.885 154.942 160.564 155.272C164.237 157.063 167.98 159.062 171.19 161.794C171.364 161.942 171.537 162.089 171.716 162.241C173.117 163.435 174.505 164.649 175.887 165.872C176.022 165.991 176.157 166.11 176.296 166.232C178.866 168.504 181.039 171.12 183.045 174.028C183.24 174.297 183.435 174.567 183.63 174.835C188.861 182.114 188.861 182.114 188.861 184.732C189.126 184.72 189.392 184.709 189.665 184.696C195.095 184.527 200.416 186.63 204.511 190.801C204.953 191.164 204.953 191.164 205.476 191.041C206.164 190.824 206.716 190.508 207.342 190.115C207.586 189.966 207.829 189.816 208.08 189.661C208.34 189.501 208.6 189.341 208.867 189.176C212.845 186.769 216.851 185.153 221.263 184.11C221.756 183.982 221.756 183.982 222.234 183.701C223.128 183.354 223.971 183.38 224.909 183.381C225.21 183.38 225.21 183.38 225.518 183.378C225.944 183.376 226.371 183.376 226.797 183.377C227.432 183.378 228.067 183.372 228.702 183.366C234.81 183.341 240.577 184.357 245.453 188.81C245.645 188.712 245.645 188.712 245.84 188.613C261.395 180.708 279.69 175.794 296.218 182.915C299.415 184.353 302.266 186.09 304.953 188.555C305.157 188.739 305.362 188.923 305.572 189.112C306.925 190.348 308.207 191.657 309.477 193.001C309.984 193.533 310.497 194.05 311.021 194.561C313.938 197.464 315.939 200.722 317.846 204.518C318.155 205.131 318.471 205.74 318.788 206.348C321.731 212.043 323.999 217.921 325.93 224.134C326.322 225.377 326.738 226.609 327.168 227.837C327.239 228.04 327.31 228.243 327.383 228.453C327.884 229.863 328.464 231.185 329.148 232.493C329.461 233.605 329.097 234.442 328.668 235.464C328.407 236.035 328.133 236.596 327.853 237.155C327.753 237.356 327.653 237.558 327.55 237.765C326.199 240.461 324.742 242.887 322.848 245.136C322.678 245.345 322.508 245.555 322.333 245.771C319.539 249.116 316.113 251.171 312.559 253.291C312.259 253.474 311.959 253.657 311.659 253.84C306.624 256.862 301.167 258.895 295.782 260.937C295.782 261.843 295.987 262.225 296.363 263.018C296.486 263.281 296.61 263.544 296.736 263.815C296.869 264.096 297.002 264.376 297.138 264.665C297.963 266.416 298.745 268.126 299.318 270.005C299.806 271.658 299.806 271.658 300.852 272.89C301.539 273.208 302.229 273.44 302.94 273.681C305.481 275.093 307.874 276.988 308.98 280.052C309.863 283.553 309.248 287.501 307.775 290.656C307.457 291.232 307.118 291.757 306.743 292.286C306.609 292.479 306.476 292.672 306.338 292.871C303.252 297.088 298.706 298.516 294.082 299.086C289.522 299.505 285.183 299.268 281.318 296.136C279.856 294.635 279.341 292.261 279.181 290.098C279.036 285.306 281.24 281.912 283.927 278.523C284.077 278.328 284.226 278.133 284.38 277.933C286.03 275.902 288.238 274.593 290.414 273.426C290.071 272.073 289.535 270.918 288.932 269.698C288.833 269.498 288.735 269.297 288.634 269.09C287.805 267.42 286.908 265.821 285.94 264.251C285.662 264.306 285.383 264.361 285.096 264.418C282 264.971 278.946 265.1 275.818 265.111C275.524 265.114 275.524 265.114 275.224 265.116C271.217 265.148 267.4 264.498 263.502 263.47C263.12 263.372 263.12 263.372 262.73 263.272C261.508 262.957 260.298 262.624 259.098 262.212C259.199 262.407 259.299 262.603 259.403 262.804C260.344 264.653 261.252 266.52 262.132 268.408C262.238 268.635 262.344 268.862 262.454 269.096C263.039 270.369 263.524 271.63 263.941 272.986C264.446 274.682 264.446 274.682 265.511 275.952C266.199 276.267 266.889 276.499 267.598 276.739C270.138 278.151 272.532 280.046 273.637 283.111C274.521 286.612 273.906 290.56 272.433 293.714C272.115 294.291 271.776 294.815 271.401 295.344C271.267 295.537 271.134 295.731 270.996 295.93C267.91 300.146 263.364 301.575 258.74 302.144C254.18 302.564 249.841 302.326 245.976 299.194C244.514 297.693 243.999 295.32 243.839 293.156C243.694 288.365 245.897 284.971 248.585 281.581C248.734 281.387 248.884 281.192 249.038 280.991C250.688 278.961 252.895 277.651 255.072 276.484C253.79 271.52 250.514 266.727 247.718 262.737C247.607 262.576 247.495 262.415 247.38 262.249C246.555 261.106 245.624 260.25 244.559 259.408C244.404 259.593 244.25 259.777 244.091 259.968C242.849 261.431 241.639 262.705 240.085 263.741C240.206 263.966 240.328 264.191 240.453 264.423C241.942 267.243 242.987 269.945 242.441 273.306C241.945 275.486 240.894 277.292 239.414 278.778C239.249 278.948 239.249 278.948 239.08 279.122C234.562 283.4 228.249 283.977 222.637 283.62C219.162 283.178 216.125 281.337 213.69 278.523C213.542 278.355 213.395 278.187 213.243 278.013C213.317 279.948 213.39 281.882 213.466 283.875C214.165 284.246 214.165 284.246 214.878 284.624C218.457 286.631 221.264 290.032 222.637 294.325C223.275 296.506 223.076 299.489 222.273 301.576C220.466 305.402 217.443 307.661 213.914 309.107C212.877 309.439 211.846 309.686 210.782 309.872C210.519 309.918 210.256 309.965 209.985 310.013C205.305 310.652 199.703 310.61 195.725 307.355C195.446 307.095 195.171 306.83 194.901 306.558C194.765 306.425 194.63 306.292 194.491 306.154C192.657 304.215 191.575 301.863 191.448 299.008C191.52 294.895 193.907 291.336 196.373 288.551C198.219 286.556 200.455 285.353 202.73 284.13C202.736 283.243 202.74 282.357 202.744 281.47C202.745 281.222 202.747 280.973 202.749 280.718C202.754 279.199 202.68 277.735 202.506 276.229C202.387 276.429 202.267 276.629 202.144 276.836C199.218 281.538 194.752 283.29 189.932 284.277C184.992 284.905 180.019 284.504 175.914 281.037C173.839 279.015 172.479 276.742 172.246 273.598C172.172 270.422 172.696 267.008 174.665 264.594C174.993 264.219 175.328 263.852 175.664 263.486C175.492 263.469 175.32 263.453 175.143 263.436C169.688 262.896 164.415 261.93 159.377 259.339C158.792 259.117 158.569 259.186 157.993 259.408C157.48 259.862 156.995 260.319 156.511 260.81C156.372 260.948 156.233 261.086 156.09 261.229C155.679 261.639 155.27 262.052 154.861 262.466C154.655 262.675 154.449 262.884 154.237 263.099C153.874 263.47 153.512 263.842 153.151 264.216C152.795 264.584 152.437 264.95 152.076 265.313C150.042 267.369 148.118 269.529 146.361 271.896C146.163 272.157 145.965 272.418 145.766 272.678C144.597 274.221 143.496 275.76 142.559 277.504C142.686 277.564 142.813 277.625 142.944 277.688C145.083 279.055 146.215 281.829 146.878 284.401C147.289 287.079 147.022 289.415 145.718 291.728C145.172 292.598 144.608 293.36 143.901 294.07C143.735 294.24 143.735 294.24 143.567 294.414C139.072 298.671 132.715 299.321 127.124 298.912C123.623 298.437 120.535 296.841 118.106 293.877C116.351 291.213 116.001 288.654 116.164 285.404C116.575 282.158 117.88 279.253 120.19 277.249C122.868 275.327 126.529 273.48 129.738 274.093C130.695 274.248 131.583 274.375 132.493 273.935C133.562 272.776 134.195 271.179 134.877 269.709C135.572 268.28 136.502 267.036 137.414 265.78C137.522 265.63 137.631 265.481 137.743 265.327C139.057 263.528 140.402 261.793 141.887 260.173C142.072 259.962 142.257 259.752 142.447 259.536C142.631 259.325 142.816 259.115 143.006 258.898C143.123 258.756 143.241 258.613 143.362 258.466C144.536 257.068 145.83 255.898 147.174 254.722C147.888 254.096 148.58 253.444 149.269 252.782C149.158 252.671 149.048 252.561 148.934 252.447C148.598 252.017 148.598 252.017 148.598 251.252C148.466 251.27 148.334 251.288 148.198 251.306C146.734 251.49 145.288 251.552 143.815 251.559C143.454 251.562 143.454 251.562 143.085 251.564C142.304 251.569 141.523 251.57 140.741 251.571C140.474 251.571 140.206 251.572 139.931 251.572C136.384 251.571 132.856 251.485 129.319 251.173C129.145 251.158 128.97 251.143 128.79 251.127C124.99 250.791 121.306 250.193 117.674 248.847C117.525 248.793 117.375 248.738 117.222 248.683C112.21 246.858 107.254 244.695 102.519 242.077C102.367 241.993 102.215 241.909 102.059 241.823C97.4862 239.259 94.0203 235.683 90.8875 231.118C90.7419 230.918 90.5963 230.718 90.4462 230.513C87.8484 226.935 85.9062 223.183 84.7691 218.704C84.5623 217.894 84.3681 217.299 83.9533 216.59C83.8939 215.929 83.8939 215.929 83.8974 215.189C83.8956 214.822 83.8956 214.822 83.8939 214.448C83.9533 213.787 83.9533 213.787 84.4007 213.022C84.548 212.348 84.681 211.679 84.8061 210.999C85.4948 207.515 86.6907 204.574 88.7544 201.844C90.2285 199.87 90.8554 198.174 91.271 195.642C91.43 194.68 91.6168 193.725 91.8006 192.769C91.8363 192.58 91.8721 192.391 91.9089 192.196C92.403 189.623 93.1897 187.186 94.0191 184.732C94.1146 184.444 94.2102 184.155 94.3086 183.858C95.4826 180.317 96.7026 176.857 98.2691 173.518C98.4051 173.205 98.5402 172.891 98.6745 172.576C99.8277 169.923 101.33 167.654 102.966 165.362C103.138 165.12 103.138 165.12 103.313 164.873C107.193 159.426 112.111 155.021 117.73 152.109C116.182 149.107 114.311 146.386 111.914 144.209C111.67 143.979 111.427 143.75 111.183 143.521C108.025 140.524 108.025 140.524 104.532 138.092C104.486 138.256 104.439 138.42 104.391 138.589C103.96 139.685 103.371 140.627 102.771 141.612C102.641 141.826 102.512 142.039 102.379 142.259C100.399 145.506 98.3103 148.617 96.0322 151.6C95.8849 151.793 95.7375 151.987 95.5857 152.186C95.3327 152.517 95.0785 152.846 94.8229 153.175C94.5806 153.49 94.3431 153.81 94.1099 154.134C91.6844 157.459 88.2166 160.352 84.4007 161.03C81.0336 161.246 77.8453 160.733 75.1256 158.228C74.1293 157.14 73.5235 156.266 73.365 154.663C73.3157 150.052 75.7752 146.845 78.4381 143.65C78.9911 142.984 79.5228 142.302 80.0528 141.612C80.8815 140.561 81.7612 139.614 82.6942 138.684C83.0908 138.285 83.4805 137.876 83.8633 137.46C85.7354 135.429 87.7749 133.694 89.8578 131.954C90.4265 131.477 90.9913 130.994 91.5551 130.509C97.7449 125.203 104.7 120.974 111.827 127.192ZM207.203 256.859C207.711 258.672 208.316 260.42 208.951 262.18C209.911 264.872 210.736 267.58 211.453 270.367C211.675 270.241 211.675 270.241 211.901 270.112C212.009 269.66 212.099 269.202 212.18 268.743C212.703 266.227 213.768 264.371 215.256 262.466C215.087 262.371 215.087 262.371 214.915 262.273C212.411 260.839 210.11 259.294 207.874 257.369C207.653 257.201 207.431 257.033 207.203 256.859Z" stroke="#4A2013" stroke-width="20"/>
</g>
</g>
<path d="M136.183 153.575C136.339 153.574 136.494 153.574 136.654 153.574C140.127 153.573 143.414 154.125 146.808 154.913C146.568 155.881 146.255 156.63 145.774 157.462C144.99 158.987 145.146 160.591 145.242 162.304C145.39 162.304 145.538 162.304 145.69 162.304C146.027 162.676 146.027 162.676 146.389 163.164C146.509 163.324 146.63 163.484 146.754 163.648C147.032 164.088 147.032 164.088 147.032 164.598C148.918 165.404 151.07 165.624 153.071 165.362C153.719 164.813 153.925 164.181 154.19 163.324C154.337 163.324 154.485 163.324 154.637 163.324C154.674 163.079 154.674 163.079 154.711 162.829C154.934 161.445 155.231 160.263 155.756 158.991C155.829 158.738 155.903 158.486 155.979 158.226C158.534 158.42 160.895 160.247 163.145 161.542C163.605 161.806 164.066 162.067 164.527 162.328C167.083 163.786 169.35 165.719 171.637 167.656C171.85 167.836 171.85 167.836 172.068 168.02C175.153 170.647 178.028 173.582 180.361 177.086C180.544 177.348 180.727 177.609 180.916 177.879C183.439 181.495 185.557 185.533 186.864 189.922C187.093 190.665 187.358 191.383 187.631 192.107C188.416 194.236 189.077 196.369 189.435 198.646C189.498 199.046 189.569 199.445 189.65 199.841C191.232 207.735 191.093 219.126 187.354 226.145C185.882 228.801 184.067 231.164 182.15 233.412C181.979 233.613 181.808 233.815 181.631 234.023C179.625 236.231 177.106 237.8 174.554 239.043C174.109 239.268 173.685 239.518 173.259 239.783C172.263 240.362 171.215 240.685 170.146 241.042C169.454 241.293 168.817 241.593 168.156 241.934C166.423 242.786 164.597 243.216 162.768 243.714C162.061 243.912 161.362 244.138 160.663 244.371C159.431 244.779 158.197 245.171 156.958 245.55C156.706 245.629 156.706 245.629 156.448 245.709C145.708 248.964 129.089 249.01 118.613 244.551C117.972 244.286 117.32 244.066 116.667 243.845C114.368 243.049 112.121 242.098 109.9 241.058C109.718 240.976 109.535 240.894 109.347 240.81C103.154 237.977 98.4033 234.844 94.2424 228.824C94.0396 228.539 93.8366 228.255 93.6333 227.971C92.2682 226.048 91.0682 224.096 89.9924 221.943C89.8793 221.723 89.7663 221.503 89.6498 221.277C88.1939 218.253 88.0058 214.245 88.5725 210.882C89.3617 207.941 90.8789 205.502 92.6372 203.214C93.8511 201.58 94.2168 199.796 94.6058 197.73C94.8897 196.228 94.8897 196.228 95.1371 195.946C95.2103 195.486 95.2738 195.024 95.3328 194.561C95.5786 192.814 95.9348 191.173 96.5587 189.551C97.0379 188.296 97.4071 186.998 97.7933 185.704C98.928 181.952 100.271 178.332 101.848 174.792C101.995 174.792 102.143 174.792 102.295 174.792C102.319 174.608 102.342 174.424 102.367 174.234C103.65 168.19 110.688 161.774 115.04 158.676C115.923 158.074 116.82 157.503 117.729 156.952C117.893 156.85 118.057 156.749 118.226 156.644C118.746 156.38 119.18 156.407 119.742 156.442C120.347 157.682 120.698 158.955 121.049 160.315C121.342 161.124 121.584 161.529 122.203 162.049C124.256 162.457 126.352 161.905 128.228 160.95C128.825 160.393 129.169 159.725 129.584 158.991C129.732 158.991 129.88 158.991 130.032 158.991C130.044 158.47 130.053 157.95 130.06 157.43C130.065 157.14 130.07 156.85 130.076 156.552C130.031 155.663 129.865 154.975 129.584 154.148C130.664 152.918 134.69 153.577 136.183 153.575Z" fill="#956346"/>
<path d="M285.493 184.222C285.567 184.306 285.64 184.391 285.716 184.477C286.233 184.542 286.751 184.598 287.268 184.652C289.241 184.896 291.007 185.575 292.866 186.338C293.485 186.58 294.115 186.759 294.748 186.946C298.218 188.163 301.194 190.601 303.903 193.282C304.423 193.79 304.961 194.269 305.498 194.752C306.611 195.79 307.664 196.897 308.714 198.017C308.875 198.188 309.035 198.358 309.201 198.534C309.655 199.024 310.102 199.521 310.545 200.024C310.672 200.163 310.798 200.302 310.929 200.445C311.972 201.687 312.337 203.054 312.726 204.691C312.826 205.101 312.826 205.101 312.927 205.519C314.036 210.261 313.969 214.949 313.907 219.829C313.9 220.438 313.896 221.048 313.891 221.657C313.819 230.982 313.819 230.982 312.902 235.144C312.779 235.718 312.677 236.293 312.579 236.873C312.126 239.514 311.426 241.989 310.549 244.486C310.39 244.939 310.234 245.394 310.079 245.849C309.83 246.58 309.574 247.308 309.315 248.034C309.238 248.26 309.162 248.486 309.083 248.719C308.43 250.502 307.646 251.301 306.114 252.082C305.92 252.155 305.726 252.228 305.526 252.303C305.315 252.386 305.104 252.468 304.886 252.552C304.687 252.628 304.487 252.703 304.282 252.781C303.353 253.159 302.45 253.565 301.556 254.04C300.495 254.588 299.402 254.953 298.287 255.329C297.649 255.557 297.042 255.817 296.425 256.11C295.27 256.658 294.086 257.022 292.874 257.369C292.768 257.212 292.663 257.054 292.554 256.892C291.62 255.529 290.643 254.285 289.557 253.078C288.832 252.254 288.166 251.379 287.506 250.487C287.326 250.246 287.146 250.004 286.961 249.755C286.611 249.213 286.611 249.213 286.611 248.703C286.431 248.621 286.431 248.621 286.247 248.537C285.526 248.07 284.979 247.429 284.388 246.776C282.164 244.389 279.677 242.641 277.014 240.963C276.837 240.85 276.66 240.737 276.478 240.62C276.319 240.52 276.159 240.42 275.995 240.317C275.824 240.179 275.824 240.179 275.651 240.038C275.651 239.87 275.651 239.702 275.651 239.528C275.471 239.502 275.291 239.476 275.105 239.449C274.294 239.27 273.554 239.003 272.776 238.692C271.11 238.057 269.077 237.802 267.409 238.533C266.357 239.284 265.481 240.178 265.137 241.567C264.91 243.355 265.016 244.881 265.881 246.42C266.557 247.32 267.369 247.876 268.269 248.449C268.528 248.622 268.528 248.622 268.792 248.798C269.977 249.575 271.191 250.193 272.463 250.763C276.007 252.385 281.367 255.641 283.48 259.408C283.48 259.66 283.48 259.912 283.48 260.172C281 260.81 278.516 260.794 275.986 260.794C275.651 260.794 275.651 260.794 275.31 260.794C271.583 260.788 268.094 260.441 264.466 259.408C264.243 259.346 264.019 259.285 263.789 259.222C261.651 258.629 259.548 257.925 257.476 257.082C257.254 256.994 257.254 256.994 257.027 256.905C256.452 256.657 256.023 256.418 255.598 255.906C255.47 254.971 255.92 254.306 256.33 253.53C257.795 250.701 258.531 247.564 259.368 244.441C259.544 243.785 259.721 243.129 259.898 242.474C262.061 234.66 262.061 234.66 263.268 226.609C263.348 225.765 263.348 225.765 263.572 225.001C263.906 217.941 263.246 211.318 261.505 204.528C261.361 203.95 261.233 203.374 261.114 202.789C260.842 201.609 260.476 200.501 260.077 199.371C259.998 199.149 259.92 198.927 259.839 198.698C258.852 195.957 257.624 193.395 256.241 190.887C255.945 190.297 255.728 189.7 255.519 189.065C258.612 186.807 263.372 185.836 266.99 185.349C267.618 185.256 267.618 185.256 268.28 185.001C273.533 183.229 280.083 183.534 285.493 184.222Z" fill="#6D432C"/>
<path d="M239.19 189.575C239.368 189.649 239.546 189.723 239.729 189.8C241.328 190.586 242.831 192.057 244.111 193.398C244.111 193.566 244.111 193.734 244.111 193.908C244.332 193.992 244.554 194.076 244.782 194.162C245.182 194.733 245.551 195.299 245.914 195.899C246.014 196.059 246.114 196.22 246.217 196.385C247.466 198.412 247.466 198.412 247.466 199.515C247.614 199.515 247.762 199.515 247.914 199.515C247.97 199.681 248.027 199.847 248.086 200.018C248.422 200.991 248.755 201.944 249.172 202.876C249.521 203.69 249.714 204.504 249.927 205.376C250.005 205.545 250.084 205.713 250.164 205.886C250.468 206.623 250.505 207.378 250.598 208.18C250.672 208.264 250.745 208.348 250.822 208.435C251.394 211.114 251.331 213.859 251.315 216.596C251.311 217.344 251.31 218.091 251.31 218.839C251.309 219.318 251.308 219.798 251.306 220.277C251.306 220.499 251.306 220.72 251.306 220.948C251.298 222.075 251.228 223.125 251.045 224.237C251.013 224.676 250.986 225.116 250.965 225.556C250.807 228.432 250.552 231.237 250.053 234.065C250.007 234.327 249.961 234.588 249.913 234.858C249.678 236.127 249.393 237.316 248.971 238.52C248.668 239.449 248.483 240.415 248.277 241.376C247.848 243.313 247.318 245.107 246.572 246.92C245.904 246.761 245.396 246.517 244.813 246.118C244.651 246.009 244.489 245.899 244.323 245.786C244.156 245.671 243.989 245.557 243.817 245.438C243.487 245.213 243.157 244.989 242.827 244.764C242.668 244.656 242.509 244.547 242.345 244.435C241.671 243.979 240.99 243.537 240.308 243.097C240.308 242.928 240.308 242.76 240.308 242.587C240.013 242.587 239.718 242.587 239.414 242.587C239.414 242.419 239.414 242.25 239.414 242.077C239.246 242.043 239.079 242.009 238.907 241.975C238.687 241.93 238.466 241.885 238.239 241.838C238.021 241.794 237.803 241.75 237.579 241.704C236.953 241.567 236.953 241.567 236.499 241.426C234.85 241.001 232.846 241.154 231.366 242.107C230.528 242.802 230.143 243.423 229.907 244.578C229.662 246.644 229.834 248.27 230.914 249.978C231.499 250.434 231.499 250.434 232.032 250.743C232.032 250.911 232.032 251.079 232.032 251.252C232.275 251.359 232.275 251.359 232.523 251.468C233.113 251.745 233.673 252.052 234.241 252.383C235.133 252.896 236.029 253.365 236.953 253.801C237.433 254.029 237.913 254.258 238.393 254.486C238.808 254.683 239.223 254.879 239.637 255.075C239.637 255.244 239.637 255.412 239.637 255.585C240.231 255.859 240.819 256.119 241.427 256.35C241.427 256.602 241.427 256.854 241.427 257.114C240.983 257.569 240.549 257.971 240.071 258.373C239.945 258.482 239.82 258.592 239.69 258.705C235.695 262.133 230.447 263.036 225.545 262.466C224.769 262.218 224.769 262.218 224.203 261.957C223.945 261.888 223.686 261.82 223.42 261.75C221.404 261.188 219.493 260.368 217.716 259.153C217.126 258.873 216.531 258.63 215.927 258.389C215.927 258.22 215.927 258.052 215.927 257.879C215.769 257.853 215.611 257.828 215.448 257.801C212.458 256.973 209.951 253.926 207.764 251.607C206.915 250.713 206.051 249.838 205.19 248.959C205.556 247.806 206.067 246.783 206.602 245.725C207.939 243.039 209.017 240.424 209.887 237.49C209.949 237.282 210.011 237.074 210.075 236.859C210.179 236.508 210.281 236.157 210.382 235.805C210.504 235.384 210.629 234.964 210.756 234.545C214.052 223.597 214.713 209.699 210.335 199.005C209.805 197.846 209.187 196.774 208.545 195.692C208.39 195.355 208.238 195.017 208.098 194.672C216.433 188.698 229.795 184.244 239.19 189.575Z" fill="#6D432C"/>
<path d="M190.427 189.065C192.807 188.961 194.787 189.37 196.914 190.594C197.118 190.708 197.118 190.708 197.326 190.824C202.131 193.521 206.247 197.093 208.157 203.033C209.499 207.603 209.747 212.272 209.747 217.053C209.748 217.863 209.756 218.673 209.764 219.483C209.778 222.453 209.577 224.979 208.769 227.804C208.683 228.26 208.603 228.716 208.531 229.174C208.366 230.182 208.11 231.117 207.811 232.082C207.65 232.65 207.542 233.208 207.441 233.794C207.256 234.803 206.945 235.67 206.557 236.599C206.307 237.237 206.106 237.878 205.908 238.54C203.726 245.438 199.238 252.578 193.335 255.84C192.492 256.242 191.639 256.557 190.763 256.85C190.193 257.042 189.663 257.249 189.113 257.495C188.152 257.914 187.181 258.176 186.177 258.42C186.008 258.463 185.839 258.506 185.665 258.551C183.412 259.111 181.22 259.214 178.921 259.217C178.759 259.217 178.597 259.217 178.43 259.218C169.799 259.214 160.29 256.858 153.295 250.742C154.017 250.194 154.421 250.114 155.267 249.978C156.227 249.822 157.075 249.567 157.993 249.213C158.703 248.999 159.418 248.805 160.132 248.608C161.646 248.184 163.14 247.724 164.626 247.182C165.379 246.918 166.135 246.68 166.896 246.447C168.329 246.005 169.728 245.555 171.096 244.888C171.759 244.567 172.431 244.279 173.105 243.988C181.071 240.489 187.901 234.413 191.577 225.424C193.088 221.38 193.592 216.999 193.596 212.642C193.597 212.37 193.598 212.098 193.598 211.818C193.6 211.246 193.6 210.674 193.6 210.102C193.601 209.235 193.605 208.368 193.609 207.502C193.609 206.943 193.61 206.383 193.61 205.824C193.613 205.442 193.613 205.442 193.615 205.052C193.604 200.961 192.624 197.015 191.545 193.143C191.423 192.681 191.302 192.219 191.182 191.757C190.945 190.853 190.695 189.957 190.427 189.065Z" fill="#916245"/>
<path d="M271.609 184.381C271.955 184.35 271.955 184.35 272.309 184.318C272.524 184.293 272.739 184.269 272.96 184.244C274.602 184.809 275.477 187.223 276.251 188.841C276.362 189.078 276.473 189.315 276.587 189.558C276.757 189.912 276.757 189.912 276.931 190.273C277.565 191.61 278.117 192.948 278.588 194.37C278.777 194.91 278.992 195.417 279.23 195.93C279.686 196.939 280.007 197.982 280.336 199.052C280.557 199.724 280.812 200.352 281.089 200.996C283.49 206.955 284.648 213.824 284.64 220.349C284.64 220.525 284.64 220.701 284.64 220.883C284.637 223.729 284.5 226.514 284.151 229.334C284.126 229.599 284.102 229.864 284.076 230.138C283.678 233.93 282.548 237.708 281.466 241.312C281.319 241.312 281.171 241.312 281.019 241.312C280.908 242.069 280.908 242.069 280.795 242.841C279.556 242.719 278.744 242.18 277.72 241.44C277.423 241.23 277.126 241.02 276.828 240.81C276.587 240.64 276.346 240.469 276.098 240.293C275.95 240.209 275.803 240.125 275.651 240.038C275.651 239.87 275.651 239.702 275.651 239.528C275.471 239.502 275.291 239.476 275.105 239.449C274.294 239.27 273.554 239.003 272.776 238.692C271.11 238.057 269.077 237.802 267.409 238.533C266.357 239.284 265.481 240.178 265.137 241.567C264.91 243.355 265.016 244.881 265.881 246.42C266.557 247.32 267.369 247.876 268.269 248.449C268.528 248.621 268.528 248.621 268.792 248.798C269.977 249.574 271.191 250.193 272.463 250.763C276.007 252.385 281.367 255.641 283.48 259.408C283.48 259.66 283.48 259.912 283.48 260.172C281 260.81 278.516 260.794 275.986 260.794C275.651 260.794 275.651 260.794 275.31 260.794C271.583 260.788 268.094 260.441 264.466 259.408C264.243 259.346 264.019 259.285 263.789 259.222C261.651 258.629 259.548 257.924 257.476 257.082C257.254 256.994 257.254 256.994 257.027 256.905C256.452 256.657 256.023 256.418 255.598 255.906C255.47 254.97 255.92 254.306 256.33 253.53C257.795 250.701 258.531 247.564 259.368 244.441C259.544 243.785 259.721 243.129 259.898 242.474C262.061 234.66 262.061 234.66 263.268 226.609C263.348 225.765 263.348 225.765 263.572 225.001C263.906 217.941 263.246 211.318 261.505 204.528C261.361 203.95 261.233 203.374 261.114 202.789C260.842 201.609 260.476 200.501 260.077 199.371C259.998 199.149 259.92 198.926 259.839 198.697C258.852 195.956 257.624 193.395 256.241 190.887C255.945 190.297 255.728 189.7 255.519 189.065C258.645 186.782 263.386 185.874 267.034 185.334C267.766 185.214 268.455 184.969 269.164 184.732C269.979 184.575 270.79 184.501 271.609 184.381Z" fill="#916245"/>
<path d="M222.861 188.555C223.478 189.887 223.971 191.207 224.399 192.632C224.607 193.264 224.834 193.866 225.079 194.48C226.455 197.975 227.24 201.732 227.978 205.456C228.028 205.71 228.028 205.71 228.08 205.969C228.445 207.811 228.737 209.616 228.9 211.493C228.974 211.661 229.048 211.83 229.124 212.003C230.396 220.763 229.329 231.798 225.962 239.805C225.76 240.315 225.614 240.824 225.475 241.36C224.809 243.715 223.719 245.96 222.477 247.979C222.156 248.489 222.156 248.489 221.798 249.229C221.706 249.392 221.614 249.555 221.519 249.723C221.371 249.723 221.224 249.723 221.072 249.723C221.013 249.872 220.954 250.021 220.893 250.175C219.884 252.304 217.809 253.693 216.092 255.018C215.823 255.234 215.56 255.462 215.305 255.699C214.308 256.603 214.308 256.603 213.439 256.609C211.225 255.716 209.459 253.44 207.778 251.628C206.93 250.721 206.058 249.842 205.19 248.958C205.556 247.806 206.067 246.783 206.602 245.725C207.939 243.039 209.017 240.424 209.887 237.489C209.949 237.281 210.011 237.074 210.075 236.859C210.179 236.508 210.281 236.157 210.382 235.805C210.504 235.384 210.629 234.964 210.756 234.545C214.052 223.597 214.713 209.699 210.335 199.005C209.805 197.846 209.187 196.774 208.545 195.691C208.39 195.355 208.238 195.016 208.098 194.672C212.053 191.837 218.02 188.054 222.861 188.555Z" fill="#926346"/>
<path d="M294.663 187.281C296.12 187.565 297.31 188.059 298.592 188.89C298.764 189 298.937 189.111 299.115 189.225C300.855 190.377 302.374 191.785 303.896 193.278C304.419 193.785 304.959 194.267 305.498 194.752C306.611 195.79 307.664 196.897 308.714 198.017C308.874 198.188 309.035 198.358 309.2 198.534C309.655 199.024 310.102 199.521 310.545 200.024C310.671 200.163 310.798 200.302 310.928 200.445C311.972 201.687 312.337 203.054 312.726 204.691C312.792 204.964 312.859 205.238 312.927 205.519C314.036 210.261 313.969 214.949 313.907 219.829C313.9 220.438 313.895 221.048 313.891 221.657C313.819 230.982 313.819 230.982 312.902 235.144C312.779 235.718 312.677 236.293 312.579 236.873C312.125 239.514 311.426 241.989 310.549 244.486C310.39 244.94 310.233 245.394 310.079 245.849C309.83 246.58 309.573 247.308 309.315 248.034C309.238 248.26 309.161 248.486 309.082 248.719C308.429 250.502 307.646 251.301 306.114 252.082C305.92 252.155 305.726 252.228 305.526 252.303C305.315 252.386 305.103 252.468 304.886 252.552C304.686 252.628 304.487 252.704 304.282 252.781C303.353 253.159 302.45 253.565 301.556 254.04C300.495 254.588 299.403 254.953 298.288 255.327C297.64 255.56 297.033 255.834 296.411 256.142C295.32 256.663 294.273 256.802 293.098 256.859C293.214 255.609 293.542 254.802 294.118 253.737C295.125 251.819 295.906 249.814 296.674 247.761C296.829 247.36 296.99 246.961 297.157 246.566C298.058 244.419 298.676 242.191 299.305 239.927C299.416 239.53 299.528 239.134 299.64 238.738C300.221 236.728 300.221 236.728 300.703 234.686C300.851 234.686 300.998 234.686 301.15 234.686C301.144 234.438 301.137 234.19 301.13 233.935C301.13 232.811 301.3 231.743 301.472 230.64C301.805 228.335 301.996 226.061 302.045 223.727C302.056 223.284 302.056 223.284 302.067 222.832C302.176 217.837 301.926 213.113 301.15 208.18C301.096 207.809 301.042 207.438 300.989 207.067C300.311 202.766 299.005 198.738 297.523 194.723C297.02 193.359 296.542 192.032 296.229 190.594C296.082 190.594 295.934 190.594 295.782 190.594C295.593 190.235 295.407 189.873 295.223 189.511C295.119 189.31 295.015 189.109 294.908 188.902C294.663 188.3 294.663 188.3 294.663 187.281Z" fill="#916245"/>
<path d="M255.742 189.065C255.896 189.488 256.044 189.913 256.19 190.339C256.453 190.885 256.725 191.426 257.001 191.964C259.251 196.414 261.132 200.775 262.116 205.824C262.243 206.463 262.379 207.099 262.516 207.736C263.457 212.169 263.832 216.351 263.851 220.907C263.852 221.089 263.853 221.27 263.855 221.458C263.866 223.629 263.749 225.679 263.348 227.805C263.285 228.256 263.224 228.707 263.166 229.159C262.539 233.371 261.559 237.413 260.379 241.461C259.818 243.39 259.304 245.322 258.846 247.286C258.29 249.628 257.433 251.679 256.414 253.801C255.879 254.89 255.879 254.89 255.742 256.095C253.879 255.564 252.34 254.066 251.269 252.272C251.269 252.104 251.269 251.935 251.269 251.762C251.121 251.762 250.974 251.762 250.821 251.762C250.275 251.244 249.849 250.669 249.479 249.978C249.444 248.881 249.662 248.281 250.116 247.317C250.734 245.933 251.049 244.465 251.395 242.969C252.128 239.839 252.128 239.839 252.531 238.667C252.817 237.798 252.974 237.02 253.086 236.104C253.261 234.71 253.261 234.71 253.506 234.431C253.586 233.815 253.654 233.202 253.715 232.583C253.846 231.307 253.995 230.043 254.191 228.776C254.695 225.028 254.648 221.205 254.663 217.421C254.665 217.002 254.668 216.583 254.671 216.164C254.695 212.529 254.693 208.801 253.506 205.376C253.402 205.013 253.301 204.648 253.202 204.283C252.242 200.851 251.107 197.686 249.319 194.691C249.032 194.162 249.032 194.162 249.032 193.653C248.884 193.653 248.737 193.653 248.585 193.653C248.437 193.232 248.289 192.812 248.137 192.378C249.652 191.474 251.149 190.668 252.773 190.049C253.332 189.833 253.332 189.833 253.953 189.32C255.213 188.763 255.213 188.763 255.742 189.065Z" fill="#6D432C"/>
<path d="M197.704 254.1C197.925 254.184 198.147 254.268 198.375 254.355C198.375 254.523 198.375 254.691 198.375 254.865C198.523 254.865 198.67 254.865 198.822 254.865C199.493 256.298 199.493 256.298 199.493 257.158C199.641 257.158 199.789 257.158 199.941 257.158C200.855 259.206 201.61 261.278 202.327 263.425C202.613 264.259 202.916 265.081 203.226 265.904C203.781 267.408 204.191 268.761 204.191 270.412C204.338 270.412 204.486 270.412 204.638 270.412C204.681 270.661 204.725 270.91 204.769 271.167C204.828 271.505 204.887 271.842 204.946 272.18C204.976 272.356 205.007 272.532 205.039 272.714C205.196 273.612 205.361 274.506 205.547 275.397C205.945 277.448 206.197 279.486 206.25 281.585C206.26 281.977 206.26 281.977 206.271 282.377C206.282 282.899 206.289 283.421 206.292 283.943C206.314 285.013 206.346 285.773 206.772 286.738C207.379 287.284 207.894 287.435 208.645 287.605C209.429 287.835 210.043 288.328 210.706 288.842C210.836 288.938 210.966 289.034 211.1 289.134C212.834 290.44 214.023 291.859 215.151 293.859C215.294 294.106 215.437 294.353 215.585 294.608C216.022 296.045 215.937 297.525 215.683 299.004C214.731 301.221 213.434 302.335 211.572 303.544C211.327 303.721 211.082 303.897 210.829 304.079C209.963 304.642 209.111 304.827 208.133 304.994C207.083 305.088 207.083 305.088 206.204 305.583C205.248 305.639 204.292 305.63 203.335 305.63C202.857 305.631 202.379 305.635 201.901 305.64C198.879 305.655 196.154 305.216 193.871 302.776C192.947 301.655 192.043 300.508 192 298.909C192.103 298.01 192.264 297.248 192.559 296.408C192.707 296.408 192.854 296.408 193.007 296.408C193.025 296.229 193.043 296.05 193.062 295.866C193.652 293.293 195.937 291.052 197.808 289.642C198.53 289.17 199.266 288.826 200.046 288.498C200.661 288.231 201.249 287.926 201.842 287.599C202.024 287.499 202.207 287.399 202.394 287.295C202.914 286.982 202.914 286.982 203.296 286.213C203.345 285.551 203.369 284.917 203.371 284.255C203.373 284.06 203.375 283.866 203.377 283.665C203.381 283.033 203.381 282.401 203.38 281.769C203.38 281.555 203.38 281.341 203.38 281.12C203.376 277.865 203.175 274.834 202.401 271.686C202.343 271.416 202.284 271.146 202.224 270.868C202.075 270.199 201.908 269.542 201.73 268.882C201.672 268.65 201.613 268.418 201.553 268.178C201.08 266.418 200.432 264.819 199.676 263.197C199.187 262.134 198.856 261.128 198.599 259.962C198.451 259.962 198.303 259.962 198.151 259.962C198.004 259.373 197.856 258.785 197.704 258.178C197.556 258.178 197.409 258.178 197.257 258.178C197.109 257.589 196.961 257 196.809 256.394C196.662 256.394 196.514 256.394 196.362 256.394C196.467 255.311 197.025 254.814 197.704 254.1Z" fill="#6D432C"/>
<path d="M109.831 131.005C110.087 131.233 110.087 131.233 110.348 131.465C110.348 131.633 110.348 131.801 110.348 131.975C110.478 132.042 110.609 132.109 110.743 132.179C111.263 132.497 111.644 132.847 112.081 133.297C112.236 133.454 112.39 133.611 112.549 133.774C112.708 133.937 112.868 134.1 113.032 134.269C113.353 134.588 113.675 134.906 113.997 135.224C115.098 136.314 115.098 136.314 115.493 136.817C115.493 136.985 115.493 137.154 115.493 137.327C115.714 137.411 115.936 137.495 116.164 137.582C117.319 138.859 118.389 140.401 119.295 141.914C119.295 142.083 119.295 142.251 119.295 142.424C119.443 142.424 119.591 142.424 119.743 142.424C120.117 143 120.464 143.575 120.805 144.176C120.905 144.35 121.004 144.524 121.107 144.703C121.4 145.216 121.69 145.731 121.979 146.247C122.127 146.506 122.274 146.766 122.425 147.033C123.322 148.663 123.322 148.663 123.322 149.815C123.469 149.815 123.617 149.815 123.769 149.815C124.917 151.644 126.582 154.564 126.397 156.889C126.229 157.461 126.229 157.461 125.782 157.971C125.013 158.082 125.013 158.082 124.216 157.971C123.636 157.082 123.355 156.134 123.056 155.088C122.179 152.217 120.955 149.569 119.519 147.012C119.519 146.844 119.519 146.675 119.519 146.502C119.371 146.502 119.224 146.502 119.072 146.502C119.012 146.297 118.952 146.092 118.89 145.881C118.758 145.557 118.758 145.557 118.624 145.228C118.403 145.144 118.181 145.059 117.953 144.973C117.953 144.805 117.953 144.636 117.953 144.463C117.732 144.379 117.51 144.295 117.282 144.208C116.899 143.795 116.528 143.368 116.164 142.934C113.565 139.908 107.903 133.379 103.987 133.217C103.198 133.206 103.198 133.206 102.519 133.504C102.245 134.271 102.245 134.271 102.072 135.033C101.924 135.033 101.776 135.033 101.624 135.033C101.565 135.218 101.506 135.402 101.445 135.592C101.173 136.318 100.854 136.91 100.462 137.56C100.251 137.912 100.251 137.912 100.035 138.271C99.8858 138.517 99.7367 138.762 99.5831 139.015C99.432 139.266 99.2808 139.517 99.1251 139.775C98.2126 141.285 97.2887 142.782 96.3274 144.252C96.0209 144.709 96.0209 144.709 95.8084 145.228C95.6608 145.228 95.5131 145.228 95.361 145.228C95.2918 145.385 95.2226 145.543 95.1513 145.706C94.9976 146.056 94.8438 146.406 94.69 146.757C94.5424 146.757 94.3947 146.757 94.2426 146.757C94.1844 146.901 94.1261 147.046 94.0661 147.195C92.6328 150.272 89.7387 153.457 87.0847 155.167C86.9371 155.167 86.7895 155.167 86.6374 155.167C86.6374 155.336 86.6374 155.504 86.6374 155.677C86.4785 155.729 86.3196 155.782 86.1559 155.835C85.9503 155.904 85.7447 155.973 85.5329 156.044C85.3279 156.112 85.1229 156.18 84.9117 156.25C84.4139 156.388 84.4139 156.388 84.1768 156.697C81.9973 156.926 80.0362 156.798 78.1374 155.422C77.4706 154.62 77.2516 154.345 77.2007 153.224C77.5105 151.286 78.814 149.482 79.9268 148.031C80.0745 148.031 80.2221 148.031 80.3742 148.031C80.4232 147.895 80.4722 147.758 80.5227 147.618C80.9265 146.799 81.4637 146.148 82.0239 145.467C82.2001 145.251 82.2001 145.251 82.3798 145.031C83.2203 144.015 84.0884 143.038 84.9877 142.09C85.1014 141.969 85.2151 141.848 85.3323 141.724C86.1342 140.895 86.1342 140.895 86.6374 140.895C86.7112 140.643 86.785 140.39 86.861 140.13C87.3189 139.643 87.3189 139.643 87.9235 139.095C88.1482 138.891 88.3728 138.687 88.6042 138.477C88.8432 138.263 89.0823 138.05 89.3216 137.837C89.5422 137.639 89.7627 137.44 89.99 137.236C102.9 125.779 102.9 125.779 109.831 131.005Z" fill="#6D432C"/>
<path d="M175.104 133.418C176.77 134.431 178.432 135.474 179.914 136.817C179.914 136.985 179.914 137.154 179.914 137.327C180.112 137.385 180.311 137.443 180.515 137.502C181.371 137.889 181.751 138.348 182.374 139.111C182.979 139.704 183.594 140.275 184.221 140.838C185.41 141.909 186.551 143.019 187.671 144.182C188.231 144.76 188.803 145.318 189.383 145.869C190.501 147.003 191.512 148.273 192.538 149.513C192.682 149.684 192.826 149.856 192.974 150.033C193.92 151.177 194.764 152.365 195.572 153.638C195.767 153.936 195.963 154.233 196.159 154.53C197.585 156.818 197.585 156.818 197.585 157.971C197.733 157.971 197.88 157.971 198.032 157.971C198.193 159.768 198.193 159.768 197.557 160.727C195.615 162.263 192.883 162.231 190.651 161.794C188.06 161.171 185.846 158.634 184.164 156.442C183.938 156.019 183.714 155.594 183.493 155.168C183.22 154.81 182.94 154.459 182.654 154.116C181.827 153.078 181.182 151.992 180.542 150.798C179.97 149.769 179.329 148.803 178.684 147.831C178.348 147.267 178.348 147.267 178.348 146.757C178.127 146.673 177.905 146.589 177.677 146.502C177.455 146.094 177.455 146.094 177.258 145.578C176.962 144.858 176.655 144.224 176.237 143.587C175.815 142.941 175.466 142.29 175.133 141.58C174.48 140.205 173.732 138.693 172.756 137.582C171.032 137.518 169.817 138.134 168.394 139.175C168.106 139.379 168.106 139.379 167.813 139.587C164.646 141.865 161.651 144.387 158.888 147.267C158.768 147.39 158.649 147.513 158.526 147.64C156.332 149.927 154.618 152.497 153.495 155.661C153.278 156.234 153.015 156.75 152.736 157.286C152.061 158.629 151.674 160.064 151.282 161.539C150.956 161.517 150.63 161.489 150.304 161.46C150.122 161.445 149.94 161.43 149.753 161.415C149.269 161.284 149.269 161.284 148.822 160.52C148.903 159.649 149.07 158.816 149.269 157.971C149.417 157.971 149.564 157.971 149.717 157.971C149.767 157.721 149.818 157.471 149.87 157.214C150.167 156.032 150.704 155.065 151.282 154.037C151.383 153.85 151.484 153.664 151.588 153.472C151.845 153.007 152.122 152.557 152.401 152.109C152.548 152.109 152.696 152.109 152.848 152.109C152.86 151.941 152.873 151.773 152.886 151.6C153.152 150.506 153.682 149.71 154.26 148.796C154.381 148.603 154.502 148.411 154.627 148.212C155.786 146.402 157.062 144.783 158.44 143.189C158.597 143.006 158.753 142.822 158.915 142.634C162.596 138.33 162.596 138.33 164.703 136.562C165.067 136.239 165.431 135.915 165.794 135.591C166.101 135.319 166.408 135.048 166.717 134.778C166.943 134.576 166.943 134.576 167.173 134.37C167.796 133.863 168.469 133.575 169.177 133.249C169.432 133.115 169.432 133.115 169.693 132.977C171.43 132.291 173.457 132.546 175.104 133.418Z" fill="#6C422C"/>
<path d="M236.729 245.39C237.688 245.773 238.543 246.33 239.413 246.919C239.681 247.097 239.681 247.097 239.954 247.279C244.163 250.097 244.163 250.097 245.889 252.025C246.356 252.536 246.844 252.955 247.368 253.387C248.362 254.247 249.075 255.265 249.842 256.379C250.389 257.135 250.972 257.804 251.59 258.484C252.901 259.952 254.004 261.534 255.071 263.231C255.172 263.389 255.272 263.547 255.375 263.71C256.549 265.575 257.608 267.299 257.979 269.602C258.127 269.602 258.275 269.602 258.427 269.602C260.824 274.947 260.824 274.947 261.349 277.217C261.564 278.034 261.72 278.419 262.229 279.032C262.883 279.351 262.883 279.351 263.641 279.59C264.897 280.069 265.957 280.646 267.066 281.47C267.196 281.565 267.326 281.661 267.459 281.76C268.716 282.722 269.678 283.686 270.058 285.404C270.194 287.023 270.088 288.451 269.611 289.992C269.486 290.425 269.486 290.425 269.359 290.868C269.295 291.083 269.23 291.299 269.163 291.521C269.016 291.521 268.868 291.521 268.716 291.521C268.675 291.694 268.633 291.868 268.59 292.047C267.63 294.282 265.49 295.82 263.506 296.684C260.739 297.646 257.989 297.936 255.113 297.972C254.793 297.979 254.793 297.979 254.466 297.986C252.479 297.984 250.22 297.494 248.585 296.109C247.482 294.504 247.813 292.323 247.961 290.398C248.456 287.338 251.377 284.127 253.52 282.362C255.08 281.206 256.672 280.302 258.469 279.739C258.957 279.552 258.957 279.552 259.321 278.778C259.528 276.098 258.567 273.827 257.476 271.514C257.367 271.279 257.258 271.045 257.145 270.803C256.483 269.399 255.783 268.065 254.946 266.785C253.729 264.91 253.729 264.91 253.729 263.995C253.582 263.995 253.434 263.995 253.282 263.995C252.611 262.878 252.611 262.878 252.611 262.211C252.463 262.211 252.316 262.211 252.163 262.211C252.09 261.875 252.016 261.538 251.94 261.192C251.792 261.192 251.645 261.192 251.492 261.192C251.163 260.773 251.163 260.773 250.807 260.22C250.689 260.04 250.572 259.859 250.45 259.674C250.15 259.153 250.15 259.153 249.927 258.388C249.631 258.213 249.332 258.044 249.032 257.879C248.597 257.479 248.169 257.069 247.746 256.652C246.959 255.885 246.177 255.17 245.285 254.565C245.045 254.397 244.805 254.229 244.558 254.056C244.558 253.887 244.558 253.719 244.558 253.546C244.406 253.524 244.254 253.503 244.097 253.48C243.271 253.242 242.599 252.796 241.874 252.303C241.739 252.214 241.604 252.124 241.465 252.032C240.875 251.638 240.289 251.238 239.707 250.828C239.238 250.519 238.806 250.302 238.295 250.105C237.562 249.806 236.946 249.424 236.282 248.958C236.024 248.832 235.765 248.706 235.499 248.576C234.083 247.885 234.083 247.885 233.598 247.429C233.416 246.489 233.416 246.489 233.374 245.645C234.453 244.825 235.493 245.115 236.729 245.39Z" fill="#6D432C"/>
<path d="M272.072 242.332C273.03 242.715 273.887 243.269 274.756 243.861C275.027 244.045 275.027 244.045 275.303 244.233C280.472 247.769 280.472 247.769 282.361 249.978C282.666 250.246 282.666 250.246 282.976 250.52C283.836 251.318 284.473 252.319 285.161 253.303C285.719 254.06 286.309 254.739 286.933 255.426C288.244 256.894 289.347 258.476 290.414 260.173C290.514 260.331 290.614 260.489 290.718 260.651C291.891 262.517 292.951 264.241 293.322 266.544C293.469 266.544 293.617 266.544 293.769 266.544C296.167 271.889 296.167 271.889 296.691 274.158C296.906 274.975 297.062 275.361 297.572 275.974C298.226 276.293 298.226 276.293 298.984 276.532C300.24 277.01 301.3 277.588 302.409 278.412C302.538 278.507 302.668 278.603 302.802 278.702C304.058 279.664 305.02 280.628 305.401 282.346C305.537 283.965 305.431 285.392 304.953 286.934C304.829 287.367 304.829 287.367 304.702 287.81C304.637 288.025 304.573 288.241 304.506 288.463C304.358 288.463 304.211 288.463 304.059 288.463C304.017 288.636 303.976 288.81 303.933 288.988C302.973 291.224 300.833 292.762 298.848 293.626C296.081 294.588 293.332 294.877 290.456 294.914C290.136 294.921 290.136 294.921 289.809 294.928C287.822 294.925 285.562 294.436 283.927 293.05C282.825 291.446 283.155 289.265 283.303 287.34C283.798 284.28 286.719 281.069 288.862 279.304C290.422 278.148 292.015 277.244 293.811 276.681C294.299 276.494 294.299 276.494 294.664 275.72C294.87 273.04 293.91 270.769 292.818 268.456C292.709 268.221 292.6 267.987 292.488 267.745C291.825 266.341 291.125 265.007 290.288 263.727C289.072 261.851 289.072 261.851 289.072 260.937C288.924 260.937 288.776 260.937 288.624 260.937C287.953 259.82 287.953 259.82 287.953 259.153C287.806 259.153 287.658 259.153 287.506 259.153C287.432 258.817 287.358 258.48 287.282 258.134C287.135 258.134 286.987 258.134 286.835 258.134C286.506 257.715 286.506 257.715 286.15 257.162C286.032 256.982 285.914 256.801 285.793 256.616C285.493 256.095 285.493 256.095 285.269 255.33C284.973 255.155 284.674 254.986 284.374 254.82C283.939 254.42 283.511 254.01 283.088 253.594C282.302 252.827 281.519 252.111 280.628 251.507C280.388 251.339 280.148 251.171 279.901 250.998C279.901 250.829 279.901 250.661 279.901 250.488C279.748 250.466 279.596 250.444 279.439 250.422C278.613 250.184 277.941 249.738 277.216 249.245C277.082 249.156 276.947 249.066 276.808 248.974C276.217 248.58 275.631 248.18 275.05 247.77C274.581 247.461 274.148 247.244 273.638 247.047C272.905 246.747 272.289 246.366 271.624 245.9C271.104 245.64 270.582 245.385 270.059 245.136C269.314 244.769 269.19 244.671 268.716 243.861C268.647 243.208 268.647 243.208 268.716 242.587C269.796 241.767 270.835 242.057 272.072 242.332Z" fill="#6D432C"/>
<path d="M153.295 255.33C153.295 255.498 153.295 255.667 153.295 255.84C153.738 256.008 154.181 256.176 154.637 256.35C154.282 257.443 153.646 257.961 152.848 258.643C152.7 258.643 152.553 258.643 152.401 258.643C152.401 258.812 152.401 258.98 152.401 259.153C151.626 259.918 151.626 259.918 151.058 259.918C150.974 260.143 150.974 260.143 150.887 260.373C150.579 261.003 150.256 261.351 149.772 261.813C149.614 261.967 149.455 262.12 149.292 262.278C149.002 262.551 148.712 262.822 148.421 263.093C147.85 263.623 147.445 264.054 147.032 264.76C146.884 264.76 146.737 264.76 146.585 264.76C146.534 264.902 146.483 265.044 146.431 265.19C145.975 266.105 145.301 266.747 144.637 267.469C143.961 268.22 143.359 268.952 142.824 269.842C142.582 270.228 142.582 270.228 142.335 270.622C142.187 270.622 142.039 270.622 141.887 270.622C141.834 270.757 141.781 270.893 141.727 271.032C141.356 271.819 140.902 272.522 140.433 273.234C140.343 273.376 140.253 273.517 140.16 273.663C139.927 274.018 139.678 274.36 139.427 274.7C139.279 274.7 139.132 274.7 138.979 274.7C138.92 274.847 138.86 274.994 138.798 275.146C138.532 275.719 138.532 275.719 138.169 276.181C137.651 277.119 137.783 278.091 137.973 279.144C138.01 279.276 138.047 279.407 138.085 279.542C138.288 279.563 138.491 279.584 138.7 279.606C139.543 279.828 139.758 280.092 140.322 280.817C140.506 280.98 140.691 281.143 140.881 281.31C142.304 282.648 142.84 284.111 143.102 286.152C143.181 287.561 143.093 288.54 142.363 289.705C141.457 290.861 140.394 291.569 139.203 292.286C138.842 292.542 138.842 292.542 138.474 292.803C137.577 293.388 136.672 293.632 135.666 293.863C135.487 293.905 135.307 293.948 135.123 293.992C133.873 294.281 132.651 294.527 131.374 294.579C131.225 294.589 131.076 294.598 130.923 294.608C127.752 294.792 124.525 294.475 121.979 292.031C120.749 290.635 119.871 289.34 119.854 287.3C119.902 285.035 120.443 283.04 121.798 281.342C124.653 278.473 128.365 278.419 131.971 278.409C132.351 278.403 132.351 278.403 132.738 278.396C132.965 278.396 133.193 278.396 133.427 278.395C134.228 278.234 134.594 277.883 135.177 277.249C135.398 276.87 135.398 276.87 135.624 276.484C135.772 276.484 135.919 276.484 136.072 276.484C136.087 276.314 136.103 276.144 136.12 275.969C136.359 274.936 136.812 274.145 137.316 273.25C137.468 272.978 137.468 272.978 137.623 272.7C138.444 271.246 139.339 269.901 140.322 268.583C140.484 268.351 140.647 268.119 140.814 267.88C143.681 263.864 146.948 260.177 150.611 257.114C151.152 256.619 151.691 256.122 152.228 255.622C152.624 255.33 152.624 255.33 153.295 255.33Z" fill="#6D432C"/>
<path d="M196.466 258.388C196.197 259.024 195.917 259.582 195.571 260.173C195.424 260.173 195.399 260.761 195.247 260.761C195.187 260.908 195.186 260.86 195.124 261.012C194.858 261.585 194.782 262.031 194.418 262.493C193.901 263.43 193.928 263.563 194.117 264.617C194.154 264.748 194.275 264.735 194.313 264.87C194.516 264.891 194.635 265.057 194.844 265.079C195.688 265.3 195.903 265.565 196.466 266.289C196.651 266.452 196.835 266.615 197.025 266.783C198.448 268.121 198.984 269.584 199.246 271.625C199.325 273.034 199.237 274.012 198.507 275.178C197.601 276.333 196.539 277.041 195.348 277.758C195.107 277.929 194.866 278.1 194.618 278.276C193.722 278.861 192.817 279.105 191.811 279.335C191.631 279.378 191.452 279.421 191.267 279.464C190.017 279.754 188.796 279.999 187.519 280.052C187.37 280.061 187.221 280.071 187.067 280.08C183.897 280.264 180.669 279.948 178.124 277.503C176.893 276.108 176.015 274.813 175.999 272.773C176.047 270.508 176.587 268.513 177.942 266.815C180.798 263.945 184.51 263.892 188.116 263.882C188.495 263.876 188.495 263.876 188.883 263.869C189.11 263.869 189.337 263.868 189.571 263.868C190.372 263.707 190.739 263.356 191.321 262.721C191.543 262.343 191.543 262.343 191.769 261.957C191.916 261.957 192.959 259.535 193.111 259.535C193.134 259.341 194.004 258.164 194.004 258.164C194.833 256.865 196.491 258.164 196.491 258.164L196.466 258.388Z" fill="#6D432C"/>
<path d="M311.888 202.063C312.817 202.965 313.405 204.118 313.901 205.376C313.901 205.629 313.901 205.881 313.901 206.141C314.048 206.141 314.196 206.141 314.348 206.141C314.685 206.804 315.021 207.467 315.355 208.132C315.451 208.32 315.547 208.508 315.646 208.702C315.737 208.884 315.827 209.065 315.921 209.252C316.047 209.502 316.047 209.502 316.177 209.758C316.361 210.219 316.361 210.219 316.361 210.983C316.509 210.983 316.657 210.983 316.809 210.983C317.297 211.794 317.618 212.619 317.927 213.532C318.329 214.621 318.74 215.668 319.269 216.686C319.767 217.644 320.067 218.661 320.387 219.71C320.591 220.35 320.82 220.959 321.073 221.576C321.473 222.572 321.74 223.575 322.002 224.627C322.229 225.443 322.54 226.196 322.857 226.971C323.078 227.567 323.231 228.153 323.379 228.776C323.706 230.111 324.249 231.269 324.837 232.478C325.108 233.22 325.117 233.447 324.861 234.176C324.751 234.555 324.751 234.555 324.638 234.941C324.49 234.941 324.342 234.941 324.19 234.941C324.103 235.209 324.103 235.209 324.014 235.483C323.327 237.339 322.345 239.189 321.282 240.803C321.135 240.803 320.987 240.803 320.835 240.803C320.78 240.949 320.724 241.094 320.667 241.245C320.344 241.911 319.967 242.369 319.493 242.905C319.336 243.085 319.179 243.265 319.018 243.451C318.598 243.861 318.598 243.861 318.151 243.861C318.151 244.029 318.151 244.197 318.151 244.371C317.669 244.79 317.189 245.173 316.683 245.55C316.534 245.662 316.384 245.774 316.231 245.889C315.158 246.682 314.063 247.411 312.936 248.098C312.793 248.185 312.65 248.273 312.503 248.363C311.5 248.958 311.5 248.958 310.993 248.958C310.993 249.127 310.993 249.295 310.993 249.468C310.556 249.731 310.118 249.99 309.679 250.249C309.313 250.466 309.313 250.466 308.94 250.688C308.731 250.79 308.523 250.892 308.309 250.997C308.161 250.913 308.013 250.829 307.861 250.742C307.959 250.511 308.056 250.279 308.157 250.041C309.943 245.759 311.729 241.282 312.416 236.583C312.521 235.939 312.64 235.318 312.778 234.684C313.706 230.192 313.639 225.615 313.672 221.026C313.677 220.439 313.684 219.852 313.691 219.265C313.763 213.524 313.527 208.537 312.004 203.049C311.888 202.573 311.888 202.573 311.888 202.063Z" fill="#6D432C"/>
<path d="M220.117 264.892C220.629 265.017 221.106 265.19 221.603 265.382C225.617 266.793 230.059 266.413 234.141 265.618C234.954 265.487 235.497 265.495 236.282 265.78C236.785 266.385 236.785 266.385 237.177 267.054C237.343 267.233 237.343 267.233 237.513 267.416C238.424 268.513 238.579 270.193 238.659 271.642C238.62 273.077 238.278 273.9 237.444 274.964C236.613 275.812 235.698 276.403 234.716 276.994C234.476 277.165 234.235 277.336 233.987 277.512C233.091 278.096 232.185 278.34 231.179 278.571C231 278.614 230.821 278.656 230.636 278.7C229.386 278.99 228.164 279.235 226.887 279.288C226.738 279.297 226.59 279.306 226.436 279.316C223.266 279.5 220.038 279.184 217.493 276.739C216.262 275.343 215.384 274.049 215.368 272.008C215.417 269.683 215.969 267.692 217.409 266.003C218.322 265.056 218.849 264.673 220.117 264.892Z" fill="#6D432C"/>
<path d="M115.045 212.003C115.66 212.337 115.66 212.337 116.164 213.022C116.47 214.194 116.57 215.406 116.689 216.617C116.892 218.392 117.196 219.704 118.4 220.923C119.724 221.912 121.098 222.137 122.65 222.197C122.912 222.213 123.174 222.23 123.444 222.246C125.751 222.329 127.826 222.072 129.669 220.366C130.796 219.116 131.667 217.697 132.185 216.001C132.492 215.062 132.659 214.595 133.387 214.042C134.17 213.898 134.17 213.898 134.953 214.042C135.498 214.551 135.498 214.551 135.848 215.316C135.961 216.858 135.755 217.881 135.079 219.235C134.999 219.399 134.918 219.564 134.836 219.734C133.638 222.106 132.117 223.894 130.032 225.256C129.811 225.403 129.589 225.55 129.361 225.702C127.674 226.503 125.985 226.622 124.174 226.61C123.948 226.608 123.722 226.607 123.489 226.606C120.527 226.553 117.579 226.036 115.311 223.679C114.466 222.644 113.981 221.437 113.479 220.158C113.398 219.982 113.317 219.806 113.234 219.624C112.657 218.239 112.77 216.501 112.738 214.997C112.732 214.82 112.725 214.642 112.718 214.459C112.71 213.58 112.751 213.109 113.219 212.397C113.882 211.857 114.246 211.854 115.045 212.003Z" fill="#4D2215"/>
<path d="M276.769 253.546C278.99 254.704 282.15 257.038 283.479 259.408C283.479 259.66 283.479 259.913 283.479 260.173C281.128 260.806 278.779 260.752 276.378 260.735C275.69 260.73 275.002 260.73 274.314 260.73C273.873 260.728 273.431 260.727 272.99 260.725C272.786 260.725 272.582 260.725 272.373 260.724C271.28 260.715 270.241 260.637 269.164 260.428C269.164 260.343 269.164 260.259 269.164 260.173C270.566 260.173 271.969 260.173 273.414 260.173C273.607 259.757 273.801 259.342 274.001 258.914C274.552 257.76 275.15 256.672 275.802 255.589C276.181 254.931 276.48 254.26 276.769 253.546Z" fill="#6D432C"/>
<path d="M121.756 163.069C122.725 163.631 123.428 164.299 123.992 165.363C124.096 166.306 124.074 166.921 123.755 167.8C123.023 168.849 122.212 169.777 121.084 170.205C119.955 170.34 119.093 170.345 118.065 169.759C117.402 169.08 117.101 168.596 117 167.581C117.081 165.891 117.526 165.11 118.622 163.985C119.696 163.014 120.416 162.857 121.756 163.069Z" fill="#C48769"/>
<path d="M129.137 163.324C130.036 163.845 130.614 164.395 131.15 165.362C131.349 166.595 131.271 167.632 130.787 168.755C129.354 170.603 129.354 170.603 128.427 170.838C127.504 170.902 126.868 170.802 126.132 170.141C125.211 169.016 125.02 168.224 125.055 166.716C125.17 165.505 125.561 164.641 126.243 163.722C127.208 163.137 128.067 163.128 129.137 163.324Z" fill="#C48769"/>
<path d="M144.678 207.522C144.678 207.522 145.798 204.816 149.998 204.927C154.197 205.038 156.284 209.252 156.284 209.252" stroke="#4A2013" stroke-width="5" stroke-linecap="round"/>
<path d="M97.4253 203.192C97.4253 203.192 101.416 199.627 104.515 200.85C106.32 201.563 108.202 203.192 108.202 203.192" stroke="#4A2013" stroke-width="5" stroke-linecap="round"/>
<path d="M169.615 225.821C178.322 216.227 188.788 194.535 188.788 194.535C188.788 194.535 195.102 216.789 186.871 228.781C176.283 244.208 145.093 247.776 145.093 247.776C145.093 247.776 159.506 236.961 169.615 225.821Z" fill="#804A2C"/>
<defs>
<filter id="filter0_g_0_1" x="71.2643" y="122" width="260.101" height="190.436" filterUnits="userSpaceOnUse" color-interpolation-filters="sRGB">
<feFlood flood-opacity="0" result="BackgroundImageFix"/>
<feBlend mode="normal" in="SourceGraphic" in2="BackgroundImageFix" result="shape"/>
<feTurbulence type="fractalNoise" baseFrequency="0.99900001287460327 0.99900001287460327" numOctaves="3" seed="5226" />
<feDisplacementMap in="shape" scale="4.1999998092651367" xChannelSelector="R" yChannelSelector="G" result="displacedImage" width="100%" height="100%" />
<feMerge result="effect1_texture_0_1">
<feMergeNode in="displacedImage"/>
</feMerge>
</filter>
</defs>
</svg>
