<svg width="421" height="580" viewBox="0 0 421 580" fill="none" xmlns="http://www.w3.org/2000/svg">
<path d="M131.126 109.109L203.174 225.074H223.759L304.955 123.391L258.067 147.955V81.1179L232.907 117.107L203.174 3.99878L184.304 142.242L131.126 109.109Z" fill="#2F7A38" stroke="#266B2E" stroke-width="7" stroke-linecap="round" stroke-linejoin="round"/>
<path d="M238.625 159.38L214.61 193.084L243.2 195.94L295.234 133.102L257.495 148.526L254.064 95.9705L238.625 159.38Z" fill="#275D2E"/>
<path d="M221.716 194.123C181.852 191.726 159.573 207.981 139.574 239.783C121.394 268.693 117.549 341.996 115.085 388.956C112.622 435.916 166.015 458.323 213.772 459.013C262.48 459.718 318.002 446.095 315.041 389.088C312.08 332.082 309.344 293.464 293.493 255.308C279.029 220.492 260.709 196.467 221.716 194.123Z" fill="#FDBF1C" stroke="#CB8100" stroke-width="7" stroke-linecap="round"/>
<path d="M170.581 210.221L296.378 272.488" stroke="#E19D00" stroke-opacity="0.2" stroke-width="7" stroke-linecap="round"/>
<path d="M143.706 241.64L307.242 318.188" stroke="#E19D00" stroke-opacity="0.2" stroke-width="7" stroke-linecap="round"/>
<path d="M131.126 280.485L311.817 366.173" stroke="#E19D00" stroke-opacity="0.2" stroke-width="7" stroke-linecap="round"/>
<path d="M121.977 325.043L307.242 410.731" stroke="#E19D00" stroke-opacity="0.2" stroke-width="7" stroke-linecap="round"/>
<path d="M117.402 378.741L282.083 448.434" stroke="#E19D00" stroke-opacity="0.2" stroke-width="7" stroke-linecap="round"/>
<path d="M314.676 370.172L280.367 446.72" stroke="#E19D00" stroke-opacity="0.2" stroke-width="7" stroke-linecap="round"/>
<path d="M306.671 299.908L233.479 458.716" stroke="#E19D00" stroke-opacity="0.2" stroke-width="7" stroke-linecap="round"/>
<path d="M286.657 235.928L184.304 457.574" stroke="#E19D00" stroke-opacity="0.2" stroke-width="7" stroke-linecap="round"/>
<path d="M251.205 207.365L145.993 435.295" stroke="#E19D00" stroke-opacity="0.2" stroke-width="7" stroke-linecap="round"/>
<path d="M210.607 197.082L119.118 381.026" stroke="#E19D00" stroke-opacity="0.2" stroke-width="7" stroke-linecap="round"/>
<path d="M164.731 288.8C171.527 290.243 178.899 282.657 181.197 271.856C183.495 261.055 179.849 251.129 173.053 249.686C166.257 248.243 158.885 255.829 156.587 266.63C154.289 277.431 157.935 287.357 164.731 288.8Z" fill="white" fill-opacity="0.4"/>
<path d="M275.221 403.305C295.234 369.029 304.383 304.478 304.383 304.478C304.383 304.478 324.178 401.02 299.237 429.582C274.297 458.145 210.035 455.289 210.035 455.289C210.035 455.289 261.603 426.629 275.221 403.305Z" fill="#EDA600"/>
<path d="M210.12 579.536C326.166 579.536 420.24 567.659 420.24 553.008C420.24 538.357 326.166 526.48 210.12 526.48C94.0739 526.48 0 538.357 0 553.008C0 567.659 94.0739 579.536 210.12 579.536Z" fill="black" fill-opacity="0.15"/>
<g filter="url(#filter0_g_0_1)">
<path d="M111.827 384.192C112.783 385.065 113.694 385.994 114.598 386.936C114.758 387.102 114.918 387.269 115.083 387.44C115.589 387.971 116.094 388.504 116.597 389.039C116.831 389.287 116.831 389.287 117.07 389.54C118.103 390.651 119.046 391.82 119.966 393.053C120.173 393.322 120.38 393.591 120.587 393.86C122.845 396.847 124.665 400.041 126.389 403.449C126.923 404.493 127.471 405.526 128.019 406.561C128.173 406.553 128.326 406.545 128.485 406.537C134.737 406.23 140.753 406.091 146.92 407.483C147.757 407.634 147.757 407.635 148.598 407.58C149.045 407.063 149.045 407.063 149.404 406.35C149.549 406.089 149.694 405.829 149.844 405.56C149.996 405.281 150.147 405.001 150.304 404.713C151.615 402.383 152.921 400.367 154.637 398.405C154.958 398.01 155.275 397.612 155.592 397.213C157.148 395.251 158.714 393.428 160.547 391.798C161.329 391.081 162.063 390.309 162.798 389.53C165.512 386.859 168.916 385.005 172.532 385.2C176.33 385.619 179.551 387.691 182.454 390.417C182.843 390.779 183.238 391.131 183.635 391.482C184.896 392.595 186.136 393.721 187.325 394.934C188.289 395.887 189.316 396.761 190.343 397.625C190.805 398.082 191.17 398.529 191.564 399.059C192.64 400.472 193.817 401.763 194.994 403.066C195.921 404.107 196.752 405.151 197.512 406.356C197.937 407.015 198.42 407.609 198.899 408.217C200.693 410.583 202.1 413.528 202.073 416.692C202.071 416.99 202.068 417.288 202.066 417.596C202.063 417.937 202.063 417.937 202.059 418.285C201.911 418.285 201.763 418.285 201.611 418.285C201.59 418.474 201.569 418.663 201.547 418.858C201.224 420.276 200.127 421.193 199.092 421.985C196.352 423.693 192.965 424.205 189.957 423.257C186.271 421.978 183.489 419.322 181.032 415.991C180.784 415.656 180.784 415.656 180.531 415.314C178.818 412.964 177.23 410.521 175.706 408.01C175.553 407.759 175.553 407.759 175.397 407.502C174.851 406.596 174.352 405.679 173.882 404.72C173.453 403.88 172.969 403.08 172.49 402.276C171.44 400.505 171.44 400.504 171.19 399.934C170.369 400.096 169.831 400.502 169.153 401.043C168.823 401.306 168.823 401.306 168.486 401.574C168.257 401.758 168.029 401.943 167.793 402.132C167.568 402.311 167.344 402.489 167.113 402.673C163.998 405.162 161.117 407.818 158.664 411.148C159.28 411.617 159.885 411.942 160.564 412.272C164.237 414.063 167.98 416.062 171.19 418.794C171.364 418.942 171.537 419.089 171.716 419.241C173.117 420.435 174.505 421.649 175.887 422.872C176.022 422.991 176.157 423.11 176.296 423.232C178.866 425.504 181.039 428.12 183.045 431.028C183.24 431.297 183.435 431.567 183.63 431.835C188.861 439.114 188.861 439.114 188.861 441.732C189.126 441.72 189.392 441.709 189.665 441.696C195.095 441.527 200.416 443.63 204.511 447.801C204.953 448.164 204.953 448.164 205.476 448.041C206.164 447.824 206.716 447.507 207.342 447.115C207.586 446.965 207.829 446.816 208.08 446.661C208.34 446.501 208.6 446.341 208.867 446.176C212.845 443.769 216.851 442.153 221.263 441.11C221.756 440.982 221.756 440.982 222.234 440.701C223.128 440.354 223.971 440.38 224.909 440.381C225.21 440.38 225.21 440.38 225.518 440.378C225.944 440.376 226.371 440.376 226.797 440.377C227.432 440.378 228.067 440.372 228.702 440.366C234.81 440.341 240.577 441.357 245.453 445.81C245.645 445.712 245.645 445.712 245.84 445.613C261.395 437.708 279.69 432.794 296.218 439.915C299.415 441.353 302.266 443.09 304.953 445.555C305.157 445.739 305.362 445.923 305.572 446.112C306.925 447.348 308.207 448.657 309.477 450.001C309.984 450.533 310.497 451.05 311.021 451.561C313.938 454.464 315.939 457.722 317.846 461.518C318.155 462.131 318.471 462.74 318.788 463.348C321.731 469.043 323.999 474.921 325.93 481.134C326.322 482.377 326.738 483.609 327.168 484.837C327.239 485.04 327.31 485.243 327.383 485.453C327.884 486.863 328.464 488.185 329.148 489.493C329.461 490.605 329.097 491.442 328.668 492.464C328.407 493.035 328.133 493.596 327.853 494.155C327.753 494.356 327.653 494.558 327.55 494.765C326.199 497.461 324.742 499.887 322.848 502.136C322.678 502.345 322.508 502.555 322.333 502.771C319.539 506.116 316.113 508.171 312.559 510.291C312.259 510.474 311.959 510.657 311.659 510.84C306.624 513.862 301.167 515.895 295.782 517.937C295.782 518.843 295.987 519.225 296.363 520.018C296.486 520.281 296.61 520.544 296.736 520.815C296.869 521.096 297.002 521.376 297.138 521.665C297.963 523.416 298.745 525.126 299.318 527.005C299.806 528.658 299.806 528.658 300.852 529.89C301.539 530.208 302.229 530.44 302.94 530.681C305.481 532.093 307.874 533.988 308.98 537.052C309.863 540.553 309.248 544.501 307.775 547.656C307.457 548.232 307.118 548.757 306.743 549.286C306.609 549.479 306.476 549.672 306.338 549.871C303.252 554.088 298.706 555.516 294.082 556.086C289.522 556.505 285.183 556.268 281.318 553.136C279.856 551.635 279.341 549.261 279.181 547.098C279.036 542.306 281.24 538.912 283.927 535.523C284.077 535.328 284.226 535.133 284.38 534.933C286.03 532.902 288.238 531.593 290.414 530.426C290.071 529.073 289.535 527.918 288.932 526.698C288.833 526.498 288.735 526.297 288.634 526.09C287.805 524.42 286.908 522.821 285.94 521.251C285.662 521.306 285.383 521.361 285.096 521.418C282 521.971 278.946 522.1 275.818 522.111C275.524 522.114 275.524 522.114 275.224 522.116C271.217 522.148 267.4 521.498 263.502 520.47C263.12 520.372 263.12 520.372 262.73 520.272C261.508 519.957 260.298 519.624 259.098 519.212C259.199 519.407 259.299 519.603 259.403 519.804C260.344 521.653 261.252 523.52 262.132 525.408C262.238 525.635 262.344 525.862 262.454 526.096C263.039 527.369 263.524 528.63 263.941 529.986C264.446 531.682 264.446 531.682 265.511 532.952C266.199 533.267 266.889 533.499 267.598 533.739C270.138 535.151 272.532 537.046 273.637 540.111C274.521 543.612 273.906 547.56 272.433 550.714C272.115 551.291 271.776 551.815 271.401 552.344C271.267 552.537 271.134 552.731 270.996 552.93C267.91 557.146 263.364 558.575 258.74 559.144C254.18 559.564 249.841 559.326 245.976 556.194C244.514 554.693 243.999 552.32 243.839 550.156C243.694 545.365 245.897 541.971 248.585 538.581C248.734 538.387 248.884 538.192 249.038 537.991C250.688 535.961 252.895 534.651 255.072 533.484C253.79 528.52 250.514 523.727 247.718 519.737C247.607 519.576 247.495 519.415 247.38 519.249C246.555 518.106 245.624 517.25 244.559 516.408C244.404 516.593 244.25 516.777 244.091 516.968C242.849 518.431 241.639 519.705 240.085 520.741C240.206 520.966 240.328 521.191 240.453 521.423C241.942 524.243 242.987 526.945 242.441 530.306C241.945 532.486 240.894 534.292 239.414 535.778C239.249 535.948 239.249 535.948 239.08 536.122C234.562 540.4 228.249 540.977 222.637 540.62C219.162 540.178 216.125 538.337 213.69 535.523C213.542 535.355 213.395 535.187 213.243 535.013C213.317 536.948 213.39 538.882 213.466 540.875C214.165 541.246 214.165 541.246 214.878 541.624C218.457 543.631 221.264 547.032 222.637 551.325C223.275 553.506 223.076 556.489 222.273 558.576C220.466 562.402 217.443 564.661 213.914 566.107C212.877 566.439 211.846 566.686 210.782 566.872C210.519 566.918 210.256 566.965 209.985 567.013C205.305 567.652 199.703 567.61 195.725 564.355C195.446 564.095 195.171 563.83 194.901 563.558C194.765 563.425 194.63 563.292 194.491 563.154C192.657 561.215 191.575 558.863 191.448 556.008C191.52 551.895 193.907 548.336 196.373 545.551C198.219 543.556 200.455 542.353 202.73 541.13C202.736 540.243 202.74 539.357 202.744 538.47C202.745 538.222 202.747 537.973 202.749 537.718C202.754 536.199 202.68 534.735 202.506 533.229C202.387 533.429 202.267 533.629 202.144 533.836C199.218 538.538 194.752 540.29 189.932 541.277C184.992 541.905 180.019 541.504 175.914 538.037C173.839 536.015 172.479 533.742 172.246 530.598C172.172 527.422 172.696 524.008 174.665 521.594C174.993 521.219 175.328 520.852 175.664 520.486C175.492 520.469 175.32 520.453 175.143 520.436C169.688 519.896 164.415 518.93 159.377 516.339C158.792 516.117 158.569 516.186 157.993 516.408C157.48 516.862 156.995 517.319 156.511 517.81C156.372 517.948 156.233 518.086 156.09 518.229C155.679 518.639 155.27 519.052 154.861 519.466C154.655 519.675 154.449 519.884 154.237 520.099C153.874 520.47 153.512 520.842 153.151 521.216C152.795 521.584 152.437 521.95 152.076 522.313C150.042 524.369 148.118 526.529 146.361 528.896C146.163 529.157 145.965 529.418 145.766 529.678C144.597 531.221 143.496 532.76 142.559 534.504C142.686 534.564 142.813 534.625 142.944 534.688C145.083 536.055 146.215 538.829 146.878 541.401C147.289 544.079 147.022 546.415 145.718 548.728C145.172 549.598 144.608 550.36 143.901 551.07C143.735 551.24 143.735 551.24 143.567 551.414C139.072 555.671 132.715 556.321 127.124 555.912C123.623 555.437 120.535 553.841 118.106 550.877C116.351 548.213 116.001 545.654 116.164 542.404C116.575 539.158 117.88 536.253 120.19 534.249C122.868 532.327 126.529 530.48 129.738 531.093C130.695 531.248 131.583 531.375 132.493 530.935C133.562 529.776 134.195 528.179 134.877 526.709C135.572 525.28 136.502 524.036 137.414 522.78C137.522 522.63 137.631 522.481 137.743 522.327C139.057 520.528 140.402 518.793 141.887 517.173C142.072 516.962 142.257 516.752 142.447 516.536C142.631 516.325 142.816 516.115 143.006 515.898C143.123 515.756 143.241 515.613 143.362 515.466C144.536 514.068 145.83 512.898 147.174 511.722C147.888 511.096 148.58 510.444 149.269 509.782C149.158 509.671 149.048 509.561 148.934 509.447C148.598 509.017 148.598 509.017 148.598 508.252C148.466 508.27 148.334 508.288 148.198 508.306C146.734 508.49 145.288 508.552 143.815 508.559C143.454 508.562 143.454 508.562 143.085 508.564C142.304 508.569 141.523 508.57 140.741 508.571C140.474 508.571 140.206 508.572 139.931 508.572C136.384 508.571 132.856 508.485 129.319 508.173C129.145 508.158 128.97 508.143 128.79 508.127C124.99 507.791 121.306 507.193 117.674 505.847C117.525 505.793 117.375 505.738 117.222 505.683C112.21 503.858 107.254 501.695 102.519 499.077C102.367 498.993 102.215 498.909 102.059 498.823C97.4862 496.259 94.0203 492.683 90.8875 488.118C90.7419 487.918 90.5963 487.718 90.4462 487.513C87.8484 483.935 85.9062 480.183 84.7691 475.704C84.5623 474.894 84.3681 474.299 83.9533 473.59C83.8939 472.929 83.8939 472.929 83.8974 472.189C83.8956 471.822 83.8956 471.822 83.8939 471.448C83.9533 470.787 83.9533 470.787 84.4007 470.022C84.548 469.349 84.681 468.679 84.8061 467.999C85.4948 464.515 86.6907 461.574 88.7544 458.844C90.2285 456.869 90.8554 455.174 91.271 452.642C91.43 451.68 91.6168 450.725 91.8006 449.769C91.8363 449.579 91.8721 449.391 91.9089 449.196C92.403 446.623 93.1897 444.186 94.0191 441.732C94.1146 441.444 94.2102 441.155 94.3086 440.858C95.4826 437.317 96.7026 433.857 98.2691 430.518C98.4051 430.205 98.5402 429.891 98.6745 429.576C99.8277 426.923 101.33 424.653 102.966 422.362C103.138 422.12 103.138 422.12 103.313 421.873C107.193 416.426 112.111 412.021 117.73 409.109C116.182 406.107 114.311 403.386 111.914 401.209C111.67 400.979 111.427 400.75 111.183 400.521C108.025 397.524 108.025 397.524 104.532 395.092C104.486 395.256 104.439 395.42 104.391 395.589C103.96 396.685 103.371 397.627 102.771 398.612C102.641 398.826 102.512 399.039 102.379 399.259C100.399 402.507 98.3103 405.617 96.0322 408.6C95.8849 408.793 95.7375 408.987 95.5857 409.186C95.3327 409.517 95.0785 409.846 94.8229 410.175C94.5806 410.49 94.3431 410.81 94.1099 411.134C91.6844 414.459 88.2166 417.352 84.4007 418.03C81.0336 418.246 77.8453 417.733 75.1256 415.228C74.1293 414.14 73.5235 413.266 73.365 411.663C73.3157 407.052 75.7752 403.845 78.4381 400.65C78.9911 399.984 79.5228 399.302 80.0528 398.612C80.8815 397.561 81.7612 396.614 82.6942 395.684C83.0908 395.285 83.4805 394.876 83.8633 394.46C85.7354 392.429 87.7749 390.694 89.8578 388.954C90.4265 388.477 90.9913 387.994 91.5551 387.509C97.7449 382.203 104.7 377.974 111.827 384.192ZM207.203 513.859C207.711 515.672 208.316 517.42 208.951 519.18C209.911 521.872 210.736 524.58 211.453 527.367C211.675 527.241 211.675 527.241 211.901 527.112C212.009 526.66 212.099 526.202 212.18 525.743C212.703 523.227 213.768 521.371 215.256 519.466C215.087 519.371 215.087 519.371 214.915 519.273C212.411 517.839 210.11 516.294 207.874 514.369C207.653 514.201 207.431 514.033 207.203 513.859Z" fill="#4A2013"/>
<mask id="mask0_0_1" style="mask-type:luminance" maskUnits="userSpaceOnUse" x="73" y="381" width="257" height="187">
<path d="M111.827 384.192C112.783 385.065 113.694 385.994 114.598 386.936C114.758 387.102 114.918 387.269 115.083 387.44C115.589 387.971 116.094 388.504 116.597 389.039C116.831 389.287 116.831 389.287 117.07 389.54C118.103 390.651 119.046 391.82 119.966 393.053C120.173 393.322 120.38 393.591 120.587 393.86C122.845 396.847 124.665 400.041 126.389 403.449C126.923 404.493 127.471 405.526 128.019 406.561C128.173 406.553 128.326 406.545 128.485 406.537C134.737 406.23 140.753 406.091 146.92 407.483C147.757 407.634 147.757 407.635 148.598 407.58C149.045 407.063 149.045 407.063 149.404 406.35C149.549 406.089 149.694 405.829 149.844 405.56C149.996 405.281 150.147 405.001 150.304 404.713C151.615 402.383 152.921 400.367 154.637 398.405C154.958 398.01 155.275 397.612 155.592 397.213C157.148 395.251 158.714 393.428 160.547 391.798C161.329 391.081 162.063 390.309 162.798 389.53C165.512 386.859 168.916 385.005 172.532 385.2C176.33 385.619 179.551 387.691 182.454 390.417C182.843 390.779 183.238 391.131 183.635 391.482C184.896 392.595 186.136 393.721 187.325 394.934C188.289 395.887 189.316 396.761 190.343 397.625C190.805 398.082 191.17 398.529 191.564 399.059C192.64 400.472 193.817 401.763 194.994 403.066C195.921 404.107 196.752 405.151 197.512 406.356C197.937 407.015 198.42 407.609 198.899 408.217C200.693 410.583 202.1 413.528 202.073 416.692C202.071 416.99 202.068 417.288 202.066 417.596C202.063 417.937 202.063 417.937 202.059 418.285C201.911 418.285 201.763 418.285 201.611 418.285C201.59 418.474 201.569 418.663 201.547 418.858C201.224 420.276 200.127 421.193 199.092 421.985C196.352 423.693 192.965 424.205 189.957 423.257C186.271 421.978 183.489 419.322 181.032 415.991C180.784 415.656 180.784 415.656 180.531 415.314C178.818 412.964 177.23 410.521 175.706 408.01C175.553 407.759 175.553 407.759 175.397 407.502C174.851 406.596 174.352 405.679 173.882 404.72C173.453 403.88 172.969 403.08 172.49 402.276C171.44 400.505 171.44 400.504 171.19 399.934C170.369 400.096 169.831 400.502 169.153 401.043C168.823 401.306 168.823 401.306 168.486 401.574C168.257 401.758 168.029 401.943 167.793 402.132C167.568 402.311 167.344 402.489 167.113 402.673C163.998 405.162 161.117 407.818 158.664 411.148C159.28 411.617 159.885 411.942 160.564 412.272C164.237 414.063 167.98 416.062 171.19 418.794C171.364 418.942 171.537 419.089 171.716 419.241C173.117 420.435 174.505 421.649 175.887 422.872C176.022 422.991 176.157 423.11 176.296 423.232C178.866 425.504 181.039 428.12 183.045 431.028C183.24 431.297 183.435 431.567 183.63 431.835C188.861 439.114 188.861 439.114 188.861 441.732C189.126 441.72 189.392 441.709 189.665 441.696C195.095 441.527 200.416 443.63 204.511 447.801C204.953 448.164 204.953 448.164 205.476 448.041C206.164 447.824 206.716 447.507 207.342 447.115C207.586 446.965 207.829 446.816 208.08 446.661C208.34 446.501 208.6 446.341 208.867 446.176C212.845 443.769 216.851 442.153 221.263 441.11C221.756 440.982 221.756 440.982 222.234 440.701C223.128 440.354 223.971 440.38 224.909 440.381C225.21 440.38 225.21 440.38 225.518 440.378C225.944 440.376 226.371 440.376 226.797 440.377C227.432 440.378 228.067 440.372 228.702 440.366C234.81 440.341 240.577 441.357 245.453 445.81C245.645 445.712 245.645 445.712 245.84 445.613C261.395 437.708 279.69 432.794 296.218 439.915C299.415 441.353 302.266 443.09 304.953 445.555C305.157 445.739 305.362 445.923 305.572 446.112C306.925 447.348 308.207 448.657 309.477 450.001C309.984 450.533 310.497 451.05 311.021 451.561C313.938 454.464 315.939 457.722 317.846 461.518C318.155 462.131 318.471 462.74 318.788 463.348C321.731 469.043 323.999 474.921 325.93 481.134C326.322 482.377 326.738 483.609 327.168 484.837C327.239 485.04 327.31 485.243 327.383 485.453C327.884 486.863 328.464 488.185 329.148 489.493C329.461 490.605 329.097 491.442 328.668 492.464C328.407 493.035 328.133 493.596 327.853 494.155C327.753 494.356 327.653 494.558 327.55 494.765C326.199 497.461 324.742 499.887 322.848 502.136C322.678 502.345 322.508 502.555 322.333 502.771C319.539 506.116 316.113 508.171 312.559 510.291C312.259 510.474 311.959 510.657 311.659 510.84C306.624 513.862 301.167 515.895 295.782 517.937C295.782 518.843 295.987 519.225 296.363 520.018C296.486 520.281 296.61 520.544 296.736 520.815C296.869 521.096 297.002 521.376 297.138 521.665C297.963 523.416 298.745 525.126 299.318 527.005C299.806 528.658 299.806 528.658 300.852 529.89C301.539 530.208 302.229 530.44 302.94 530.681C305.481 532.093 307.874 533.988 308.98 537.052C309.863 540.553 309.248 544.501 307.775 547.656C307.457 548.232 307.118 548.757 306.743 549.286C306.609 549.479 306.476 549.672 306.338 549.871C303.252 554.088 298.706 555.516 294.082 556.086C289.522 556.505 285.183 556.268 281.318 553.136C279.856 551.635 279.341 549.261 279.181 547.098C279.036 542.306 281.24 538.912 283.927 535.523C284.077 535.328 284.226 535.133 284.38 534.933C286.03 532.902 288.238 531.593 290.414 530.426C290.071 529.073 289.535 527.918 288.932 526.698C288.833 526.498 288.735 526.297 288.634 526.09C287.805 524.42 286.908 522.821 285.94 521.251C285.662 521.306 285.383 521.361 285.096 521.418C282 521.971 278.946 522.1 275.818 522.111C275.524 522.114 275.524 522.114 275.224 522.116C271.217 522.148 267.4 521.498 263.502 520.47C263.12 520.372 263.12 520.372 262.73 520.272C261.508 519.957 260.298 519.624 259.098 519.212C259.199 519.407 259.299 519.603 259.403 519.804C260.344 521.653 261.252 523.52 262.132 525.408C262.238 525.635 262.344 525.862 262.454 526.096C263.039 527.369 263.524 528.63 263.941 529.986C264.446 531.682 264.446 531.682 265.511 532.952C266.199 533.267 266.889 533.499 267.598 533.739C270.138 535.151 272.532 537.046 273.637 540.111C274.521 543.612 273.906 547.56 272.433 550.714C272.115 551.291 271.776 551.815 271.401 552.344C271.267 552.537 271.134 552.731 270.996 552.93C267.91 557.146 263.364 558.575 258.74 559.144C254.18 559.564 249.841 559.326 245.976 556.194C244.514 554.693 243.999 552.32 243.839 550.156C243.694 545.365 245.897 541.971 248.585 538.581C248.734 538.387 248.884 538.192 249.038 537.991C250.688 535.961 252.895 534.651 255.072 533.484C253.79 528.52 250.514 523.727 247.718 519.737C247.607 519.576 247.495 519.415 247.38 519.249C246.555 518.106 245.624 517.25 244.559 516.408C244.404 516.593 244.25 516.777 244.091 516.968C242.849 518.431 241.639 519.705 240.085 520.741C240.206 520.966 240.328 521.191 240.453 521.423C241.942 524.243 242.987 526.945 242.441 530.306C241.945 532.486 240.894 534.292 239.414 535.778C239.249 535.948 239.249 535.948 239.08 536.122C234.562 540.4 228.249 540.977 222.637 540.62C219.162 540.178 216.125 538.337 213.69 535.523C213.542 535.355 213.395 535.187 213.243 535.013C213.317 536.948 213.39 538.882 213.466 540.875C214.165 541.246 214.165 541.246 214.878 541.624C218.457 543.631 221.264 547.032 222.637 551.325C223.275 553.506 223.076 556.489 222.273 558.576C220.466 562.402 217.443 564.661 213.914 566.107C212.877 566.439 211.846 566.686 210.782 566.872C210.519 566.918 210.256 566.965 209.985 567.013C205.305 567.652 199.703 567.61 195.725 564.355C195.446 564.095 195.171 563.83 194.901 563.558C194.765 563.425 194.63 563.292 194.491 563.154C192.657 561.215 191.575 558.863 191.448 556.008C191.52 551.895 193.907 548.336 196.373 545.551C198.219 543.556 200.455 542.353 202.73 541.13C202.736 540.243 202.74 539.357 202.744 538.47C202.745 538.222 202.747 537.973 202.749 537.718C202.754 536.199 202.68 534.735 202.506 533.229C202.387 533.429 202.267 533.629 202.144 533.836C199.218 538.538 194.752 540.29 189.932 541.277C184.992 541.905 180.019 541.504 175.914 538.037C173.839 536.015 172.479 533.742 172.246 530.598C172.172 527.422 172.696 524.008 174.665 521.594C174.993 521.219 175.328 520.852 175.664 520.486C175.492 520.469 175.32 520.453 175.143 520.436C169.688 519.896 164.415 518.93 159.377 516.339C158.792 516.117 158.569 516.186 157.993 516.408C157.48 516.862 156.995 517.319 156.511 517.81C156.372 517.948 156.233 518.086 156.09 518.229C155.679 518.639 155.27 519.052 154.861 519.466C154.655 519.675 154.449 519.884 154.237 520.099C153.874 520.47 153.512 520.842 153.151 521.216C152.795 521.584 152.437 521.95 152.076 522.313C150.042 524.369 148.118 526.529 146.361 528.896C146.163 529.157 145.965 529.418 145.766 529.678C144.597 531.221 143.496 532.76 142.559 534.504C142.686 534.564 142.813 534.625 142.944 534.688C145.083 536.055 146.215 538.829 146.878 541.401C147.289 544.079 147.022 546.415 145.718 548.728C145.172 549.598 144.608 550.36 143.901 551.07C143.735 551.24 143.735 551.24 143.567 551.414C139.072 555.671 132.715 556.321 127.124 555.912C123.623 555.437 120.535 553.841 118.106 550.877C116.351 548.213 116.001 545.654 116.164 542.404C116.575 539.158 117.88 536.253 120.19 534.249C122.868 532.327 126.529 530.48 129.738 531.093C130.695 531.248 131.583 531.375 132.493 530.935C133.562 529.776 134.195 528.179 134.877 526.709C135.572 525.28 136.502 524.036 137.414 522.78C137.522 522.63 137.631 522.481 137.743 522.327C139.057 520.528 140.402 518.793 141.887 517.173C142.072 516.962 142.257 516.752 142.447 516.536C142.631 516.325 142.816 516.115 143.006 515.898C143.123 515.756 143.241 515.613 143.362 515.466C144.536 514.068 145.83 512.898 147.174 511.722C147.888 511.096 148.58 510.444 149.269 509.782C149.158 509.671 149.048 509.561 148.934 509.447C148.598 509.017 148.598 509.017 148.598 508.252C148.466 508.27 148.334 508.288 148.198 508.306C146.734 508.49 145.288 508.552 143.815 508.559C143.454 508.562 143.454 508.562 143.085 508.564C142.304 508.569 141.523 508.57 140.741 508.571C140.474 508.571 140.206 508.572 139.931 508.572C136.384 508.571 132.856 508.485 129.319 508.173C129.145 508.158 128.97 508.143 128.79 508.127C124.99 507.791 121.306 507.193 117.674 505.847C117.525 505.793 117.375 505.738 117.222 505.683C112.21 503.858 107.254 501.695 102.519 499.077C102.367 498.993 102.215 498.909 102.059 498.823C97.4862 496.259 94.0203 492.683 90.8875 488.118C90.7419 487.918 90.5963 487.718 90.4462 487.513C87.8484 483.935 85.9062 480.183 84.7691 475.704C84.5623 474.894 84.3681 474.299 83.9533 473.59C83.8939 472.929 83.8939 472.929 83.8974 472.189C83.8956 471.822 83.8956 471.822 83.8939 471.448C83.9533 470.787 83.9533 470.787 84.4007 470.022C84.548 469.349 84.681 468.679 84.8061 467.999C85.4948 464.515 86.6907 461.574 88.7544 458.844C90.2285 456.869 90.8554 455.174 91.271 452.642C91.43 451.68 91.6168 450.725 91.8006 449.769C91.8363 449.579 91.8721 449.391 91.9089 449.196C92.403 446.623 93.1897 444.186 94.0191 441.732C94.1146 441.444 94.2102 441.155 94.3086 440.858C95.4826 437.317 96.7026 433.857 98.2691 430.518C98.4051 430.205 98.5402 429.891 98.6745 429.576C99.8277 426.923 101.33 424.653 102.966 422.362C103.138 422.12 103.138 422.12 103.313 421.873C107.193 416.426 112.111 412.021 117.73 409.109C116.182 406.107 114.311 403.386 111.914 401.209C111.67 400.979 111.427 400.75 111.183 400.521C108.025 397.524 108.025 397.524 104.532 395.092C104.486 395.256 104.439 395.42 104.391 395.589C103.96 396.685 103.371 397.627 102.771 398.612C102.641 398.826 102.512 399.039 102.379 399.259C100.399 402.507 98.3103 405.617 96.0322 408.6C95.8849 408.793 95.7375 408.987 95.5857 409.186C95.3327 409.517 95.0785 409.846 94.8229 410.175C94.5806 410.49 94.3431 410.81 94.1099 411.134C91.6844 414.459 88.2166 417.352 84.4007 418.03C81.0336 418.246 77.8453 417.733 75.1256 415.228C74.1293 414.14 73.5235 413.266 73.365 411.663C73.3157 407.052 75.7752 403.845 78.4381 400.65C78.9911 399.984 79.5228 399.302 80.0528 398.612C80.8815 397.561 81.7612 396.614 82.6942 395.684C83.0908 395.285 83.4805 394.876 83.8633 394.46C85.7354 392.429 87.7749 390.694 89.8578 388.954C90.4265 388.477 90.9913 387.994 91.5551 387.509C97.7449 382.203 104.7 377.974 111.827 384.192ZM207.203 513.859C207.711 515.672 208.316 517.42 208.951 519.18C209.911 521.872 210.736 524.58 211.453 527.367C211.675 527.241 211.675 527.241 211.901 527.112C212.009 526.66 212.099 526.202 212.18 525.743C212.703 523.227 213.768 521.371 215.256 519.466C215.087 519.371 215.087 519.371 214.915 519.273C212.411 517.839 210.11 516.294 207.874 514.369C207.653 514.201 207.431 514.033 207.203 513.859Z" fill="white"/>
</mask>
<g mask="url(#mask0_0_1)">
<path d="M111.827 384.192C112.783 385.065 113.694 385.994 114.598 386.936C114.758 387.102 114.918 387.269 115.083 387.44C115.589 387.971 116.094 388.504 116.597 389.039C116.831 389.287 116.831 389.287 117.07 389.54C118.103 390.651 119.046 391.82 119.966 393.053C120.173 393.322 120.38 393.591 120.587 393.86C122.845 396.847 124.665 400.041 126.389 403.449C126.923 404.493 127.471 405.526 128.019 406.561C128.173 406.553 128.326 406.545 128.485 406.537C134.737 406.23 140.753 406.091 146.92 407.483C147.757 407.634 147.757 407.635 148.598 407.58C149.045 407.063 149.045 407.063 149.404 406.35C149.549 406.089 149.694 405.829 149.844 405.56C149.996 405.281 150.147 405.001 150.304 404.713C151.615 402.383 152.921 400.367 154.637 398.405C154.958 398.011 155.275 397.612 155.592 397.213C157.148 395.251 158.714 393.428 160.547 391.798C161.329 391.081 162.063 390.309 162.798 389.53C165.512 386.859 168.916 385.005 172.532 385.2C176.33 385.619 179.551 387.691 182.454 390.417C182.843 390.779 183.238 391.131 183.635 391.482C184.896 392.596 186.136 393.721 187.325 394.934C188.289 395.887 189.316 396.761 190.343 397.625C190.805 398.082 191.17 398.529 191.564 399.059C192.64 400.472 193.817 401.763 194.994 403.066C195.921 404.107 196.752 405.151 197.512 406.356C197.937 407.015 198.42 407.609 198.899 408.217C200.693 410.583 202.1 413.528 202.073 416.692C202.071 416.99 202.068 417.288 202.066 417.596C202.063 417.937 202.063 417.937 202.059 418.285C201.911 418.285 201.763 418.285 201.611 418.285C201.59 418.474 201.569 418.663 201.547 418.858C201.224 420.276 200.127 421.193 199.092 421.985C196.352 423.693 192.965 424.205 189.957 423.257C186.271 421.978 183.489 419.322 181.032 415.991C180.784 415.656 180.784 415.656 180.531 415.314C178.818 412.964 177.23 410.521 175.706 408.01C175.553 407.759 175.553 407.759 175.397 407.502C174.851 406.596 174.352 405.679 173.882 404.72C173.453 403.88 172.969 403.08 172.49 402.276C171.44 400.505 171.44 400.505 171.19 399.934C170.369 400.096 169.831 400.502 169.153 401.043C168.823 401.306 168.823 401.306 168.486 401.574C168.257 401.758 168.029 401.943 167.793 402.132C167.568 402.311 167.344 402.489 167.113 402.673C163.998 405.162 161.117 407.818 158.664 411.148C159.28 411.617 159.885 411.942 160.564 412.272C164.237 414.063 167.98 416.062 171.19 418.794C171.364 418.942 171.537 419.089 171.716 419.241C173.117 420.435 174.505 421.649 175.887 422.872C176.022 422.991 176.157 423.11 176.296 423.232C178.866 425.504 181.039 428.12 183.045 431.028C183.24 431.297 183.435 431.567 183.63 431.835C188.861 439.114 188.861 439.114 188.861 441.732C189.126 441.72 189.392 441.709 189.665 441.696C195.095 441.527 200.416 443.63 204.511 447.801C204.953 448.164 204.953 448.164 205.476 448.041C206.164 447.824 206.716 447.508 207.342 447.115C207.586 446.966 207.829 446.816 208.08 446.661C208.34 446.501 208.6 446.341 208.867 446.176C212.845 443.769 216.851 442.153 221.263 441.11C221.756 440.982 221.756 440.982 222.234 440.701C223.128 440.354 223.971 440.38 224.909 440.381C225.21 440.38 225.21 440.38 225.518 440.378C225.944 440.376 226.371 440.376 226.797 440.377C227.432 440.378 228.067 440.372 228.702 440.366C234.81 440.341 240.577 441.357 245.453 445.81C245.645 445.712 245.645 445.712 245.84 445.613C261.395 437.708 279.69 432.794 296.218 439.915C299.415 441.353 302.266 443.09 304.953 445.555C305.157 445.739 305.362 445.923 305.572 446.112C306.925 447.348 308.207 448.657 309.477 450.001C309.984 450.533 310.497 451.05 311.021 451.561C313.938 454.464 315.939 457.722 317.846 461.518C318.155 462.131 318.471 462.74 318.788 463.348C321.731 469.043 323.999 474.921 325.93 481.134C326.322 482.377 326.738 483.609 327.168 484.837C327.239 485.04 327.31 485.243 327.383 485.453C327.884 486.863 328.464 488.185 329.148 489.493C329.461 490.605 329.097 491.442 328.668 492.464C328.407 493.035 328.133 493.596 327.853 494.155C327.753 494.356 327.653 494.558 327.55 494.765C326.199 497.461 324.742 499.887 322.848 502.136C322.678 502.345 322.508 502.555 322.333 502.771C319.539 506.116 316.113 508.171 312.559 510.291C312.259 510.474 311.959 510.657 311.659 510.84C306.624 513.862 301.167 515.895 295.782 517.937C295.782 518.843 295.987 519.225 296.363 520.018C296.486 520.281 296.61 520.544 296.736 520.815C296.869 521.096 297.002 521.376 297.138 521.665C297.963 523.416 298.745 525.126 299.318 527.005C299.806 528.658 299.806 528.658 300.852 529.89C301.539 530.208 302.229 530.44 302.94 530.681C305.481 532.093 307.874 533.988 308.98 537.052C309.863 540.553 309.248 544.501 307.775 547.656C307.457 548.232 307.118 548.757 306.743 549.286C306.609 549.479 306.476 549.672 306.338 549.871C303.252 554.088 298.706 555.516 294.082 556.086C289.522 556.505 285.183 556.268 281.318 553.136C279.856 551.635 279.341 549.261 279.181 547.098C279.036 542.306 281.24 538.912 283.927 535.523C284.077 535.328 284.226 535.133 284.38 534.933C286.03 532.902 288.238 531.593 290.414 530.426C290.071 529.073 289.535 527.918 288.932 526.698C288.833 526.498 288.735 526.297 288.634 526.09C287.805 524.42 286.908 522.821 285.94 521.251C285.662 521.306 285.383 521.361 285.096 521.418C282 521.971 278.946 522.1 275.818 522.111C275.524 522.114 275.524 522.114 275.224 522.116C271.217 522.148 267.4 521.498 263.502 520.47C263.12 520.372 263.12 520.372 262.73 520.272C261.508 519.957 260.298 519.624 259.098 519.212C259.199 519.407 259.299 519.603 259.403 519.804C260.344 521.653 261.252 523.52 262.132 525.408C262.238 525.635 262.344 525.862 262.454 526.096C263.039 527.369 263.524 528.63 263.941 529.986C264.446 531.682 264.446 531.682 265.511 532.952C266.199 533.267 266.889 533.499 267.598 533.739C270.138 535.151 272.532 537.046 273.637 540.111C274.521 543.612 273.906 547.56 272.433 550.714C272.115 551.291 271.776 551.815 271.401 552.344C271.267 552.537 271.134 552.731 270.996 552.93C267.91 557.146 263.364 558.575 258.74 559.144C254.18 559.564 249.841 559.326 245.976 556.194C244.514 554.693 243.999 552.32 243.839 550.156C243.694 545.365 245.897 541.971 248.585 538.581C248.734 538.387 248.884 538.192 249.038 537.991C250.688 535.961 252.895 534.651 255.072 533.484C253.79 528.52 250.514 523.727 247.718 519.737C247.607 519.576 247.495 519.415 247.38 519.249C246.555 518.106 245.624 517.25 244.559 516.408C244.404 516.593 244.25 516.777 244.091 516.968C242.849 518.431 241.639 519.705 240.085 520.741C240.206 520.966 240.328 521.191 240.453 521.423C241.942 524.243 242.987 526.945 242.441 530.306C241.945 532.486 240.894 534.292 239.414 535.778C239.249 535.948 239.249 535.948 239.08 536.122C234.562 540.4 228.249 540.977 222.637 540.62C219.162 540.178 216.125 538.337 213.69 535.523C213.542 535.355 213.395 535.187 213.243 535.013C213.317 536.948 213.39 538.882 213.466 540.875C214.165 541.246 214.165 541.246 214.878 541.624C218.457 543.631 221.264 547.032 222.637 551.325C223.275 553.506 223.076 556.489 222.273 558.576C220.466 562.402 217.443 564.661 213.914 566.107C212.877 566.439 211.846 566.686 210.782 566.872C210.519 566.918 210.256 566.965 209.985 567.013C205.305 567.652 199.703 567.61 195.725 564.355C195.446 564.095 195.171 563.83 194.901 563.558C194.765 563.425 194.63 563.292 194.491 563.154C192.657 561.215 191.575 558.863 191.448 556.008C191.52 551.895 193.907 548.336 196.373 545.551C198.219 543.556 200.455 542.353 202.73 541.13C202.736 540.243 202.74 539.357 202.744 538.47C202.745 538.222 202.747 537.973 202.749 537.718C202.754 536.199 202.68 534.735 202.506 533.229C202.387 533.429 202.267 533.629 202.144 533.836C199.218 538.538 194.752 540.29 189.932 541.277C184.992 541.905 180.019 541.504 175.914 538.037C173.839 536.015 172.479 533.742 172.246 530.598C172.172 527.422 172.696 524.008 174.665 521.594C174.993 521.219 175.328 520.852 175.664 520.486C175.492 520.469 175.32 520.453 175.143 520.436C169.688 519.896 164.415 518.93 159.377 516.339C158.792 516.117 158.569 516.186 157.993 516.408C157.48 516.862 156.995 517.319 156.511 517.81C156.372 517.948 156.233 518.086 156.09 518.229C155.679 518.639 155.27 519.052 154.861 519.466C154.655 519.675 154.449 519.884 154.237 520.099C153.874 520.47 153.512 520.842 153.151 521.216C152.795 521.584 152.437 521.95 152.076 522.313C150.042 524.369 148.118 526.529 146.361 528.896C146.163 529.157 145.965 529.418 145.766 529.678C144.597 531.221 143.496 532.76 142.559 534.504C142.686 534.564 142.813 534.625 142.944 534.688C145.083 536.055 146.215 538.829 146.878 541.401C147.289 544.079 147.022 546.415 145.718 548.728C145.172 549.598 144.608 550.36 143.901 551.07C143.735 551.24 143.735 551.24 143.567 551.414C139.072 555.671 132.715 556.321 127.124 555.912C123.623 555.437 120.535 553.841 118.106 550.877C116.351 548.213 116.001 545.654 116.164 542.404C116.575 539.158 117.88 536.253 120.19 534.249C122.868 532.327 126.529 530.48 129.738 531.093C130.695 531.248 131.583 531.375 132.493 530.935C133.562 529.776 134.195 528.179 134.877 526.709C135.572 525.28 136.502 524.036 137.414 522.78C137.522 522.63 137.631 522.481 137.743 522.327C139.057 520.528 140.402 518.793 141.887 517.173C142.072 516.962 142.257 516.752 142.447 516.536C142.631 516.325 142.816 516.115 143.006 515.898C143.123 515.756 143.241 515.613 143.362 515.466C144.536 514.068 145.83 512.898 147.174 511.722C147.888 511.096 148.58 510.444 149.269 509.782C149.158 509.671 149.048 509.561 148.934 509.447C148.598 509.017 148.598 509.017 148.598 508.252C148.466 508.27 148.334 508.288 148.198 508.306C146.734 508.49 145.288 508.552 143.815 508.559C143.454 508.562 143.454 508.562 143.085 508.564C142.304 508.569 141.523 508.57 140.741 508.571C140.474 508.571 140.206 508.572 139.931 508.572C136.384 508.571 132.856 508.485 129.319 508.173C129.145 508.158 128.97 508.143 128.79 508.127C124.99 507.791 121.306 507.193 117.674 505.847C117.525 505.793 117.375 505.738 117.222 505.683C112.21 503.858 107.254 501.695 102.519 499.077C102.367 498.993 102.215 498.909 102.059 498.823C97.4862 496.259 94.0203 492.683 90.8875 488.118C90.7419 487.918 90.5963 487.718 90.4462 487.513C87.8484 483.935 85.9062 480.183 84.7691 475.704C84.5623 474.894 84.3681 474.299 83.9533 473.59C83.8939 472.929 83.8939 472.929 83.8974 472.189C83.8956 471.822 83.8956 471.822 83.8939 471.448C83.9533 470.787 83.9533 470.787 84.4007 470.022C84.548 469.348 84.681 468.679 84.8061 467.999C85.4948 464.515 86.6907 461.574 88.7544 458.844C90.2285 456.87 90.8554 455.174 91.271 452.642C91.43 451.68 91.6168 450.725 91.8006 449.769C91.8363 449.58 91.8721 449.391 91.9089 449.196C92.403 446.623 93.1897 444.186 94.0191 441.732C94.1146 441.444 94.2102 441.155 94.3086 440.858C95.4826 437.317 96.7026 433.857 98.2691 430.518C98.4051 430.205 98.5402 429.891 98.6745 429.576C99.8277 426.923 101.33 424.654 102.966 422.362C103.138 422.12 103.138 422.12 103.313 421.873C107.193 416.426 112.111 412.021 117.73 409.109C116.182 406.107 114.311 403.386 111.914 401.209C111.67 400.979 111.427 400.75 111.183 400.521C108.025 397.524 108.025 397.524 104.532 395.092C104.486 395.256 104.439 395.42 104.391 395.589C103.96 396.685 103.371 397.627 102.771 398.612C102.641 398.826 102.512 399.039 102.379 399.259C100.399 402.506 98.3103 405.617 96.0322 408.6C95.8849 408.793 95.7375 408.987 95.5857 409.186C95.3327 409.517 95.0785 409.846 94.8229 410.175C94.5806 410.49 94.3431 410.81 94.1099 411.134C91.6844 414.459 88.2166 417.352 84.4007 418.03C81.0336 418.246 77.8453 417.733 75.1256 415.228C74.1293 414.14 73.5235 413.266 73.365 411.663C73.3157 407.052 75.7752 403.845 78.4381 400.65C78.9911 399.984 79.5228 399.302 80.0528 398.612C80.8815 397.561 81.7612 396.614 82.6942 395.684C83.0908 395.285 83.4805 394.876 83.8633 394.46C85.7354 392.429 87.7749 390.694 89.8578 388.954C90.4265 388.477 90.9913 387.994 91.5551 387.509C97.7449 382.203 104.7 377.974 111.827 384.192ZM207.203 513.859C207.711 515.672 208.316 517.42 208.951 519.18C209.911 521.872 210.736 524.58 211.453 527.367C211.675 527.241 211.675 527.241 211.901 527.112C212.009 526.66 212.099 526.202 212.18 525.743C212.703 523.227 213.768 521.371 215.256 519.466C215.087 519.371 215.087 519.371 214.915 519.273C212.411 517.839 210.11 516.294 207.874 514.369C207.653 514.201 207.431 514.033 207.203 513.859Z" stroke="#4A2013" stroke-width="20"/>
</g>
</g>
<path d="M136.183 410.575C136.339 410.574 136.494 410.574 136.654 410.574C140.127 410.573 143.414 411.125 146.808 411.913C146.568 412.881 146.255 413.63 145.774 414.462C144.99 415.987 145.146 417.591 145.242 419.304C145.39 419.304 145.538 419.304 145.69 419.304C146.027 419.676 146.027 419.676 146.389 420.164C146.509 420.324 146.63 420.484 146.754 420.648C147.032 421.088 147.032 421.088 147.032 421.598C148.918 422.404 151.07 422.624 153.071 422.362C153.719 421.813 153.925 421.181 154.19 420.324C154.337 420.324 154.485 420.324 154.637 420.324C154.674 420.079 154.674 420.079 154.711 419.829C154.934 418.445 155.231 417.263 155.756 415.991C155.829 415.738 155.903 415.486 155.979 415.226C158.534 415.42 160.895 417.247 163.145 418.542C163.605 418.806 164.066 419.067 164.527 419.328C167.083 420.786 169.35 422.719 171.637 424.656C171.85 424.836 171.85 424.836 172.068 425.02C175.153 427.647 178.028 430.582 180.361 434.086C180.544 434.348 180.727 434.609 180.916 434.879C183.439 438.495 185.557 442.533 186.864 446.922C187.093 447.665 187.358 448.383 187.631 449.107C188.416 451.236 189.077 453.369 189.435 455.646C189.498 456.046 189.569 456.445 189.65 456.841C191.232 464.735 191.093 476.126 187.354 483.145C185.882 485.801 184.067 488.164 182.15 490.412C181.979 490.613 181.808 490.815 181.631 491.023C179.625 493.231 177.106 494.8 174.554 496.043C174.109 496.268 173.685 496.518 173.259 496.783C172.263 497.362 171.215 497.685 170.146 498.042C169.454 498.293 168.817 498.593 168.156 498.934C166.423 499.786 164.597 500.216 162.768 500.714C162.061 500.912 161.362 501.138 160.663 501.371C159.431 501.779 158.197 502.171 156.958 502.55C156.706 502.629 156.706 502.629 156.448 502.709C145.708 505.964 129.089 506.01 118.613 501.551C117.972 501.286 117.32 501.066 116.667 500.845C114.368 500.049 112.121 499.098 109.9 498.058C109.718 497.976 109.535 497.894 109.347 497.81C103.154 494.977 98.4033 491.844 94.2424 485.824C94.0396 485.539 93.8366 485.255 93.6333 484.971C92.2682 483.048 91.0682 481.096 89.9924 478.943C89.8793 478.723 89.7663 478.503 89.6498 478.277C88.1939 475.253 88.0058 471.245 88.5725 467.882C89.3617 464.941 90.8789 462.502 92.6372 460.214C93.8511 458.58 94.2168 456.796 94.6058 454.73C94.8897 453.228 94.8897 453.228 95.1371 452.946C95.2103 452.486 95.2738 452.024 95.3328 451.561C95.5786 449.814 95.9348 448.173 96.5587 446.551C97.0379 445.296 97.4071 443.998 97.7933 442.704C98.928 438.952 100.271 435.332 101.848 431.792C101.995 431.792 102.143 431.792 102.295 431.792C102.319 431.608 102.342 431.424 102.367 431.234C103.65 425.19 110.688 418.774 115.04 415.676C115.923 415.074 116.82 414.503 117.729 413.952C117.893 413.85 118.057 413.749 118.226 413.644C118.746 413.38 119.18 413.407 119.742 413.442C120.347 414.682 120.698 415.955 121.049 417.315C121.342 418.124 121.584 418.529 122.203 419.049C124.256 419.457 126.352 418.905 128.228 417.95C128.825 417.393 129.169 416.725 129.584 415.991C129.732 415.991 129.88 415.991 130.032 415.991C130.044 415.47 130.053 414.95 130.06 414.43C130.065 414.14 130.07 413.85 130.076 413.552C130.031 412.663 129.865 411.975 129.584 411.148C130.664 409.918 134.69 410.577 136.183 410.575Z" fill="#956346"/>
<path d="M285.493 441.222C285.567 441.306 285.64 441.391 285.716 441.477C286.233 441.542 286.751 441.598 287.268 441.652C289.241 441.896 291.007 442.575 292.866 443.338C293.485 443.58 294.115 443.759 294.748 443.946C298.218 445.163 301.194 447.601 303.903 450.282C304.423 450.79 304.961 451.269 305.498 451.752C306.611 452.79 307.664 453.897 308.714 455.017C308.875 455.188 309.035 455.358 309.201 455.534C309.655 456.024 310.102 456.521 310.545 457.024C310.672 457.163 310.798 457.302 310.929 457.445C311.972 458.687 312.337 460.054 312.726 461.691C312.826 462.101 312.826 462.101 312.927 462.519C314.036 467.261 313.969 471.949 313.907 476.829C313.9 477.438 313.896 478.048 313.891 478.657C313.819 487.982 313.819 487.982 312.902 492.144C312.779 492.718 312.677 493.293 312.579 493.873C312.126 496.514 311.426 498.989 310.549 501.486C310.39 501.939 310.234 502.394 310.079 502.849C309.83 503.58 309.574 504.308 309.315 505.034C309.238 505.26 309.162 505.486 309.083 505.719C308.43 507.502 307.646 508.301 306.114 509.082C305.92 509.155 305.726 509.228 305.526 509.303C305.315 509.386 305.104 509.468 304.886 509.552C304.687 509.628 304.487 509.703 304.282 509.781C303.353 510.159 302.45 510.565 301.556 511.04C300.495 511.588 299.402 511.953 298.287 512.329C297.649 512.557 297.042 512.817 296.425 513.11C295.27 513.658 294.086 514.022 292.874 514.369C292.768 514.212 292.663 514.054 292.554 513.892C291.62 512.529 290.643 511.285 289.557 510.078C288.832 509.254 288.166 508.379 287.506 507.487C287.326 507.246 287.146 507.004 286.961 506.755C286.611 506.213 286.611 506.213 286.611 505.703C286.431 505.621 286.431 505.621 286.247 505.537C285.526 505.07 284.979 504.429 284.388 503.776C282.164 501.389 279.677 499.641 277.014 497.963C276.837 497.85 276.66 497.737 276.478 497.62C276.319 497.52 276.159 497.42 275.995 497.317C275.824 497.179 275.824 497.179 275.651 497.038C275.651 496.87 275.651 496.702 275.651 496.528C275.471 496.502 275.291 496.476 275.105 496.449C274.294 496.27 273.554 496.003 272.776 495.692C271.11 495.057 269.077 494.802 267.409 495.533C266.357 496.284 265.481 497.178 265.137 498.567C264.91 500.355 265.016 501.881 265.881 503.42C266.557 504.32 267.369 504.876 268.269 505.449C268.528 505.622 268.528 505.622 268.792 505.798C269.977 506.575 271.191 507.193 272.463 507.763C276.007 509.385 281.367 512.641 283.48 516.408C283.48 516.66 283.48 516.912 283.48 517.172C281 517.81 278.516 517.794 275.986 517.794C275.651 517.794 275.651 517.794 275.31 517.794C271.583 517.788 268.094 517.441 264.466 516.408C264.243 516.346 264.019 516.285 263.789 516.222C261.651 515.629 259.548 514.925 257.476 514.082C257.254 513.994 257.254 513.994 257.027 513.905C256.452 513.657 256.023 513.418 255.598 512.906C255.47 511.971 255.92 511.306 256.33 510.53C257.795 507.701 258.531 504.564 259.368 501.441C259.544 500.785 259.721 500.129 259.898 499.474C262.061 491.66 262.061 491.66 263.268 483.609C263.348 482.765 263.348 482.765 263.572 482.001C263.906 474.941 263.246 468.318 261.505 461.528C261.361 460.95 261.233 460.374 261.114 459.789C260.842 458.609 260.476 457.501 260.077 456.371C259.998 456.149 259.92 455.927 259.839 455.698C258.852 452.957 257.624 450.395 256.241 447.887C255.945 447.297 255.728 446.7 255.519 446.065C258.612 443.807 263.372 442.836 266.99 442.349C267.618 442.256 267.618 442.256 268.28 442.001C273.533 440.229 280.083 440.534 285.493 441.222Z" fill="#6D432C"/>
<path d="M239.19 446.575C239.368 446.649 239.546 446.723 239.729 446.8C241.328 447.586 242.831 449.057 244.111 450.398C244.111 450.566 244.111 450.734 244.111 450.908C244.332 450.992 244.554 451.076 244.782 451.162C245.182 451.733 245.551 452.299 245.914 452.899C246.014 453.059 246.114 453.22 246.217 453.385C247.466 455.412 247.466 455.412 247.466 456.515C247.614 456.515 247.762 456.515 247.914 456.515C247.97 456.681 248.027 456.847 248.086 457.018C248.422 457.991 248.755 458.944 249.172 459.876C249.521 460.69 249.714 461.504 249.927 462.376C250.005 462.545 250.084 462.713 250.164 462.886C250.468 463.623 250.505 464.378 250.598 465.18C250.672 465.264 250.745 465.348 250.822 465.435C251.394 468.114 251.331 470.859 251.315 473.596C251.311 474.344 251.31 475.091 251.31 475.839C251.309 476.318 251.308 476.798 251.306 477.277C251.306 477.499 251.306 477.72 251.306 477.948C251.298 479.075 251.228 480.125 251.045 481.237C251.013 481.676 250.986 482.116 250.965 482.556C250.807 485.432 250.552 488.237 250.053 491.065C250.007 491.327 249.961 491.588 249.913 491.858C249.678 493.127 249.393 494.316 248.971 495.52C248.668 496.449 248.483 497.415 248.277 498.376C247.848 500.313 247.318 502.107 246.572 503.92C245.904 503.761 245.396 503.517 244.813 503.118C244.651 503.009 244.489 502.899 244.323 502.786C244.156 502.671 243.989 502.557 243.817 502.438C243.487 502.213 243.157 501.989 242.827 501.764C242.668 501.656 242.509 501.547 242.345 501.435C241.671 500.979 240.99 500.537 240.308 500.097C240.308 499.928 240.308 499.76 240.308 499.587C240.013 499.587 239.718 499.587 239.414 499.587C239.414 499.419 239.414 499.25 239.414 499.077C239.246 499.043 239.079 499.009 238.907 498.975C238.687 498.93 238.466 498.885 238.239 498.838C238.021 498.794 237.803 498.75 237.579 498.704C236.953 498.567 236.953 498.567 236.499 498.426C234.85 498.001 232.846 498.154 231.366 499.107C230.528 499.802 230.143 500.423 229.907 501.578C229.662 503.644 229.834 505.27 230.914 506.978C231.499 507.434 231.499 507.434 232.032 507.743C232.032 507.911 232.032 508.079 232.032 508.252C232.275 508.359 232.275 508.359 232.523 508.468C233.113 508.745 233.673 509.052 234.241 509.383C235.133 509.896 236.029 510.365 236.953 510.801C237.433 511.029 237.913 511.258 238.393 511.486C238.808 511.683 239.223 511.879 239.637 512.075C239.637 512.244 239.637 512.412 239.637 512.585C240.231 512.859 240.819 513.119 241.427 513.35C241.427 513.602 241.427 513.854 241.427 514.114C240.983 514.569 240.549 514.971 240.071 515.373C239.945 515.482 239.82 515.592 239.69 515.705C235.695 519.133 230.447 520.036 225.545 519.466C224.769 519.218 224.769 519.218 224.203 518.957C223.945 518.888 223.686 518.82 223.42 518.75C221.404 518.188 219.493 517.368 217.716 516.153C217.126 515.873 216.531 515.63 215.927 515.389C215.927 515.22 215.927 515.052 215.927 514.879C215.769 514.853 215.611 514.828 215.448 514.801C212.458 513.973 209.951 510.926 207.764 508.607C206.915 507.713 206.051 506.838 205.19 505.959C205.556 504.806 206.067 503.783 206.602 502.725C207.939 500.039 209.017 497.424 209.887 494.49C209.949 494.282 210.011 494.074 210.075 493.859C210.179 493.508 210.281 493.157 210.382 492.805C210.504 492.384 210.629 491.964 210.756 491.545C214.052 480.597 214.713 466.699 210.335 456.005C209.805 454.846 209.187 453.774 208.545 452.692C208.39 452.355 208.238 452.017 208.098 451.672C216.433 445.698 229.795 441.244 239.19 446.575Z" fill="#6D432C"/>
<path d="M190.427 446.065C192.807 445.961 194.787 446.37 196.914 447.594C197.118 447.708 197.118 447.708 197.326 447.824C202.131 450.521 206.247 454.093 208.157 460.033C209.499 464.603 209.747 469.272 209.747 474.053C209.748 474.863 209.756 475.673 209.764 476.483C209.778 479.453 209.577 481.979 208.769 484.804C208.683 485.26 208.603 485.716 208.531 486.174C208.366 487.182 208.11 488.117 207.811 489.082C207.65 489.65 207.542 490.208 207.441 490.794C207.256 491.803 206.945 492.67 206.557 493.599C206.307 494.237 206.106 494.878 205.908 495.54C203.726 502.438 199.238 509.578 193.335 512.84C192.492 513.242 191.639 513.557 190.763 513.85C190.193 514.042 189.663 514.249 189.113 514.495C188.152 514.914 187.181 515.176 186.177 515.42C186.008 515.463 185.839 515.506 185.665 515.551C183.412 516.111 181.22 516.214 178.921 516.217C178.759 516.217 178.597 516.217 178.43 516.218C169.799 516.214 160.29 513.858 153.295 507.742C154.017 507.194 154.421 507.114 155.267 506.978C156.227 506.822 157.075 506.567 157.993 506.213C158.703 505.999 159.418 505.805 160.132 505.608C161.646 505.184 163.14 504.724 164.626 504.182C165.379 503.918 166.135 503.68 166.896 503.447C168.329 503.005 169.728 502.555 171.096 501.888C171.759 501.567 172.431 501.279 173.105 500.988C181.071 497.489 187.901 491.413 191.577 482.424C193.088 478.38 193.592 473.999 193.596 469.642C193.597 469.37 193.598 469.098 193.598 468.818C193.6 468.246 193.6 467.674 193.6 467.102C193.601 466.235 193.605 465.368 193.609 464.502C193.609 463.943 193.61 463.383 193.61 462.824C193.613 462.442 193.613 462.442 193.615 462.052C193.604 457.961 192.624 454.015 191.545 450.143C191.423 449.681 191.302 449.219 191.182 448.757C190.945 447.853 190.695 446.957 190.427 446.065Z" fill="#916245"/>
<path d="M271.609 441.381C271.955 441.35 271.955 441.35 272.309 441.318C272.524 441.293 272.739 441.269 272.96 441.244C274.602 441.809 275.477 444.223 276.251 445.841C276.362 446.078 276.473 446.315 276.587 446.558C276.757 446.912 276.757 446.912 276.931 447.273C277.565 448.61 278.117 449.948 278.588 451.37C278.777 451.91 278.992 452.417 279.23 452.93C279.686 453.939 280.007 454.982 280.336 456.052C280.557 456.724 280.812 457.352 281.089 457.996C283.49 463.955 284.648 470.824 284.64 477.349C284.64 477.525 284.64 477.701 284.64 477.883C284.637 480.729 284.5 483.514 284.151 486.334C284.126 486.599 284.102 486.864 284.076 487.138C283.678 490.93 282.548 494.708 281.466 498.312C281.319 498.312 281.171 498.312 281.019 498.312C280.908 499.069 280.908 499.069 280.795 499.841C279.556 499.719 278.744 499.18 277.72 498.44C277.423 498.23 277.126 498.02 276.828 497.81C276.587 497.64 276.346 497.469 276.098 497.293C275.95 497.209 275.803 497.125 275.651 497.038C275.651 496.87 275.651 496.702 275.651 496.528C275.471 496.502 275.291 496.476 275.105 496.449C274.294 496.27 273.554 496.003 272.776 495.692C271.11 495.057 269.077 494.802 267.409 495.533C266.357 496.284 265.481 497.178 265.137 498.567C264.91 500.355 265.016 501.881 265.881 503.42C266.557 504.32 267.369 504.876 268.269 505.449C268.528 505.621 268.528 505.621 268.792 505.798C269.977 506.574 271.191 507.193 272.463 507.763C276.007 509.385 281.367 512.641 283.48 516.408C283.48 516.66 283.48 516.912 283.48 517.172C281 517.81 278.516 517.794 275.986 517.794C275.651 517.794 275.651 517.794 275.31 517.794C271.583 517.788 268.094 517.441 264.466 516.408C264.243 516.346 264.019 516.285 263.789 516.222C261.651 515.629 259.548 514.924 257.476 514.082C257.254 513.994 257.254 513.994 257.027 513.905C256.452 513.657 256.023 513.418 255.598 512.906C255.47 511.97 255.92 511.306 256.33 510.53C257.795 507.701 258.531 504.564 259.368 501.441C259.544 500.785 259.721 500.129 259.898 499.474C262.061 491.66 262.061 491.66 263.268 483.609C263.348 482.765 263.348 482.765 263.572 482.001C263.906 474.941 263.246 468.318 261.505 461.528C261.361 460.95 261.233 460.374 261.114 459.789C260.842 458.609 260.476 457.501 260.077 456.371C259.998 456.149 259.92 455.926 259.839 455.697C258.852 452.956 257.624 450.395 256.241 447.887C255.945 447.297 255.728 446.7 255.519 446.065C258.645 443.782 263.386 442.874 267.034 442.334C267.766 442.214 268.455 441.969 269.164 441.732C269.979 441.575 270.79 441.501 271.609 441.381Z" fill="#916245"/>
<path d="M222.861 445.555C223.478 446.887 223.971 448.207 224.399 449.632C224.607 450.264 224.834 450.866 225.079 451.48C226.455 454.975 227.24 458.732 227.978 462.456C228.028 462.71 228.028 462.71 228.08 462.969C228.445 464.811 228.737 466.616 228.9 468.493C228.974 468.661 229.048 468.83 229.124 469.003C230.396 477.763 229.329 488.798 225.962 496.805C225.76 497.315 225.614 497.824 225.475 498.36C224.809 500.715 223.719 502.96 222.477 504.979C222.156 505.489 222.156 505.489 221.798 506.229C221.706 506.392 221.614 506.555 221.519 506.723C221.371 506.723 221.224 506.723 221.072 506.723C221.013 506.872 220.954 507.021 220.893 507.175C219.884 509.304 217.809 510.693 216.092 512.018C215.823 512.234 215.56 512.462 215.305 512.699C214.308 513.603 214.308 513.603 213.439 513.609C211.225 512.716 209.459 510.44 207.778 508.628C206.93 507.721 206.058 506.842 205.19 505.958C205.556 504.806 206.067 503.783 206.602 502.725C207.939 500.039 209.017 497.424 209.887 494.489C209.949 494.281 210.011 494.074 210.075 493.859C210.179 493.508 210.281 493.157 210.382 492.805C210.504 492.384 210.629 491.964 210.756 491.545C214.052 480.597 214.713 466.699 210.335 456.005C209.805 454.846 209.187 453.774 208.545 452.691C208.39 452.355 208.238 452.016 208.098 451.672C212.053 448.837 218.02 445.054 222.861 445.555Z" fill="#926346"/>
<path d="M294.663 444.281C296.12 444.565 297.31 445.059 298.592 445.89C298.764 446 298.937 446.111 299.115 446.225C300.855 447.377 302.374 448.785 303.896 450.278C304.419 450.785 304.959 451.267 305.498 451.752C306.611 452.79 307.664 453.897 308.714 455.017C308.874 455.188 309.035 455.358 309.2 455.534C309.655 456.024 310.102 456.521 310.545 457.024C310.671 457.163 310.798 457.302 310.928 457.445C311.972 458.687 312.337 460.054 312.726 461.691C312.792 461.964 312.859 462.238 312.927 462.519C314.036 467.261 313.969 471.949 313.907 476.829C313.9 477.438 313.895 478.048 313.891 478.657C313.819 487.982 313.819 487.982 312.902 492.144C312.779 492.718 312.677 493.293 312.579 493.873C312.125 496.514 311.426 498.989 310.549 501.486C310.39 501.94 310.233 502.394 310.079 502.849C309.83 503.58 309.573 504.308 309.315 505.034C309.238 505.26 309.161 505.486 309.082 505.719C308.429 507.502 307.646 508.301 306.114 509.082C305.92 509.155 305.726 509.228 305.526 509.303C305.315 509.386 305.103 509.468 304.886 509.552C304.686 509.628 304.487 509.704 304.282 509.781C303.353 510.159 302.45 510.565 301.556 511.04C300.495 511.588 299.403 511.953 298.288 512.327C297.64 512.56 297.033 512.834 296.411 513.142C295.32 513.663 294.273 513.802 293.098 513.859C293.214 512.609 293.542 511.802 294.118 510.737C295.125 508.819 295.906 506.814 296.674 504.761C296.829 504.36 296.99 503.961 297.157 503.566C298.058 501.419 298.676 499.191 299.305 496.927C299.416 496.53 299.528 496.134 299.64 495.738C300.221 493.728 300.221 493.728 300.703 491.686C300.851 491.686 300.998 491.686 301.15 491.686C301.144 491.438 301.137 491.19 301.13 490.935C301.13 489.811 301.3 488.743 301.472 487.64C301.805 485.335 301.996 483.061 302.045 480.727C302.056 480.284 302.056 480.284 302.067 479.832C302.176 474.837 301.926 470.113 301.15 465.18C301.096 464.809 301.042 464.438 300.989 464.067C300.311 459.766 299.005 455.738 297.523 451.723C297.02 450.359 296.542 449.032 296.229 447.594C296.082 447.594 295.934 447.594 295.782 447.594C295.593 447.235 295.407 446.873 295.223 446.511C295.119 446.31 295.015 446.109 294.908 445.902C294.663 445.3 294.663 445.3 294.663 444.281Z" fill="#916245"/>
<path d="M255.742 446.065C255.896 446.488 256.044 446.913 256.19 447.339C256.453 447.885 256.725 448.426 257.001 448.964C259.251 453.414 261.132 457.775 262.116 462.824C262.243 463.463 262.379 464.099 262.516 464.736C263.457 469.169 263.832 473.351 263.851 477.907C263.852 478.089 263.853 478.27 263.855 478.458C263.866 480.629 263.749 482.679 263.348 484.805C263.285 485.256 263.224 485.707 263.166 486.159C262.539 490.371 261.559 494.413 260.379 498.461C259.818 500.39 259.304 502.322 258.846 504.286C258.29 506.628 257.433 508.679 256.414 510.801C255.879 511.89 255.879 511.89 255.742 513.095C253.879 512.564 252.34 511.066 251.269 509.272C251.269 509.104 251.269 508.935 251.269 508.762C251.121 508.762 250.974 508.762 250.821 508.762C250.275 508.244 249.849 507.669 249.479 506.978C249.444 505.881 249.662 505.281 250.116 504.317C250.734 502.933 251.049 501.465 251.395 499.969C252.128 496.839 252.128 496.839 252.531 495.667C252.817 494.798 252.974 494.02 253.086 493.104C253.261 491.71 253.261 491.71 253.506 491.431C253.586 490.815 253.654 490.202 253.715 489.583C253.846 488.307 253.995 487.043 254.191 485.776C254.695 482.028 254.648 478.205 254.663 474.421C254.665 474.002 254.668 473.583 254.671 473.164C254.695 469.529 254.693 465.801 253.506 462.376C253.402 462.013 253.301 461.648 253.202 461.283C252.242 457.851 251.107 454.686 249.319 451.691C249.032 451.162 249.032 451.162 249.032 450.653C248.884 450.653 248.737 450.653 248.585 450.653C248.437 450.232 248.289 449.812 248.137 449.378C249.652 448.474 251.149 447.668 252.773 447.049C253.332 446.833 253.332 446.833 253.953 446.32C255.213 445.763 255.213 445.763 255.742 446.065Z" fill="#6D432C"/>
<path d="M197.704 511.1C197.925 511.184 198.147 511.268 198.375 511.355C198.375 511.523 198.375 511.691 198.375 511.865C198.523 511.865 198.67 511.865 198.822 511.865C199.493 513.298 199.493 513.298 199.493 514.158C199.641 514.158 199.789 514.158 199.941 514.158C200.855 516.206 201.61 518.278 202.327 520.425C202.613 521.259 202.916 522.081 203.226 522.904C203.781 524.408 204.191 525.761 204.191 527.412C204.338 527.412 204.486 527.412 204.638 527.412C204.681 527.661 204.725 527.91 204.769 528.167C204.828 528.505 204.887 528.842 204.946 529.18C204.976 529.356 205.007 529.532 205.039 529.714C205.196 530.612 205.361 531.506 205.547 532.397C205.945 534.448 206.197 536.486 206.25 538.585C206.26 538.977 206.26 538.977 206.271 539.377C206.282 539.899 206.289 540.421 206.292 540.943C206.314 542.013 206.346 542.773 206.772 543.738C207.379 544.284 207.894 544.435 208.645 544.605C209.429 544.835 210.043 545.328 210.706 545.842C210.836 545.938 210.966 546.034 211.1 546.134C212.834 547.44 214.023 548.859 215.151 550.859C215.294 551.106 215.437 551.353 215.585 551.608C216.022 553.045 215.937 554.525 215.683 556.004C214.731 558.221 213.434 559.335 211.572 560.544C211.327 560.721 211.082 560.897 210.829 561.079C209.963 561.642 209.111 561.827 208.133 561.994C207.083 562.088 207.083 562.088 206.204 562.583C205.248 562.639 204.292 562.63 203.335 562.63C202.857 562.631 202.379 562.635 201.901 562.64C198.879 562.655 196.154 562.216 193.871 559.776C192.947 558.655 192.043 557.508 192 555.909C192.103 555.01 192.264 554.248 192.559 553.408C192.707 553.408 192.854 553.408 193.007 553.408C193.025 553.229 193.043 553.05 193.062 552.866C193.652 550.293 195.937 548.052 197.808 546.642C198.53 546.17 199.266 545.826 200.046 545.498C200.661 545.231 201.249 544.926 201.842 544.599C202.024 544.499 202.207 544.399 202.394 544.295C202.914 543.982 202.914 543.982 203.296 543.213C203.345 542.551 203.369 541.917 203.371 541.255C203.373 541.06 203.375 540.866 203.377 540.665C203.381 540.033 203.381 539.401 203.38 538.769C203.38 538.555 203.38 538.341 203.38 538.12C203.376 534.865 203.175 531.834 202.401 528.686C202.343 528.416 202.284 528.146 202.224 527.868C202.075 527.199 201.908 526.542 201.73 525.882C201.672 525.65 201.613 525.418 201.553 525.178C201.08 523.418 200.432 521.819 199.676 520.197C199.187 519.134 198.856 518.128 198.599 516.962C198.451 516.962 198.303 516.962 198.151 516.962C198.004 516.373 197.856 515.785 197.704 515.178C197.556 515.178 197.409 515.178 197.257 515.178C197.109 514.589 196.961 514 196.809 513.394C196.662 513.394 196.514 513.394 196.362 513.394C196.467 512.311 197.025 511.814 197.704 511.1Z" fill="#6D432C"/>
<path d="M109.831 388.005C110.087 388.233 110.087 388.233 110.348 388.465C110.348 388.633 110.348 388.801 110.348 388.975C110.478 389.042 110.609 389.109 110.743 389.179C111.263 389.497 111.644 389.847 112.081 390.297C112.236 390.454 112.39 390.611 112.549 390.774C112.708 390.937 112.868 391.1 113.032 391.269C113.353 391.588 113.675 391.906 113.997 392.224C115.098 393.314 115.098 393.314 115.493 393.817C115.493 393.985 115.493 394.154 115.493 394.327C115.714 394.411 115.936 394.495 116.164 394.582C117.319 395.859 118.389 397.401 119.295 398.914C119.295 399.083 119.295 399.251 119.295 399.424C119.443 399.424 119.591 399.424 119.743 399.424C120.117 400 120.464 400.575 120.805 401.176C120.905 401.35 121.004 401.524 121.107 401.703C121.4 402.216 121.69 402.731 121.979 403.247C122.127 403.506 122.274 403.766 122.425 404.033C123.322 405.663 123.322 405.663 123.322 406.815C123.469 406.815 123.617 406.815 123.769 406.815C124.917 408.644 126.582 411.564 126.397 413.889C126.229 414.461 126.229 414.461 125.782 414.971C125.013 415.082 125.013 415.082 124.216 414.971C123.636 414.082 123.355 413.134 123.056 412.088C122.179 409.217 120.955 406.569 119.519 404.012C119.519 403.844 119.519 403.675 119.519 403.502C119.371 403.502 119.224 403.502 119.072 403.502C119.012 403.297 118.952 403.092 118.89 402.881C118.758 402.557 118.758 402.557 118.624 402.228C118.403 402.144 118.181 402.059 117.953 401.973C117.953 401.805 117.953 401.636 117.953 401.463C117.732 401.379 117.51 401.295 117.282 401.208C116.899 400.795 116.528 400.368 116.164 399.934C113.565 396.908 107.903 390.379 103.987 390.217C103.198 390.206 103.198 390.206 102.519 390.504C102.245 391.271 102.245 391.271 102.072 392.033C101.924 392.033 101.776 392.033 101.624 392.033C101.565 392.218 101.506 392.402 101.445 392.592C101.173 393.318 100.854 393.91 100.462 394.56C100.251 394.912 100.251 394.912 100.035 395.271C99.8858 395.517 99.7367 395.762 99.5831 396.015C99.432 396.266 99.2808 396.517 99.1251 396.775C98.2126 398.285 97.2887 399.782 96.3274 401.252C96.0209 401.709 96.0209 401.709 95.8084 402.228C95.6608 402.228 95.5131 402.228 95.361 402.228C95.2918 402.385 95.2226 402.543 95.1513 402.706C94.9976 403.056 94.8438 403.406 94.69 403.757C94.5424 403.757 94.3947 403.757 94.2426 403.757C94.1844 403.901 94.1261 404.046 94.0661 404.195C92.6328 407.272 89.7387 410.457 87.0847 412.167C86.9371 412.167 86.7895 412.167 86.6374 412.167C86.6374 412.336 86.6374 412.504 86.6374 412.677C86.4785 412.729 86.3196 412.782 86.1559 412.835C85.9503 412.904 85.7447 412.973 85.5329 413.044C85.3279 413.112 85.1229 413.18 84.9117 413.25C84.4139 413.388 84.4139 413.388 84.1768 413.697C81.9973 413.926 80.0362 413.798 78.1374 412.422C77.4706 411.62 77.2516 411.345 77.2007 410.224C77.5105 408.286 78.814 406.482 79.9268 405.031C80.0745 405.031 80.2221 405.031 80.3742 405.031C80.4232 404.895 80.4722 404.758 80.5227 404.618C80.9265 403.799 81.4637 403.148 82.0239 402.467C82.2001 402.251 82.2001 402.251 82.3798 402.031C83.2203 401.015 84.0884 400.038 84.9877 399.09C85.1014 398.969 85.2151 398.848 85.3323 398.724C86.1342 397.895 86.1342 397.895 86.6374 397.895C86.7112 397.643 86.785 397.39 86.861 397.13C87.3189 396.643 87.3189 396.643 87.9235 396.095C88.1482 395.891 88.3728 395.687 88.6042 395.477C88.8432 395.263 89.0823 395.05 89.3216 394.837C89.5422 394.639 89.7627 394.44 89.99 394.236C102.9 382.779 102.9 382.779 109.831 388.005Z" fill="#6D432C"/>
<path d="M175.104 390.418C176.77 391.431 178.432 392.474 179.914 393.817C179.914 393.985 179.914 394.154 179.914 394.327C180.112 394.385 180.311 394.443 180.515 394.502C181.371 394.889 181.751 395.348 182.374 396.111C182.979 396.704 183.594 397.275 184.221 397.838C185.41 398.909 186.551 400.019 187.671 401.182C188.231 401.76 188.803 402.318 189.383 402.869C190.501 404.003 191.512 405.273 192.538 406.513C192.682 406.684 192.826 406.856 192.974 407.033C193.92 408.177 194.764 409.365 195.572 410.638C195.767 410.936 195.963 411.233 196.159 411.53C197.585 413.818 197.585 413.818 197.585 414.971C197.733 414.971 197.88 414.971 198.032 414.971C198.193 416.768 198.193 416.768 197.557 417.727C195.615 419.263 192.883 419.231 190.651 418.794C188.06 418.171 185.846 415.634 184.164 413.442C183.938 413.019 183.714 412.594 183.493 412.168C183.22 411.81 182.94 411.459 182.654 411.116C181.827 410.078 181.182 408.992 180.542 407.798C179.97 406.769 179.329 405.803 178.684 404.831C178.348 404.267 178.348 404.267 178.348 403.757C178.127 403.673 177.905 403.589 177.677 403.502C177.455 403.094 177.455 403.094 177.258 402.578C176.962 401.858 176.655 401.224 176.237 400.587C175.815 399.941 175.466 399.29 175.133 398.58C174.48 397.205 173.732 395.693 172.756 394.582C171.032 394.518 169.817 395.134 168.394 396.175C168.106 396.379 168.106 396.379 167.813 396.587C164.646 398.865 161.651 401.387 158.888 404.267C158.768 404.39 158.649 404.513 158.526 404.64C156.332 406.927 154.618 409.497 153.495 412.661C153.278 413.234 153.015 413.75 152.736 414.286C152.061 415.629 151.674 417.064 151.282 418.539C150.956 418.517 150.63 418.489 150.304 418.46C150.122 418.445 149.94 418.43 149.753 418.415C149.269 418.284 149.269 418.284 148.822 417.52C148.903 416.649 149.07 415.816 149.269 414.971C149.417 414.971 149.564 414.971 149.717 414.971C149.767 414.721 149.818 414.471 149.87 414.214C150.167 413.032 150.704 412.065 151.282 411.037C151.383 410.85 151.484 410.664 151.588 410.472C151.845 410.007 152.122 409.557 152.401 409.109C152.548 409.109 152.696 409.109 152.848 409.109C152.86 408.941 152.873 408.773 152.886 408.6C153.152 407.506 153.682 406.71 154.26 405.796C154.381 405.603 154.502 405.411 154.627 405.212C155.786 403.402 157.062 401.783 158.44 400.189C158.597 400.006 158.753 399.822 158.915 399.634C162.596 395.33 162.596 395.33 164.703 393.562C165.067 393.239 165.431 392.915 165.794 392.591C166.101 392.319 166.408 392.048 166.717 391.778C166.943 391.576 166.943 391.576 167.173 391.37C167.796 390.863 168.469 390.575 169.177 390.249C169.432 390.115 169.432 390.115 169.693 389.977C171.43 389.291 173.457 389.546 175.104 390.418Z" fill="#6C422C"/>
<path d="M236.729 502.39C237.688 502.773 238.543 503.33 239.413 503.919C239.681 504.097 239.681 504.097 239.954 504.279C244.163 507.097 244.163 507.097 245.889 509.025C246.356 509.536 246.844 509.955 247.368 510.387C248.362 511.247 249.075 512.265 249.842 513.379C250.389 514.135 250.972 514.804 251.59 515.484C252.901 516.952 254.004 518.534 255.071 520.231C255.172 520.389 255.272 520.547 255.375 520.71C256.549 522.575 257.608 524.299 257.979 526.602C258.127 526.602 258.275 526.602 258.427 526.602C260.824 531.947 260.824 531.947 261.349 534.217C261.564 535.034 261.72 535.419 262.229 536.032C262.883 536.351 262.883 536.351 263.641 536.59C264.897 537.069 265.957 537.646 267.066 538.47C267.196 538.565 267.326 538.661 267.459 538.76C268.716 539.722 269.678 540.686 270.058 542.404C270.194 544.023 270.088 545.451 269.611 546.992C269.486 547.425 269.486 547.425 269.359 547.868C269.295 548.083 269.23 548.299 269.163 548.521C269.016 548.521 268.868 548.521 268.716 548.521C268.675 548.694 268.633 548.868 268.59 549.047C267.63 551.282 265.49 552.82 263.506 553.684C260.739 554.646 257.989 554.936 255.113 554.972C254.793 554.979 254.793 554.979 254.466 554.986C252.479 554.984 250.22 554.494 248.585 553.109C247.482 551.504 247.813 549.323 247.961 547.398C248.456 544.338 251.377 541.127 253.52 539.362C255.08 538.206 256.672 537.302 258.469 536.739C258.957 536.552 258.957 536.552 259.321 535.778C259.528 533.098 258.567 530.827 257.476 528.514C257.367 528.279 257.258 528.045 257.145 527.803C256.483 526.399 255.783 525.065 254.946 523.785C253.729 521.91 253.729 521.91 253.729 520.995C253.582 520.995 253.434 520.995 253.282 520.995C252.611 519.878 252.611 519.878 252.611 519.211C252.463 519.211 252.316 519.211 252.163 519.211C252.09 518.875 252.016 518.538 251.94 518.192C251.792 518.192 251.645 518.192 251.492 518.192C251.163 517.773 251.163 517.773 250.807 517.22C250.689 517.04 250.572 516.859 250.45 516.674C250.15 516.153 250.15 516.153 249.927 515.388C249.631 515.213 249.332 515.044 249.032 514.879C248.597 514.479 248.169 514.069 247.746 513.652C246.959 512.885 246.177 512.17 245.285 511.565C245.045 511.397 244.805 511.229 244.558 511.056C244.558 510.887 244.558 510.719 244.558 510.546C244.406 510.524 244.254 510.503 244.097 510.48C243.271 510.242 242.599 509.796 241.874 509.303C241.739 509.214 241.604 509.124 241.465 509.032C240.875 508.638 240.289 508.238 239.707 507.828C239.238 507.519 238.806 507.302 238.295 507.105C237.562 506.806 236.946 506.424 236.282 505.958C236.024 505.832 235.765 505.706 235.499 505.576C234.083 504.885 234.083 504.885 233.598 504.429C233.416 503.489 233.416 503.489 233.374 502.645C234.453 501.825 235.493 502.115 236.729 502.39Z" fill="#6D432C"/>
<path d="M272.072 499.332C273.03 499.715 273.887 500.269 274.756 500.861C275.027 501.045 275.027 501.045 275.303 501.233C280.472 504.769 280.472 504.769 282.361 506.978C282.666 507.246 282.666 507.246 282.976 507.52C283.836 508.318 284.473 509.319 285.161 510.303C285.719 511.06 286.309 511.739 286.933 512.426C288.244 513.894 289.347 515.476 290.414 517.173C290.514 517.331 290.614 517.489 290.718 517.651C291.891 519.517 292.951 521.241 293.322 523.544C293.469 523.544 293.617 523.544 293.769 523.544C296.167 528.889 296.167 528.889 296.691 531.158C296.906 531.975 297.062 532.361 297.572 532.974C298.226 533.293 298.226 533.293 298.984 533.532C300.24 534.01 301.3 534.588 302.409 535.412C302.538 535.507 302.668 535.603 302.802 535.702C304.058 536.664 305.02 537.628 305.401 539.346C305.537 540.965 305.431 542.392 304.953 543.934C304.829 544.367 304.829 544.367 304.702 544.81C304.637 545.025 304.573 545.241 304.506 545.463C304.358 545.463 304.211 545.463 304.059 545.463C304.017 545.636 303.976 545.81 303.933 545.988C302.973 548.224 300.833 549.762 298.848 550.626C296.081 551.588 293.332 551.877 290.456 551.914C290.136 551.921 290.136 551.921 289.809 551.928C287.822 551.925 285.562 551.436 283.927 550.05C282.825 548.446 283.155 546.265 283.303 544.34C283.798 541.28 286.719 538.069 288.862 536.304C290.422 535.148 292.015 534.244 293.811 533.681C294.299 533.494 294.299 533.494 294.664 532.72C294.87 530.04 293.91 527.769 292.818 525.456C292.709 525.221 292.6 524.987 292.488 524.745C291.825 523.341 291.125 522.007 290.288 520.727C289.072 518.851 289.072 518.851 289.072 517.937C288.924 517.937 288.776 517.937 288.624 517.937C287.953 516.82 287.953 516.82 287.953 516.153C287.806 516.153 287.658 516.153 287.506 516.153C287.432 515.817 287.358 515.48 287.282 515.134C287.135 515.134 286.987 515.134 286.835 515.134C286.506 514.715 286.506 514.715 286.15 514.162C286.032 513.982 285.914 513.801 285.793 513.616C285.493 513.095 285.493 513.095 285.269 512.33C284.973 512.155 284.674 511.986 284.374 511.82C283.939 511.42 283.511 511.01 283.088 510.594C282.302 509.827 281.519 509.111 280.628 508.507C280.388 508.339 280.148 508.171 279.901 507.998C279.901 507.829 279.901 507.661 279.901 507.488C279.748 507.466 279.596 507.444 279.439 507.422C278.613 507.184 277.941 506.738 277.216 506.245C277.082 506.156 276.947 506.066 276.808 505.974C276.217 505.58 275.631 505.18 275.05 504.77C274.581 504.461 274.148 504.244 273.638 504.047C272.905 503.747 272.289 503.366 271.624 502.9C271.104 502.64 270.582 502.385 270.059 502.136C269.314 501.769 269.19 501.671 268.716 500.861C268.647 500.208 268.647 500.208 268.716 499.587C269.796 498.767 270.835 499.057 272.072 499.332Z" fill="#6D432C"/>
<path d="M153.295 512.33C153.295 512.498 153.295 512.667 153.295 512.84C153.738 513.008 154.181 513.176 154.637 513.35C154.282 514.443 153.646 514.961 152.848 515.643C152.7 515.643 152.553 515.643 152.401 515.643C152.401 515.812 152.401 515.98 152.401 516.153C151.626 516.918 151.626 516.918 151.058 516.918C150.974 517.143 150.974 517.143 150.887 517.373C150.579 518.003 150.256 518.351 149.772 518.813C149.614 518.967 149.455 519.12 149.292 519.278C149.002 519.551 148.712 519.822 148.421 520.093C147.85 520.623 147.445 521.054 147.032 521.76C146.884 521.76 146.737 521.76 146.585 521.76C146.534 521.902 146.483 522.044 146.431 522.19C145.975 523.105 145.301 523.747 144.637 524.469C143.961 525.22 143.359 525.952 142.824 526.842C142.582 527.228 142.582 527.228 142.335 527.622C142.187 527.622 142.039 527.622 141.887 527.622C141.834 527.757 141.781 527.893 141.727 528.032C141.356 528.819 140.902 529.522 140.433 530.234C140.343 530.376 140.253 530.517 140.16 530.663C139.927 531.018 139.678 531.36 139.427 531.7C139.279 531.7 139.132 531.7 138.979 531.7C138.92 531.847 138.86 531.994 138.798 532.146C138.532 532.719 138.532 532.719 138.169 533.181C137.651 534.119 137.783 535.091 137.973 536.144C138.01 536.276 138.047 536.407 138.085 536.542C138.288 536.563 138.491 536.584 138.7 536.606C139.543 536.828 139.758 537.092 140.322 537.817C140.506 537.98 140.691 538.143 140.881 538.31C142.304 539.648 142.84 541.111 143.102 543.152C143.181 544.561 143.093 545.54 142.363 546.705C141.457 547.861 140.394 548.569 139.203 549.286C138.842 549.542 138.842 549.542 138.474 549.803C137.577 550.388 136.672 550.632 135.666 550.863C135.487 550.905 135.307 550.948 135.123 550.992C133.873 551.281 132.651 551.527 131.374 551.579C131.225 551.589 131.076 551.598 130.923 551.608C127.752 551.792 124.525 551.475 121.979 549.031C120.749 547.635 119.871 546.34 119.854 544.3C119.902 542.035 120.443 540.04 121.798 538.342C124.653 535.473 128.365 535.419 131.971 535.409C132.351 535.403 132.351 535.403 132.738 535.396C132.965 535.396 133.193 535.396 133.427 535.395C134.228 535.234 134.594 534.883 135.177 534.249C135.398 533.87 135.398 533.87 135.624 533.484C135.772 533.484 135.919 533.484 136.072 533.484C136.087 533.314 136.103 533.144 136.12 532.969C136.359 531.936 136.812 531.145 137.316 530.25C137.468 529.978 137.468 529.978 137.623 529.7C138.444 528.246 139.339 526.901 140.322 525.583C140.484 525.351 140.647 525.119 140.814 524.88C143.681 520.864 146.948 517.177 150.611 514.114C151.152 513.619 151.691 513.122 152.228 512.622C152.624 512.33 152.624 512.33 153.295 512.33Z" fill="#6D432C"/>
<path d="M196.466 515.388C196.197 516.024 195.917 516.582 195.571 517.173C195.424 517.173 195.399 517.761 195.247 517.761C195.187 517.908 195.186 517.86 195.124 518.012C194.858 518.585 194.782 519.031 194.418 519.493C193.901 520.43 193.928 520.563 194.117 521.617C194.154 521.748 194.275 521.735 194.313 521.87C194.516 521.891 194.635 522.057 194.844 522.079C195.688 522.3 195.903 522.565 196.466 523.289C196.651 523.452 196.835 523.615 197.025 523.783C198.448 525.121 198.984 526.584 199.246 528.625C199.325 530.034 199.237 531.012 198.507 532.178C197.601 533.333 196.539 534.041 195.348 534.758C195.107 534.929 194.866 535.1 194.618 535.276C193.722 535.861 192.817 536.105 191.811 536.335C191.631 536.378 191.452 536.421 191.267 536.464C190.017 536.754 188.796 536.999 187.519 537.052C187.37 537.061 187.221 537.071 187.067 537.08C183.897 537.264 180.669 536.948 178.124 534.503C176.893 533.108 176.015 531.813 175.999 529.773C176.047 527.508 176.587 525.513 177.942 523.815C180.798 520.945 184.51 520.892 188.116 520.882C188.495 520.876 188.495 520.876 188.883 520.869C189.11 520.869 189.337 520.868 189.571 520.868C190.372 520.707 190.739 520.356 191.321 519.721C191.543 519.343 191.543 519.343 191.769 518.957C191.916 518.957 192.959 516.535 193.111 516.535C193.134 516.341 194.004 515.164 194.004 515.164C194.833 513.865 196.491 515.164 196.491 515.164L196.466 515.388Z" fill="#6D432C"/>
<path d="M311.888 459.063C312.817 459.965 313.405 461.118 313.901 462.376C313.901 462.629 313.901 462.881 313.901 463.141C314.048 463.141 314.196 463.141 314.348 463.141C314.685 463.804 315.021 464.467 315.355 465.132C315.451 465.32 315.547 465.508 315.646 465.702C315.737 465.884 315.827 466.065 315.921 466.252C316.047 466.502 316.047 466.502 316.177 466.758C316.361 467.219 316.361 467.219 316.361 467.983C316.509 467.983 316.657 467.983 316.809 467.983C317.297 468.794 317.618 469.619 317.927 470.532C318.329 471.621 318.74 472.668 319.269 473.686C319.767 474.644 320.067 475.661 320.387 476.71C320.591 477.35 320.82 477.959 321.073 478.576C321.473 479.572 321.74 480.575 322.002 481.627C322.229 482.443 322.54 483.196 322.857 483.971C323.078 484.567 323.231 485.153 323.379 485.776C323.706 487.111 324.249 488.269 324.837 489.478C325.108 490.22 325.117 490.447 324.861 491.176C324.751 491.555 324.751 491.555 324.638 491.941C324.49 491.941 324.342 491.941 324.19 491.941C324.103 492.209 324.103 492.209 324.014 492.483C323.327 494.339 322.345 496.189 321.282 497.803C321.135 497.803 320.987 497.803 320.835 497.803C320.78 497.949 320.724 498.094 320.667 498.245C320.344 498.911 319.967 499.369 319.493 499.905C319.336 500.085 319.179 500.265 319.018 500.451C318.598 500.861 318.598 500.861 318.151 500.861C318.151 501.029 318.151 501.197 318.151 501.371C317.669 501.79 317.189 502.173 316.683 502.55C316.534 502.662 316.384 502.774 316.231 502.889C315.158 503.682 314.063 504.411 312.936 505.098C312.793 505.185 312.65 505.273 312.503 505.363C311.5 505.958 311.5 505.958 310.993 505.958C310.993 506.127 310.993 506.295 310.993 506.468C310.556 506.731 310.118 506.99 309.679 507.249C309.313 507.466 309.313 507.466 308.94 507.688C308.731 507.79 308.523 507.892 308.309 507.997C308.161 507.913 308.013 507.829 307.861 507.742C307.959 507.511 308.056 507.279 308.157 507.041C309.943 502.759 311.729 498.282 312.416 493.583C312.521 492.939 312.64 492.318 312.778 491.684C313.706 487.192 313.639 482.615 313.672 478.026C313.677 477.439 313.684 476.852 313.691 476.265C313.763 470.524 313.527 465.537 312.004 460.049C311.888 459.573 311.888 459.573 311.888 459.063Z" fill="#6D432C"/>
<path d="M220.117 521.892C220.629 522.017 221.106 522.19 221.603 522.382C225.617 523.793 230.059 523.413 234.141 522.618C234.954 522.487 235.497 522.495 236.282 522.78C236.785 523.385 236.785 523.385 237.177 524.054C237.343 524.233 237.343 524.233 237.513 524.416C238.424 525.513 238.579 527.193 238.659 528.642C238.62 530.077 238.278 530.9 237.444 531.964C236.613 532.812 235.698 533.403 234.716 533.994C234.476 534.165 234.235 534.336 233.987 534.512C233.091 535.096 232.185 535.34 231.179 535.571C231 535.614 230.821 535.656 230.636 535.7C229.386 535.99 228.164 536.235 226.887 536.288C226.738 536.297 226.59 536.306 226.436 536.316C223.266 536.5 220.038 536.184 217.493 533.739C216.262 532.343 215.384 531.049 215.368 529.008C215.417 526.683 215.969 524.692 217.409 523.003C218.322 522.056 218.849 521.673 220.117 521.892Z" fill="#6D432C"/>
<path d="M115.045 469.003C115.66 469.337 115.66 469.337 116.164 470.022C116.47 471.194 116.57 472.406 116.689 473.617C116.892 475.392 117.196 476.704 118.4 477.923C119.724 478.912 121.098 479.137 122.65 479.197C122.912 479.213 123.174 479.23 123.444 479.246C125.751 479.329 127.826 479.072 129.669 477.366C130.796 476.116 131.667 474.697 132.185 473.001C132.492 472.062 132.659 471.595 133.387 471.042C134.17 470.898 134.17 470.898 134.953 471.042C135.498 471.551 135.498 471.551 135.848 472.316C135.961 473.858 135.755 474.881 135.079 476.235C134.999 476.399 134.918 476.564 134.836 476.734C133.638 479.106 132.117 480.894 130.032 482.256C129.811 482.403 129.589 482.55 129.361 482.702C127.674 483.503 125.985 483.622 124.174 483.61C123.948 483.608 123.722 483.607 123.489 483.606C120.527 483.553 117.579 483.036 115.311 480.679C114.466 479.644 113.981 478.437 113.479 477.158C113.398 476.982 113.317 476.806 113.234 476.624C112.657 475.239 112.77 473.501 112.738 471.997C112.732 471.82 112.725 471.642 112.718 471.459C112.71 470.58 112.751 470.109 113.219 469.397C113.882 468.857 114.246 468.854 115.045 469.003Z" fill="#4D2215"/>
<path d="M276.769 510.546C278.99 511.704 282.15 514.038 283.479 516.408C283.479 516.66 283.479 516.913 283.479 517.173C281.128 517.806 278.779 517.752 276.378 517.735C275.69 517.73 275.002 517.73 274.314 517.73C273.873 517.728 273.431 517.727 272.99 517.725C272.786 517.725 272.582 517.725 272.373 517.724C271.28 517.715 270.241 517.637 269.164 517.428C269.164 517.343 269.164 517.259 269.164 517.173C270.566 517.173 271.969 517.173 273.414 517.173C273.607 516.757 273.801 516.342 274.001 515.914C274.552 514.76 275.15 513.672 275.802 512.589C276.181 511.931 276.48 511.26 276.769 510.546Z" fill="#6D432C"/>
<path d="M121.756 420.069C122.725 420.631 123.428 421.299 123.992 422.363C124.096 423.306 124.074 423.921 123.755 424.8C123.023 425.849 122.212 426.777 121.084 427.205C119.955 427.34 119.093 427.345 118.065 426.759C117.402 426.08 117.101 425.596 117 424.581C117.081 422.891 117.526 422.11 118.622 420.985C119.696 420.014 120.416 419.857 121.756 420.069Z" fill="#C48769"/>
<path d="M129.137 420.324C130.036 420.845 130.614 421.395 131.15 422.362C131.349 423.595 131.271 424.632 130.787 425.755C129.354 427.603 129.354 427.603 128.427 427.838C127.504 427.902 126.868 427.802 126.132 427.141C125.211 426.016 125.02 425.224 125.055 423.716C125.17 422.505 125.561 421.641 126.243 420.722C127.208 420.137 128.067 420.128 129.137 420.324Z" fill="#C48769"/>
<path d="M144.678 464.522C144.678 464.522 145.798 461.816 149.998 461.927C154.197 462.038 156.284 466.252 156.284 466.252" stroke="#4A2013" stroke-width="5" stroke-linecap="round"/>
<path d="M97.4253 460.192C97.4253 460.192 101.416 456.627 104.515 457.85C106.32 458.563 108.202 460.192 108.202 460.192" stroke="#4A2013" stroke-width="5" stroke-linecap="round"/>
<path d="M169.615 482.821C178.322 473.227 188.788 451.535 188.788 451.535C188.788 451.535 195.102 473.789 186.871 485.781C176.283 501.208 145.093 504.776 145.093 504.776C145.093 504.776 159.506 493.961 169.615 482.821Z" fill="#804A2C"/>
<defs>
<filter id="filter0_g_0_1" x="71.2643" y="379" width="260.101" height="190.436" filterUnits="userSpaceOnUse" color-interpolation-filters="sRGB">
<feFlood flood-opacity="0" result="BackgroundImageFix"/>
<feBlend mode="normal" in="SourceGraphic" in2="BackgroundImageFix" result="shape"/>
<feTurbulence type="fractalNoise" baseFrequency="0.99900001287460327 0.99900001287460327" numOctaves="3" seed="5226" />
<feDisplacementMap in="shape" scale="4.1999998092651367" xChannelSelector="R" yChannelSelector="G" result="displacedImage" width="100%" height="100%" />
<feMerge result="effect1_texture_0_1">
<feMergeNode in="displacedImage"/>
</feMerge>
</filter>
</defs>
</svg>
