<svg width="1147" height="190" viewBox="0 0 1147 190" fill="none" xmlns="http://www.w3.org/2000/svg">
<path d="M449 68.0261L438.024 61.9939L432.026 51L426.003 61.9764L415 67.9739L425.985 73.9974L431.974 85L438.006 74.0148L449 68.0261Z" fill="white"/>
<path d="M36 153.026L25.0236 146.994L19.0261 136L13.0026 146.976L2 152.974L12.9852 158.997L18.9739 170L25.0061 159.015L36 153.026Z" fill="white"/>
<path d="M150.275 158.546C143.309 167.184 134.71 174.365 124.969 179.679C115.227 184.993 104.535 188.337 93.5012 189.519C82.4676 190.701 71.3093 189.699 60.6632 186.568C50.0172 183.438 40.092 178.241 31.4542 171.275L34.1065 167.987C42.3124 174.604 51.7413 179.541 61.8551 182.515C71.9688 185.489 82.5692 186.441 93.0511 185.318C103.533 184.195 113.691 181.019 122.945 175.97C132.2 170.921 140.369 164.099 146.987 155.893L150.275 158.546Z" fill="white"/>
<path d="M156.505 149.722C154.684 152.686 154.605 152.709 153.586 154.156L150.132 151.723C151.1 150.348 151.363 150.021 152.904 147.511C154.446 145 158.325 146.758 156.505 149.722Z" fill="white"/>
<path d="M4.7108 133.32C0.686046 121.776 -0.78611 109.497 0.395937 97.3295C1.57798 85.1619 5.38608 73.3957 11.5574 62.8429L15.2045 64.9757C9.34178 75.0009 5.72408 86.1788 4.60114 97.7381C3.47819 109.297 4.87674 120.963 8.70026 131.929L4.7108 133.32Z" fill="white"/>
<path d="M14.6904 57.8883C15.667 56.4564 15.5006 56.5837 17.7503 53.6857C19.9999 50.7877 23.7962 52.7871 21.0877 56.2764C18.3793 59.7657 19.1087 58.9086 18.1809 60.2689L14.6904 57.8883Z" fill="white"/>
<path d="M834.163 53.6756L844.782 59.5016L850.584 70.1196L856.412 59.5184L867.057 53.726L856.429 47.9084L850.635 37.282L844.799 47.8916L834.163 53.6756Z" fill="white"/>
<path d="M925.175 128.566C916.41 132.836 906.759 134.979 897.007 134.821C887.256 134.662 877.68 132.206 869.059 127.653C860.438 123.1 853.017 116.578 847.4 108.619C841.782 100.66 838.128 91.4892 836.734 81.8532L856.957 78.9373C857.891 85.3934 860.34 91.538 864.103 96.8704C867.867 102.203 872.839 106.572 878.615 109.623C884.391 112.674 890.807 114.319 897.34 114.426C903.874 114.532 910.34 113.096 916.212 110.235L925.175 128.566Z" fill="#322660"/>
<path d="M859.416 24.6865C868.755 17.253 880.049 12.6749 891.936 11.5039C903.822 10.3329 915.795 12.6191 926.409 18.0868L917.04 36.2138C909.928 32.5504 901.906 31.0187 893.942 31.8032C885.978 32.5878 878.411 35.6552 872.154 40.6356L859.416 24.6865Z" fill="#322660"/>
<path d="M933.003 22.0182C935.679 23.8479 934.253 22.1516 940.564 28.1097C946.874 34.0679 944.294 40.0355 941.553 42.9291C938.811 45.8228 930.771 46.9401 926.523 42.9291C922.275 38.9181 923.25 40.0737 921.457 38.8478L933.003 22.0182Z" fill="#322660"/>
<path d="M931.814 124.543C934.49 122.713 933.065 124.409 939.375 118.451C945.685 112.493 943.106 106.525 940.364 103.632C937.622 100.738 929.582 99.6206 925.334 103.632C921.086 107.643 922.061 106.487 920.268 107.713L931.814 124.543Z" fill="#322660"/>
<mask id="path-12-outside-1_62_311" maskUnits="userSpaceOnUse" x="611" y="11" width="530" height="125" fill="black">
<rect fill="white" x="611" y="11" width="530" height="125"/>
<path d="M621.497 132C619.297 132 617.447 131.25 615.947 129.75C614.447 128.25 613.697 126.4 613.697 124.2V22.65C613.697 20.35 614.447 18.5 615.947 17.1C617.447 15.6 619.297 14.85 621.497 14.85C623.797 14.85 625.647 15.6 627.047 17.1C628.547 18.5 629.297 20.35 629.297 22.65V65.7H698.897V22.65C698.897 20.35 699.647 18.5 701.147 17.1C702.647 15.6 704.497 14.85 706.697 14.85C708.997 14.85 710.847 15.6 712.247 17.1C713.647 18.5 714.347 20.35 714.347 22.65V124.2C714.347 126.4 713.647 128.25 712.247 129.75C710.847 131.25 708.997 132 706.697 132C704.497 132 702.647 131.25 701.147 129.75C699.647 128.25 698.897 126.4 698.897 124.2V79.5H629.297V124.2C629.297 126.4 628.547 128.25 627.047 129.75C625.647 131.25 623.797 132 621.497 132ZM739.711 132C736.911 132 734.761 130.8 733.261 128.4C731.761 126 731.611 123.45 732.811 120.75L774.961 20.1C776.461 16.6 778.911 14.85 782.311 14.85C785.911 14.85 788.361 16.6 789.661 20.1L831.961 121.05C833.061 123.85 832.861 126.4 831.361 128.7C829.961 130.9 827.811 132 824.911 132C823.411 132 821.961 131.6 820.561 130.8C819.261 129.9 818.311 128.7 817.711 127.2L780.511 34.8H784.711L746.911 127.2C746.211 128.8 745.161 130 743.761 130.8C742.461 131.6 741.111 132 739.711 132ZM747.661 106.2L753.661 93.3H812.461L818.461 106.2H747.661ZM971.021 132C968.921 132 967.071 131.25 965.471 129.75C963.971 128.25 963.221 126.4 963.221 124.2V22.65C963.221 20.45 963.971 18.6 965.471 17.1C967.071 15.6 968.921 14.85 971.021 14.85C973.221 14.85 975.071 15.6 976.571 17.1C978.071 18.6 978.821 20.45 978.821 22.65V67.65L1028.47 18C1029.67 16.8 1030.77 16 1031.77 15.6C1032.77 15.1 1033.82 14.85 1034.92 14.85C1037.42 14.85 1039.22 15.6 1040.32 17.1C1041.42 18.6 1041.82 20.4 1041.52 22.5C1041.22 24.5 1040.27 26.35 1038.67 28.05L1000.42 66.45L1039.42 119.55C1040.62 121.25 1041.12 123.1 1040.92 125.1C1040.72 127 1040.02 128.65 1038.82 130.05C1037.62 131.35 1036.02 132 1034.02 132C1031.22 132 1029.07 130.9 1027.57 128.7L989.621 77.25L978.821 88.05V124.2C978.821 126.4 978.071 128.25 976.571 129.75C975.071 131.25 973.221 132 971.021 132ZM1095.93 133.5C1089.53 133.5 1083.43 132.5 1077.63 130.5C1071.83 128.5 1066.78 125.7 1062.48 122.1C1058.18 118.5 1055.03 114.35 1053.03 109.65C1052.03 107.55 1052.03 105.6 1053.03 103.8C1054.13 102 1055.93 100.85 1058.43 100.35C1060.23 99.95 1061.98 100.25 1063.68 101.25C1065.48 102.15 1066.83 103.55 1067.73 105.45C1068.93 107.95 1070.88 110.25 1073.58 112.35C1076.38 114.45 1079.73 116.15 1083.63 117.45C1087.53 118.75 1091.63 119.4 1095.93 119.4C1100.73 119.4 1105.13 118.65 1109.13 117.15C1113.23 115.65 1116.53 113.5 1119.03 110.7C1121.53 107.8 1122.78 104.25 1122.78 100.05C1122.78 94.75 1120.68 90 1116.48 85.8C1112.38 81.6 1105.58 79 1096.08 78C1083.68 76.8 1073.93 73.15 1066.83 67.05C1059.73 60.95 1056.18 53.4 1056.18 44.4C1056.18 37.8 1058.03 32.2 1061.73 27.6C1065.43 23 1070.43 19.5 1076.73 17.1C1083.13 14.7 1090.23 13.5 1098.03 13.5C1104.13 13.5 1109.43 14.35 1113.93 16.05C1118.53 17.75 1122.53 20.1 1125.93 23.1C1129.33 26.1 1132.28 29.65 1134.78 33.75C1136.18 35.95 1136.73 38.05 1136.43 40.05C1136.23 41.95 1135.28 43.45 1133.58 44.55C1131.68 45.75 1129.63 46 1127.43 45.3C1125.23 44.6 1123.58 43.3 1122.48 41.4C1120.88 38.5 1118.93 36.05 1116.63 34.05C1114.33 32.05 1111.63 30.5 1108.53 29.4C1105.43 28.2 1101.78 27.6 1097.58 27.6C1090.18 27.5 1083.98 28.9 1078.98 31.8C1073.98 34.6 1071.48 38.95 1071.48 44.85C1071.48 47.85 1072.23 50.75 1073.73 53.55C1075.33 56.25 1078.18 58.6 1082.28 60.6C1086.48 62.6 1092.48 64 1100.28 64.8C1112.18 66 1121.43 69.65 1128.03 75.75C1134.73 81.75 1138.08 89.7 1138.08 99.6C1138.08 105.3 1136.88 110.25 1134.48 114.45C1132.18 118.65 1129.03 122.2 1125.03 125.1C1121.13 127.9 1116.63 130 1111.53 131.4C1106.53 132.8 1101.33 133.5 1095.93 133.5Z"/>
</mask>
<path d="M621.497 132C619.297 132 617.447 131.25 615.947 129.75C614.447 128.25 613.697 126.4 613.697 124.2V22.65C613.697 20.35 614.447 18.5 615.947 17.1C617.447 15.6 619.297 14.85 621.497 14.85C623.797 14.85 625.647 15.6 627.047 17.1C628.547 18.5 629.297 20.35 629.297 22.65V65.7H698.897V22.65C698.897 20.35 699.647 18.5 701.147 17.1C702.647 15.6 704.497 14.85 706.697 14.85C708.997 14.85 710.847 15.6 712.247 17.1C713.647 18.5 714.347 20.35 714.347 22.65V124.2C714.347 126.4 713.647 128.25 712.247 129.75C710.847 131.25 708.997 132 706.697 132C704.497 132 702.647 131.25 701.147 129.75C699.647 128.25 698.897 126.4 698.897 124.2V79.5H629.297V124.2C629.297 126.4 628.547 128.25 627.047 129.75C625.647 131.25 623.797 132 621.497 132ZM739.711 132C736.911 132 734.761 130.8 733.261 128.4C731.761 126 731.611 123.45 732.811 120.75L774.961 20.1C776.461 16.6 778.911 14.85 782.311 14.85C785.911 14.85 788.361 16.6 789.661 20.1L831.961 121.05C833.061 123.85 832.861 126.4 831.361 128.7C829.961 130.9 827.811 132 824.911 132C823.411 132 821.961 131.6 820.561 130.8C819.261 129.9 818.311 128.7 817.711 127.2L780.511 34.8H784.711L746.911 127.2C746.211 128.8 745.161 130 743.761 130.8C742.461 131.6 741.111 132 739.711 132ZM747.661 106.2L753.661 93.3H812.461L818.461 106.2H747.661ZM971.021 132C968.921 132 967.071 131.25 965.471 129.75C963.971 128.25 963.221 126.4 963.221 124.2V22.65C963.221 20.45 963.971 18.6 965.471 17.1C967.071 15.6 968.921 14.85 971.021 14.85C973.221 14.85 975.071 15.6 976.571 17.1C978.071 18.6 978.821 20.45 978.821 22.65V67.65L1028.47 18C1029.67 16.8 1030.77 16 1031.77 15.6C1032.77 15.1 1033.82 14.85 1034.92 14.85C1037.42 14.85 1039.22 15.6 1040.32 17.1C1041.42 18.6 1041.82 20.4 1041.52 22.5C1041.22 24.5 1040.27 26.35 1038.67 28.05L1000.42 66.45L1039.42 119.55C1040.62 121.25 1041.12 123.1 1040.92 125.1C1040.72 127 1040.02 128.65 1038.82 130.05C1037.62 131.35 1036.02 132 1034.02 132C1031.22 132 1029.07 130.9 1027.57 128.7L989.621 77.25L978.821 88.05V124.2C978.821 126.4 978.071 128.25 976.571 129.75C975.071 131.25 973.221 132 971.021 132ZM1095.93 133.5C1089.53 133.5 1083.43 132.5 1077.63 130.5C1071.83 128.5 1066.78 125.7 1062.48 122.1C1058.18 118.5 1055.03 114.35 1053.03 109.65C1052.03 107.55 1052.03 105.6 1053.03 103.8C1054.13 102 1055.93 100.85 1058.43 100.35C1060.23 99.95 1061.98 100.25 1063.68 101.25C1065.48 102.15 1066.83 103.55 1067.73 105.45C1068.93 107.95 1070.88 110.25 1073.58 112.35C1076.38 114.45 1079.73 116.15 1083.63 117.45C1087.53 118.75 1091.63 119.4 1095.93 119.4C1100.73 119.4 1105.13 118.65 1109.13 117.15C1113.23 115.65 1116.53 113.5 1119.03 110.7C1121.53 107.8 1122.78 104.25 1122.78 100.05C1122.78 94.75 1120.68 90 1116.48 85.8C1112.38 81.6 1105.58 79 1096.08 78C1083.68 76.8 1073.93 73.15 1066.83 67.05C1059.73 60.95 1056.18 53.4 1056.18 44.4C1056.18 37.8 1058.03 32.2 1061.73 27.6C1065.43 23 1070.43 19.5 1076.73 17.1C1083.13 14.7 1090.23 13.5 1098.03 13.5C1104.13 13.5 1109.43 14.35 1113.93 16.05C1118.53 17.75 1122.53 20.1 1125.93 23.1C1129.33 26.1 1132.28 29.65 1134.78 33.75C1136.18 35.95 1136.73 38.05 1136.43 40.05C1136.23 41.95 1135.28 43.45 1133.58 44.55C1131.68 45.75 1129.63 46 1127.43 45.3C1125.23 44.6 1123.58 43.3 1122.48 41.4C1120.88 38.5 1118.93 36.05 1116.63 34.05C1114.33 32.05 1111.63 30.5 1108.53 29.4C1105.43 28.2 1101.78 27.6 1097.58 27.6C1090.18 27.5 1083.98 28.9 1078.98 31.8C1073.98 34.6 1071.48 38.95 1071.48 44.85C1071.48 47.85 1072.23 50.75 1073.73 53.55C1075.33 56.25 1078.18 58.6 1082.28 60.6C1086.48 62.6 1092.48 64 1100.28 64.8C1112.18 66 1121.43 69.65 1128.03 75.75C1134.73 81.75 1138.08 89.7 1138.08 99.6C1138.08 105.3 1136.88 110.25 1134.48 114.45C1132.18 118.65 1129.03 122.2 1125.03 125.1C1121.13 127.9 1116.63 130 1111.53 131.4C1106.53 132.8 1101.33 133.5 1095.93 133.5Z" fill="#322660"/>
<path d="M615.947 129.75L614.533 131.164L614.533 131.164L615.947 129.75ZM615.947 17.1L617.312 18.5621L617.337 18.5386L617.361 18.5142L615.947 17.1ZM627.047 17.1L625.585 18.4646L625.632 18.515L625.683 18.5621L627.047 17.1ZM629.297 65.7H627.297V67.7H629.297V65.7ZM698.897 65.7V67.7H700.897V65.7H698.897ZM701.147 17.1L702.512 18.5621L702.537 18.5386L702.561 18.5142L701.147 17.1ZM712.247 17.1L710.785 18.4646L710.809 18.4898L710.833 18.5142L712.247 17.1ZM698.897 79.5H700.897V77.5H698.897V79.5ZM629.297 79.5V77.5H627.297V79.5H629.297ZM627.047 129.75L625.633 128.336L625.609 128.36L625.585 128.385L627.047 129.75ZM621.497 130C619.806 130 618.471 129.445 617.361 128.336L614.533 131.164C616.423 133.055 618.789 134 621.497 134V130ZM617.361 128.336C616.252 127.226 615.697 125.892 615.697 124.2H611.697C611.697 126.908 612.643 129.274 614.533 131.164L617.361 128.336ZM615.697 124.2V22.65H611.697V124.2H615.697ZM615.697 22.65C615.697 20.8303 616.268 19.5361 617.312 18.5621L614.583 15.6379C612.626 17.4639 611.697 19.8697 611.697 22.65H615.697ZM617.361 18.5142C618.471 17.4045 619.806 16.85 621.497 16.85V12.85C618.789 12.85 616.423 13.7955 614.533 15.6858L617.361 18.5142ZM621.497 16.85C623.317 16.85 624.611 17.4211 625.585 18.4646L628.509 15.7354C626.683 13.7789 624.278 12.85 621.497 12.85V16.85ZM625.683 18.5621C626.726 19.5361 627.297 20.8303 627.297 22.65H631.297C631.297 19.8697 630.368 17.4639 628.412 15.6379L625.683 18.5621ZM627.297 22.65V65.7H631.297V22.65H627.297ZM629.297 67.7H698.897V63.7H629.297V67.7ZM700.897 65.7V22.65H696.897V65.7H700.897ZM700.897 22.65C700.897 20.8303 701.468 19.5361 702.512 18.5621L699.783 15.6379C697.826 17.4639 696.897 19.8697 696.897 22.65H700.897ZM702.561 18.5142C703.671 17.4045 705.006 16.85 706.697 16.85V12.85C703.989 12.85 701.623 13.7955 699.733 15.6858L702.561 18.5142ZM706.697 16.85C708.517 16.85 709.811 17.4211 710.785 18.4646L713.709 15.7354C711.883 13.7789 709.478 12.85 706.697 12.85V16.85ZM710.833 18.5142C711.797 19.4783 712.347 20.7877 712.347 22.65H716.347C716.347 19.9123 715.497 17.5217 713.661 15.6858L710.833 18.5142ZM712.347 22.65V124.2H716.347V22.65H712.347ZM712.347 124.2C712.347 125.933 711.813 127.284 710.785 128.385L713.709 131.115C715.481 129.216 716.347 126.867 716.347 124.2H712.347ZM710.785 128.385C709.811 129.429 708.517 130 706.697 130V134C709.478 134 711.883 133.071 713.709 131.115L710.785 128.385ZM706.697 130C705.006 130 703.671 129.445 702.561 128.336L699.733 131.164C701.623 133.055 703.989 134 706.697 134V130ZM702.561 128.336C701.452 127.226 700.897 125.892 700.897 124.2H696.897C696.897 126.908 697.843 129.274 699.733 131.164L702.561 128.336ZM700.897 124.2V79.5H696.897V124.2H700.897ZM698.897 77.5H629.297V81.5H698.897V77.5ZM627.297 79.5V124.2H631.297V79.5H627.297ZM627.297 124.2C627.297 125.892 626.743 127.226 625.633 128.336L628.461 131.164C630.352 129.274 631.297 126.908 631.297 124.2H627.297ZM625.585 128.385C624.611 129.429 623.317 130 621.497 130V134C624.278 134 626.683 133.071 628.509 131.115L625.585 128.385ZM733.261 128.4L731.565 129.46L731.565 129.46L733.261 128.4ZM732.811 120.75L734.639 121.562L734.648 121.543L734.656 121.523L732.811 120.75ZM774.961 20.1L773.123 19.3122L773.12 19.3198L773.117 19.3274L774.961 20.1ZM789.661 20.1L787.786 20.7964L787.801 20.835L787.817 20.8729L789.661 20.1ZM831.961 121.05L833.823 120.319L833.815 120.298L833.806 120.277L831.961 121.05ZM831.361 128.7L829.686 127.607L829.68 127.617L829.674 127.626L831.361 128.7ZM820.561 130.8L819.423 132.444L819.494 132.494L819.569 132.536L820.561 130.8ZM817.711 127.2L819.568 126.457L819.567 126.453L817.711 127.2ZM780.511 34.8V32.8H777.55L778.656 35.5469L780.511 34.8ZM784.711 34.8L786.562 35.5573L787.69 32.8H784.711V34.8ZM746.911 127.2L748.744 128.002L748.753 127.98L748.762 127.957L746.911 127.2ZM743.761 130.8L742.769 129.064L742.741 129.08L742.713 129.097L743.761 130.8ZM747.661 106.2L745.848 105.357L744.525 108.2H747.661V106.2ZM753.661 93.3V91.3H752.386L751.848 92.4565L753.661 93.3ZM812.461 93.3L814.275 92.4565L813.737 91.3H812.461V93.3ZM818.461 106.2V108.2H821.597L820.275 105.357L818.461 106.2ZM739.711 130C737.61 130 736.097 129.163 734.957 127.34L731.565 129.46C733.426 132.437 736.213 134 739.711 134V130ZM734.957 127.34C733.828 125.532 733.695 123.687 734.639 121.562L730.984 119.938C729.528 123.213 729.695 126.468 731.565 129.46L734.957 127.34ZM734.656 121.523L776.806 20.8725L773.117 19.3274L730.967 119.977L734.656 121.523ZM776.8 20.8878C777.443 19.3862 778.229 18.4027 779.086 17.79C779.929 17.1879 780.972 16.85 782.311 16.85V12.85C780.251 12.85 778.369 13.387 776.761 14.535C775.169 15.6723 773.979 17.3138 773.123 19.3122L776.8 20.8878ZM782.311 16.85C783.778 16.85 784.863 17.2016 785.686 17.79C786.516 18.3823 787.242 19.3305 787.786 20.7964L791.536 19.4036C790.781 17.3695 789.632 15.6926 788.011 14.535C786.385 13.3733 784.445 12.85 782.311 12.85V16.85ZM787.817 20.8729L830.117 121.823L833.806 120.277L791.506 19.3271L787.817 20.8729ZM830.1 121.781C830.99 124.046 830.795 125.907 829.686 127.607L833.037 129.793C834.928 126.893 835.133 123.654 833.823 120.319L830.1 121.781ZM829.674 127.626C828.687 129.177 827.218 130 824.911 130V134C828.404 134 831.235 132.623 833.049 129.774L829.674 127.626ZM824.911 130C823.785 130 822.675 129.704 821.554 129.064L819.569 132.536C821.248 133.496 823.037 134 824.911 134V130ZM821.7 129.156C820.73 128.484 820.026 127.601 819.568 126.457L815.854 127.943C816.597 129.799 817.793 131.316 819.423 132.444L821.7 129.156ZM819.567 126.453L782.367 34.0531L778.656 35.5469L815.856 127.947L819.567 126.453ZM780.511 36.8H784.711V32.8H780.511V36.8ZM782.86 34.0427L745.06 126.443L748.762 127.957L786.562 35.5573L782.86 34.0427ZM745.079 126.398C744.536 127.639 743.764 128.495 742.769 129.064L744.754 132.536C746.558 131.505 747.887 129.961 748.744 128.002L745.079 126.398ZM742.713 129.097C741.699 129.721 740.708 130 739.711 130V134C741.515 134 743.224 133.479 744.81 132.503L742.713 129.097ZM749.475 107.043L755.475 94.1435L751.848 92.4565L745.848 105.357L749.475 107.043ZM753.661 95.3H812.461V91.3H753.661V95.3ZM810.648 94.1435L816.648 107.043L820.275 105.357L814.275 92.4565L810.648 94.1435ZM818.461 104.2H747.661V108.2H818.461V104.2ZM965.471 129.75L964.056 131.164L964.079 131.187L964.103 131.209L965.471 129.75ZM965.471 17.1L964.103 15.6409L964.079 15.663L964.056 15.6858L965.471 17.1ZM978.821 67.65H976.821V72.4784L980.235 69.0642L978.821 67.65ZM1028.47 18L1027.06 16.5858L1027.06 16.5858L1028.47 18ZM1031.77 15.6L1032.51 17.4569L1032.59 17.4261L1032.67 17.3889L1031.77 15.6ZM1041.52 22.5L1043.5 22.7967L1043.5 22.7828L1041.52 22.5ZM1038.67 28.05L1040.09 29.4614L1040.11 29.4414L1040.13 29.4207L1038.67 28.05ZM1000.42 66.45L999.004 65.0386L997.794 66.2527L998.809 67.6339L1000.42 66.45ZM1039.42 119.55L1041.05 118.397L1041.04 118.381L1041.03 118.366L1039.42 119.55ZM1040.92 125.1L1042.91 125.309L1042.91 125.299L1040.92 125.1ZM1038.82 130.05L1040.29 131.407L1040.32 131.38L1040.34 131.352L1038.82 130.05ZM1027.57 128.7L1029.22 127.573L1029.2 127.543L1029.18 127.513L1027.57 128.7ZM989.621 77.25L991.23 76.0628L989.85 74.192L988.206 75.8358L989.621 77.25ZM978.821 88.05L977.406 86.6358L976.821 87.2216V88.05H978.821ZM971.021 130C969.453 130 968.086 129.46 966.839 128.291L964.103 131.209C966.055 133.04 968.388 134 971.021 134V130ZM966.885 128.336C965.775 127.226 965.221 125.892 965.221 124.2H961.221C961.221 126.908 962.166 129.274 964.056 131.164L966.885 128.336ZM965.221 124.2V22.65H961.221V124.2H965.221ZM965.221 22.65C965.221 20.9585 965.775 19.6239 966.885 18.5142L964.056 15.6858C962.166 17.5761 961.221 19.9415 961.221 22.65H965.221ZM966.839 18.5591C968.086 17.3896 969.453 16.85 971.021 16.85V12.85C968.388 12.85 966.055 13.8104 964.103 15.6409L966.839 18.5591ZM971.021 16.85C972.712 16.85 974.047 17.4045 975.156 18.5142L977.985 15.6858C976.095 13.7955 973.729 12.85 971.021 12.85V16.85ZM975.156 18.5142C976.266 19.6239 976.821 20.9585 976.821 22.65H980.821C980.821 19.9415 979.875 17.5761 977.985 15.6858L975.156 18.5142ZM976.821 22.65V67.65H980.821V22.65H976.821ZM980.235 69.0642L1029.88 19.4142L1027.06 16.5858L977.406 66.2358L980.235 69.0642ZM1029.88 19.4142C1030.99 18.3077 1031.87 17.7152 1032.51 17.4569L1031.03 13.743C1029.67 14.2848 1028.35 15.2923 1027.06 16.5858L1029.88 19.4142ZM1032.67 17.3889C1033.39 17.0253 1034.14 16.85 1034.92 16.85V12.85C1033.5 12.85 1032.15 13.1746 1030.88 13.8111L1032.67 17.3889ZM1034.92 16.85C1037.02 16.85 1038.11 17.4622 1038.71 18.2827L1041.93 15.9173C1040.34 13.7378 1037.82 12.85 1034.92 12.85V16.85ZM1038.71 18.2827C1039.45 19.3009 1039.78 20.5561 1039.54 22.2172L1043.5 22.7828C1043.86 20.2439 1043.39 17.8991 1041.93 15.9173L1038.71 18.2827ZM1039.54 22.2033C1039.31 23.7409 1038.58 25.2286 1037.21 26.6793L1040.13 29.4207C1041.96 27.4714 1043.13 25.2591 1043.5 22.7967L1039.54 22.2033ZM1037.25 26.6386L999.004 65.0386L1001.84 67.8614L1040.09 29.4614L1037.25 26.6386ZM998.809 67.6339L1037.81 120.734L1041.03 118.366L1002.03 65.2661L998.809 67.6339ZM1037.79 120.703C1038.72 122.025 1039.08 123.398 1038.93 124.901L1042.91 125.299C1043.16 122.802 1042.52 120.475 1041.05 118.397L1037.79 120.703ZM1038.93 124.891C1038.77 126.403 1038.23 127.668 1037.3 128.748L1040.34 131.352C1041.81 129.632 1042.67 127.597 1042.91 125.309L1038.93 124.891ZM1037.35 128.693C1036.58 129.528 1035.54 130 1034.02 130V134C1036.5 134 1038.66 133.172 1040.29 131.407L1037.35 128.693ZM1034.02 130C1031.84 130 1030.33 129.194 1029.22 127.573L1025.92 129.827C1027.81 132.606 1030.6 134 1034.02 134V130ZM1029.18 127.513L991.23 76.0628L988.011 78.4372L1025.96 129.887L1029.18 127.513ZM988.206 75.8358L977.406 86.6358L980.235 89.4642L991.035 78.6642L988.206 75.8358ZM976.821 88.05V124.2H980.821V88.05H976.821ZM976.821 124.2C976.821 125.892 976.266 127.226 975.156 128.336L977.985 131.164C979.875 129.274 980.821 126.908 980.821 124.2H976.821ZM975.156 128.336C974.047 129.445 972.712 130 971.021 130V134C973.729 134 976.095 133.055 977.985 131.164L975.156 128.336ZM1077.63 130.5L1078.28 128.609L1077.63 130.5ZM1062.48 122.1L1061.19 123.634L1061.19 123.634L1062.48 122.1ZM1053.03 109.65L1054.87 108.867L1054.85 108.828L1054.83 108.79L1053.03 109.65ZM1053.03 103.8L1051.32 102.757L1051.3 102.792L1051.28 102.829L1053.03 103.8ZM1058.43 100.35L1058.82 102.311L1058.84 102.307L1058.86 102.302L1058.43 100.35ZM1063.68 101.25L1062.66 102.974L1062.72 103.008L1062.78 103.039L1063.68 101.25ZM1067.73 105.45L1065.92 106.306L1065.93 106.315L1067.73 105.45ZM1073.58 112.35L1072.35 113.929L1072.36 113.939L1072.38 113.95L1073.58 112.35ZM1083.63 117.45L1083 119.347L1083 119.347L1083.63 117.45ZM1109.13 117.15L1108.44 115.272L1108.43 115.275L1108.43 115.277L1109.13 117.15ZM1119.03 110.7L1120.52 112.032L1120.53 112.019L1120.54 112.006L1119.03 110.7ZM1116.48 85.8L1115.05 87.1971L1115.06 87.2057L1115.06 87.2142L1116.48 85.8ZM1096.08 78L1096.29 76.011L1096.28 76.0101L1096.27 76.0093L1096.08 78ZM1066.83 67.05L1068.13 65.533L1068.13 65.533L1066.83 67.05ZM1076.73 17.1L1076.03 15.2273L1076.02 15.231L1076.73 17.1ZM1113.93 16.05L1113.22 17.9209L1113.23 17.9235L1113.24 17.926L1113.93 16.05ZM1125.93 23.1L1124.61 24.5997L1124.61 24.5997L1125.93 23.1ZM1134.78 33.75L1133.07 34.7912L1133.08 34.8076L1133.09 34.8237L1134.78 33.75ZM1136.43 40.05L1134.45 39.7533L1134.44 39.7968L1134.44 39.8406L1136.43 40.05ZM1133.58 44.55L1134.65 46.241L1134.66 46.2351L1134.67 46.2291L1133.58 44.55ZM1127.43 45.3L1126.82 47.2058L1126.82 47.2059L1127.43 45.3ZM1122.48 41.4L1120.73 42.3662L1120.74 42.3842L1120.75 42.4021L1122.48 41.4ZM1116.63 34.05L1117.94 32.5408L1117.94 32.5408L1116.63 34.05ZM1108.53 29.4L1107.81 31.2651L1107.83 31.2754L1107.86 31.2849L1108.53 29.4ZM1097.58 27.6L1097.55 29.5998L1097.57 29.6H1097.58V27.6ZM1078.98 31.8L1079.96 33.545L1079.97 33.5376L1079.98 33.5301L1078.98 31.8ZM1073.73 53.55L1071.97 54.4944L1071.99 54.5325L1072.01 54.5696L1073.73 53.55ZM1082.28 60.6L1081.4 62.3975L1081.41 62.4017L1081.42 62.4057L1082.28 60.6ZM1100.28 64.8L1100.07 66.7896L1100.08 66.7899L1100.28 64.8ZM1128.03 75.75L1126.67 77.2187L1126.68 77.2294L1126.69 77.2399L1128.03 75.75ZM1134.48 114.45L1132.74 113.458L1132.73 113.473L1132.72 113.489L1134.48 114.45ZM1125.03 125.1L1126.19 126.725L1126.2 126.719L1125.03 125.1ZM1111.53 131.4L1111 129.471L1110.99 129.474L1111.53 131.4ZM1095.93 131.5C1089.74 131.5 1083.86 130.534 1078.28 128.609L1076.98 132.391C1083 134.466 1089.32 135.5 1095.93 135.5V131.5ZM1078.28 128.609C1072.69 126.681 1067.86 123.996 1063.76 120.566L1061.19 123.634C1065.7 127.404 1070.97 130.319 1076.98 132.391L1078.28 128.609ZM1063.76 120.566C1059.68 117.149 1056.73 113.249 1054.87 108.867L1051.19 110.433C1053.32 115.451 1056.68 119.851 1061.19 123.634L1063.76 120.566ZM1054.83 108.79C1054.07 107.186 1054.14 105.926 1054.78 104.771L1051.28 102.829C1049.92 105.274 1049.99 107.914 1051.22 110.51L1054.83 108.79ZM1054.74 104.843C1055.48 103.617 1056.74 102.726 1058.82 102.311L1058.04 98.3888C1055.11 98.9736 1052.77 100.383 1051.32 102.757L1054.74 104.843ZM1058.86 102.302C1060.13 102.02 1061.37 102.211 1062.66 102.974L1064.69 99.5261C1062.59 98.289 1060.33 97.8797 1057.99 98.3976L1058.86 102.302ZM1062.78 103.039C1064.17 103.729 1065.2 104.791 1065.92 106.306L1069.54 104.594C1068.45 102.309 1066.79 100.571 1064.57 99.4611L1062.78 103.039ZM1065.93 106.315C1067.29 109.152 1069.46 111.682 1072.35 113.929L1074.81 110.771C1072.29 108.818 1070.57 106.748 1069.53 104.585L1065.93 106.315ZM1072.38 113.95C1075.38 116.199 1078.93 117.991 1083 119.347L1084.26 115.553C1080.53 114.309 1077.38 112.701 1074.78 110.75L1072.38 113.95ZM1083 119.347C1087.11 120.718 1091.42 121.4 1095.93 121.4V117.4C1091.83 117.4 1087.95 116.782 1084.26 115.553L1083 119.347ZM1095.93 121.4C1100.94 121.4 1105.58 120.617 1109.83 119.023L1108.43 115.277C1104.68 116.683 1100.52 117.4 1095.93 117.4V121.4ZM1109.82 119.028C1114.17 117.434 1117.77 115.115 1120.52 112.032L1117.54 109.368C1115.29 111.885 1112.28 113.866 1108.44 115.272L1109.82 119.028ZM1120.54 112.006C1123.39 108.707 1124.78 104.679 1124.78 100.05H1120.78C1120.78 103.821 1119.67 106.893 1117.51 109.394L1120.54 112.006ZM1124.78 100.05C1124.78 94.1535 1122.42 88.9114 1117.89 84.3858L1115.06 87.2142C1118.94 91.0886 1120.78 95.3465 1120.78 100.05H1124.78ZM1117.91 84.4029C1113.33 79.7158 1105.98 77.0313 1096.29 76.011L1095.87 79.989C1105.18 80.9687 1111.42 83.4842 1115.05 87.1971L1117.91 84.4029ZM1096.27 76.0093C1084.15 74.836 1074.83 71.2884 1068.13 65.533L1065.53 68.567C1073.03 75.0116 1083.21 78.764 1095.89 79.9907L1096.27 76.0093ZM1068.13 65.533C1061.45 59.7955 1058.18 52.7908 1058.18 44.4H1054.18C1054.18 54.0092 1058 62.1045 1065.53 68.567L1068.13 65.533ZM1058.18 44.4C1058.18 38.1989 1059.91 33.0562 1063.29 28.8535L1060.17 26.3465C1056.15 31.3438 1054.18 37.4011 1054.18 44.4H1058.18ZM1063.29 28.8535C1066.73 24.5676 1071.42 21.2608 1077.44 18.969L1076.02 15.231C1069.43 17.7391 1064.12 21.4324 1060.17 26.3465L1063.29 28.8535ZM1077.43 18.9727C1083.58 16.6679 1090.43 15.5 1098.03 15.5V11.5C1090.02 11.5 1082.68 12.7321 1076.03 15.2273L1077.43 18.9727ZM1098.03 15.5C1103.95 15.5 1109 16.3257 1113.22 17.9209L1114.64 14.179C1109.86 12.3743 1104.31 11.5 1098.03 11.5V15.5ZM1113.24 17.926C1117.62 19.5475 1121.4 21.7757 1124.61 24.5997L1127.25 21.6003C1123.65 18.4242 1119.43 15.9525 1114.62 14.174L1113.24 17.926ZM1124.61 24.5997C1127.85 27.4594 1130.67 30.8523 1133.07 34.7912L1136.49 32.7088C1133.89 28.4477 1130.81 24.7406 1127.25 21.6003L1124.61 24.5997ZM1133.09 34.8237C1134.31 36.7375 1134.66 38.3547 1134.45 39.7533L1138.41 40.3467C1138.8 37.7452 1138.05 35.1625 1136.47 32.6762L1133.09 34.8237ZM1134.44 39.8406C1134.31 41.0993 1133.72 42.0766 1132.49 42.8709L1134.67 46.2291C1136.84 44.8234 1138.15 42.8007 1138.42 40.2594L1134.44 39.8406ZM1132.51 42.859C1131.13 43.734 1129.69 43.9208 1128.03 43.3941L1126.82 47.2059C1129.57 48.0792 1132.23 47.766 1134.65 46.241L1132.51 42.859ZM1128.03 43.3941C1126.28 42.8365 1125.05 41.8435 1124.21 40.3979L1120.75 42.4021C1122.11 44.7565 1124.17 46.3635 1126.82 47.2058L1128.03 43.3941ZM1124.23 40.4338C1122.53 37.3463 1120.43 34.7075 1117.94 32.5408L1115.32 35.5592C1117.42 37.3925 1119.23 39.6537 1120.73 42.3662L1124.23 40.4338ZM1117.94 32.5408C1115.44 30.3637 1112.51 28.6923 1109.2 27.5151L1107.86 31.2849C1110.74 32.3077 1113.22 33.7362 1115.32 35.5592L1117.94 32.5408ZM1109.25 27.5349C1105.87 26.2257 1101.96 25.6 1097.58 25.6V29.6C1101.59 29.6 1104.99 30.1743 1107.81 31.2651L1109.25 27.5349ZM1097.61 25.6002C1089.94 25.4966 1083.36 26.9443 1077.98 30.0699L1079.98 33.5301C1084.59 30.8557 1090.41 29.5034 1097.55 29.5998L1097.61 25.6002ZM1078 30.055C1075.23 31.6059 1073.07 33.6352 1071.62 36.1659C1070.17 38.6937 1069.48 41.6122 1069.48 44.85H1073.48C1073.48 42.1878 1074.04 39.9813 1075.09 38.1591C1076.13 36.3398 1077.73 34.7941 1079.96 33.545L1078 30.055ZM1069.48 44.85C1069.48 48.199 1070.32 51.4216 1071.97 54.4944L1075.49 52.6056C1074.14 50.0784 1073.48 47.501 1073.48 44.85H1069.48ZM1072.01 54.5696C1073.88 57.7259 1077.1 60.2999 1081.4 62.3975L1083.16 58.8025C1079.26 56.9001 1076.78 54.7741 1075.45 52.5304L1072.01 54.5696ZM1081.42 62.4057C1085.92 64.5488 1092.18 65.9799 1100.07 66.7896L1100.48 62.8104C1092.78 62.02 1087.04 60.6512 1083.14 58.7943L1081.42 62.4057ZM1100.08 66.7899C1111.69 67.9607 1120.48 71.4975 1126.67 77.2187L1129.39 74.2812C1122.38 67.8025 1112.67 64.0393 1100.48 62.8101L1100.08 66.7899ZM1126.69 77.2399C1132.93 82.8198 1136.08 90.2046 1136.08 99.6H1140.08C1140.08 89.1954 1136.53 80.6802 1129.36 74.2601L1126.69 77.2399ZM1136.08 99.6C1136.08 105.014 1134.94 109.61 1132.74 113.458L1136.22 115.442C1138.82 110.89 1140.08 105.586 1140.08 99.6H1136.08ZM1132.72 113.489C1130.57 117.421 1127.62 120.749 1123.85 123.481L1126.2 126.719C1130.43 123.651 1133.79 119.879 1136.23 115.411L1132.72 113.489ZM1123.86 123.475C1120.17 126.124 1115.89 128.128 1111 129.471L1112.06 133.329C1117.36 131.872 1122.08 129.676 1126.19 126.725L1123.86 123.475ZM1110.99 129.474C1106.17 130.823 1101.15 131.5 1095.93 131.5V135.5C1101.5 135.5 1106.89 134.777 1112.07 133.326L1110.99 129.474Z" fill="#322660" mask="url(#path-12-outside-1_62_311)"/>
<mask id="path-14-outside-2_62_311" maskUnits="userSpaceOnUse" x="29" y="11" width="563" height="126" fill="black">
<rect fill="white" x="29" y="11" width="563" height="126"/>
<path d="M83.2 132C80 132 77.65 130.35 76.15 127.05L32.2 26.55C30.8 23.15 30.65 20.35 31.75 18.15C32.85 15.95 34.95 14.85 38.05 14.85C41.55 14.85 43.95 16.4 45.25 19.5L83.8 112.05H82.15L121.45 19.5C122.25 17.7 123.15 16.5 124.15 15.9C125.25 15.2 126.7 14.85 128.5 14.85C131.5 14.85 133.55 15.95 134.65 18.15C135.85 20.25 135.85 22.6 134.65 25.2L90.25 127.05C89.55 128.65 88.6 129.9 87.4 130.8C86.3 131.6 84.9 132 83.2 132ZM161.396 132C159.196 132 157.346 131.25 155.846 129.75C154.346 128.25 153.596 126.4 153.596 124.2V22.65C153.596 20.35 154.346 18.5 155.846 17.1C157.346 15.6 159.196 14.85 161.396 14.85H229.196C231.496 14.85 233.346 15.55 234.746 16.95C236.146 18.25 236.846 20 236.846 22.2C236.846 24.3 236.146 26 234.746 27.3C233.346 28.6 231.496 29.25 229.196 29.25H169.196V65.7H212.246C214.546 65.7 216.396 66.4 217.796 67.8C219.196 69.1 219.896 70.8 219.896 72.9C219.896 75 219.196 76.75 217.796 78.15C216.396 79.45 214.546 80.1 212.246 80.1H169.196V117.6H229.196C231.496 117.6 233.346 118.25 234.746 119.55C236.146 120.85 236.846 122.55 236.846 124.65C236.846 126.85 236.146 128.65 234.746 130.05C233.346 131.35 231.496 132 229.196 132H161.396ZM266.275 132C264.075 132 262.225 131.25 260.725 129.75C259.325 128.25 258.625 126.4 258.625 124.2V22.65C258.625 20.35 259.325 18.5 260.725 17.1C262.225 15.6 264.075 14.85 266.275 14.85C268.675 14.85 270.675 15.8 272.275 17.7L337.675 104.7V22.65C337.675 20.35 338.425 18.5 339.925 17.1C341.425 15.6 343.275 14.85 345.475 14.85C347.775 14.85 349.625 15.6 351.025 17.1C352.425 18.5 353.125 20.35 353.125 22.65V124.2C353.125 126.4 352.425 128.25 351.025 129.75C349.625 131.25 347.775 132 345.475 132C344.475 132 343.375 131.8 342.175 131.4C341.075 130.9 340.175 130.2 339.475 129.3L274.075 42.3V124.2C274.075 126.4 273.325 128.25 271.825 129.75C270.425 131.25 268.575 132 266.275 132ZM432.187 134.4C422.587 134.4 414.087 132.65 406.687 129.15C399.287 125.55 393.487 120.6 389.287 114.3C385.187 108 383.137 100.8 383.137 92.7V22.65C383.137 20.35 383.887 18.5 385.387 17.1C386.887 15.6 388.737 14.85 390.937 14.85C393.237 14.85 395.087 15.6 396.487 17.1C397.987 18.5 398.737 20.35 398.737 22.65V92.7C398.737 98.1 400.137 102.9 402.937 107.1C405.837 111.2 409.787 114.45 414.787 116.85C419.887 119.15 425.687 120.3 432.187 120.3C438.487 120.3 444.037 119.15 448.837 116.85C453.737 114.45 457.537 111.2 460.237 107.1C463.037 102.9 464.437 98.1 464.437 92.7V22.65C464.437 20.35 465.187 18.5 466.687 17.1C468.187 15.6 470.037 14.85 472.237 14.85C474.537 14.85 476.387 15.6 477.787 17.1C479.187 18.5 479.887 20.35 479.887 22.65V92.7C479.887 100.8 477.837 108 473.737 114.3C469.737 120.6 464.137 125.55 456.937 129.15C449.737 132.65 441.487 134.4 432.187 134.4ZM547.046 133.5C540.646 133.5 534.546 132.5 528.746 130.5C522.946 128.5 517.896 125.7 513.596 122.1C509.296 118.5 506.146 114.35 504.146 109.65C503.146 107.55 503.146 105.6 504.146 103.8C505.246 102 507.046 100.85 509.546 100.35C511.346 99.95 513.096 100.25 514.796 101.25C516.596 102.15 517.946 103.55 518.846 105.45C520.046 107.95 521.996 110.25 524.696 112.35C527.496 114.45 530.846 116.15 534.746 117.45C538.646 118.75 542.746 119.4 547.046 119.4C551.846 119.4 556.246 118.65 560.246 117.15C564.346 115.65 567.646 113.5 570.146 110.7C572.646 107.8 573.896 104.25 573.896 100.05C573.896 94.75 571.796 90 567.596 85.8C563.496 81.6 556.696 79 547.196 78C534.796 76.8 525.046 73.15 517.946 67.05C510.846 60.95 507.296 53.4 507.296 44.4C507.296 37.8 509.146 32.2 512.846 27.6C516.546 23 521.546 19.5 527.846 17.1C534.246 14.7 541.346 13.5 549.146 13.5C555.246 13.5 560.546 14.35 565.046 16.05C569.646 17.75 573.646 20.1 577.046 23.1C580.446 26.1 583.396 29.65 585.896 33.75C587.296 35.95 587.846 38.05 587.546 40.05C587.346 41.95 586.396 43.45 584.696 44.55C582.796 45.75 580.746 46 578.546 45.3C576.346 44.6 574.696 43.3 573.596 41.4C571.996 38.5 570.046 36.05 567.746 34.05C565.446 32.05 562.746 30.5 559.646 29.4C556.546 28.2 552.896 27.6 548.696 27.6C541.296 27.5 535.096 28.9 530.096 31.8C525.096 34.6 522.596 38.95 522.596 44.85C522.596 47.85 523.346 50.75 524.846 53.55C526.446 56.25 529.296 58.6 533.396 60.6C537.596 62.6 543.596 64 551.396 64.8C563.296 66 572.546 69.65 579.146 75.75C585.846 81.75 589.196 89.7 589.196 99.6C589.196 105.3 587.996 110.25 585.596 114.45C583.296 118.65 580.146 122.2 576.146 125.1C572.246 127.9 567.746 130 562.646 131.4C557.646 132.8 552.446 133.5 547.046 133.5Z"/>
</mask>
<path d="M83.2 132C80 132 77.65 130.35 76.15 127.05L32.2 26.55C30.8 23.15 30.65 20.35 31.75 18.15C32.85 15.95 34.95 14.85 38.05 14.85C41.55 14.85 43.95 16.4 45.25 19.5L83.8 112.05H82.15L121.45 19.5C122.25 17.7 123.15 16.5 124.15 15.9C125.25 15.2 126.7 14.85 128.5 14.85C131.5 14.85 133.55 15.95 134.65 18.15C135.85 20.25 135.85 22.6 134.65 25.2L90.25 127.05C89.55 128.65 88.6 129.9 87.4 130.8C86.3 131.6 84.9 132 83.2 132ZM161.396 132C159.196 132 157.346 131.25 155.846 129.75C154.346 128.25 153.596 126.4 153.596 124.2V22.65C153.596 20.35 154.346 18.5 155.846 17.1C157.346 15.6 159.196 14.85 161.396 14.85H229.196C231.496 14.85 233.346 15.55 234.746 16.95C236.146 18.25 236.846 20 236.846 22.2C236.846 24.3 236.146 26 234.746 27.3C233.346 28.6 231.496 29.25 229.196 29.25H169.196V65.7H212.246C214.546 65.7 216.396 66.4 217.796 67.8C219.196 69.1 219.896 70.8 219.896 72.9C219.896 75 219.196 76.75 217.796 78.15C216.396 79.45 214.546 80.1 212.246 80.1H169.196V117.6H229.196C231.496 117.6 233.346 118.25 234.746 119.55C236.146 120.85 236.846 122.55 236.846 124.65C236.846 126.85 236.146 128.65 234.746 130.05C233.346 131.35 231.496 132 229.196 132H161.396ZM266.275 132C264.075 132 262.225 131.25 260.725 129.75C259.325 128.25 258.625 126.4 258.625 124.2V22.65C258.625 20.35 259.325 18.5 260.725 17.1C262.225 15.6 264.075 14.85 266.275 14.85C268.675 14.85 270.675 15.8 272.275 17.7L337.675 104.7V22.65C337.675 20.35 338.425 18.5 339.925 17.1C341.425 15.6 343.275 14.85 345.475 14.85C347.775 14.85 349.625 15.6 351.025 17.1C352.425 18.5 353.125 20.35 353.125 22.65V124.2C353.125 126.4 352.425 128.25 351.025 129.75C349.625 131.25 347.775 132 345.475 132C344.475 132 343.375 131.8 342.175 131.4C341.075 130.9 340.175 130.2 339.475 129.3L274.075 42.3V124.2C274.075 126.4 273.325 128.25 271.825 129.75C270.425 131.25 268.575 132 266.275 132ZM432.187 134.4C422.587 134.4 414.087 132.65 406.687 129.15C399.287 125.55 393.487 120.6 389.287 114.3C385.187 108 383.137 100.8 383.137 92.7V22.65C383.137 20.35 383.887 18.5 385.387 17.1C386.887 15.6 388.737 14.85 390.937 14.85C393.237 14.85 395.087 15.6 396.487 17.1C397.987 18.5 398.737 20.35 398.737 22.65V92.7C398.737 98.1 400.137 102.9 402.937 107.1C405.837 111.2 409.787 114.45 414.787 116.85C419.887 119.15 425.687 120.3 432.187 120.3C438.487 120.3 444.037 119.15 448.837 116.85C453.737 114.45 457.537 111.2 460.237 107.1C463.037 102.9 464.437 98.1 464.437 92.7V22.65C464.437 20.35 465.187 18.5 466.687 17.1C468.187 15.6 470.037 14.85 472.237 14.85C474.537 14.85 476.387 15.6 477.787 17.1C479.187 18.5 479.887 20.35 479.887 22.65V92.7C479.887 100.8 477.837 108 473.737 114.3C469.737 120.6 464.137 125.55 456.937 129.15C449.737 132.65 441.487 134.4 432.187 134.4ZM547.046 133.5C540.646 133.5 534.546 132.5 528.746 130.5C522.946 128.5 517.896 125.7 513.596 122.1C509.296 118.5 506.146 114.35 504.146 109.65C503.146 107.55 503.146 105.6 504.146 103.8C505.246 102 507.046 100.85 509.546 100.35C511.346 99.95 513.096 100.25 514.796 101.25C516.596 102.15 517.946 103.55 518.846 105.45C520.046 107.95 521.996 110.25 524.696 112.35C527.496 114.45 530.846 116.15 534.746 117.45C538.646 118.75 542.746 119.4 547.046 119.4C551.846 119.4 556.246 118.65 560.246 117.15C564.346 115.65 567.646 113.5 570.146 110.7C572.646 107.8 573.896 104.25 573.896 100.05C573.896 94.75 571.796 90 567.596 85.8C563.496 81.6 556.696 79 547.196 78C534.796 76.8 525.046 73.15 517.946 67.05C510.846 60.95 507.296 53.4 507.296 44.4C507.296 37.8 509.146 32.2 512.846 27.6C516.546 23 521.546 19.5 527.846 17.1C534.246 14.7 541.346 13.5 549.146 13.5C555.246 13.5 560.546 14.35 565.046 16.05C569.646 17.75 573.646 20.1 577.046 23.1C580.446 26.1 583.396 29.65 585.896 33.75C587.296 35.95 587.846 38.05 587.546 40.05C587.346 41.95 586.396 43.45 584.696 44.55C582.796 45.75 580.746 46 578.546 45.3C576.346 44.6 574.696 43.3 573.596 41.4C571.996 38.5 570.046 36.05 567.746 34.05C565.446 32.05 562.746 30.5 559.646 29.4C556.546 28.2 552.896 27.6 548.696 27.6C541.296 27.5 535.096 28.9 530.096 31.8C525.096 34.6 522.596 38.95 522.596 44.85C522.596 47.85 523.346 50.75 524.846 53.55C526.446 56.25 529.296 58.6 533.396 60.6C537.596 62.6 543.596 64 551.396 64.8C563.296 66 572.546 69.65 579.146 75.75C585.846 81.75 589.196 89.7 589.196 99.6C589.196 105.3 587.996 110.25 585.596 114.45C583.296 118.65 580.146 122.2 576.146 125.1C572.246 127.9 567.746 130 562.646 131.4C557.646 132.8 552.446 133.5 547.046 133.5Z" fill="#322660"/>
<path d="M76.15 127.05L74.3176 127.851L74.3233 127.865L74.3293 127.878L76.15 127.05ZM32.2 26.55L30.3506 27.3115L30.3589 27.3315L30.3676 27.3513L32.2 26.55ZM31.75 18.15L29.9611 17.2556L29.9611 17.2556L31.75 18.15ZM45.25 19.5L47.0962 18.731L47.0944 18.7265L45.25 19.5ZM83.8 112.05V114.05H86.7996L85.6462 111.281L83.8 112.05ZM82.15 112.05L80.3091 111.268L79.1279 114.05H82.15V112.05ZM121.45 19.5L119.622 18.6877L119.616 18.7029L119.609 18.7183L121.45 19.5ZM124.15 15.9L125.179 17.615L125.202 17.6014L125.224 17.5873L124.15 15.9ZM134.65 18.15L132.861 19.0444L132.886 19.0941L132.914 19.1423L134.65 18.15ZM134.65 25.2L132.834 24.3619L132.825 24.3812L132.817 24.4008L134.65 25.2ZM90.25 127.05L92.0823 127.852L92.0834 127.849L90.25 127.05ZM87.4 130.8L88.5763 132.417L88.5882 132.409L88.6 132.4L87.4 130.8ZM83.2 130C81.9622 130 80.9871 129.688 80.1868 129.126C79.3711 128.553 78.6113 127.632 77.9707 126.222L74.3293 127.878C75.1887 129.768 76.3539 131.322 77.8882 132.399C79.438 133.487 81.2378 134 83.2 134V130ZM77.9824 126.249L34.0324 25.7486L30.3676 27.3513L74.3176 127.851L77.9824 126.249ZM34.0494 25.7885C32.7593 22.6555 32.8036 20.5148 33.5389 19.0444L29.9611 17.2556C28.4964 20.1851 28.8407 23.6445 30.3506 27.3115L34.0494 25.7885ZM33.5389 19.0444C34.2063 17.7096 35.4722 16.85 38.05 16.85V12.85C34.4278 12.85 31.4937 14.1904 29.9611 17.2556L33.5389 19.0444ZM38.05 16.85C39.5021 16.85 40.5794 17.1691 41.39 17.6926C42.1948 18.2123 42.8833 19.0281 43.4056 20.2734L47.0944 18.7265C46.3167 16.8719 45.1552 15.3626 43.5601 14.3324C41.9706 13.3059 40.0979 12.85 38.05 12.85V16.85ZM43.4038 20.269L81.9538 112.819L85.6462 111.281L47.0962 18.731L43.4038 20.269ZM83.8 110.05H82.15V114.05H83.8V110.05ZM83.9909 112.832L123.291 20.2817L119.609 18.7183L80.3091 111.268L83.9909 112.832ZM123.278 20.3123C124.014 18.6555 124.7 17.9021 125.179 17.615L123.121 14.185C121.6 15.0979 120.486 16.7445 119.622 18.6877L123.278 20.3123ZM125.224 17.5873C125.903 17.1553 126.941 16.85 128.5 16.85V12.85C126.459 12.85 124.597 13.2447 123.076 14.2127L125.224 17.5873ZM128.5 16.85C129.763 16.85 130.68 17.082 131.342 17.4373C131.981 17.7805 132.485 18.2914 132.861 19.0444L136.439 17.2556C135.715 15.8085 134.644 14.6695 133.233 13.9127C131.845 13.168 130.237 12.85 128.5 12.85V16.85ZM132.914 19.1423C133.731 20.5727 133.82 22.2259 132.834 24.3619L136.466 26.0381C137.88 22.9741 137.969 19.9273 136.386 17.1577L132.914 19.1423ZM132.817 24.4008L88.4166 126.251L92.0834 127.849L136.483 25.9992L132.817 24.4008ZM88.4177 126.248C87.8331 127.585 87.0815 128.539 86.2 129.2L88.6 132.4C90.1185 131.261 91.2669 129.715 92.0823 127.852L88.4177 126.248ZM86.2237 129.183C85.5428 129.678 84.5841 130 83.2 130V134C85.2159 134 87.0572 133.522 88.5763 132.417L86.2237 129.183ZM155.846 129.75L154.431 131.164L154.431 131.164L155.846 129.75ZM155.846 17.1L157.21 18.5621L157.236 18.5386L157.26 18.5142L155.846 17.1ZM234.746 16.95L233.331 18.3642L233.358 18.3904L233.385 18.4156L234.746 16.95ZM234.746 27.3L236.107 28.7656L236.107 28.7656L234.746 27.3ZM169.196 29.25V27.25H167.196V29.25H169.196ZM169.196 65.7H167.196V67.7H169.196V65.7ZM217.796 67.8L216.381 69.2142L216.408 69.2404L216.435 69.2656L217.796 67.8ZM217.796 78.15L219.157 79.6156L219.184 79.5904L219.21 79.5642L217.796 78.15ZM169.196 80.1V78.1H167.196V80.1H169.196ZM169.196 117.6H167.196V119.6H169.196V117.6ZM234.746 119.55L236.107 118.084L236.107 118.084L234.746 119.55ZM234.746 130.05L236.107 131.516L236.134 131.49L236.16 131.464L234.746 130.05ZM161.396 130C159.704 130 158.37 129.445 157.26 128.336L154.431 131.164C156.322 133.055 158.687 134 161.396 134V130ZM157.26 128.336C156.15 127.226 155.596 125.892 155.596 124.2H151.596C151.596 126.908 152.541 129.274 154.431 131.164L157.26 128.336ZM155.596 124.2V22.65H151.596V124.2H155.596ZM155.596 22.65C155.596 20.8303 156.167 19.5361 157.21 18.5621L154.481 15.6379C152.525 17.4639 151.596 19.8697 151.596 22.65H155.596ZM157.26 18.5142C158.37 17.4045 159.704 16.85 161.396 16.85V12.85C158.687 12.85 156.322 13.7955 154.431 15.6858L157.26 18.5142ZM161.396 16.85H229.196V12.85H161.396V16.85ZM229.196 16.85C231.058 16.85 232.367 17.4001 233.331 18.3642L236.16 15.5358C234.324 13.6999 231.933 12.85 229.196 12.85V16.85ZM233.385 18.4156C234.314 19.2785 234.846 20.4637 234.846 22.2H238.846C238.846 19.5363 237.977 17.2215 236.107 15.4844L233.385 18.4156ZM234.846 22.2C234.846 23.8052 234.334 24.9527 233.385 25.8344L236.107 28.7656C237.957 27.0473 238.846 24.7948 238.846 22.2H234.846ZM233.385 25.8344C232.427 26.7234 231.1 27.25 229.196 27.25V31.25C231.892 31.25 234.264 30.4766 236.107 28.7656L233.385 25.8344ZM229.196 27.25H169.196V31.25H229.196V27.25ZM167.196 29.25V65.7H171.196V29.25H167.196ZM169.196 67.7H212.246V63.7H169.196V67.7ZM212.246 67.7C214.108 67.7 215.417 68.2501 216.381 69.2142L219.21 66.3858C217.374 64.5499 214.983 63.7 212.246 63.7V67.7ZM216.435 69.2656C217.384 70.1473 217.896 71.2948 217.896 72.9H221.896C221.896 70.3052 221.007 68.0526 219.157 66.3344L216.435 69.2656ZM217.896 72.9C217.896 74.5053 217.382 75.7354 216.381 76.7358L219.21 79.5642C221.01 77.7646 221.896 75.4947 221.896 72.9H217.896ZM216.435 76.6844C215.477 77.5734 214.15 78.1 212.246 78.1V82.1C214.942 82.1 217.314 81.3266 219.157 79.6156L216.435 76.6844ZM212.246 78.1H169.196V82.1H212.246V78.1ZM167.196 80.1V117.6H171.196V80.1H167.196ZM169.196 119.6H229.196V115.6H169.196V119.6ZM229.196 119.6C231.1 119.6 232.427 120.127 233.385 121.016L236.107 118.084C234.264 116.373 231.892 115.6 229.196 115.6V119.6ZM233.385 121.016C234.334 121.897 234.846 123.045 234.846 124.65H238.846C238.846 122.055 237.957 119.803 236.107 118.084L233.385 121.016ZM234.846 124.65C234.846 126.384 234.313 127.654 233.331 128.636L236.16 131.464C237.978 129.646 238.846 127.316 238.846 124.65H234.846ZM233.385 128.584C232.427 129.473 231.1 130 229.196 130V134C231.892 134 234.264 133.227 236.107 131.516L233.385 128.584ZM229.196 130H161.396V134H229.196V130ZM260.725 129.75L259.263 131.115L259.286 131.14L259.311 131.164L260.725 129.75ZM260.725 17.1L259.311 15.6858L259.311 15.6858L260.725 17.1ZM272.275 17.7L273.874 16.4982L273.84 16.454L273.805 16.4117L272.275 17.7ZM337.675 104.7L336.076 105.902L339.675 110.689V104.7H337.675ZM339.925 17.1L341.29 18.5621L341.315 18.5386L341.339 18.5142L339.925 17.1ZM351.025 17.1L349.563 18.4646L349.586 18.4898L349.611 18.5142L351.025 17.1ZM342.175 131.4L341.347 133.221L341.443 133.264L341.543 133.297L342.175 131.4ZM339.475 129.3L337.876 130.502L337.886 130.515L337.896 130.528L339.475 129.3ZM274.075 42.3L275.674 41.0982L272.075 36.311V42.3H274.075ZM271.825 129.75L270.411 128.336L270.386 128.36L270.363 128.385L271.825 129.75ZM266.275 130C264.583 130 263.249 129.445 262.139 128.336L259.311 131.164C261.201 133.055 263.567 134 266.275 134V130ZM262.187 128.385C261.159 127.284 260.625 125.933 260.625 124.2H256.625C256.625 126.867 257.491 129.216 259.263 131.115L262.187 128.385ZM260.625 124.2V22.65H256.625V124.2H260.625ZM260.625 22.65C260.625 20.7877 261.175 19.4783 262.139 18.5142L259.311 15.6858C257.475 17.5217 256.625 19.9123 256.625 22.65H260.625ZM262.139 18.5142C263.249 17.4045 264.583 16.85 266.275 16.85V12.85C263.567 12.85 261.201 13.7955 259.311 15.6858L262.139 18.5142ZM266.275 16.85C268.062 16.85 269.51 17.5214 270.745 18.9883L273.805 16.4117C271.84 14.0786 269.288 12.85 266.275 12.85V16.85ZM270.676 18.9018L336.076 105.902L339.274 103.498L273.874 16.4982L270.676 18.9018ZM339.675 104.7V22.65H335.675V104.7H339.675ZM339.675 22.65C339.675 20.8303 340.246 19.5361 341.29 18.5621L338.56 15.6379C336.604 17.4639 335.675 19.8697 335.675 22.65H339.675ZM341.339 18.5142C342.449 17.4045 343.783 16.85 345.475 16.85V12.85C342.767 12.85 340.401 13.7955 338.511 15.6858L341.339 18.5142ZM345.475 16.85C347.295 16.85 348.589 17.4211 349.563 18.4646L352.487 15.7354C350.661 13.7789 348.255 12.85 345.475 12.85V16.85ZM349.611 18.5142C350.575 19.4783 351.125 20.7877 351.125 22.65H355.125C355.125 19.9123 354.275 17.5217 352.439 15.6858L349.611 18.5142ZM351.125 22.65V124.2H355.125V22.65H351.125ZM351.125 124.2C351.125 125.933 350.591 127.284 349.563 128.385L352.487 131.115C354.259 129.216 355.125 126.867 355.125 124.2H351.125ZM349.563 128.385C348.589 129.429 347.295 130 345.475 130V134C348.255 134 350.661 133.071 352.487 131.115L349.563 128.385ZM345.475 130C344.738 130 343.855 129.852 342.807 129.503L341.543 133.297C342.895 133.748 344.212 134 345.475 134V130ZM343.003 129.579C342.179 129.205 341.543 128.701 341.054 128.072L337.896 130.528C338.807 131.699 339.971 132.595 341.347 133.221L343.003 129.579ZM341.074 128.098L275.674 41.0982L272.476 43.5018L337.876 130.502L341.074 128.098ZM272.075 42.3V124.2H276.075V42.3H272.075ZM272.075 124.2C272.075 125.892 271.52 127.226 270.411 128.336L273.239 131.164C275.13 129.274 276.075 126.908 276.075 124.2H272.075ZM270.363 128.385C269.389 129.429 268.095 130 266.275 130V134C269.055 134 271.461 133.071 273.287 131.115L270.363 128.385ZM406.687 129.15L405.812 130.948L405.822 130.953L405.832 130.958L406.687 129.15ZM389.287 114.3L387.61 115.391L387.616 115.4L387.623 115.409L389.287 114.3ZM385.387 17.1L386.751 18.5621L386.777 18.5386L386.801 18.5142L385.387 17.1ZM396.487 17.1L395.025 18.4646L395.072 18.515L395.122 18.5621L396.487 17.1ZM402.937 107.1L401.273 108.209L401.288 108.232L401.304 108.255L402.937 107.1ZM414.787 116.85L413.921 118.653L413.943 118.663L413.965 118.673L414.787 116.85ZM448.837 116.85L449.701 118.654L449.709 118.65L449.716 118.646L448.837 116.85ZM460.237 107.1L458.573 105.991L458.566 106L460.237 107.1ZM466.687 17.1L468.051 18.5621L468.077 18.5386L468.101 18.5142L466.687 17.1ZM477.787 17.1L476.325 18.4646L476.348 18.4898L476.373 18.5142L477.787 17.1ZM473.737 114.3L472.06 113.209L472.054 113.219L472.048 113.228L473.737 114.3ZM456.937 129.15L457.811 130.949L457.821 130.944L457.831 130.939L456.937 129.15ZM432.187 132.4C422.832 132.4 414.632 130.696 407.542 127.342L405.832 130.958C413.541 134.604 422.342 136.4 432.187 136.4V132.4ZM407.562 127.352C400.453 123.893 394.937 119.169 390.951 113.191L387.623 115.409C392.037 122.031 398.121 127.207 405.812 130.948L407.562 127.352ZM390.963 113.209C387.091 107.259 385.137 100.444 385.137 92.7H381.137C381.137 101.156 383.283 108.741 387.61 115.391L390.963 113.209ZM385.137 92.7V22.65H381.137V92.7H385.137ZM385.137 22.65C385.137 20.8303 385.708 19.5361 386.751 18.5621L384.022 15.6379C382.066 17.4639 381.137 19.8697 381.137 22.65H385.137ZM386.801 18.5142C387.911 17.4045 389.245 16.85 390.937 16.85V12.85C388.228 12.85 385.863 13.7955 383.973 15.6858L386.801 18.5142ZM390.937 16.85C392.756 16.85 394.051 17.4211 395.025 18.4646L397.949 15.7354C396.123 13.7789 393.717 12.85 390.937 12.85V16.85ZM395.122 18.5621C396.166 19.5361 396.737 20.8303 396.737 22.65H400.737C400.737 19.8697 399.808 17.4639 397.851 15.6379L395.122 18.5621ZM396.737 22.65V92.7H400.737V22.65H396.737ZM396.737 92.7C396.737 98.4659 398.238 103.658 401.273 108.209L404.601 105.991C402.035 102.142 400.737 97.7341 400.737 92.7H396.737ZM401.304 108.255C404.42 112.661 408.647 116.122 413.921 118.653L415.652 115.047C410.926 112.778 407.253 109.739 404.57 105.945L401.304 108.255ZM413.965 118.673C419.361 121.107 425.449 122.3 432.187 122.3V118.3C425.925 118.3 420.412 117.193 415.609 115.027L413.965 118.673ZM432.187 122.3C438.731 122.3 444.586 121.105 449.701 118.654L447.972 115.046C443.487 117.195 438.242 118.3 432.187 118.3V122.3ZM449.716 118.646C454.901 116.107 458.989 112.631 461.907 108.2L458.566 106C456.084 109.769 452.573 112.793 447.957 115.054L449.716 118.646ZM461.901 108.209C464.935 103.658 466.437 98.4659 466.437 92.7H462.437C462.437 97.7341 461.138 102.142 458.573 105.991L461.901 108.209ZM466.437 92.7V22.65H462.437V92.7H466.437ZM466.437 22.65C466.437 20.8303 467.008 19.5361 468.051 18.5621L465.322 15.6379C463.366 17.4639 462.437 19.8697 462.437 22.65H466.437ZM468.101 18.5142C469.211 17.4045 470.545 16.85 472.237 16.85V12.85C469.528 12.85 467.163 13.7955 465.273 15.6858L468.101 18.5142ZM472.237 16.85C474.056 16.85 475.351 17.4211 476.325 18.4646L479.249 15.7354C477.423 13.7789 475.017 12.85 472.237 12.85V16.85ZM476.373 18.5142C477.337 19.4783 477.887 20.7877 477.887 22.65H481.887C481.887 19.9123 481.037 17.5217 479.201 15.6858L476.373 18.5142ZM477.887 22.65V92.7H481.887V22.65H477.887ZM477.887 92.7C477.887 100.444 475.933 107.259 472.06 113.209L475.413 115.391C479.741 108.741 481.887 101.156 481.887 92.7H477.887ZM472.048 113.228C468.258 119.197 462.944 123.91 456.042 127.361L457.831 130.939C465.329 127.19 471.215 122.003 475.425 115.372L472.048 113.228ZM456.062 127.351C449.176 130.699 441.233 132.4 432.187 132.4V136.4C441.741 136.4 450.298 134.601 457.811 130.949L456.062 127.351ZM528.746 130.5L529.398 128.609L528.746 130.5ZM513.596 122.1L512.312 123.634L512.312 123.634L513.596 122.1ZM504.146 109.65L505.986 108.867L505.97 108.828L505.951 108.79L504.146 109.65ZM504.146 103.8L502.439 102.757L502.418 102.792L502.397 102.829L504.146 103.8ZM509.546 100.35L509.938 102.311L509.959 102.307L509.98 102.302L509.546 100.35ZM514.796 101.25L513.782 102.974L513.84 103.008L513.901 103.039L514.796 101.25ZM518.846 105.45L517.038 106.306L517.043 106.315L518.846 105.45ZM524.696 112.35L523.468 113.929L523.482 113.939L523.496 113.95L524.696 112.35ZM534.746 117.45L534.113 119.347L534.113 119.347L534.746 117.45ZM560.246 117.15L559.559 115.272L559.551 115.275L559.543 115.277L560.246 117.15ZM570.146 110.7L571.638 112.032L571.649 112.019L571.661 112.006L570.146 110.7ZM567.596 85.8L566.165 87.1971L566.173 87.2057L566.181 87.2142L567.596 85.8ZM547.196 78L547.405 76.011L547.397 76.0101L547.388 76.0093L547.196 78ZM517.946 67.05L519.249 65.533L519.249 65.533L517.946 67.05ZM527.846 17.1L527.143 15.2273L527.134 15.231L527.846 17.1ZM565.046 16.05L564.339 17.9209L564.346 17.9235L564.352 17.926L565.046 16.05ZM577.046 23.1L575.722 24.5997L575.722 24.5997L577.046 23.1ZM585.896 33.75L584.188 34.7912L584.198 34.8076L584.208 34.8237L585.896 33.75ZM587.546 40.05L585.568 39.7533L585.561 39.7968L585.557 39.8406L587.546 40.05ZM584.696 44.55L585.764 46.241L585.773 46.2351L585.782 46.2291L584.696 44.55ZM578.546 45.3L577.939 47.2058L577.939 47.2059L578.546 45.3ZM573.596 41.4L571.845 42.3662L571.855 42.3842L571.865 42.4021L573.596 41.4ZM567.746 34.05L569.058 32.5408L569.058 32.5408L567.746 34.05ZM559.646 29.4L558.924 31.2651L558.95 31.2754L558.977 31.2849L559.646 29.4ZM548.696 27.6L548.669 29.5998L548.682 29.6H548.696V27.6ZM530.096 31.8L531.073 33.545L531.086 33.5376L531.099 33.5301L530.096 31.8ZM524.846 53.55L523.083 54.4944L523.103 54.5325L523.125 54.5696L524.846 53.55ZM533.396 60.6L532.519 62.3975L532.527 62.4017L532.536 62.4057L533.396 60.6ZM551.396 64.8L551.192 66.7896L551.195 66.7899L551.396 64.8ZM579.146 75.75L577.788 77.2187L577.8 77.2294L577.811 77.2399L579.146 75.75ZM585.596 114.45L583.859 113.458L583.85 113.473L583.842 113.489L585.596 114.45ZM576.146 125.1L577.312 126.725L577.32 126.719L576.146 125.1ZM562.646 131.4L562.116 129.471L562.106 129.474L562.646 131.4ZM547.046 131.5C540.858 131.5 534.979 130.534 529.398 128.609L528.094 132.391C534.112 134.466 540.433 135.5 547.046 135.5V131.5ZM529.398 128.609C523.807 126.681 518.976 123.996 514.88 120.566L512.312 123.634C516.816 127.404 522.085 130.319 528.094 132.391L529.398 128.609ZM514.88 120.566C510.798 117.149 507.851 113.249 505.986 108.867L502.305 110.433C504.441 115.451 507.794 119.851 512.312 123.634L514.88 120.566ZM505.951 108.79C505.188 107.186 505.252 105.926 505.894 104.771L502.397 102.829C501.039 105.274 501.104 107.914 502.34 110.51L505.951 108.79ZM505.852 104.843C506.602 103.617 507.862 102.726 509.938 102.311L509.153 98.3888C506.23 98.9736 503.89 100.383 502.439 102.757L505.852 104.843ZM509.98 102.302C511.249 102.02 512.485 102.211 513.782 102.974L515.81 99.5261C513.707 98.289 511.442 97.8797 509.112 98.3976L509.98 102.302ZM513.901 103.039C515.282 103.729 516.321 104.791 517.038 106.306L520.653 104.594C519.571 102.309 517.909 100.571 515.69 99.4611L513.901 103.039ZM517.043 106.315C518.404 109.152 520.579 111.682 523.468 113.929L525.924 110.771C523.412 108.818 521.687 106.748 520.649 104.585L517.043 106.315ZM523.496 113.95C526.495 116.199 530.044 117.991 534.113 119.347L535.378 115.553C531.647 114.309 528.497 112.701 525.896 110.75L523.496 113.95ZM534.113 119.347C538.226 120.718 542.541 121.4 547.046 121.4V117.4C542.951 117.4 539.065 116.782 535.378 115.553L534.113 119.347ZM547.046 121.4C552.056 121.4 556.697 120.617 560.948 119.023L559.543 115.277C555.794 116.683 551.635 117.4 547.046 117.4V121.4ZM560.933 119.028C565.291 117.434 568.885 115.115 571.638 112.032L568.654 109.368C566.406 111.885 563.4 113.866 559.559 115.272L560.933 119.028ZM571.661 112.006C574.505 108.707 575.896 104.679 575.896 100.05H571.896C571.896 103.821 570.787 106.893 568.631 109.394L571.661 112.006ZM575.896 100.05C575.896 94.1535 573.536 88.9114 569.01 84.3858L566.181 87.2142C570.056 91.0886 571.896 95.3465 571.896 100.05H575.896ZM569.027 84.4029C564.451 79.7158 557.098 77.0313 547.405 76.011L546.986 79.989C556.293 80.9687 562.54 83.4842 566.165 87.1971L569.027 84.4029ZM547.388 76.0093C535.265 74.836 525.948 71.2884 519.249 65.533L516.642 68.567C524.143 75.0116 534.327 78.764 547.003 79.9907L547.388 76.0093ZM519.249 65.533C512.571 59.7955 509.296 52.7908 509.296 44.4H505.296C505.296 54.0092 509.12 62.1045 516.642 68.567L519.249 65.533ZM509.296 44.4C509.296 38.1989 511.024 33.0562 514.404 28.8535L511.287 26.3465C507.268 31.3438 505.296 37.4011 505.296 44.4H509.296ZM514.404 28.8535C517.852 24.5676 522.542 21.2608 528.558 18.969L527.134 15.231C520.55 17.7391 515.24 21.4324 511.287 26.3465L514.404 28.8535ZM528.548 18.9727C534.694 16.6679 541.552 15.5 549.146 15.5V11.5C541.139 11.5 533.797 12.7321 527.143 15.2273L528.548 18.9727ZM549.146 15.5C555.066 15.5 560.116 16.3257 564.339 17.9209L565.753 14.179C560.975 12.3743 555.425 11.5 549.146 11.5V15.5ZM564.352 17.926C568.74 19.5475 572.522 21.7757 575.722 24.5997L578.369 21.6003C574.769 18.4242 570.551 15.9525 565.739 14.174L564.352 17.926ZM575.722 24.5997C578.963 27.4594 581.786 30.8523 584.188 34.7912L587.603 32.7088C585.005 28.4477 581.928 24.7406 578.369 21.6003L575.722 24.5997ZM584.208 34.8237C585.426 36.7375 585.778 38.3547 585.568 39.7533L589.524 40.3467C589.914 37.7452 589.165 35.1625 587.583 32.6762L584.208 34.8237ZM585.557 39.8406C585.424 41.0993 584.837 42.0766 583.609 42.8709L585.782 46.2291C587.955 44.8234 589.267 42.8007 589.535 40.2594L585.557 39.8406ZM583.628 42.859C582.242 43.734 580.807 43.9208 579.152 43.3941L577.939 47.2059C580.684 48.0792 583.349 47.766 585.764 46.241L583.628 42.859ZM579.152 43.3941C577.399 42.8365 576.163 41.8435 575.327 40.3979L571.865 42.4021C573.228 44.7565 575.292 46.3635 577.939 47.2058L579.152 43.3941ZM575.347 40.4338C573.643 37.3463 571.55 34.7075 569.058 32.5408L566.433 35.5592C568.542 37.3925 570.348 39.6537 571.845 42.3662L575.347 40.4338ZM569.058 32.5408C566.554 30.3637 563.632 28.6923 560.315 27.5151L558.977 31.2849C561.86 32.3077 564.337 33.7362 566.433 35.5592L569.058 32.5408ZM560.368 27.5349C556.986 26.2257 553.08 25.6 548.696 25.6V29.6C552.711 29.6 556.106 30.1743 558.924 31.2651L560.368 27.5349ZM548.723 25.6002C541.061 25.4966 534.481 26.9443 529.092 30.0699L531.099 33.5301C535.71 30.8557 541.531 29.5034 548.669 29.5998L548.723 25.6002ZM529.118 30.055C526.349 31.6059 524.191 33.6352 522.737 36.1659C521.284 38.6937 520.596 41.6122 520.596 44.85H524.596C524.596 42.1878 525.157 39.9813 526.205 38.1591C527.25 36.3398 528.842 34.7941 531.073 33.545L529.118 30.055ZM520.596 44.85C520.596 48.199 521.437 51.4216 523.083 54.4944L526.609 52.6056C525.255 50.0784 524.596 47.501 524.596 44.85H520.596ZM523.125 54.5696C524.996 57.7259 528.219 60.2999 532.519 62.3975L534.273 58.8025C530.373 56.9001 527.896 54.7741 526.566 52.5304L523.125 54.5696ZM532.536 62.4057C537.036 64.5488 543.298 65.9799 551.192 66.7896L551.6 62.8104C543.894 62.02 538.155 60.6512 534.256 58.7943L532.536 62.4057ZM551.195 66.7899C562.805 67.9607 571.598 71.4975 577.788 77.2187L580.503 74.2812C573.493 67.8025 563.786 64.0393 551.596 62.8101L551.195 66.7899ZM577.811 77.2399C584.042 82.8198 587.196 90.2046 587.196 99.6H591.196C591.196 89.1954 587.649 80.6802 580.48 74.2601L577.811 77.2399ZM587.196 99.6C587.196 105.014 586.058 109.61 583.859 113.458L587.332 115.442C589.933 110.89 591.196 105.586 591.196 99.6H587.196ZM583.842 113.489C581.688 117.421 578.74 120.749 574.972 123.481L577.32 126.719C581.552 123.651 584.903 119.879 587.35 115.411L583.842 113.489ZM574.979 123.475C571.291 126.124 567.011 128.128 562.116 129.471L563.175 133.329C568.481 131.872 573.201 129.676 577.312 126.725L574.979 123.475ZM562.106 129.474C557.289 130.823 552.271 131.5 547.046 131.5V135.5C552.621 135.5 558.003 134.777 563.185 133.326L562.106 129.474Z" fill="#322660" mask="url(#path-14-outside-2_62_311)"/>
</svg>
