<svg width="100" height="96" viewBox="0 0 100 96" fill="none" xmlns="http://www.w3.org/2000/svg">
<path d="M90.8346 58.4013V49.9583C90.8346 48.7538 90.3561 47.5986 89.5043 46.7469C88.6526 45.8952 87.4974 45.4167 86.2929 45.4167C85.0884 45.4167 83.9332 45.8952 83.0814 46.7469C82.2297 47.5986 81.7512 48.7538 81.7512 49.9583V54.5H18.1679V13.625H49.9596C51.1641 13.625 52.3193 13.1465 53.171 12.2948C54.0227 11.443 54.5012 10.2879 54.5012 9.08333C54.5012 7.87881 54.0227 6.72362 53.171 5.87189C52.3193 5.02016 51.1641 4.54167 49.9596 4.54167H18.1679C15.7588 4.54167 13.4485 5.49866 11.745 7.20211C10.0416 8.90557 9.08456 11.216 9.08456 13.625V58.4013L0.173811 89.5889C-0.0187507 90.2648 -0.0518326 90.9762 0.0771679 91.667C0.206169 92.3578 0.493732 93.0093 0.917229 93.5701C1.34073 94.131 1.8886 94.5859 2.51774 94.8991C3.14688 95.2123 3.84011 95.3752 4.54289 95.375H95.3762C96.079 95.3752 96.7722 95.2123 97.4014 94.8991C98.0305 94.5859 98.5784 94.131 99.0019 93.5701C99.4254 93.0093 99.713 92.3578 99.842 91.667C99.971 90.9762 99.9379 90.2648 99.7453 89.5889L90.8346 58.4013ZM10.5651 86.2917L17.0506 63.5833H82.8685L89.354 86.2917H10.5651ZM98.1012 14.5333H95.2491C94.8717 14.5253 94.5054 14.4041 94.1977 14.1854C93.89 13.9668 93.655 13.6608 93.5232 13.3071V13.2844C93.3692 12.941 93.3215 12.5594 93.3863 12.1887C93.451 11.818 93.6253 11.4751 93.8866 11.2043L95.9031 9.18779C96.0754 9.01868 96.2123 8.8169 96.3057 8.59427C96.3992 8.37163 96.4473 8.1326 96.4473 7.89115C96.4473 7.64969 96.3992 7.41066 96.3057 7.18802C96.2123 6.96539 96.0754 6.76361 95.9031 6.5945L93.3552 4.04663C93.1861 3.87429 92.9843 3.73739 92.7617 3.64394C92.539 3.55049 92.3 3.50235 92.0585 3.50235C91.8171 3.50235 91.5781 3.55049 91.3554 3.64394C91.1328 3.73739 90.931 3.87429 90.7619 4.04663L88.7454 6.06313C88.4747 6.32476 88.1316 6.49889 87.7606 6.56288C87.3896 6.62687 87.008 6.57775 86.6653 6.42192H86.6381C86.2855 6.28886 85.9809 6.05345 85.7632 5.74592C85.5455 5.43838 85.4247 5.07278 85.4164 4.69608V1.81667C85.4164 1.33486 85.225 0.872781 84.8843 0.53209C84.5436 0.191398 84.0815 0 83.5997 0H79.9346C79.4528 0 78.9907 0.191398 78.65 0.53209C78.3093 0.872781 78.1179 1.33486 78.1179 1.81667V4.66883C78.1096 5.04553 77.9888 5.41113 77.7711 5.71867C77.5534 6.0262 77.2487 6.26161 76.8962 6.39467H76.8689C76.5263 6.5505 76.1446 6.59962 75.7736 6.53563C75.4027 6.47164 75.0595 6.29751 74.7888 6.03587L72.7724 4.01937C72.6032 3.84704 72.4015 3.71014 72.1788 3.61669C71.9562 3.52324 71.7172 3.4751 71.4757 3.4751C71.2342 3.4751 70.9952 3.52324 70.7726 3.61669C70.5499 3.71014 70.3482 3.84704 70.1791 4.01937L67.6312 6.56725C67.4588 6.73636 67.3219 6.93814 67.2285 7.16077C67.135 7.38341 67.0869 7.62244 67.0869 7.86389C67.0869 8.10535 67.135 8.34438 67.2285 8.56702C67.3219 8.78965 67.4588 8.99143 67.6312 9.16054L69.6477 11.177C69.909 11.4479 70.0832 11.7907 70.148 12.1614C70.2127 12.5321 70.165 12.9138 70.011 13.2571V13.2798C69.8792 13.6335 69.6442 13.9395 69.3365 14.1582C69.0288 14.3768 68.6626 14.498 68.2852 14.5061H65.4012C64.9194 14.5061 64.4573 14.6975 64.1166 15.0382C63.776 15.3789 63.5846 15.8409 63.5846 16.3227V19.9833C63.5846 20.4651 63.776 20.9272 64.1166 21.2679C64.4573 21.6086 64.9194 21.8 65.4012 21.8H68.2534C68.6301 21.8083 68.9957 21.9291 69.3032 22.1468C69.6108 22.3645 69.8462 22.6692 69.9792 23.0217V23.049C70.1332 23.3923 70.1809 23.7739 70.1162 24.1447C70.0514 24.5154 69.8772 24.8582 69.6159 25.129L67.5994 27.1455C67.427 27.3147 67.2902 27.5164 67.1967 27.7391C67.1032 27.9617 67.0551 28.2007 67.0551 28.4422C67.0551 28.6836 67.1032 28.9227 67.1967 29.1453C67.2902 29.3679 67.427 29.5697 67.5994 29.7388L70.1473 32.2867C70.3164 32.459 70.5182 32.5959 70.7408 32.6894C70.9634 32.7828 71.2025 32.831 71.4439 32.831C71.6854 32.831 71.9244 32.7828 72.147 32.6894C72.3697 32.5959 72.5714 32.459 72.7406 32.2867L74.7571 30.2702C75.0279 30.0089 75.3707 29.8347 75.7414 29.7699C76.1122 29.7051 76.4938 29.7529 76.8371 29.9069H76.8644C77.2176 30.0389 77.523 30.274 77.7408 30.5818C77.9587 30.8895 78.079 31.2557 78.0861 31.6327V34.5167C78.0861 34.9985 78.2775 35.4606 78.6182 35.8012C78.9589 36.1419 79.421 36.3333 79.9028 36.3333H83.5679C84.0497 36.3333 84.5118 36.1419 84.8525 35.8012C85.1932 35.4606 85.3846 34.9985 85.3846 34.5167V31.6463C85.3917 31.2693 85.512 30.9032 85.7298 30.5954C85.9477 30.2876 86.2531 30.0525 86.6063 29.9205H86.6335C86.9769 29.7665 87.3585 29.7188 87.7292 29.7835C88.0999 29.8483 88.4428 30.0225 88.7136 30.2838L90.7301 32.3003C90.8992 32.4727 91.101 32.6096 91.3236 32.703C91.5463 32.7965 91.7853 32.8446 92.0267 32.8446C92.2682 32.8446 92.5072 32.7965 92.7299 32.703C92.9525 32.6096 93.1543 32.4727 93.3234 32.3003L95.8713 29.7525C96.0436 29.5833 96.1805 29.3816 96.2739 29.1589C96.3674 28.9363 96.4155 28.6973 96.4155 28.4558C96.4155 28.2144 96.3674 27.9753 96.2739 27.7527C96.1805 27.5301 96.0436 27.3283 95.8713 27.1592L93.8548 25.1427C93.5935 24.8718 93.4192 24.529 93.3545 24.1583C93.2897 23.7876 93.3374 23.406 93.4914 23.0626V23.0353C93.6245 22.6828 93.8599 22.3781 94.1674 22.1604C94.475 21.9427 94.8406 21.822 95.2173 21.8136H98.1012C98.3398 21.8136 98.576 21.7666 98.7964 21.6753C99.0168 21.584 99.2171 21.4502 99.3858 21.2815C99.5545 21.1128 99.6883 20.9126 99.7796 20.6922C99.8709 20.4718 99.9179 20.2355 99.9179 19.997V16.35C99.9179 15.8682 99.7265 15.4061 99.3858 15.0654C99.0451 14.7247 98.583 14.5333 98.1012 14.5333ZM81.7512 23.6167C80.6733 23.6167 79.6196 23.297 78.7234 22.6982C77.8271 22.0993 77.1286 21.2481 76.7161 20.2523C76.3036 19.2564 76.1957 18.1606 76.4059 17.1034C76.6162 16.0462 77.1353 15.0751 77.8975 14.3129C78.6597 13.5507 79.6308 13.0317 80.688 12.8214C81.7452 12.6111 82.841 12.719 83.8369 13.1315C84.8327 13.544 85.6839 14.2426 86.2827 15.1388C86.8816 16.0351 87.2012 17.0888 87.2012 18.1667C87.2012 19.6121 86.627 20.9983 85.605 22.0204C84.5829 23.0425 83.1967 23.6167 81.7512 23.6167Z" fill="#BF6767"/>
</svg>
