<svg width="322" height="322" viewBox="0 0 322 322" fill="none" xmlns="http://www.w3.org/2000/svg">
<path d="M161 29.0203C203.987 29.0203 209.085 29.1813 226.071 29.9594C269.702 31.9451 290.082 52.647 292.067 95.956C292.846 112.928 292.993 118.026 292.993 161.013C292.993 204.014 292.832 209.099 292.067 226.071C290.068 269.34 269.742 290.082 226.071 292.067C209.085 292.846 204.014 293.007 161 293.007C118.013 293.007 112.915 292.846 95.9426 292.067C52.2043 290.068 31.9317 269.273 29.946 226.057C29.1678 209.085 29.0068 204 29.0068 161C29.0068 118.013 29.1813 112.928 29.946 95.9426C31.9451 52.647 52.2713 31.9317 95.9426 29.946C112.928 29.1813 118.013 29.0203 161 29.0203ZM161 0C117.275 0 111.801 0.187833 94.6278 0.966C36.1579 3.64933 3.66275 36.0908 0.979417 94.6143C0.187833 111.801 0 117.275 0 161C0 204.725 0.187833 210.212 0.966 227.386C3.64933 285.856 36.0908 318.351 94.6143 321.034C111.801 321.812 117.275 322 161 322C204.725 322 210.212 321.812 227.386 321.034C285.802 318.351 318.378 285.909 321.021 227.386C321.812 210.212 322 204.725 322 161C322 117.275 321.812 111.801 321.034 94.6278C318.404 36.2116 285.923 3.66275 227.399 0.979417C210.212 0.187833 204.725 0 161 0ZM161 78.3265C115.343 78.3265 78.3265 115.343 78.3265 161C78.3265 206.657 115.343 243.687 161 243.687C206.657 243.687 243.674 206.67 243.674 161C243.674 115.343 206.657 78.3265 161 78.3265ZM161 214.667C131.363 214.667 107.333 190.651 107.333 161C107.333 131.363 131.363 107.333 161 107.333C190.637 107.333 214.667 131.363 214.667 161C214.667 190.651 190.637 214.667 161 214.667ZM246.947 55.7463C236.268 55.7463 227.614 64.4 227.614 75.0662C227.614 85.7325 236.268 94.3863 246.947 94.3863C257.613 94.3863 266.254 85.7325 266.254 75.0662C266.254 64.4 257.613 55.7463 246.947 55.7463Z" fill="#7E73A5"/>
</svg>
