<svg width="51" height="45" viewBox="0 0 51 45" fill="none" xmlns="http://www.w3.org/2000/svg">
<g opacity="0.7" clip-path="url(#clip0_170_432)">
<mask id="mask0_170_432" style="mask-type:luminance" maskUnits="userSpaceOnUse" x="0" y="0" width="51" height="45">
<path d="M51 0H0V45H51V0Z" fill="white"/>
</mask>
<g mask="url(#mask0_170_432)">
<path d="M46.406 11.0902C47.673 12.5839 48.6989 14.2369 49.3861 16.0682C49.7946 17.1567 50.1252 18.3035 50.2796 19.4528C50.4781 20.9292 50.6241 22.4469 50.5095 23.9246C50.2608 27.1332 49.5403 30.2356 47.3559 32.7505C45.9252 34.3975 44.4627 36.0261 42.9031 37.5476C40.8645 39.5367 38.5155 41.0487 35.8036 42.0291C33.8307 42.7425 31.8681 43.4593 29.8146 43.8799C28.8145 44.0847 27.7932 44.204 26.7757 44.2983C25.8369 44.3853 24.8843 44.4738 23.9486 44.4071C22.3273 44.2915 20.7118 44.0768 19.0989 43.8653C17.8448 43.7009 16.5949 43.498 15.3491 43.2774C12.9233 42.848 10.6117 42.0744 8.37608 41.0216C6.69998 40.2324 5.17264 39.2589 3.87854 37.934C2.2306 36.2469 0.909301 34.3331 0.511082 31.9615C0.265318 30.4978 0.424196 28.9962 1.04538 27.6177C1.7288 26.1009 2.61517 24.7055 3.87371 23.59C5.33695 22.2932 6.93682 21.2289 8.78027 20.5314C11.5024 19.5014 14.1077 18.2418 16.1361 16.0609C17.0416 15.0875 17.7929 13.9628 18.7372 13.0332C20.4066 11.3898 22.1712 9.84323 24.1589 8.58519C24.4974 8.37089 24.8823 8.23073 25.3149 8.06659C25.5466 8.06397 25.7251 8.09075 25.8698 8.03236C29.449 6.58709 33.1584 6.16119 36.9805 6.55179C38.9172 6.74971 40.8086 7.09823 42.5346 8.07497C42.1342 8.85966 41.7466 9.6068 41.3198 10.3349C40.5939 10.0104 39.9341 9.57665 39.215 9.42274C36.7155 8.88771 34.1886 8.69369 31.6353 9.06576C29.3978 9.3918 27.1996 9.88283 25.284 11.1254C23.2209 12.4636 21.3671 14.081 19.7476 15.9513C19.2488 16.5272 18.7848 17.134 18.2789 17.7034C16.3238 19.9044 13.8693 21.348 11.1965 22.4905C9.78719 23.093 8.38713 23.7528 7.07943 24.5476C6.25877 25.0462 5.61733 25.8436 4.86633 26.5316C4.6344 26.8328 4.41476 27.0986 4.23162 27.3877C3.15201 29.0922 2.73897 30.8709 3.57465 32.8234C4.31865 34.5618 5.5478 35.9097 6.97397 37.0669C8.43912 38.2557 10.1901 38.9348 11.9461 39.5745C14.628 40.5515 17.4379 40.9085 20.2365 41.3323C23.1512 41.7736 26.0593 41.8442 28.9656 41.2963C31.5592 40.8071 34.0125 39.875 36.4251 38.8333C37.1012 38.5414 37.7611 38.1801 38.3672 37.7611C40.8438 36.0484 42.9129 33.8895 44.8529 31.6028C45.7671 30.5252 46.6633 29.4087 46.9794 27.9836C47.4598 25.8178 47.8802 23.6313 47.673 21.3985C47.5748 20.3405 47.3004 19.2992 47.1026 18.2074C46.8224 17.4571 46.6227 16.7053 46.2516 16.0522C45.5961 14.8989 44.836 13.8055 44.1366 12.6539C44.606 12.251 45.0427 11.8591 45.5168 11.5202C45.7811 11.3313 46.1076 11.2306 46.406 11.0902Z" fill="white"/>
<path d="M42.5473 8.03746C40.8086 7.09826 38.9173 6.74974 36.9805 6.55182C33.1583 6.16122 29.449 6.58712 25.8698 8.03238C25.7251 8.09078 25.5466 8.064 25.3532 8.04987C25.2458 5.92459 25.8833 4.0771 27.3823 2.61139C28.148 1.86286 28.9265 1.10544 30.0786 0.867274C32.1488 0.439282 34.1134 0.687975 36.0312 1.52533C37.4036 2.1245 38.8173 2.56813 40.3103 2.76339C41.6352 2.93662 43.0379 2.77928 44.2346 3.55648C44.8102 3.93034 45.3386 4.37788 45.8991 4.84562C44.5777 5.71595 43.448 6.75267 42.5473 8.03746Z" fill="white"/>
<path d="M42.5346 8.07503C43.448 6.7527 44.5777 5.71598 45.9287 4.86847C46.9019 4.29202 47.9462 4.12618 49.0077 4.26399C50.2913 4.4306 50.766 5.09805 50.464 6.54072C50.2799 7.42039 49.7153 8.12047 49.0261 8.7159C48.1532 9.47013 47.3147 10.2649 46.4336 11.0662C46.1076 11.2307 45.7811 11.3313 45.5169 11.5202C45.0427 11.8591 44.606 12.251 44.1 12.668C43.3651 13.0481 42.6917 13.3982 42.0003 13.7079C41.5271 13.9198 41.0286 13.973 40.62 13.5599C40.2035 13.1389 40.3131 12.6406 40.5152 12.1694C40.7781 11.5564 41.076 10.9584 41.3589 10.354C41.7465 9.60686 42.1342 8.85971 42.5346 8.07503Z" fill="white"/>
<path d="M41.3199 10.3349C41.076 10.9584 40.7781 11.5564 40.5153 12.1694C40.3131 12.6406 40.2036 13.1388 40.62 13.5599C41.0286 13.9729 41.5272 13.9198 42.0003 13.7079C42.6917 13.3981 43.3652 13.048 44.083 12.7011C44.836 13.8055 45.5961 14.8989 46.2516 16.0522C46.6228 16.7053 46.8224 17.4571 47.0688 18.224C46.9121 18.4701 46.7666 18.6464 46.6627 18.8447C46.0963 19.9252 45.5977 21.0465 44.9679 22.0876C43.8098 24.0021 42.5059 25.8251 40.7451 27.2314C37.7617 29.614 34.4849 31.5361 30.8764 32.7454C28.4586 33.5555 25.9764 34.2028 23.3612 34.2492C20.6444 34.2974 17.9435 34.3966 15.239 33.9915C13.4661 33.726 11.8408 33.1375 10.41 32.0853C8.64161 30.7848 7.15458 29.1669 5.6696 27.5572C5.37669 27.2397 5.15179 26.8587 4.89551 26.5069C5.61736 25.8436 6.25879 25.0463 7.07946 24.5476C8.38716 23.7528 9.78722 23.093 11.1965 22.4906C13.8693 21.348 16.3238 19.9044 18.2789 17.7034C18.7848 17.1341 19.249 16.5272 19.7477 15.9513C21.3671 14.0811 23.221 12.4636 25.2841 11.1254C27.1996 9.88285 29.3978 9.39182 31.6353 9.06577C34.1886 8.69371 36.7155 8.88773 39.2151 9.42276C39.9341 9.57666 40.5939 10.0104 41.3199 10.3349Z" fill="white"/>
<path d="M4.86635 26.5316C5.15177 26.8586 5.37669 27.2396 5.66959 27.5572C7.15458 29.1668 8.64161 30.7848 10.41 32.0853C11.8408 33.1375 13.4661 33.726 15.239 33.9915C17.9435 34.3966 20.6444 34.2974 23.3612 34.2492C25.9764 34.2028 28.4586 33.5555 30.8764 32.7454C34.4849 31.5361 37.7617 29.614 40.745 27.2314C42.5059 25.8251 43.8098 24.0021 44.9679 22.0876C45.5977 21.0465 46.0963 19.9252 46.6626 18.8447C46.7666 18.6464 46.9121 18.47 47.0721 18.267C47.3004 19.2992 47.5748 20.3405 47.6731 21.3985C47.8803 23.6313 47.4598 25.8178 46.9794 27.9836C46.6633 29.4087 45.7671 30.5252 44.8529 31.6028C42.9129 33.8895 40.8439 36.0484 38.3672 37.7611C37.7612 38.1802 37.1012 38.5414 36.4251 38.8333C34.0125 39.875 31.5592 40.8071 28.9656 41.2963C26.0593 41.8442 23.1512 41.7736 20.2365 41.3323C17.4379 40.9085 14.628 40.5515 11.9461 39.5745C10.1902 38.9348 8.43913 38.2557 6.97398 37.0669C5.54783 35.9097 4.31866 34.5618 3.57467 32.8234C2.73898 30.8709 3.15204 29.0922 4.23163 27.3877C4.41478 27.0986 4.63441 26.8328 4.86635 26.5316Z" fill="white"/>
</g>
</g>
<defs>
<clipPath id="clip0_170_432">
<rect width="51" height="45" fill="white"/>
</clipPath>
</defs>
</svg>
