<svg width="121" height="114" viewBox="0 0 121 114" fill="none" xmlns="http://www.w3.org/2000/svg">
<path d="M46.6018 102.66C48.5987 106.998 52.5796 108.21 62.9178 108.99C82.0229 109.247 81.2851 105.037 72.3587 95.2582L46.6018 102.66Z" fill="#FAF9F3" stroke="#D0D0CD"/>
<path d="M47.9429 102.808C44.7047 106.316 40.5444 106.237 30.4714 103.781C12.2219 98.1162 14.2234 94.34 25.7317 87.801L47.9429 102.808Z" fill="#FAF9F3" stroke="#D0D0CD"/>
<path d="M107.068 73.7987C121.774 54.8086 115.786 42.2766 101.666 39.7171C99.5975 22.7887 94.9172 17.8429 77.6014 20.5957C69.5462 2.64866 62.7806 1.09433 46.497 14.2499C32.5473 7.41126 27.3214 10.1171 22.5473 26.3469C9.85362 28.8685 6.32265 34.0691 5.77067 49.4168C7.73217 66.1057 12.4928 76.8189 25.2541 87.9143C33.4131 95.2425 38.1868 98.7594 47.1489 103.706C49.5116 105.31 54.6751 103.832 61.5765 100.987C64.7499 99.7908 68.0102 98.2146 72.2939 96.2734C72.5464 96.1594 72.8 96.0448 73.0547 95.9298C85.7395 90.201 99.4744 81.8254 107.068 73.7987Z" fill="#FAF9F3"/>
<path d="M47.1489 103.706C50.6887 106.109 60.5156 101.593 73.0547 95.9298M47.1489 103.706C58.1502 103.332 62.5231 100.671 73.0547 95.9298M47.1489 103.706C38.8124 98.5609 30.5113 92.4852 25.2541 87.9143M47.1489 103.706C38.1868 98.7594 33.4131 95.2425 25.2541 87.9143M73.0547 95.9298C85.7395 90.201 99.4744 81.8254 107.068 73.7987C121.774 54.8086 115.786 42.2766 101.666 39.7171C99.5975 22.7887 94.9172 17.8429 77.6014 20.5957C69.5462 2.64866 62.7806 1.09433 46.497 14.2499C32.5473 7.41126 27.3214 10.1171 22.5473 26.3469C9.85362 28.8685 6.32265 34.0691 5.77067 49.4168C7.73217 66.1057 12.4928 76.8189 25.2541 87.9143" stroke="#D0D0CD"/>
<path d="M73.3848 96.3398C63.2069 100.968 57.4051 102.382 46.8646 103.046" stroke="#D0D0CD"/>
<path d="M25.23 87.8262C32.6654 95.7482 37.5032 98.8812 46.8641 103.046" stroke="#D0D0CD"/>
<path d="M22.2383 26.2344C23.8002 59.9521 28.6863 77.0023 46.8644 103.046" stroke="#D0D0CD"/>
<path d="M101.704 39.7646C84.8287 70.8389 73.5192 85.7116 46.864 103.046" stroke="#D0D0CD"/>
<path d="M77.875 20.8623C71.3845 52.3561 64.4166 70.3649 46.8639 103.046" stroke="#D0D0CD"/>
<path d="M46.7437 14.1377C43.4055 48.8794 43.4972 68.3425 46.8646 103.046" stroke="#D0D0CD"/>
</svg>
