<svg width="397" height="408" viewBox="0 0 397 408" fill="none" xmlns="http://www.w3.org/2000/svg">
<path d="M1.51465 365.224L11.2347 220.527L128.366 169.659L83.2865 18.8916L103.227 1.21255L345.427 34.8398C345.427 34.8398 384.956 67.0887 393.185 120.583C401.413 174.078 370.379 209.028 370.379 209.028L355.332 339.116L256.176 406.579L1.51465 365.224Z" fill="#A2877E"/>
<path d="M206.142 36.2076L211.652 37.2622L215.621 30.2445L193.109 27.3382L194.141 34.8354L200.089 35.6076L200.076 32.3103L207.135 33.2809L206.142 36.2076Z" fill="#BEB9B9"/>
<path d="M130.815 240.005L123.309 238.537L117.392 258.562L140.415 263.966L146.325 242.441L137.819 240.977L134.375 254.491L127.369 253.02L130.815 240.005Z" fill="#BEB9B9"/>
<path d="M329.718 53.2699L84.0762 19.793L126.701 169.617L369.865 208.604L329.718 53.2699Z" fill="#635854"/>
<path d="M16.3745 211.576L11.9099 220.095L273.593 263.505L370.369 209.602L366.355 206.118L355.815 196.662L336.268 185.244L326.236 177.785L305.237 177.873L284.237 177.96L270.67 162.017L252.17 162.094L238.156 158.652L213.656 158.754L203.127 151.798L184.156 158.877L166.657 158.95L159.107 146.981L142.107 147.052L125.607 147.121L116.628 152.158L105.628 152.204L97.6572 159.237L86.6947 168.283L77.1948 168.323L66.2116 172.368L59.2387 178.898L54.27 186.418L44.2909 191.46L38.791 191.483L30.8181 198.016L25.3577 207.539L16.3745 211.576Z" fill="url(#paint0_linear_984_567)"/>
<path d="M273.596 264.005L369.872 210.104L329.718 53.2696L345.647 36.2031C345.647 36.2031 373.211 51.5884 390.443 107.017C407.674 162.446 369.872 210.104 369.872 210.104L354.909 339.167L256.689 406.577L273.596 264.005Z" fill="#87756F"/>
<path d="M48.937 226.441L34.4267 224.001L24.0308 369.046L39.0411 371.483L48.937 226.441Z" fill="#BEB9B9"/>
<path d="M227.562 256.197L213.552 253.755L204.152 397.796L217.662 400.239L227.562 256.197Z" fill="#3C0303"/>
<path d="M279.102 25.4801L266.594 23.5322L259.177 43.5633L272.685 45.507L279.102 25.4801Z" fill="#BEB9B9"/>
<path d="M151.026 7.51335L138.519 6.06544L131.103 26.0965L144.611 28.0402L151.026 7.51335Z" fill="#BEB9B9"/>
<path d="M227.562 256.197L213.552 253.755L204.152 397.796L217.662 400.239L227.562 256.197Z" fill="#BEB9B9"/>
<path d="M295.698 293.765L296.637 281.802L317.017 271.366L320.055 290.161L328.959 285.343L327.916 266.705L345.109 258.526L348.509 266.316L333.349 274.153L334.824 287.309C334.824 287.309 337.24 298.475 328.06 301.279C317.156 304.609 314.679 294.754 314.679 294.754L313.087 283.094L295.698 293.765Z" fill="url(#paint1_linear_984_567)"/>
<defs>
<linearGradient id="paint0_linear_984_567" x1="11.8516" y1="206.095" x2="370.348" y2="204.602" gradientUnits="userSpaceOnUse">
<stop stop-color="#F0CF39"/>
<stop offset="1" stop-color="#DCD7C1"/>
</linearGradient>
<linearGradient id="paint1_linear_984_567" x1="345.772" y1="275.63" x2="213.623" y2="323.43" gradientUnits="userSpaceOnUse">
<stop stop-color="#B8B2B2"/>
<stop offset="1" stop-color="#524F4F"/>
</linearGradient>
</defs>
</svg>
