<svg width="1412" height="441" viewBox="0 0 1412 441" fill="none" xmlns="http://www.w3.org/2000/svg">
<path d="M0 440.975C0 69.1866 0.0645981 52.522 1.51019 51.3817C2.34079 50.7265 5.29304 49.3368 8.07074 48.2934C10.8484 47.25 14.4544 45.788 16.0839 45.0445C17.7135 44.3011 24.1894 42.1271 30.4748 40.2135C36.7603 38.2999 43.0457 36.2696 44.4424 35.7019C45.8392 35.1341 48.8867 34.3191 51.2146 33.8909C53.5426 33.4626 59.2566 32.2642 63.9125 31.2279C78.1695 28.0543 88.9559 27.7293 108.655 29.8798C117.899 30.8889 126.159 32.0397 127.011 32.4372C127.863 32.8347 129.685 33.1599 131.061 33.1599C132.436 33.1599 136.747 33.9706 140.64 34.9614C144.533 35.9523 151.147 37.6346 155.337 38.6999C163.256 40.7132 167.848 42.3255 176.337 46.0725C228.967 69.305 235.705 72.5353 245.057 79.0161C251.13 83.2257 287.604 104.261 297.129 109.048C307.101 114.059 316.69 119.54 321.63 123.051C323.698 124.521 327.507 126.988 330.095 128.533C332.683 130.078 336.547 132.411 338.682 133.717C340.817 135.023 350.634 140.408 360.498 145.684C370.362 150.959 382.507 157.87 387.487 161.042C396.417 166.729 400.664 169.1 416.489 177.234C429.478 183.911 465.546 194.869 481.248 196.909C484.507 197.332 488.507 198.026 490.137 198.451C495.735 199.911 512.579 201.299 521.458 201.033C541.358 200.435 552.129 199.306 563.361 196.64C569.414 195.204 579.127 193.358 584.947 192.537C590.767 191.717 600.291 190.061 606.11 188.858C642.786 181.277 647.865 180.425 653.56 180.902C655.922 181.1 659.64 180.968 661.822 180.608C664.005 180.249 669.557 179.614 674.162 179.199C678.767 178.783 686.035 177.815 690.314 177.047C701.203 175.094 722.632 174.031 736.959 174.733C743.51 175.054 749.304 175.551 749.834 175.836C750.364 176.122 755.861 177.2 762.048 178.232C768.236 179.264 774.441 180.712 775.838 181.45C777.235 182.188 781.044 183.465 784.303 184.288C787.562 185.11 793.36 186.773 797.186 187.982L804.143 190.181L817.926 189.588C828.754 189.121 833.432 188.574 839.751 187.034C844.174 185.957 850.444 184.586 853.684 183.988C856.979 183.38 861.292 181.941 863.47 180.723C865.612 179.525 871.341 177.073 876.202 175.275C900.837 166.163 899.946 166.568 930.329 150.636C936.148 147.584 944.148 143.419 948.106 141.381C952.063 139.342 959.11 135.624 963.766 133.118C968.422 130.611 973.946 127.807 976.041 126.886C978.136 125.966 982.326 123.636 985.353 121.71C1004.67 109.416 1028.31 98.693 1057.73 88.8788C1071.67 84.2281 1110.71 66.9843 1116.99 62.7066C1125.01 57.2357 1154.7 40.1456 1168.62 32.9818C1185.33 24.3904 1202.33 17.1875 1209.45 15.6877C1212.6 15.0235 1220.33 12.9194 1226.61 11.0118C1238.7 7.34364 1240.25 6.96184 1254.97 4.04862C1271.7 0.736337 1281.34 -0.0173823 1306.73 0.000301399C1333.89 0.0191722 1340.84 0.740508 1356.57 5.17331C1365.57 7.7088 1384.74 15.5313 1398.03 22.0892C1400.36 23.2378 1404.46 24.7281 1407.13 25.4008L1412 26.6239V429.812L690.314 440.975H0Z" fill="#EEB8D4"/>
</svg>
