<svg width="1456" height="772" viewBox="0 0 1456 772" fill="none" xmlns="http://www.w3.org/2000/svg">
<path d="M0 697.868V304.735L7.08734 286.351C10.9854 276.24 16.5215 262.821 19.3898 256.53C25.7697 242.539 30.2029 230.798 31.8649 223.49C33.2801 217.268 32.9469 186.456 31.3656 177.319C29.6328 167.308 28.054 156.033 27.5101 149.786C26.6506 139.914 23.7094 127.085 21.1364 121.985C19.7314 119.2 16.9699 115.796 14.2117 113.449C9.32991 109.295 8.83062 108.256 10.9109 106.58C12.7325 105.113 21.1608 108.239 27.2263 112.631C35.3399 118.506 45.4019 127.998 50.8954 134.96C53.8368 138.688 56.9217 142.454 57.7507 143.328C62.3714 148.204 69.2923 164.989 70.7183 174.778C73.0676 190.904 74.1277 198.952 74.3207 202.126C74.4402 204.092 74.6202 205.7 74.7208 205.7C74.8214 205.7 75.9556 203.958 77.2413 201.828C78.527 199.699 82.0043 194.836 84.9685 191.022C87.9328 187.207 91.1843 182.754 92.1942 181.126C93.2041 179.498 96.7138 173.973 99.9935 168.847C106.797 158.215 112.861 147.076 115.212 140.891C116.866 136.54 119.931 124.04 120.821 118.017C121.921 110.577 124.04 82.9813 124.037 76.1474C124.027 57.5211 116.718 39.2239 104.937 28.3315C97.2102 21.1881 84.5136 12.5433 81.7487 12.5433C81.1158 12.5433 80.3039 12.2574 79.9445 11.9079C79.5852 11.5584 77.8818 10.8877 76.1592 10.4173C70.5999 8.89915 71.6285 7.45987 78.2702 7.46346C88.7465 7.46929 109.746 11.7715 116.806 15.3588C131.588 22.8692 140.837 29.4985 147.746 37.535C155.231 46.2414 172.873 72.2197 177.482 81.3215C182.203 90.6459 187.955 106.585 190.334 116.938C194.439 134.797 194.602 161.753 190.742 184.072C187.697 201.671 184.556 229.042 185.462 230.067C185.571 230.189 186.942 227.521 188.509 224.137C190.077 220.753 193.726 213.222 196.618 207.401C199.511 201.581 202.817 194.337 203.966 191.305C205.115 188.272 206.416 185.029 206.857 184.097C207.298 183.165 208.717 179.734 210.011 176.472C213.463 167.768 217.844 159.515 222.827 152.328C228.058 144.783 247.879 120.644 256.218 111.663C260.471 107.083 263.286 102.944 266.304 96.8374C270.452 88.4402 270.501 88.2412 271.854 74.2265C273.555 56.5988 273.572 47.2945 271.922 37.535C269.524 23.3562 266.124 14.5722 259.642 5.81573C254.77 -0.764915 255.537 -1.84849 261.624 3.01255C270.811 10.348 277.619 17.9626 281.929 25.7231C289.335 39.0553 291.497 45.4536 294.225 62.1032C297.762 83.6879 296.385 89.7269 281.096 119.711C274.59 132.471 271.289 139.952 270.63 143.432C269.474 149.548 265.035 178.512 262.646 195.534C261.697 202.29 260.371 209.914 259.698 212.477C259.024 215.04 257.652 221.33 256.649 226.456C255.645 231.581 254.619 236.69 254.369 237.81C253.96 239.642 254.333 239.49 258.111 236.288C283.962 214.376 295.328 206.405 306.012 202.696C318.207 198.462 322.704 197.937 346.105 198.015C358.839 198.058 370.109 197.694 373.165 197.141C381.495 195.634 382.731 195.71 383.03 197.747C383.392 200.206 378.265 203.271 360.469 211.232C327.495 225.984 320.088 231.241 309.173 247.635C306.071 252.294 301.131 259.708 298.195 264.109C295.26 268.51 289.765 275.944 285.984 280.629C282.202 285.314 277.939 291.609 276.508 294.619C275.078 297.629 271.424 309.066 268.388 320.035C265.353 331.003 262.266 341.866 261.529 344.174C260.792 346.482 260.337 348.514 260.519 348.69C260.7 348.866 262.803 346.216 265.192 342.8C267.581 339.384 273.473 332.014 278.285 326.422C284.881 318.759 288.289 315.548 292.129 313.377C294.931 311.794 298.886 309.392 300.919 308.04C302.951 306.687 308.432 303.861 313.098 301.76C320.233 298.546 322.549 296.97 327.663 291.848C331.008 288.498 335.094 283.661 336.743 281.098C338.391 278.536 340.893 274.723 342.302 272.627C343.711 270.53 347.547 264.621 350.826 259.495C354.989 252.99 357.284 250.177 358.43 250.177C359.879 250.177 360.046 250.773 359.853 255.26C359.493 263.6 355.357 282.742 352.074 291.265C349.008 299.223 344.117 307.997 340.032 312.868C338.077 315.197 335.525 318.628 334.36 320.492C333.195 322.356 330.648 325.635 328.699 327.779C326.75 329.922 323.505 334.699 321.488 338.393C317.991 344.796 316.259 348.569 309.288 364.969C307.604 368.93 305.522 373.504 304.661 375.135C303.799 376.766 298.296 387.746 292.43 399.534C280.924 422.659 275.691 434.37 276.379 435.45C276.617 435.825 278.963 436.132 281.59 436.132C291.37 436.132 295.976 439.715 302.082 452.071C304.542 457.05 307.168 463.852 307.917 467.186C309.229 473.03 309.209 473.458 307.358 479.047C306.302 482.236 305.245 487.132 305.009 489.928C304.321 498.085 304.691 512.577 305.63 514.28C307.886 518.372 315.653 517.813 321.495 513.139C323.948 511.178 324.492 510.213 324.198 508.353C323.861 506.228 324.356 505.746 329.855 502.847C333.168 501.1 336.452 499.67 337.15 499.67C337.849 499.67 339.002 501.1 339.712 502.847C340.8 505.524 341.626 506.2 344.964 507.143C349.804 508.51 354.239 507.852 359.869 504.932C365.047 502.246 366.029 501.116 365.936 497.947C365.854 495.157 365.531 495.249 376.22 495.018C382.252 494.887 383.169 495.394 383.19 498.873C383.213 502.605 384.934 503.855 390.868 504.45C395.861 504.951 396.551 504.819 398.591 502.971C399.823 501.854 401.572 499.539 402.478 497.826C404.913 493.217 406.649 493.101 413.667 497.079C417.004 498.97 420.127 500.517 420.607 500.517C421.091 500.517 421.338 501.935 421.162 503.694C420.685 508.458 421.495 510.475 424.642 512.363C428.915 514.926 431.774 514.577 434.94 511.107C438.029 507.721 439.858 507.406 442.15 509.864C443.033 510.811 445.156 512.419 446.868 513.437C451.784 516.362 451.968 516.654 451.146 520.204C450.556 522.752 450.759 524.11 452.117 526.692C454.606 531.427 458.856 533.562 465.98 533.656C469.635 533.705 472.698 534.242 474.206 535.1C476.578 536.449 482.714 544.532 482.714 546.307C482.714 546.81 481.881 549.103 480.861 551.402C478.704 556.27 478.446 555.781 487.071 563.201L492.929 568.242L497.129 565.657C502.31 562.467 504.774 562.747 511.52 567.29C516.47 570.624 521.995 576.793 521.995 578.988C521.995 579.673 520.994 581.134 519.77 582.235C518.546 583.336 517.858 584.402 518.242 584.605C518.626 584.807 523.457 586.045 528.978 587.355C545.374 591.244 545.619 591.37 556.054 601.266C565.44 610.167 574.287 619.513 576.75 623.127C578.125 625.145 578.771 627.306 581.377 638.607C586.95 662.772 587.014 662.938 596.355 677.741C603.31 688.762 602.661 688.567 628.925 687.481C646.842 686.74 648.566 686.508 648.566 684.832C648.566 683.55 653.082 682.683 659.831 682.67C662.826 682.664 668.03 681.568 674.083 679.669C680.171 677.759 686.668 676.394 692.06 675.893C696.704 675.462 703.053 674.317 706.17 673.348C711.953 671.551 727.527 669.106 733.191 669.106C736.592 669.106 747.258 665.406 752.878 662.278C772.017 651.622 782.406 642.116 791.084 627.318C794.315 621.808 796.959 617.063 796.959 616.773C796.959 616.483 799.459 611.08 802.514 604.765C805.57 598.45 808.335 592.203 808.66 590.881C808.985 589.56 810.188 587.636 811.333 586.606C814.178 584.047 838.094 570.306 853.145 562.582C883.778 546.862 888.699 544.523 896.986 541.744C918.612 534.494 945.082 531.72 957.682 535.383C960.488 536.199 961.319 536.146 962.59 535.071C963.431 534.359 968.244 532.393 973.285 530.702C979.927 528.474 984.559 526.216 990.108 522.501C994.319 519.681 1000.39 516.229 1003.6 514.831C1011.36 511.452 1011.8 511.058 1010.73 508.347C1010.26 507.134 1008.3 496.775 1006.39 485.327C1004.47 473.879 1001.77 459.938 1000.38 454.346C997.13 441.231 996.736 438.844 997.722 438.252C998.169 437.985 1002.5 439.857 1007.35 442.414C1012.2 444.971 1017.02 447.317 1018.07 447.628C1022.14 448.831 1037.64 456.617 1041.57 459.431C1043.85 461.058 1047.19 464.275 1048.99 466.579C1050.8 468.884 1052.92 470.791 1053.7 470.818C1058.43 470.978 1058.8 450.998 1054.54 425.426C1050.94 403.807 1050.32 393.396 1052.13 385.244C1053.23 380.27 1055.34 367.208 1055.34 365.331C1055.34 365.132 1055.83 364.967 1056.43 364.964C1058.28 364.956 1064.57 372.478 1066.93 377.533C1071.53 387.367 1074.6 393.522 1078.02 399.703C1082.7 408.198 1088.91 422.659 1090.55 428.931C1091.29 431.727 1092.37 437.159 1092.97 441.003C1094.57 451.359 1095.31 450.714 1097.61 436.979C1101.07 416.36 1101.89 412.506 1104.63 403.991C1106.22 399.07 1108.77 389.707 1110.29 383.183C1111.82 376.66 1114.45 365.986 1116.14 359.462C1117.83 352.939 1120.72 338.834 1122.56 328.117C1125.88 308.887 1127.58 302.915 1133.5 289.753C1134.82 286.824 1136.33 284.554 1136.86 284.708C1137.39 284.861 1138.68 286.685 1139.72 288.761C1141.16 291.625 1141.73 294.682 1142.08 301.431C1142.34 306.323 1143.98 318.713 1145.74 328.964C1148.47 344.916 1149.01 350.343 1149.49 366.622L1150.05 385.642L1155.77 378.906C1161.53 372.134 1170.92 359.698 1180.36 346.331C1183.15 342.371 1187.21 336.843 1189.37 334.047C1191.53 331.251 1194.71 326.867 1196.42 324.305C1198.14 321.742 1200.84 318.311 1202.43 316.68C1204.01 315.049 1206.46 311.935 1207.86 309.76C1211.82 303.612 1213.36 306.186 1210.73 314.562C1210.29 315.96 1209.5 319.582 1208.97 322.61C1207.66 330.126 1205.98 334.982 1200.91 345.908C1198.53 351.033 1194.81 359.801 1192.65 365.393C1190.49 370.984 1185.42 382.192 1181.38 390.299C1177.33 398.407 1174.14 405.156 1174.29 405.298C1174.44 405.44 1177.09 405.212 1180.2 404.791C1189.66 403.508 1217.28 402.182 1222.4 402.766C1225.61 403.132 1229.9 402.812 1235.2 401.813C1241.94 400.541 1244.08 400.461 1248.99 401.292C1252.18 401.833 1261.87 402.657 1270.51 403.123C1279.15 403.589 1290.15 404.323 1294.95 404.752C1299.75 405.182 1307.41 405.771 1311.97 406.061C1316.53 406.35 1329.49 407.714 1340.78 409.09C1363.99 411.923 1375.94 414.681 1392.01 420.917C1397.89 423.195 1405.08 425.819 1407.99 426.747C1410.91 427.676 1414.36 429.167 1415.66 430.061C1418.7 432.148 1434.66 439.909 1440.52 442.15C1442.99 443.098 1447.47 445.848 1450.46 448.262L1455.9 452.652L1455.95 771.826H706.17H10.9109L0 697.868Z" fill="#DB66B5"/>
</svg>
