<svg width="1440" height="1064" viewBox="0 0 1440 1064" fill="none" xmlns="http://www.w3.org/2000/svg">
<path d="M9 720.975C9 349.187 9.0646 332.522 10.5102 331.382C11.3408 330.727 14.293 329.337 17.0707 328.293C19.8484 327.25 23.4544 325.788 25.0839 325.045C26.7135 324.301 33.1894 322.127 39.4748 320.213C45.7603 318.3 52.0457 316.27 53.4424 315.702C54.8392 315.134 57.8867 314.319 60.2146 313.891C62.5426 313.463 68.2566 312.264 72.9125 311.228C87.1695 308.054 97.9559 307.729 117.655 309.88C126.899 310.889 135.159 312.04 136.011 312.437C136.863 312.835 138.685 313.16 140.061 313.16C141.436 313.16 145.747 313.971 149.64 314.961C153.533 315.952 160.147 317.635 164.337 318.7C172.256 320.713 176.848 322.325 185.337 326.072C237.967 349.305 244.705 352.535 254.057 359.016C260.13 363.226 296.604 384.261 306.129 389.048C316.101 394.059 325.69 399.54 330.63 403.051C332.698 404.521 336.507 406.988 339.095 408.533C341.683 410.078 345.547 412.411 347.682 413.717C349.817 415.023 359.634 420.408 369.498 425.684C379.362 430.959 391.507 437.87 396.487 441.042C405.417 446.729 409.664 449.1 425.489 457.234C438.478 463.911 474.546 474.869 490.248 476.909C493.507 477.332 497.507 478.026 499.137 478.451C504.735 479.911 521.579 481.299 530.458 481.033C550.358 480.435 561.129 479.306 572.361 476.64C578.414 475.204 588.127 473.358 593.947 472.537C599.767 471.717 609.291 470.061 615.11 468.858C651.786 461.277 656.865 460.425 662.56 460.902C664.922 461.1 668.64 460.968 670.822 460.608C673.005 460.249 678.557 459.614 683.162 459.199C687.767 458.783 695.035 457.815 699.314 457.047C710.203 455.094 731.632 454.031 745.959 454.733C752.51 455.054 758.304 455.551 758.834 455.836C759.364 456.122 764.861 457.2 771.048 458.232C777.236 459.264 783.441 460.712 784.838 461.45C786.235 462.188 790.044 463.465 793.303 464.288C796.562 465.11 802.36 466.773 806.186 467.982L813.143 470.181L826.926 469.588C837.754 469.121 842.432 468.574 848.751 467.034C853.174 465.957 859.444 464.586 862.684 463.988C865.979 463.38 870.292 461.941 872.47 460.723C874.612 459.525 880.341 457.073 885.202 455.275C909.837 446.163 908.946 446.568 939.329 430.636C945.148 427.584 953.148 423.419 957.106 421.381C961.063 419.342 968.11 415.624 972.766 413.118C977.422 410.611 982.946 407.807 985.041 406.886C987.136 405.966 991.326 403.636 994.353 401.71C1013.67 389.416 1037.31 378.693 1066.73 368.879C1080.67 364.228 1119.71 346.984 1125.99 342.707C1134.01 337.236 1163.7 320.146 1177.62 312.982C1194.33 304.39 1211.33 297.188 1218.45 295.688C1221.6 295.024 1229.33 292.919 1235.61 291.012C1247.7 287.344 1249.25 286.962 1263.97 284.049C1280.7 280.736 1290.34 279.983 1315.73 280C1342.89 280.019 1349.84 280.741 1365.57 285.173C1374.57 287.709 1393.74 295.531 1407.03 302.089C1409.36 303.238 1413.46 304.728 1416.13 305.401L1421 306.624V709.812L699.314 720.975H9Z" fill="#EEB8D4"/>
<path d="M-35 697.868V304.735L-27.9127 286.351C-24.0146 276.24 -18.4785 262.821 -15.6102 256.53C-9.2303 242.539 -4.79705 230.798 -3.13511 223.49C-1.7199 217.268 -2.05311 186.456 -3.63442 177.319C-5.36717 167.308 -6.94599 156.033 -7.48987 149.786C-8.34938 139.914 -11.2906 127.085 -13.8636 121.985C-15.2686 119.2 -18.0301 115.796 -20.7883 113.449C-25.6701 109.295 -26.1694 108.256 -24.0891 106.58C-22.2675 105.113 -13.8392 108.239 -7.7737 112.631C0.339878 118.506 10.4019 127.998 15.8954 134.96C18.8368 138.688 21.9217 142.454 22.7507 143.328C27.3714 148.204 34.2923 164.989 35.7183 174.778C38.0676 190.904 39.1277 198.952 39.3207 202.126C39.4402 204.092 39.6202 205.7 39.7208 205.7C39.8214 205.7 40.9556 203.958 42.2413 201.828C43.527 199.699 47.0043 194.836 49.9685 191.022C52.9328 187.207 56.1843 182.754 57.1942 181.126C58.2041 179.498 61.7138 173.973 64.9935 168.847C71.7969 158.215 77.8609 147.076 80.2118 140.891C81.8655 136.54 84.9309 124.04 85.8212 118.017C86.9209 110.577 89.0402 82.9813 89.0367 76.1474C89.0271 57.5211 81.7183 39.2239 69.9367 28.3315C62.2102 21.1881 49.5136 12.5433 46.7487 12.5433C46.1158 12.5433 45.3039 12.2574 44.9445 11.9079C44.5852 11.5584 42.8818 10.8877 41.1592 10.4173C35.5999 8.89915 36.6285 7.45987 43.2702 7.46346C53.7465 7.46929 74.7459 11.7715 81.8061 15.3588C96.5877 22.8692 105.837 29.4985 112.746 37.535C120.231 46.2414 137.873 72.2197 142.482 81.3215C147.203 90.6459 152.955 106.585 155.334 116.938C159.439 134.797 159.602 161.753 155.742 184.072C152.697 201.671 149.556 229.042 150.462 230.067C150.571 230.189 151.942 227.521 153.509 224.137C155.077 220.753 158.726 213.222 161.618 207.401C164.511 201.581 167.817 194.337 168.966 191.305C170.115 188.272 171.416 185.029 171.857 184.097C172.298 183.165 173.717 179.734 175.011 176.472C178.463 167.768 182.844 159.515 187.827 152.328C193.058 144.783 212.879 120.644 221.218 111.663C225.471 107.083 228.286 102.944 231.304 96.8374C235.452 88.4402 235.501 88.2412 236.854 74.2265C238.555 56.5988 238.572 47.2945 236.922 37.535C234.524 23.3562 231.124 14.5722 224.642 5.81573C219.77 -0.764915 220.537 -1.84849 226.624 3.01255C235.811 10.348 242.619 17.9626 246.929 25.7231C254.335 39.0553 256.497 45.4536 259.225 62.1032C262.762 83.6879 261.385 89.7269 246.096 119.711C239.59 132.471 236.289 139.952 235.63 143.432C234.474 149.548 230.035 178.512 227.646 195.534C226.697 202.29 225.371 209.914 224.698 212.477C224.024 215.04 222.652 221.33 221.649 226.456C220.645 231.581 219.619 236.69 219.369 237.81C218.96 239.642 219.333 239.49 223.111 236.288C248.962 214.376 260.328 206.405 271.012 202.696C283.207 198.462 287.704 197.937 311.105 198.015C323.839 198.058 335.109 197.694 338.165 197.141C346.495 195.634 347.731 195.71 348.03 197.747C348.392 200.206 343.265 203.271 325.469 211.232C292.495 225.984 285.088 231.241 274.173 247.635C271.071 252.294 266.131 259.708 263.195 264.109C260.26 268.51 254.765 275.944 250.984 280.629C247.202 285.314 242.939 291.609 241.508 294.619C240.078 297.629 236.424 309.066 233.388 320.035C230.353 331.003 227.266 341.866 226.529 344.174C225.792 346.482 225.337 348.514 225.519 348.69C225.7 348.866 227.803 346.216 230.192 342.8C232.581 339.384 238.473 332.014 243.285 326.422C249.881 318.759 253.289 315.548 257.129 313.377C259.931 311.794 263.886 309.392 265.919 308.04C267.951 306.687 273.432 303.861 278.098 301.76C285.233 298.546 287.549 296.97 292.663 291.848C296.008 288.498 300.094 283.661 301.743 281.098C303.391 278.536 305.893 274.723 307.302 272.627C308.711 270.53 312.547 264.621 315.826 259.495C319.989 252.99 322.284 250.177 323.43 250.177C324.879 250.177 325.046 250.773 324.853 255.26C324.493 263.6 320.357 282.742 317.074 291.265C314.008 299.223 309.117 307.997 305.032 312.868C303.077 315.197 300.525 318.628 299.36 320.492C298.195 322.356 295.648 325.635 293.699 327.779C291.75 329.922 288.505 334.699 286.488 338.393C282.991 344.796 281.259 348.569 274.288 364.969C272.604 368.93 270.522 373.504 269.661 375.135C268.799 376.766 263.296 387.746 257.43 399.534C245.924 422.659 240.691 434.37 241.379 435.45C241.617 435.825 243.963 436.132 246.59 436.132C256.37 436.132 260.976 439.715 267.082 452.071C269.542 457.05 272.168 463.852 272.917 467.186C274.229 473.03 274.209 473.458 272.358 479.047C271.302 482.236 270.245 487.132 270.009 489.928C269.321 498.085 269.691 512.577 270.63 514.28C272.886 518.372 280.653 517.813 286.495 513.139C288.948 511.178 289.492 510.213 289.198 508.353C288.861 506.228 289.356 505.746 294.855 502.847C298.168 501.1 301.452 499.67 302.15 499.67C302.849 499.67 304.002 501.1 304.712 502.847C305.8 505.524 306.626 506.2 309.964 507.143C314.804 508.51 319.239 507.852 324.869 504.932C330.047 502.246 331.029 501.116 330.936 497.947C330.854 495.157 330.531 495.249 341.22 495.018C347.252 494.887 348.169 495.394 348.19 498.873C348.213 502.605 349.934 503.855 355.868 504.45C360.861 504.951 361.551 504.819 363.591 502.971C364.823 501.854 366.572 499.539 367.478 497.826C369.913 493.217 371.649 493.101 378.667 497.079C382.004 498.97 385.127 500.517 385.607 500.517C386.091 500.517 386.338 501.935 386.162 503.694C385.685 508.458 386.495 510.475 389.642 512.363C393.915 514.926 396.774 514.577 399.94 511.107C403.029 507.721 404.858 507.406 407.15 509.864C408.033 510.811 410.156 512.419 411.868 513.437C416.784 516.362 416.968 516.654 416.146 520.204C415.556 522.752 415.759 524.11 417.117 526.692C419.606 531.427 423.856 533.562 430.98 533.656C434.635 533.705 437.698 534.242 439.206 535.1C441.578 536.449 447.714 544.532 447.714 546.307C447.714 546.81 446.881 549.103 445.861 551.402C443.704 556.27 443.446 555.781 452.071 563.201L457.929 568.242L462.129 565.657C467.31 562.467 469.774 562.747 476.52 567.29C481.47 570.624 486.995 576.793 486.995 578.988C486.995 579.673 485.994 581.134 484.77 582.235C483.546 583.336 482.858 584.402 483.242 584.605C483.626 584.807 488.457 586.045 493.978 587.355C510.374 591.244 510.619 591.37 521.054 601.266C530.44 610.167 539.287 619.513 541.75 623.127C543.125 625.145 543.771 627.306 546.377 638.607C551.95 662.772 552.014 662.938 561.355 677.741C568.31 688.762 567.661 688.567 593.925 687.481C611.842 686.74 613.566 686.508 613.566 684.832C613.566 683.55 618.082 682.683 624.831 682.67C627.826 682.664 633.03 681.568 639.083 679.669C645.171 677.759 651.668 676.394 657.06 675.893C661.704 675.462 668.053 674.317 671.17 673.348C676.953 671.551 692.527 669.106 698.191 669.106C701.592 669.106 712.258 665.406 717.878 662.278C737.017 651.622 747.406 642.116 756.084 627.318C759.315 621.808 761.959 617.063 761.959 616.773C761.959 616.483 764.459 611.08 767.514 604.765C770.57 598.45 773.335 592.203 773.66 590.881C773.985 589.56 775.188 587.636 776.333 586.606C779.178 584.047 803.094 570.306 818.145 562.582C848.778 546.862 853.699 544.523 861.986 541.744C883.612 534.494 910.082 531.72 922.682 535.383C925.488 536.199 926.319 536.146 927.59 535.071C928.431 534.359 933.244 532.393 938.285 530.702C944.927 528.474 949.559 526.216 955.108 522.501C959.319 519.681 965.392 516.229 968.604 514.831C976.363 511.452 976.796 511.058 975.734 508.347C975.259 507.134 973.304 496.775 971.389 485.327C969.474 473.879 966.772 459.938 965.385 454.346C962.13 441.231 961.736 438.844 962.722 438.252C963.169 437.985 967.5 439.857 972.348 442.414C977.195 444.971 982.022 447.317 983.073 447.628C987.141 448.831 1002.64 456.617 1006.57 459.431C1008.85 461.058 1012.19 464.275 1013.99 466.579C1015.8 468.884 1017.92 470.791 1018.7 470.818C1023.43 470.978 1023.8 450.998 1019.54 425.426C1015.94 403.807 1015.32 393.396 1017.13 385.244C1018.23 380.27 1020.34 367.208 1020.34 365.331C1020.34 365.132 1020.83 364.967 1021.43 364.964C1023.28 364.956 1029.57 372.478 1031.93 377.533C1036.53 387.367 1039.6 393.522 1043.02 399.703C1047.7 408.198 1053.91 422.659 1055.55 428.931C1056.29 431.727 1057.37 437.159 1057.97 441.003C1059.57 451.359 1060.31 450.714 1062.61 436.979C1066.07 416.36 1066.89 412.506 1069.63 403.991C1071.22 399.07 1073.77 389.707 1075.29 383.183C1076.82 376.66 1079.45 365.986 1081.14 359.462C1082.83 352.939 1085.72 338.834 1087.56 328.117C1090.88 308.887 1092.58 302.915 1098.5 289.753C1099.82 286.824 1101.33 284.554 1101.86 284.708C1102.39 284.861 1103.68 286.685 1104.72 288.761C1106.16 291.625 1106.73 294.682 1107.08 301.431C1107.34 306.323 1108.98 318.713 1110.74 328.964C1113.47 344.916 1114.01 350.343 1114.49 366.622L1115.05 385.642L1120.77 378.906C1126.53 372.134 1135.92 359.698 1145.36 346.331C1148.15 342.371 1152.21 336.843 1154.37 334.047C1156.53 331.251 1159.71 326.867 1161.42 324.305C1163.14 321.742 1165.84 318.311 1167.43 316.68C1169.01 315.049 1171.46 311.935 1172.86 309.76C1176.82 303.612 1178.36 306.186 1175.73 314.562C1175.29 315.96 1174.5 319.582 1173.97 322.61C1172.66 330.126 1170.98 334.982 1165.91 345.908C1163.53 351.033 1159.81 359.801 1157.65 365.393C1155.49 370.984 1150.42 382.192 1146.38 390.299C1142.33 398.407 1139.14 405.156 1139.29 405.298C1139.44 405.44 1142.09 405.212 1145.2 404.791C1154.66 403.508 1182.28 402.182 1187.4 402.766C1190.61 403.132 1194.9 402.812 1200.2 401.813C1206.94 400.541 1209.08 400.461 1213.99 401.292C1217.18 401.833 1226.87 402.657 1235.51 403.123C1244.15 403.589 1255.15 404.323 1259.95 404.752C1264.75 405.182 1272.41 405.771 1276.97 406.061C1281.53 406.35 1294.49 407.714 1305.78 409.09C1328.99 411.923 1340.94 414.681 1357.01 420.917C1362.89 423.195 1370.08 425.819 1372.99 426.747C1375.91 427.676 1379.36 429.167 1380.66 430.061C1383.7 432.148 1399.66 439.909 1405.52 442.15C1407.99 443.098 1412.47 445.848 1415.46 448.262L1420.9 452.652L1420.95 771.826H671.17H-24.0891L-35 697.868Z" fill="#DB66B5"/>
<path d="M-4 668.388V216.777L-0.89267 216.197C2.53588 215.557 5.38159 216.944 8.96 220.997C13.807 226.488 15.6534 239.246 13.7837 254.326C12.6088 263.803 11.3188 269.873 5.93932 291.237C1.61941 308.393 -1.75454 329.23 -0.87228 333.304C0.0319071 337.48 2.04893 341.078 3.48575 341.078C4.1641 341.078 4.92038 341.574 5.16636 342.18C5.4738 342.938 5.64164 342.869 5.70331 341.96C5.75266 341.232 6.57331 339.644 7.52698 338.431C8.95944 336.609 9.26435 334.805 9.28064 328.052C9.31643 313.214 14.1431 288.862 20.2492 272.712C24.1658 262.354 35.5305 237.682 40.7696 228.165C49.5573 212.201 51.5605 209.219 54.4236 207.839C57.9841 206.122 63.986 206.775 66.9746 209.205C71.5834 212.951 71.5891 212.991 69.1679 224.309C67.9359 230.068 66.3883 236.785 65.7289 239.234C63.8496 246.215 65.2678 251.811 68.2849 249.32C71.2817 246.845 79.4065 229.867 81.6321 221.428C82.8943 216.643 84.5803 212.223 85.379 211.607C87.5771 209.91 93.3865 208.585 96.0625 209.17C97.3705 209.456 99.9462 211.061 101.786 212.738L105.132 215.788L104.574 229.21C104.144 239.54 103.517 244.372 101.853 250.175C98.5301 261.763 90.5704 281.059 83.2763 295.207C61.9435 336.586 59.6551 341.996 61.086 347.668C61.7938 350.473 66.4226 353.42 70.1292 353.424C71.642 353.425 74.231 352.522 75.8824 351.414C78.5076 349.654 79.301 348.13 82.196 339.285C84.017 333.721 86.2926 327.767 87.2528 326.053C89.1611 322.648 94.0722 311.53 97.9563 301.823C105.127 283.901 111.716 271.945 121.217 259.613C124.525 255.32 129.396 248.327 132.041 244.073C136.901 236.255 144.077 222.814 144.077 221.527C144.077 221.143 145.726 217.219 147.74 212.808C151.773 203.979 160.715 189.999 165.848 184.499C194.709 153.573 196.707 152.163 204.123 157.501C206.562 159.257 206.654 162.037 204.48 168.262C202.847 172.942 191.94 193.807 189.767 196.408C188.464 197.969 184.156 207.179 182.96 210.963C181.661 215.071 180.405 228.276 181.002 231.535L181.539 234.464L185.935 229.771C188.353 227.189 192.06 222.497 194.173 219.343C197.567 214.277 203.094 206.441 207.032 201.109C208.845 198.655 215.248 195.526 218.456 195.526C219.989 195.526 222.22 196.477 223.811 197.81C227.112 200.572 227.305 203.486 224.653 210.522C223.648 213.191 221.945 217.784 220.869 220.729C218.187 228.07 208.984 247.068 200.616 262.537C193.998 274.773 191.407 279.422 187.078 286.826C169.744 316.479 168.407 319.107 163.305 333.579C161.081 339.887 157.405 349.117 155.136 354.092C152.867 359.067 150.564 365.729 150.019 368.898C149.131 374.056 149.206 374.991 150.741 377.825C151.684 379.567 153.371 381.589 154.491 382.319C156.314 383.507 156.919 383.493 160.277 382.186C169.255 378.692 171.669 374.025 179.49 345.047C184.561 326.26 185.727 322.864 190.753 312.263C198.103 296.761 199.92 294.879 210.959 291.322C216.558 289.518 217.954 289.55 219.752 291.527C221.001 292.901 221.219 295.465 221.219 308.779C221.219 326.587 222.16 332.256 225.113 332.256C227.931 332.256 229.956 327.713 231.011 319.024C231.512 314.9 232.294 310.335 232.749 308.88C233.204 307.424 234.389 301.689 235.382 296.134C237.474 284.43 241.03 276.444 246.232 271.769C249.026 269.257 250.284 268.743 253.63 268.743C258.95 268.743 262.391 270.631 265.234 275.112C270.017 282.65 269.79 285.448 263.1 301.382C259.553 309.828 248.376 332.757 246.001 336.457C244.878 338.206 244.888 338.751 246.079 340.862C247.608 343.571 249.949 344.378 251.815 342.838C252.502 342.27 255.02 338.169 257.409 333.723C259.798 329.278 263.343 323.195 265.287 320.206C268.326 315.532 268.981 313.617 269.967 306.532C270.955 299.424 271.476 297.91 273.76 295.496C277.073 291.995 279.762 291.295 283.665 292.917C288.293 294.841 289.732 298.457 290.192 309.321C290.545 317.659 290.365 319.117 288.393 323.938C287.187 326.884 283.402 333.433 279.981 338.493C272.572 349.452 267.143 360.962 264.613 371.076C262.14 380.962 261.479 382.061 252.008 392.048C240.996 403.659 227.761 422.256 220.789 435.914C217.64 442.085 214.604 447.683 214.043 448.355C213.483 449.027 210.328 454.639 207.032 460.826C203.736 467.012 199.069 475.691 196.66 480.111C191.843 488.951 185.822 502.929 183.62 510.387C181.38 517.972 181.698 519.944 185.789 523.815C189.556 527.381 193.06 528.195 195.642 526.105C198.289 523.964 214.359 494.438 216.32 488.114C219.468 477.963 222.387 473.291 231.782 463.367C240.732 453.912 280.014 431.055 287.311 431.055C290.208 431.055 292.155 432.398 292.155 434.397C292.155 435.552 287.853 444.944 286.009 447.816C285.542 448.543 283.463 452.116 281.39 455.755C279.317 459.393 276.098 464.055 274.236 466.113C269.294 471.576 260.702 484.892 255.592 495.01C253.142 499.861 250.002 505.475 248.615 507.485C247.228 509.495 243.689 515.999 240.75 521.94C236.243 531.049 235.406 533.478 235.406 537.441C235.406 542.741 236.792 544.16 241.613 543.794C243.803 543.628 244.784 542.815 246.682 539.588C247.976 537.388 253.78 528.454 259.579 519.735C265.979 510.111 272.051 499.712 275.031 493.271C282.224 477.721 289.169 465.116 294.188 458.499C303.056 446.809 306.373 444.581 308.118 449.146C308.583 450.362 309.428 455.622 309.997 460.834C310.928 469.369 310.838 471.58 309.085 483.101C306.02 503.249 305.03 506.179 298.205 515.327C296.384 517.769 291.923 525.959 288.292 533.529C284.661 541.098 281.329 547.436 280.886 547.614C280.443 547.792 278.72 549.922 277.057 552.348C274.233 556.467 260.68 572.983 259.321 573.96C258.984 574.203 257.999 575.791 257.133 577.489C253.187 585.224 236.473 608.747 229.57 616.279C221.105 625.517 218.369 629.226 214.257 637.033C211.072 643.08 210.958 643.988 212.82 648.423C214.778 653.083 217.379 653.988 222.215 651.689C230.699 647.657 238.702 639.444 243.813 629.523C244.941 627.334 248.013 622.769 250.639 619.379C253.266 615.989 258.781 608.306 262.896 602.306C267.011 596.306 271.65 590.431 273.205 589.251C276.669 586.622 287.854 583.094 295.164 582.325C301.659 581.641 315.428 583.81 320.934 586.385C328.829 590.077 330.427 596.56 328.602 617.5C327.028 635.572 323.123 650.858 316.803 663.686C313.884 669.613 310.228 676.559 308.68 679.124C307.131 681.688 305.018 685.817 303.984 688.3L302.104 692.814L305.155 694.262L308.206 695.709L312.854 691.335C324.228 680.634 341.895 674.687 364.42 673.978C370.76 673.779 376.46 673.43 377.086 673.203C379.525 672.32 406.523 674.737 417.539 676.825C423.924 678.035 434.734 680.012 441.562 681.217C448.389 682.422 457.693 684.395 462.236 685.6C466.779 686.806 474.668 688.459 479.766 689.275C490.533 690.998 495.164 690.406 504.29 686.139C507.341 684.713 511.832 683.339 514.271 683.086C516.709 682.834 523.293 681.76 528.901 680.701C536.372 679.289 540.876 678.908 545.748 679.273C549.406 679.548 554.792 679.379 557.718 678.897C560.644 678.415 565.939 677.777 569.485 677.478L575.932 676.935L575.397 673.745C573.852 664.536 565.812 644.417 556.818 627.256C549.029 612.393 547.901 609.15 542.259 585.428C540.356 577.423 537.34 566.109 535.558 560.287C530.918 545.128 528.576 525.834 529.188 507.801C530.051 482.358 531.288 479.571 546.844 468.021C566.398 453.503 566.806 453.42 607.373 455.827C623.466 456.782 638.83 457.912 641.515 458.339C648.352 459.427 656.214 462.321 659.875 465.099C664.997 468.986 665.735 471.958 665.225 486.629C664.838 497.746 664.425 500.517 662.068 507.801C658.805 517.886 656.951 525.246 656.181 531.177C655.119 539.358 648.654 577.002 646.482 587.652C645.297 593.464 643.675 603.379 642.878 609.687C642.081 615.994 640.612 626.712 639.613 633.504C637.818 645.715 637.755 658.882 639.419 673.468C639.889 677.58 640.178 678.114 641.811 677.879C643.133 677.688 643.854 676.721 644.315 674.523C653.641 630.028 656.06 622.619 668.363 600.865C677.927 583.956 680.65 580.056 693.021 565.557C716.411 538.142 729.087 526.578 744.135 518.929C752.333 514.761 771.989 513.736 782.143 516.947C788.303 518.895 794.63 524.598 797.305 530.615C800.281 537.31 800.747 544.435 798.931 555.47C795.654 575.385 793.414 581.082 778.487 607.481C775.333 613.061 771.383 620.206 769.711 623.36C768.038 626.513 764.345 632.145 761.504 635.875C758.662 639.605 753.363 646.552 749.727 651.312C742.203 661.165 734.291 669.09 726.416 674.661C719.527 679.533 714.526 683.944 715.166 684.581C715.955 685.366 747.547 690.293 760.976 691.726C767.69 692.442 779.369 693.411 786.928 693.879C794.487 694.347 807.455 695.388 815.745 696.192C834.431 698.005 849.627 697.56 872.494 694.53C901.408 690.699 929.589 687.577 945.646 686.426C963.673 685.135 991.772 678.634 1014.8 670.427C1020.9 668.252 1033.47 662.758 1042.74 658.216C1052 653.675 1064.57 648.12 1070.67 645.872C1076.76 643.623 1091.33 637.6 1103.03 632.487C1114.74 627.374 1126.91 622.061 1130.08 620.68C1145.53 613.954 1177.85 602.824 1219.19 589.999C1266.38 575.358 1285 569.253 1289.77 566.858C1309.75 556.824 1356.46 524.498 1360.11 518.174C1361.03 516.593 1364.4 511.131 1367.61 506.036L1373.45 496.774L1373.77 489.12C1374.13 480.358 1374.26 480.842 1364.65 453.99C1360.92 443.559 1355.14 427.284 1351.8 417.823C1348.46 408.362 1344.9 398.805 1343.89 396.586C1342.88 394.366 1339.86 384.641 1337.18 374.974C1333.21 360.691 1324.73 336.841 1323 335.12C1322.48 334.6 1313.59 337.924 1306.97 341.111C1284.17 352.098 1278.43 353.532 1255.1 354.065C1222.98 354.8 1202.61 352.564 1191.9 347.127C1182.75 342.484 1174.41 331.293 1174.41 323.659C1174.41 315.848 1178.32 311.215 1188.08 307.462C1194.77 304.89 1195.81 304.735 1203.67 305.144C1210.86 305.518 1213.66 306.164 1222.74 309.553C1228.59 311.738 1235.97 314.763 1239.14 316.277L1244.9 319.029L1245.45 314.823C1246.27 308.463 1250.51 300.6 1254.22 298.555C1260.41 295.147 1270.14 297.945 1287.7 308.183L1291.49 310.389L1295.43 307.176C1297.6 305.409 1300.8 302.23 1302.54 300.111L1305.71 296.26L1300.24 288.456C1297.23 284.163 1293.21 278.798 1291.31 276.532L1287.86 272.413L1282.43 274.611C1279.3 275.876 1270.57 277.872 1261.83 279.317C1253.5 280.697 1242.68 282.836 1237.8 284.069C1218.21 289.014 1201.1 290.411 1195.06 287.559C1190.59 285.452 1188.47 281.648 1188.79 276.317L1189.04 271.983L1184.13 270.352C1174.7 267.219 1168.89 260.114 1168.89 251.723C1168.89 246.838 1170.59 243.918 1175.29 240.735C1177.86 238.995 1179.34 238.75 1187.33 238.75C1195.22 238.75 1197.9 239.181 1207.37 241.966C1213.38 243.735 1220.9 245.883 1224.07 246.74C1227.24 247.597 1233.37 249.325 1237.69 250.581C1248.68 253.775 1254.7 253.651 1261.4 250.095C1264.28 248.572 1266.63 247.046 1266.63 246.703C1266.63 246.361 1265.77 245.325 1264.73 244.4C1263.69 243.476 1260.08 239.621 1256.71 235.834L1250.59 228.948L1224.25 228.695C1205.68 228.517 1194.04 227.972 1184.79 226.849L1171.68 225.256L1169 227.813C1167.52 229.219 1164.64 232.686 1162.6 235.516C1152.85 249.047 1145.06 258.137 1141.36 260.294C1130.61 266.561 1117.66 259.325 1117.66 247.053C1117.66 244.67 1118.69 238.611 1119.93 233.59C1123.05 221.029 1122.96 220.686 1115.33 216.094C1108.42 211.933 1098.53 202.152 1096.12 197.103C1091.01 186.386 1095.2 175.282 1105.39 172.553C1112.23 170.72 1120.74 173.357 1136.28 182.134C1141.89 185.3 1147.48 188.56 1148.7 189.378C1149.92 190.197 1153.71 191.872 1157.12 193.101C1160.54 194.33 1163.98 195.601 1164.77 195.925C1165.81 196.348 1166.76 195.647 1168.11 193.469C1173.57 184.683 1186.21 180.352 1193.25 184.852C1198.14 187.978 1204.82 190.862 1208.68 191.506C1213.81 192.366 1234.73 188.628 1234.69 186.857C1234.67 185.763 1233.41 184.493 1227.69 179.797C1221.67 174.849 1218.53 173.01 1208.55 168.573C1201.89 165.615 1183.86 153.87 1178.99 149.328C1177.36 147.81 1175.11 144.98 1173.97 143.039C1171.99 139.648 1166.42 120.559 1166.45 117.281C1166.46 116.408 1165.37 112.397 1164.03 108.37C1161.72 101.417 1161.38 100.909 1157.14 98.3219C1154.69 96.8234 1150.29 93.5448 1147.37 91.0361C1144.44 88.5275 1140.03 85.0299 1137.55 83.2638C1132.18 79.4229 1125.49 72.4747 1123.52 68.6813C1121.78 65.3373 1121.68 58.8585 1123.29 55.0042C1126.22 48.0486 1136.36 43.1607 1146.05 44.0353C1154.32 44.7815 1155.72 45.8023 1169.03 60.8362C1171.96 64.1419 1175.83 69.3024 1177.64 72.3039C1183.48 82.0182 1184.09 82.7135 1185.93 81.7347C1186.84 81.2526 1188.55 78.7455 1189.74 76.1635C1193.46 68.0707 1201.94 61.4418 1208.56 61.4418C1215.64 61.4418 1221.46 67.2977 1222.11 75.0796C1222.32 77.6587 1222.01 81.2414 1221.41 83.0412C1219.83 87.8171 1209.68 98.1219 1203.51 101.221C1196.83 104.573 1196.27 106.505 1200.15 112.803C1203.81 118.73 1210.87 126.886 1213.61 128.348C1215.52 129.361 1216.4 129.099 1222.34 125.76C1232.52 120.034 1234.71 118.047 1237.36 112.183C1241.81 102.303 1244.8 89.9963 1244.85 81.2897C1244.9 73.5743 1244.81 73.1889 1241.42 67.6167C1239.35 64.2095 1233.76 57.7663 1227.65 51.7383C1215.85 40.0995 1213.38 37.0245 1211.23 31.301C1209.95 27.8755 1209.87 26.6542 1210.74 24.0372C1212.19 19.6715 1215.46 17.3352 1220.12 17.3352C1223.33 17.3352 1224.64 17.9414 1228.54 21.2577C1235.77 27.3983 1238.16 28.2213 1247.22 27.707C1254.72 27.2817 1255.2 27.1239 1260.59 23.303C1270.74 16.1154 1273.84 14.9818 1285.31 14.2799C1293.52 13.7775 1296.21 13.9171 1298.77 14.9789C1302.86 16.6825 1305.19 20.2256 1305.07 24.6008C1304.91 30.7454 1299.67 34.284 1287.85 36.2377C1284.69 36.7606 1275.55 43.927 1273.73 47.3131C1272.68 49.2698 1275.09 56.9313 1276.98 57.6552C1277.69 57.9232 1279.33 57.1768 1280.65 55.9966C1284.15 52.8446 1289.53 49.4422 1294.56 47.1916C1297.93 45.683 1300.7 45.1985 1306.15 45.1656C1312.51 45.1271 1313.71 45.3921 1316.99 47.5444C1323.2 51.633 1325.34 58.636 1322.21 64.6505C1320.15 68.6242 1316.97 70.2707 1309.81 71.0806C1298.52 72.3576 1284.57 80.8996 1282.58 87.7469C1282.07 89.5323 1281.4 96.5883 1281.1 103.427L1280.55 115.861L1282.65 116.405C1285.11 117.044 1286.42 116.01 1291.54 109.414L1295.17 104.722L1293.34 102.399C1289.19 97.1483 1290.18 88.3083 1295.27 85.2204C1296.83 84.2751 1299.41 83.5002 1301.01 83.4984C1306.49 83.4923 1319.64 91.4639 1326.26 98.8059C1329.55 102.465 1329.55 106.898 1326.26 110.947C1321.58 116.688 1320.24 118.017 1315.59 121.523C1308.56 126.821 1299.02 142.173 1295.36 154.066C1293.54 159.956 1293.59 160.032 1298.49 159.563C1304.49 158.99 1309.28 161.447 1317.86 169.496C1331.57 182.374 1333.94 190.533 1327.71 203.465C1325.96 207.104 1322.87 212.059 1320.85 214.475C1318.82 216.892 1317.17 219.283 1317.17 219.788C1317.17 221.333 1322.58 227.333 1323.47 226.782C1323.93 226.498 1326.06 222.805 1328.19 218.576C1330.33 214.347 1333.83 208.721 1335.98 206.073C1338.13 203.426 1341.21 199.336 1342.82 196.986C1346.56 191.517 1355.16 185.822 1359.67 185.822C1364.86 185.822 1368.93 189.285 1369.93 194.556C1370.37 196.892 1369.93 198.651 1367.91 202.496C1366.48 205.212 1364.8 209.618 1364.16 212.286C1362.84 217.827 1361.29 221.307 1355.67 231.252C1353.48 235.134 1350.84 240.628 1349.8 243.463C1348.04 248.238 1347.98 249.186 1348.94 256.354C1349.51 260.609 1349.98 265.155 1349.98 266.456C1349.98 267.988 1351.49 270.627 1354.27 273.958C1356.64 276.784 1360.41 282.449 1362.65 286.547C1364.9 290.644 1368.92 297.458 1371.59 301.689C1374.26 305.92 1377.54 312.245 1378.89 315.746C1380.23 319.247 1384.03 327.145 1387.34 333.296C1390.64 339.448 1395.18 348.126 1397.43 352.581L1401.52 360.682L1403.62 358.718C1406.41 356.111 1411.55 346.117 1412.85 340.754C1414.01 336.011 1413.61 331.806 1411.04 321.23C1408.93 312.58 1408.45 311.323 1402.66 299.176C1396.71 286.711 1377.39 259.48 1370.09 253.28C1368.05 251.544 1364.29 247.738 1361.72 244.822C1357.72 240.266 1357.07 239.009 1357.07 235.885C1357.07 231.166 1359.89 225.441 1363.17 223.514C1367.83 220.776 1373.31 221.559 1383.23 226.382C1391.21 230.264 1392.2 230.55 1393.2 229.26C1395.13 226.765 1394.45 224.124 1389.01 213.136C1386.1 207.243 1383.03 200.262 1382.19 197.623C1380.82 193.305 1379.7 191.967 1370.98 184.251C1358.78 173.449 1358.12 173.022 1349.53 170.356C1345.63 169.144 1339.85 166.713 1336.68 164.954C1333.51 163.195 1328.3 160.323 1325.11 158.572C1317.23 154.241 1315.94 153.23 1313.75 149.655C1311.31 145.681 1311.25 139.621 1313.6 135.788C1315.54 132.613 1321.33 128.13 1326.04 126.15C1328.56 125.091 1331.97 124.948 1344.21 125.389C1352.5 125.689 1360.23 126.129 1361.38 126.367L1363.47 126.801L1362.82 119.483C1362.17 112.224 1362.13 112.125 1357.62 107.278C1355.12 104.591 1351.72 99.8277 1350.05 96.6929C1348.39 93.5581 1345.47 88.6897 1343.56 85.8744C1337.46 76.8735 1336.12 71.1828 1338.85 65.9276C1340.09 63.5527 1344.9 60.5596 1347.48 60.5596C1348.15 60.5596 1351.61 61.949 1355.17 63.6471C1358.73 65.3452 1361.81 66.7346 1362 66.7346C1362.19 66.7346 1362.31 62.1203 1362.25 56.4808L1362.16 46.227L1366.47 37.7355C1371.86 27.1361 1376.39 22.3888 1382.53 20.9242C1388.43 19.517 1393.26 20.8034 1397.97 25.035C1403.89 30.3632 1404.04 30.9808 1404.98 54.7696C1405.45 66.6049 1406.16 77.1411 1406.54 78.1833C1407.24 80.0442 1407.37 80.0136 1414.07 76.4835C1427.4 69.4548 1439.32 66.0888 1445.18 67.698C1452.45 69.6954 1455.04 77.6436 1450.39 83.7316C1447.07 88.0888 1444.42 89.9986 1435.81 94.2184C1425.27 99.3843 1418.81 103.667 1416.51 107.006C1415.41 108.602 1413.27 113.393 1411.75 117.652C1409.15 124.916 1408.98 126.163 1408.98 137.746C1408.98 150.06 1408.99 150.128 1412.85 161.123C1414.98 167.187 1417.02 172.546 1417.37 173.031C1417.72 173.517 1419.3 177.685 1420.88 182.294C1424.02 191.442 1433.25 209.202 1434.3 208.113C1436.91 205.42 1439.08 183.207 1436.86 181.845C1436.36 181.541 1435.12 179.632 1434.1 177.603C1433.08 175.574 1431.39 172.995 1430.36 171.873C1427.76 169.058 1427.83 161.375 1430.49 155.497C1432.81 150.384 1432.95 145.603 1431.01 138.07C1428.21 127.183 1431.27 118.228 1438.54 116.061C1443.23 114.664 1447.82 116.833 1450.26 121.602C1453.18 127.293 1455.69 140.435 1455.08 146.843C1454.7 150.74 1454.98 153.969 1456.01 157.599C1457.27 162.077 1458.34 163.627 1463.83 168.925C1469.25 174.148 1470.55 174.994 1472.6 174.606L1475 174.149V185.607C1475 195.006 1474.69 197.76 1473.29 200.927C1469.65 209.135 1464.3 229.535 1463.37 238.75C1462.85 243.845 1461.73 253.769 1460.86 260.804L1459.3 273.595L1464.6 286.385C1467.51 293.42 1470.59 300.169 1471.43 301.382C1474.15 305.305 1475 309.408 1474.99 318.494C1474.98 331.842 1473.84 336.819 1465.72 358.749C1457.18 381.8 1455.89 384.546 1451.7 388.549L1448.64 391.473L1449.8 396.929C1450.43 399.93 1451.61 403.974 1452.42 405.914C1454.88 411.858 1461.19 422.211 1462.36 422.223C1464.04 422.239 1469.33 413.707 1471.94 406.796C1473.22 403.4 1474.43 400.456 1474.63 400.254C1474.83 400.052 1475 561.912 1475 759.943H735.5H-0.89267L-4 668.388ZM3.16353 333.506C3.20607 332.478 3.41618 332.269 3.69924 332.973C3.95537 333.61 3.92387 334.371 3.62923 334.664C3.33459 334.957 3.12503 334.436 3.16353 333.506Z" fill="#8659A4"/>
<path d="M1438.96 1504.02C1431.67 1501.36 1428.04 1499 1423.26 1493.81C1419.3 1489.52 1409.92 1476.02 1406.94 1470.36C1406.15 1468.85 1401.28 1462.11 1396.11 1455.38C1382.55 1437.74 1381.69 1436.37 1375.01 1422.12L1368.95 1409.2V1400.87C1368.95 1395.38 1367.9 1386.29 1365.88 1374.21L1362.82 1355.89L1352.75 1335.36C1347.22 1324.06 1340.23 1310.59 1337.21 1305.41C1334.2 1300.24 1329.47 1291.57 1326.69 1286.16C1322.39 1277.77 1321.5 1275.19 1320.59 1268.62C1318.47 1253.19 1313.14 1245.81 1285.86 1220.63C1263.78 1200.24 1228.34 1168.92 1215.29 1158.25C1208.29 1152.54 1187.95 1138.65 1183.07 1136.25C1181.64 1135.55 1176.06 1133.91 1170.69 1132.62C1160.95 1130.27 1160.88 1130.27 1153.27 1131.61C1149.07 1132.35 1140.15 1133.77 1133.45 1134.76C1125.13 1135.99 1120.33 1137.13 1118.32 1138.35C1115.86 1139.84 1113.24 1140.25 1102.32 1140.84C1095.14 1141.22 1088.99 1141.37 1088.66 1141.17C1087.19 1140.28 1060.91 1136.35 1049.33 1135.29C1038.15 1134.27 1036.25 1133.87 1033.66 1131.98C1031.11 1130.12 1027.94 1129.42 1010.07 1126.75C992.248 1124.08 988.505 1123.26 982.65 1120.67C978.92 1119.03 973.533 1117.28 970.678 1116.79C967.773 1116.29 961.445 1113.96 956.312 1111.51C945.682 1106.43 942.758 1105.35 933.498 1103.08C929.763 1102.17 922.881 1099.51 918.205 1097.17C908.358 1092.24 902.848 1090.18 893.161 1087.81C880.674 1084.75 868.329 1083.22 856.16 1083.23C849.696 1083.25 841.116 1082.88 837.093 1082.42C824.16 1080.97 804.15 1080.84 795.218 1082.16C790.669 1082.83 782.415 1083.38 776.875 1083.39C770.425 1083.39 765.206 1083.86 762.36 1084.69C754.154 1087.08 749.838 1087.54 743.91 1086.64C740.765 1086.16 737.171 1085.25 735.922 1084.62C734.674 1083.99 731.159 1082.62 728.113 1081.59C722.799 1079.78 721.728 1079.73 701.654 1080.25C679.512 1080.83 674.742 1081.53 658.968 1086.51C654.385 1087.96 648.578 1088.97 641.991 1089.45C631.804 1090.2 625.934 1090.94 611.955 1093.19C599.803 1095.15 593.399 1096.08 585.798 1096.99C578.368 1097.87 576.634 1098.53 547.748 1111.52C539.249 1115.34 531.954 1118.47 531.536 1118.47C530.077 1118.47 511.761 1124.23 503.362 1127.33C483.134 1134.81 474.133 1137.09 457.561 1138.94C448.846 1139.92 439.471 1140.72 436.728 1140.73C433.984 1140.74 428.017 1141.72 423.468 1142.9C418.379 1144.23 410.844 1145.36 403.88 1145.84C388.639 1146.9 368.673 1150.81 342.502 1157.87C327.524 1161.91 320.01 1162.85 305.066 1162.53C294.677 1162.3 290.121 1161.83 285.27 1160.46C281.805 1159.48 277.851 1158.68 276.485 1158.68C270.791 1158.68 253.89 1165.78 243.055 1172.72C238.988 1175.32 229.613 1180.54 222.221 1184.31C210.788 1190.13 206.967 1191.61 196.634 1194.21C189.953 1195.89 180.765 1198.46 176.216 1199.92C168.065 1202.53 167.812 1202.69 158.804 1211.24C142.348 1226.84 126.526 1238.03 116.98 1240.83C111.655 1242.39 110.776 1243.02 104.189 1250.08C97.8671 1256.85 96.0849 1258.19 87.4242 1262.63C77.3167 1267.81 69.6151 1274.03 60.5249 1284.34C56.5679 1288.83 55.9863 1290.04 54.4357 1297.02C52.6082 1305.25 39.017 1347.31 35.4143 1355.89C34.2285 1358.71 31.3687 1364.11 29.0592 1367.88C25.7009 1373.37 24.5916 1376.19 23.5183 1382C19.4653 1403.92 18.6524 1407.62 16.9558 1411.81C15.9355 1414.34 13.9766 1418.01 12.6027 1419.97C9.85318 1423.9 -1.78839 1435.03 -3.14571 1435.03C-3.70341 1435.03 -4 1255.62 -4 918.265V401.499H2.8649C10.589 401.499 13.2685 402.373 18.2663 406.521C20.4698 408.349 25.2298 410.635 31.2878 412.773C40.6994 416.094 40.9673 416.135 49.9777 415.654C81.3982 413.973 82.6266 414.037 90.4609 417.739C94.4814 419.639 106.617 423.744 108.215 423.744C110.164 423.744 115.053 429.688 117.019 434.45C120.233 442.232 127.47 449.123 134.613 451.201C138.901 452.449 149.836 452.223 157.166 450.735C163.468 449.456 172.182 448.462 177.522 448.414C182.413 448.371 187.243 451.031 191.51 456.118C193.744 458.782 195.882 461.76 196.262 462.737C197.721 466.492 203.903 474.979 207.178 477.722C209.063 479.301 213.155 482.913 216.271 485.749C220.473 489.574 223.623 491.561 228.459 493.439C232.047 494.832 236.614 497.258 238.609 498.831C242.784 502.122 248.548 511.028 250.957 517.912C251.869 520.515 253.499 524.359 254.579 526.454C257.623 532.355 266.832 545.243 269.004 546.642C270.291 547.47 272.046 550.863 274.167 556.619C277.591 565.914 282.884 575.68 286.779 579.886C290.53 583.937 293.748 589.103 293.748 591.075C293.748 592.069 292.971 593.573 292.021 594.418C289.418 596.733 285.231 604.474 284.065 609.127C283.496 611.396 280.414 618.644 277.217 625.232C271.842 636.305 270.792 637.842 263.308 645.581L255.213 653.953L255.324 658.66C255.462 664.559 254.301 669.722 251.299 676.554L248.953 681.892L238.511 686.397C219.568 694.569 218.768 694.781 198.416 697.039C196.501 697.252 191.8 697.979 187.969 698.655C184.138 699.33 179.143 700.147 176.869 700.469C174.221 700.844 172.733 701.479 172.733 702.235C172.733 702.884 173.041 703.602 173.416 703.83C175.031 704.811 206.098 706.849 221.487 706.983C232.497 707.079 276.358 705.315 277.308 704.738C278.27 704.154 286.273 708.422 292.289 712.727C295.995 715.38 298.638 716.219 314.804 719.868L333.12 724.004L334.678 722.112C336.695 719.665 339.022 711.402 339.009 706.738C339.003 704.731 338.42 700.971 337.713 698.383C336.086 692.425 336.086 686.522 337.713 679.988C338.416 677.165 339.239 670.812 339.543 665.871C340.007 658.33 339.794 655.652 338.216 649.188C335.464 637.915 335.155 633.01 336.732 625.659C339.012 615.038 341.516 607.341 343.142 605.953C346.736 602.886 350.432 597.355 349.928 595.797C348.728 592.079 337.292 587.375 328.354 586.924C327.038 586.857 325.986 586.402 326.017 585.911C326.048 585.421 328.262 583.194 330.937 580.963C334.303 578.156 337.636 576.326 341.763 575.02L347.725 573.133V567.483C347.725 559.34 350.685 557.317 355.084 562.454C356.343 563.925 357.583 564.923 357.839 564.671C358.095 564.42 358.982 561.965 359.81 559.216C361.872 552.372 363.701 552.2 367.749 558.473C369.425 561.069 371.06 563.196 371.383 563.198C371.705 563.2 373.076 562.292 374.43 561.178C377.702 558.487 385.53 554.647 387.744 554.647C389.566 554.647 390.135 555.88 388.712 556.744C388.271 557.012 387.25 559.056 386.444 561.286C384.656 566.23 384.165 567.515 381.853 573.313C380.854 575.816 380.253 578.415 380.516 579.089C380.954 580.209 386.519 580.854 391.475 580.359C394.586 580.047 400.332 584.336 406.169 591.328C409.459 595.268 412.15 598.807 412.15 599.192C412.15 599.577 415.943 602.086 420.579 604.767C426.279 608.064 431.141 610.156 435.597 611.229C445.052 613.507 445.396 613.729 450.948 621.106C453.717 624.787 457.188 629.085 458.661 630.657C461.548 633.738 469.864 638.218 477.759 640.945L482.669 642.641V638.793C482.669 634.332 486.099 612.582 487.039 611.089C487.388 610.534 491.347 608.82 495.836 607.28C500.326 605.741 506.504 603.433 509.565 602.153C518.037 598.61 525.217 599.838 535.967 606.668C541.603 610.249 541.93 611.066 543.636 625.868C544.137 630.211 544.879 634.091 545.285 634.49C545.691 634.889 546.95 635.087 548.082 634.929C551.272 634.486 553.241 627.519 553.927 614.246C554.456 603.999 554.636 603.149 556.597 601.589C559.353 599.398 561.977 599.95 571.69 604.769C576.859 607.332 580.413 608.548 582.742 608.548C587.287 608.548 589.961 611.028 592.316 617.427C594.338 622.923 601.943 666.976 601.943 673.195C601.943 678.096 603.6 680.547 609.211 683.945C624.008 692.907 636.955 697.816 643.448 696.926C646.352 696.527 647.208 695.829 650.124 691.476C654.711 684.63 655.315 684.25 661.18 684.528C664.482 684.685 667.862 684.193 671.051 683.091C678.988 680.35 680.297 681.126 680.297 688.57C680.297 692.561 680.89 695.374 682.472 698.89C686.63 708.129 697.19 721.101 705.543 727.229C713.997 733.433 736.665 742.098 758.918 747.633C775.459 751.748 784.701 752.819 798.456 752.217C808.295 751.787 810.121 751.473 812.503 749.806C815.554 747.671 815.631 747.307 814.309 741.249C812.777 734.231 807.114 726.592 799.13 720.773C795.302 717.983 789.369 712.863 785.946 709.395L779.722 703.089L778.324 694.829C777.555 690.285 777.132 686.05 777.384 685.417C777.636 684.784 779.496 683.581 781.518 682.743L785.195 681.22L796.083 692.306C812.275 708.791 820.735 715.139 824.606 713.706C826.357 713.058 826.52 712.556 826.097 709.095C825.651 705.448 824.952 704.572 814.633 694.738C788.097 669.451 785.718 666.8 781.446 657.743C780.337 655.391 776.856 648.929 773.713 643.384C770.569 637.839 768.147 633.219 768.33 633.117C768.514 633.015 770.221 632.162 772.123 631.221C774.025 630.279 778.036 627.154 781.035 624.274L786.489 619.039L789.689 624.702C791.448 627.817 794.411 632.586 796.273 635.302C798.135 638.017 800.759 642.637 802.103 645.568C806.272 654.663 821.029 671.652 827.619 674.943C832.589 677.425 833.254 677.466 833.944 675.331C834.727 672.907 831.425 667.141 825.586 660.738C811.125 644.878 807.127 639.64 802.947 631.07C800.611 626.281 798.7 622.068 798.7 621.708C798.7 621.348 797.153 618.495 795.263 615.368C792.673 611.084 791.385 607.559 790.039 601.067C787.581 589.211 787.65 586.484 790.427 585.799C793.625 585.011 794.751 585.744 795.987 589.42C796.597 591.235 797.647 593.459 798.32 594.362C799.506 595.954 799.596 595.957 801.302 594.44C802.896 593.022 803.04 591.977 802.839 583.249C802.717 577.954 802.814 573.457 803.053 573.255C803.292 573.054 805.132 573.058 807.14 573.265L810.792 573.64L810.821 579.758C810.836 583.122 811.27 588.185 811.783 591.009C812.297 593.832 813.053 598.312 813.463 600.963C813.874 603.615 814.773 606.84 815.461 608.13C816.695 610.444 816.719 610.403 817.282 605.109C817.596 602.157 817.853 596.731 817.853 593.052C817.853 585.664 818.897 584.2 823.773 584.753C826.043 585.01 826.129 585.212 826.255 590.581C826.555 603.346 832.615 628.99 836.795 635.18C839.941 639.839 845.786 645.338 847.593 645.338C849.287 645.338 849.395 645.005 848.914 641.274C848.626 639.039 847.163 634.322 845.663 630.793C840.029 617.537 838.517 611.403 838.28 600.848C838.087 592.24 837.763 590.366 835.691 585.875C833.498 581.124 833.355 580.137 833.771 572.614C834.025 568.011 834.853 562.938 835.681 560.916C837.351 556.835 845.183 549.288 847.327 549.694C848.115 549.843 849.264 551.499 849.881 553.375C852.578 561.583 857.562 571.623 860.668 575.109C864.757 579.698 865.377 581.803 863.892 586.044C862.279 590.651 862.599 621.413 864.345 629.51C865.276 633.83 865.542 639.194 865.299 648.76C864.862 665.921 865.96 670.379 873.07 680.325C874.62 682.492 876.162 685.342 876.497 686.656C877.082 688.95 879.194 690.577 880.245 689.544C880.522 689.272 879.703 683.701 878.424 677.164C875.855 664.028 875.552 657.461 876.955 645.338C878.261 634.043 878.152 620.359 876.699 613.254C874.827 604.105 874.371 598.511 873.943 579.473C873.517 560.51 873.185 558.668 866.873 540.25C863.969 531.775 863.911 531.366 865.444 530.22C866.323 529.563 867.786 528.779 868.694 528.477C870.233 527.966 870.311 527.217 869.838 517.39L869.331 506.85L873.344 503.584C882.498 496.133 884.018 495.759 884.023 500.96C884.025 502.96 884.63 508.251 885.367 512.718C886.104 517.185 886.873 524.194 887.075 528.294C887.385 534.576 887.849 536.46 890.03 540.278C891.453 542.769 893.659 547.888 894.934 551.652C896.209 555.417 897.546 558.882 897.907 559.353C898.631 560.298 899.753 564.805 904.936 587.586C906.863 596.057 909.194 606.067 910.117 609.831C912.099 617.922 911.971 618.744 906.204 635.071L902.124 646.621L903.537 656.888C904.314 662.535 904.942 668.383 904.932 669.885C904.923 671.387 905.306 672.853 905.785 673.144C906.263 673.435 906.655 674.612 906.655 675.761C906.655 677.98 908.249 678.508 909.939 676.847C910.686 676.113 910.812 671.534 910.41 659.718C909.823 642.474 910.618 635.959 914.701 624.547C916.782 618.733 916.656 616.089 913.261 594.197C913.022 592.657 912.617 591.063 912.361 590.656C911.163 588.751 909.227 576.783 908.845 568.926C908.612 564.131 907.834 550.39 907.117 538.391C905.375 509.254 905.373 499.992 907.111 499.336C907.841 499.061 911.693 499.102 915.671 499.428L922.905 500.02L923.979 509.58C924.57 514.839 925.593 520.681 926.252 522.563C928.028 527.636 929.165 534.747 929.84 545.01C930.257 551.347 930.916 554.959 931.984 556.757C936.412 564.212 941.479 584.78 941.479 595.3C941.479 602.722 943.724 612.628 946.227 616.248C952.116 624.767 955.751 638.482 954.94 649.128C954.251 658.18 955.191 660.738 959.206 660.738C962.078 660.738 962.197 660.604 962.822 656.674C964.409 646.688 962.764 635.501 955.938 609.877C952.121 595.549 951.063 583.471 952.801 574.082C954.095 567.096 955.104 564.628 956.358 565.389C957.132 565.86 956.886 563.471 955.804 560.008C955.043 557.574 954.501 542.161 955.144 541.257C955.529 540.716 958.755 540.142 962.313 539.981C970.05 539.631 969.656 538.962 970.617 554.08C971.293 564.709 971.857 565.702 975.015 561.81C976.337 560.18 977.327 559.713 978.609 560.113C980.129 560.587 980.518 561.838 981.37 568.992C982.617 579.456 983.494 593.218 983.742 606.178C983.847 611.697 984.211 618.435 984.551 621.15C985.496 628.7 988.997 631.514 991.135 626.441C992.734 622.648 991.601 584.883 989.357 567.17C987.552 552.92 987.591 552.11 990.481 544.062L992.285 539.038L998.877 539.588C1012.51 540.724 1012.76 540.803 1013.39 544.093C1013.72 545.835 1013.01 552.882 1011.65 561.325C1005.76 597.997 1003.89 617.513 1005.69 623.512L1006.46 626.071L1007.89 623.923C1009.41 621.644 1012 606.867 1012 600.465C1012 595.453 1016.14 573.643 1017.61 570.903C1018.24 569.726 1019.05 567.435 1019.41 565.811C1019.76 564.186 1021.41 560.847 1023.07 558.39L1026.09 553.922L1034.06 556.774C1038.45 558.344 1043.17 560.058 1044.55 560.584L1047.07 561.54L1046.6 570.713C1046.25 577.635 1045.49 581.881 1043.5 588.014C1040.77 596.413 1037.78 609.683 1038.27 611.149C1038.72 612.465 1047.36 606.328 1050.05 602.782C1053.51 598.222 1060.55 591.748 1063.65 590.272C1066.27 589.022 1066.32 589.044 1072.23 594.2C1075.49 597.052 1078.16 599.811 1078.16 600.331C1078.15 601.373 1077.27 603.068 1072.75 610.687C1071.08 613.51 1068.03 618.708 1065.98 622.237C1063.93 625.766 1060.71 630.468 1058.84 632.685C1051.67 641.153 1036.32 648.3 1029.27 646.452L1025.98 645.589L1017.78 660.222C1013.26 668.27 1008.59 676.78 1007.39 679.133C1006.2 681.486 1003.7 685.144 1001.86 687.262C992.672 697.805 988.834 703.999 990.364 705.811C990.888 706.432 991.648 706.939 992.052 706.939C993.266 706.939 998.602 701.32 1003.22 695.176C1005.61 691.999 1009.25 687.164 1011.31 684.432C1022.32 669.801 1026 665.864 1032.7 661.587L1036.43 659.207L1041.41 664.453C1046.2 669.501 1047.05 670.281 1050.62 672.919C1052.2 674.083 1052.19 674.213 1050.41 677.481C1049.4 679.331 1045.2 685.621 1041.07 691.458C1033.62 702.001 1028.51 711.883 1028.57 715.662C1028.61 718.59 1030.77 720.868 1033.51 720.888C1034.85 720.897 1039.86 719.518 1044.65 717.824C1049.43 716.13 1057.46 713.924 1062.48 712.923C1067.5 711.922 1071.71 711 1071.84 710.873C1071.97 710.746 1073.07 706.056 1074.29 700.449C1077.15 687.312 1078.7 680.649 1080.75 672.716C1081.66 669.187 1082.85 663.219 1083.39 659.455C1085.84 642.582 1086.96 637.268 1088.65 634.58C1091.8 629.574 1100.72 623.576 1116.04 616.163C1133.32 607.8 1141.73 602.984 1147.04 598.411C1152.33 593.848 1163.99 587.516 1169.65 586.134C1172.52 585.432 1178.79 585.017 1185.68 585.073C1195.63 585.154 1197.48 585.401 1200.92 587.117C1203.07 588.191 1205.48 589.626 1206.27 590.306C1207.55 591.412 1208.3 590.993 1213.37 586.339L1219.03 581.134L1220 574.094C1222.64 554.967 1223.56 542.135 1223.59 523.673C1223.61 512.71 1224.02 502.008 1224.5 499.89C1224.98 497.773 1225.71 486.415 1226.13 474.651C1226.81 455.369 1228.77 436.431 1230.54 431.872C1232.13 427.788 1236.78 443.462 1239.26 461.266C1239.85 465.569 1240.68 469.09 1241.09 469.09C1241.5 469.09 1241.84 468.371 1241.84 467.494C1241.84 466.616 1242.82 461.637 1244.01 456.429C1245.21 451.222 1246.97 441.757 1247.92 435.395C1250.06 421.078 1250.48 419.245 1254.87 404.922C1258.28 393.802 1259.66 386.794 1263.56 360.86C1265.31 349.26 1265.88 343.212 1267.91 315.086C1268.44 307.793 1269.25 296.627 1269.72 290.275C1270.18 283.922 1271.15 273.72 1271.88 267.602C1273.14 257.025 1273.12 247.858 1271.81 229.529C1271.38 223.613 1271.44 223.288 1272.59 225.363C1274.3 228.441 1277.27 237.769 1277.88 241.935C1278.5 246.275 1283.12 258.083 1285.44 261.288C1288.4 265.372 1293.7 277.24 1297.99 289.419C1301.89 300.485 1302.1 301.562 1302.95 315.086C1304.72 343.187 1305.14 339.94 1294.53 380.11C1292.29 388.553 1291.88 392.62 1293.05 394.434C1294.06 396.007 1299.53 390.088 1302.26 384.454C1306.3 376.132 1315.32 361.933 1319.38 357.498C1322.82 353.752 1324.57 351.389 1329.33 344.097C1329.81 343.364 1332.02 340.098 1334.23 336.839C1339.7 328.793 1345.15 317.912 1351.12 303.1C1357.31 287.743 1359.61 283.158 1363.5 278.448C1367.92 273.092 1368.58 274.428 1367.26 286.171C1366.67 291.487 1365.86 298.916 1365.47 302.681C1364.6 311.093 1362.12 327.032 1361.42 328.776C1360.86 330.134 1359.5 336.476 1359.76 336.476C1359.84 336.476 1361.61 333.877 1363.68 330.701C1365.76 327.524 1368.76 322.983 1370.36 320.609C1371.96 318.235 1373.72 314.963 1374.28 313.337C1374.84 311.711 1375.58 309.996 1375.92 309.525C1377.57 307.28 1382.01 294.275 1382.01 291.703C1382.01 290.106 1380.86 286.065 1379.46 282.723C1378.05 279.381 1375.87 273.264 1374.6 269.13C1373.33 264.996 1371.91 260.458 1371.45 259.046C1370.98 257.635 1370.41 253.207 1370.18 249.207C1369.95 245.208 1369.15 237.315 1368.42 231.668C1366.87 219.825 1367.08 185.824 1368.77 174.345C1369.32 170.58 1370.21 162.687 1370.74 156.805C1371.27 150.923 1372.29 144.186 1372.99 141.833C1373.7 139.48 1374.62 131.78 1375.03 124.721C1375.71 113.115 1376.08 111.079 1378.92 103.427C1380.65 98.7741 1382.84 92.1113 1383.79 88.6211C1384.74 85.1309 1387.08 78.6886 1388.99 74.3049C1390.89 69.9212 1392.45 65.8815 1392.45 65.3277C1392.45 64.258 1393.99 61.0838 1398.41 52.9933L1401.15 48L1402.12 50.4266C1403.47 53.7573 1403.45 61.3948 1402.07 78.5205C1400.71 95.4066 1400.77 99.2607 1402.5 107.346C1403.98 114.268 1404.12 122.534 1402.88 130.056C1402 135.389 1402 135.394 1406.37 144.791C1408.77 149.961 1410.74 154.561 1410.74 155.014C1410.74 155.466 1412.42 160.246 1414.47 165.635C1418.08 175.12 1418.45 175.696 1426.06 183.578C1434.21 192.024 1436.3 195.326 1439.5 204.718C1443.96 217.83 1443.96 217.821 1444.7 247.496C1445.19 266.824 1445.79 277.272 1446.55 279.58C1447.47 282.353 1447.73 346.929 1447.94 619.884C1448.11 847.337 1447.91 956.766 1447.32 956.766C1446.72 956.766 1446.43 1046.22 1446.43 1231.41C1446.43 1450.57 1446.21 1506.04 1445.34 1506C1444.74 1505.98 1441.87 1505.09 1438.96 1504.02Z" fill="#333B6D"/>
</svg>
