<svg width="1440" height="800" viewBox="0 0 1440 800" fill="none" xmlns="http://www.w3.org/2000/svg">
<path d="M9 720.975C9 349.187 9.0646 332.522 10.5102 331.382C11.3408 330.727 14.293 329.337 17.0707 328.293C19.8484 327.25 23.4544 325.788 25.0839 325.045C26.7135 324.301 33.1894 322.127 39.4748 320.213C45.7603 318.3 52.0457 316.27 53.4424 315.702C54.8392 315.134 57.8867 314.319 60.2146 313.891C62.5426 313.463 68.2566 312.264 72.9125 311.228C87.1695 308.054 97.9559 307.729 117.655 309.88C126.899 310.889 135.159 312.04 136.011 312.437C136.863 312.835 138.685 313.16 140.061 313.16C141.436 313.16 145.747 313.971 149.64 314.961C153.533 315.952 160.147 317.635 164.337 318.7C172.256 320.713 176.848 322.325 185.337 326.072C237.967 349.305 244.705 352.535 254.057 359.016C260.13 363.226 296.604 384.261 306.129 389.048C316.101 394.059 325.69 399.54 330.63 403.051C332.698 404.521 336.507 406.988 339.095 408.533C341.683 410.078 345.547 412.411 347.682 413.717C349.817 415.023 359.634 420.408 369.498 425.684C379.362 430.959 391.507 437.87 396.487 441.042C405.417 446.729 409.664 449.1 425.489 457.234C438.478 463.911 474.546 474.869 490.248 476.909C493.507 477.332 497.507 478.026 499.137 478.451C504.735 479.911 521.579 481.299 530.458 481.033C550.358 480.435 561.129 479.306 572.361 476.64C578.414 475.204 588.127 473.358 593.947 472.537C599.767 471.717 609.291 470.061 615.11 468.858C651.786 461.277 656.865 460.425 662.56 460.902C664.922 461.1 668.64 460.968 670.822 460.608C673.005 460.249 678.557 459.614 683.162 459.199C687.767 458.783 695.035 457.815 699.314 457.047C710.203 455.094 731.632 454.031 745.959 454.733C752.51 455.054 758.304 455.551 758.834 455.836C759.364 456.122 764.861 457.2 771.048 458.232C777.236 459.264 783.441 460.712 784.838 461.45C786.235 462.188 790.044 463.465 793.303 464.288C796.562 465.11 802.36 466.773 806.186 467.982L813.143 470.181L826.926 469.588C837.754 469.121 842.432 468.574 848.751 467.034C853.174 465.957 859.444 464.586 862.684 463.988C865.979 463.38 870.292 461.941 872.47 460.723C874.612 459.525 880.341 457.073 885.202 455.275C909.837 446.163 908.946 446.568 939.329 430.636C945.148 427.584 953.148 423.419 957.106 421.381C961.063 419.342 968.11 415.624 972.766 413.118C977.422 410.611 982.946 407.807 985.041 406.886C987.136 405.966 991.326 403.636 994.353 401.71C1013.67 389.416 1037.31 378.693 1066.73 368.879C1080.67 364.228 1119.71 346.984 1125.99 342.707C1134.01 337.236 1163.7 320.146 1177.62 312.982C1194.33 304.39 1211.33 297.188 1218.45 295.688C1221.6 295.024 1229.33 292.919 1235.61 291.012C1247.7 287.344 1249.25 286.962 1263.97 284.049C1280.7 280.736 1290.34 279.983 1315.73 280C1342.89 280.019 1349.84 280.741 1365.57 285.173C1374.57 287.709 1393.74 295.531 1407.03 302.089C1409.36 303.238 1413.46 304.728 1416.13 305.401L1421 306.624V709.812L699.314 720.975H9Z" fill="#EEB8D4"/>
<path d="M-35 697.868V304.735L-27.9127 286.351C-24.0146 276.24 -18.4785 262.821 -15.6102 256.53C-9.2303 242.539 -4.79705 230.798 -3.13511 223.49C-1.7199 217.268 -2.05311 186.456 -3.63442 177.319C-5.36717 167.308 -6.94599 156.033 -7.48987 149.786C-8.34938 139.914 -11.2906 127.085 -13.8636 121.985C-15.2686 119.2 -18.0301 115.796 -20.7883 113.449C-25.6701 109.295 -26.1694 108.256 -24.0891 106.58C-22.2675 105.113 -13.8392 108.239 -7.7737 112.631C0.339878 118.506 10.4019 127.998 15.8954 134.96C18.8368 138.688 21.9217 142.454 22.7507 143.328C27.3714 148.204 34.2923 164.989 35.7183 174.778C38.0676 190.904 39.1277 198.952 39.3207 202.126C39.4402 204.092 39.6202 205.7 39.7208 205.7C39.8214 205.7 40.9556 203.958 42.2413 201.828C43.527 199.699 47.0043 194.836 49.9685 191.022C52.9328 187.207 56.1843 182.754 57.1942 181.126C58.2041 179.498 61.7138 173.973 64.9935 168.847C71.7969 158.215 77.8609 147.076 80.2118 140.891C81.8655 136.54 84.9309 124.04 85.8212 118.017C86.9209 110.577 89.0402 82.9813 89.0367 76.1474C89.0271 57.5211 81.7183 39.2239 69.9367 28.3315C62.2102 21.1881 49.5136 12.5433 46.7487 12.5433C46.1158 12.5433 45.3039 12.2574 44.9445 11.9079C44.5852 11.5584 42.8818 10.8877 41.1592 10.4173C35.5999 8.89915 36.6285 7.45987 43.2702 7.46346C53.7465 7.46929 74.7459 11.7715 81.8061 15.3588C96.5877 22.8692 105.837 29.4985 112.746 37.535C120.231 46.2414 137.873 72.2197 142.482 81.3215C147.203 90.6459 152.955 106.585 155.334 116.938C159.439 134.797 159.602 161.753 155.742 184.072C152.697 201.671 149.556 229.042 150.462 230.067C150.571 230.189 151.942 227.521 153.509 224.137C155.077 220.753 158.726 213.222 161.618 207.401C164.511 201.581 167.817 194.337 168.966 191.305C170.115 188.272 171.416 185.029 171.857 184.097C172.298 183.165 173.717 179.734 175.011 176.472C178.463 167.768 182.844 159.515 187.827 152.328C193.058 144.783 212.879 120.644 221.218 111.663C225.471 107.083 228.286 102.944 231.304 96.8374C235.452 88.4402 235.501 88.2412 236.854 74.2265C238.555 56.5988 238.572 47.2945 236.922 37.535C234.524 23.3562 231.124 14.5722 224.642 5.81573C219.77 -0.764915 220.537 -1.84849 226.624 3.01255C235.811 10.348 242.619 17.9626 246.929 25.7231C254.335 39.0553 256.497 45.4536 259.225 62.1032C262.762 83.6879 261.385 89.7269 246.096 119.711C239.59 132.471 236.289 139.952 235.63 143.432C234.474 149.548 230.035 178.512 227.646 195.534C226.697 202.29 225.371 209.914 224.698 212.477C224.024 215.04 222.652 221.33 221.649 226.456C220.645 231.581 219.619 236.69 219.369 237.81C218.96 239.642 219.333 239.49 223.111 236.288C248.962 214.376 260.328 206.405 271.012 202.696C283.207 198.462 287.704 197.937 311.105 198.015C323.839 198.058 335.109 197.694 338.165 197.141C346.495 195.634 347.731 195.71 348.03 197.747C348.392 200.206 343.265 203.271 325.469 211.232C292.495 225.984 285.088 231.241 274.173 247.635C271.071 252.294 266.131 259.708 263.195 264.109C260.26 268.51 254.765 275.944 250.984 280.629C247.202 285.314 242.939 291.609 241.508 294.619C240.078 297.629 236.424 309.066 233.388 320.035C230.353 331.003 227.266 341.866 226.529 344.174C225.792 346.482 225.337 348.514 225.519 348.69C225.7 348.866 227.803 346.216 230.192 342.8C232.581 339.384 238.473 332.014 243.285 326.422C249.881 318.759 253.289 315.548 257.129 313.377C259.931 311.794 263.886 309.392 265.919 308.04C267.951 306.687 273.432 303.861 278.098 301.76C285.233 298.546 287.549 296.97 292.663 291.848C296.008 288.498 300.094 283.661 301.743 281.098C303.391 278.536 305.893 274.723 307.302 272.627C308.711 270.53 312.547 264.621 315.826 259.495C319.989 252.99 322.284 250.177 323.43 250.177C324.879 250.177 325.046 250.773 324.853 255.26C324.493 263.6 320.357 282.742 317.074 291.265C314.008 299.223 309.117 307.997 305.032 312.868C303.077 315.197 300.525 318.628 299.36 320.492C298.195 322.356 295.648 325.635 293.699 327.779C291.75 329.922 288.505 334.699 286.488 338.393C282.991 344.796 281.259 348.569 274.288 364.969C272.604 368.93 270.522 373.504 269.661 375.135C268.799 376.766 263.296 387.746 257.43 399.534C245.924 422.659 240.691 434.37 241.379 435.45C241.617 435.825 243.963 436.132 246.59 436.132C256.37 436.132 260.976 439.715 267.082 452.071C269.542 457.05 272.168 463.852 272.917 467.186C274.229 473.03 274.209 473.458 272.358 479.047C271.302 482.236 270.245 487.132 270.009 489.928C269.321 498.085 269.691 512.577 270.63 514.28C272.886 518.372 280.653 517.813 286.495 513.139C288.948 511.178 289.492 510.213 289.198 508.353C288.861 506.228 289.356 505.746 294.855 502.847C298.168 501.1 301.452 499.67 302.15 499.67C302.849 499.67 304.002 501.1 304.712 502.847C305.8 505.524 306.626 506.2 309.964 507.143C314.804 508.51 319.239 507.852 324.869 504.932C330.047 502.246 331.029 501.116 330.936 497.947C330.854 495.157 330.531 495.249 341.22 495.018C347.252 494.887 348.169 495.394 348.19 498.873C348.213 502.605 349.934 503.855 355.868 504.45C360.861 504.951 361.551 504.819 363.591 502.971C364.823 501.854 366.572 499.539 367.478 497.826C369.913 493.217 371.649 493.101 378.667 497.079C382.004 498.97 385.127 500.517 385.607 500.517C386.091 500.517 386.338 501.935 386.162 503.694C385.685 508.458 386.495 510.475 389.642 512.363C393.915 514.926 396.774 514.577 399.94 511.107C403.029 507.721 404.858 507.406 407.15 509.864C408.033 510.811 410.156 512.419 411.868 513.437C416.784 516.362 416.968 516.654 416.146 520.204C415.556 522.752 415.759 524.11 417.117 526.692C419.606 531.427 423.856 533.562 430.98 533.656C434.635 533.705 437.698 534.242 439.206 535.1C441.578 536.449 447.714 544.532 447.714 546.307C447.714 546.81 446.881 549.103 445.861 551.402C443.704 556.27 443.446 555.781 452.071 563.201L457.929 568.242L462.129 565.657C467.31 562.467 469.774 562.747 476.52 567.29C481.47 570.624 486.995 576.793 486.995 578.988C486.995 579.673 485.994 581.134 484.77 582.235C483.546 583.336 482.858 584.402 483.242 584.605C483.626 584.807 488.457 586.045 493.978 587.355C510.374 591.244 510.619 591.37 521.054 601.266C530.44 610.167 539.287 619.513 541.75 623.127C543.125 625.145 543.771 627.306 546.377 638.607C551.95 662.772 552.014 662.938 561.355 677.741C568.31 688.762 567.661 688.567 593.925 687.481C611.842 686.74 613.566 686.508 613.566 684.832C613.566 683.55 618.082 682.683 624.831 682.67C627.826 682.664 633.03 681.568 639.083 679.669C645.171 677.759 651.668 676.394 657.06 675.893C661.704 675.462 668.053 674.317 671.17 673.348C676.953 671.551 692.527 669.106 698.191 669.106C701.592 669.106 712.258 665.406 717.878 662.278C737.017 651.622 747.406 642.116 756.084 627.318C759.315 621.808 761.959 617.063 761.959 616.773C761.959 616.483 764.459 611.08 767.514 604.765C770.57 598.45 773.335 592.203 773.66 590.881C773.985 589.56 775.188 587.636 776.333 586.606C779.178 584.047 803.094 570.306 818.145 562.582C848.778 546.862 853.699 544.523 861.986 541.744C883.612 534.494 910.082 531.72 922.682 535.383C925.488 536.199 926.319 536.146 927.59 535.071C928.431 534.359 933.244 532.393 938.285 530.702C944.927 528.474 949.559 526.216 955.108 522.501C959.319 519.681 965.392 516.229 968.604 514.831C976.363 511.452 976.796 511.058 975.734 508.347C975.259 507.134 973.304 496.775 971.389 485.327C969.474 473.879 966.772 459.938 965.385 454.346C962.13 441.231 961.736 438.844 962.722 438.252C963.169 437.985 967.5 439.857 972.348 442.414C977.195 444.971 982.022 447.317 983.073 447.628C987.141 448.831 1002.64 456.617 1006.57 459.431C1008.85 461.058 1012.19 464.275 1013.99 466.579C1015.8 468.884 1017.92 470.791 1018.7 470.818C1023.43 470.978 1023.8 450.998 1019.54 425.426C1015.94 403.807 1015.32 393.396 1017.13 385.244C1018.23 380.27 1020.34 367.208 1020.34 365.331C1020.34 365.132 1020.83 364.967 1021.43 364.964C1023.28 364.956 1029.57 372.478 1031.93 377.533C1036.53 387.367 1039.6 393.522 1043.02 399.703C1047.7 408.198 1053.91 422.659 1055.55 428.931C1056.29 431.727 1057.37 437.159 1057.97 441.003C1059.57 451.359 1060.31 450.714 1062.61 436.979C1066.07 416.36 1066.89 412.506 1069.63 403.991C1071.22 399.07 1073.77 389.707 1075.29 383.183C1076.82 376.66 1079.45 365.986 1081.14 359.462C1082.83 352.939 1085.72 338.834 1087.56 328.117C1090.88 308.887 1092.58 302.915 1098.5 289.753C1099.82 286.824 1101.33 284.554 1101.86 284.708C1102.39 284.861 1103.68 286.685 1104.72 288.761C1106.16 291.625 1106.73 294.682 1107.08 301.431C1107.34 306.323 1108.98 318.713 1110.74 328.964C1113.47 344.916 1114.01 350.343 1114.49 366.622L1115.05 385.642L1120.77 378.906C1126.53 372.134 1135.92 359.698 1145.36 346.331C1148.15 342.371 1152.21 336.843 1154.37 334.047C1156.53 331.251 1159.71 326.867 1161.42 324.305C1163.14 321.742 1165.84 318.311 1167.43 316.68C1169.01 315.049 1171.46 311.935 1172.86 309.76C1176.82 303.612 1178.36 306.186 1175.73 314.562C1175.29 315.96 1174.5 319.582 1173.97 322.61C1172.66 330.126 1170.98 334.982 1165.91 345.908C1163.53 351.033 1159.81 359.801 1157.65 365.393C1155.49 370.984 1150.42 382.192 1146.38 390.299C1142.33 398.407 1139.14 405.156 1139.29 405.298C1139.44 405.44 1142.09 405.212 1145.2 404.791C1154.66 403.508 1182.28 402.182 1187.4 402.766C1190.61 403.132 1194.9 402.812 1200.2 401.813C1206.94 400.541 1209.08 400.461 1213.99 401.292C1217.18 401.833 1226.87 402.657 1235.51 403.123C1244.15 403.589 1255.15 404.323 1259.95 404.752C1264.75 405.182 1272.41 405.771 1276.97 406.061C1281.53 406.35 1294.49 407.714 1305.78 409.09C1328.99 411.923 1340.94 414.681 1357.01 420.917C1362.89 423.195 1370.08 425.819 1372.99 426.747C1375.91 427.676 1379.36 429.167 1380.66 430.061C1383.7 432.148 1399.66 439.909 1405.52 442.15C1407.99 443.098 1412.47 445.848 1415.46 448.262L1420.9 452.652L1420.95 771.826H671.17H-24.0891L-35 697.868Z" fill="#DB66B5"/>
<path d="M-4 668.388V216.777L-0.89267 216.197C2.53588 215.557 5.38159 216.944 8.96 220.997C13.807 226.488 15.6534 239.246 13.7837 254.326C12.6088 263.803 11.3188 269.873 5.93932 291.237C1.61941 308.393 -1.75454 329.23 -0.87228 333.304C0.0319071 337.48 2.04893 341.078 3.48575 341.078C4.1641 341.078 4.92038 341.574 5.16636 342.18C5.4738 342.938 5.64164 342.869 5.70331 341.96C5.75266 341.232 6.57331 339.644 7.52698 338.431C8.95944 336.609 9.26435 334.805 9.28064 328.052C9.31643 313.214 14.1431 288.862 20.2492 272.712C24.1658 262.354 35.5305 237.682 40.7696 228.165C49.5573 212.201 51.5605 209.219 54.4236 207.839C57.9841 206.122 63.986 206.775 66.9746 209.205C71.5834 212.951 71.5891 212.991 69.1679 224.309C67.9359 230.068 66.3883 236.785 65.7289 239.234C63.8496 246.215 65.2678 251.811 68.2849 249.32C71.2817 246.845 79.4065 229.867 81.6321 221.428C82.8943 216.643 84.5803 212.223 85.379 211.607C87.5771 209.91 93.3865 208.585 96.0625 209.17C97.3705 209.456 99.9462 211.061 101.786 212.738L105.132 215.788L104.574 229.21C104.144 239.54 103.517 244.372 101.853 250.175C98.5301 261.763 90.5704 281.059 83.2763 295.207C61.9435 336.586 59.6551 341.996 61.086 347.668C61.7938 350.473 66.4226 353.42 70.1292 353.424C71.642 353.425 74.231 352.522 75.8824 351.414C78.5076 349.654 79.301 348.13 82.196 339.285C84.017 333.721 86.2926 327.767 87.2528 326.053C89.1611 322.648 94.0722 311.53 97.9563 301.823C105.127 283.901 111.716 271.945 121.217 259.613C124.525 255.32 129.396 248.327 132.041 244.073C136.901 236.255 144.077 222.814 144.077 221.527C144.077 221.143 145.726 217.219 147.74 212.808C151.773 203.979 160.715 189.999 165.848 184.499C194.709 153.573 196.707 152.163 204.123 157.501C206.562 159.257 206.654 162.037 204.48 168.262C202.847 172.942 191.94 193.807 189.767 196.408C188.464 197.969 184.156 207.179 182.96 210.963C181.661 215.071 180.405 228.276 181.002 231.535L181.539 234.464L185.935 229.771C188.353 227.189 192.06 222.497 194.173 219.343C197.567 214.277 203.094 206.441 207.032 201.109C208.845 198.655 215.248 195.526 218.456 195.526C219.989 195.526 222.22 196.477 223.811 197.81C227.112 200.572 227.305 203.486 224.653 210.522C223.648 213.191 221.945 217.784 220.869 220.729C218.187 228.07 208.984 247.068 200.616 262.537C193.998 274.773 191.407 279.422 187.078 286.826C169.744 316.479 168.407 319.107 163.305 333.579C161.081 339.887 157.405 349.117 155.136 354.092C152.867 359.067 150.564 365.729 150.019 368.898C149.131 374.056 149.206 374.991 150.741 377.825C151.684 379.567 153.371 381.589 154.491 382.319C156.314 383.507 156.919 383.493 160.277 382.186C169.255 378.692 171.669 374.025 179.49 345.047C184.561 326.26 185.727 322.864 190.753 312.263C198.103 296.761 199.92 294.879 210.959 291.322C216.558 289.518 217.954 289.55 219.752 291.527C221.001 292.901 221.219 295.465 221.219 308.779C221.219 326.587 222.16 332.256 225.113 332.256C227.931 332.256 229.956 327.713 231.011 319.024C231.512 314.9 232.294 310.335 232.749 308.88C233.204 307.424 234.389 301.689 235.382 296.134C237.474 284.43 241.03 276.444 246.232 271.769C249.026 269.257 250.284 268.743 253.63 268.743C258.95 268.743 262.391 270.631 265.234 275.112C270.017 282.65 269.79 285.448 263.1 301.382C259.553 309.828 248.376 332.757 246.001 336.457C244.878 338.206 244.888 338.751 246.079 340.862C247.608 343.571 249.949 344.378 251.815 342.838C252.502 342.27 255.02 338.169 257.409 333.723C259.798 329.278 263.343 323.195 265.287 320.206C268.326 315.532 268.981 313.617 269.967 306.532C270.955 299.424 271.476 297.91 273.76 295.496C277.073 291.995 279.762 291.295 283.665 292.917C288.293 294.841 289.732 298.457 290.192 309.321C290.545 317.659 290.365 319.117 288.393 323.938C287.187 326.884 283.402 333.433 279.981 338.493C272.572 349.452 267.143 360.962 264.613 371.076C262.14 380.962 261.479 382.061 252.008 392.048C240.996 403.659 227.761 422.256 220.789 435.914C217.64 442.085 214.604 447.683 214.043 448.355C213.483 449.027 210.328 454.639 207.032 460.826C203.736 467.012 199.069 475.691 196.66 480.111C191.843 488.951 185.822 502.929 183.62 510.387C181.38 517.972 181.698 519.944 185.789 523.815C189.556 527.381 193.06 528.195 195.642 526.105C198.289 523.964 214.359 494.438 216.32 488.114C219.468 477.963 222.387 473.291 231.782 463.367C240.732 453.912 280.014 431.055 287.311 431.055C290.208 431.055 292.155 432.398 292.155 434.397C292.155 435.552 287.853 444.944 286.009 447.816C285.542 448.543 283.463 452.116 281.39 455.755C279.317 459.393 276.098 464.055 274.236 466.113C269.294 471.576 260.702 484.892 255.592 495.01C253.142 499.861 250.002 505.475 248.615 507.485C247.228 509.495 243.689 515.999 240.75 521.94C236.243 531.049 235.406 533.478 235.406 537.441C235.406 542.741 236.792 544.16 241.613 543.794C243.803 543.628 244.784 542.815 246.682 539.588C247.976 537.388 253.78 528.454 259.579 519.735C265.979 510.111 272.051 499.712 275.031 493.271C282.224 477.721 289.169 465.116 294.188 458.499C303.056 446.809 306.373 444.581 308.118 449.146C308.583 450.362 309.428 455.622 309.997 460.834C310.928 469.369 310.838 471.58 309.085 483.101C306.02 503.249 305.03 506.179 298.205 515.327C296.384 517.769 291.923 525.959 288.292 533.529C284.661 541.098 281.329 547.436 280.886 547.614C280.443 547.792 278.72 549.922 277.057 552.348C274.233 556.467 260.68 572.983 259.321 573.96C258.984 574.203 257.999 575.791 257.133 577.489C253.187 585.224 236.473 608.747 229.57 616.279C221.105 625.517 218.369 629.226 214.257 637.033C211.072 643.08 210.958 643.988 212.82 648.423C214.778 653.083 217.379 653.988 222.215 651.689C230.699 647.657 238.702 639.444 243.813 629.523C244.941 627.334 248.013 622.769 250.639 619.379C253.266 615.989 258.781 608.306 262.896 602.306C267.011 596.306 271.65 590.431 273.205 589.251C276.669 586.622 287.854 583.094 295.164 582.325C301.659 581.641 315.428 583.81 320.934 586.385C328.829 590.077 330.427 596.56 328.602 617.5C327.028 635.572 323.123 650.858 316.803 663.686C313.884 669.613 310.228 676.559 308.68 679.124C307.131 681.688 305.018 685.817 303.984 688.3L302.104 692.814L305.155 694.262L308.206 695.709L312.854 691.335C324.228 680.634 341.895 674.687 364.42 673.978C370.76 673.779 376.46 673.43 377.086 673.203C379.525 672.32 406.523 674.737 417.539 676.825C423.924 678.035 434.734 680.012 441.562 681.217C448.389 682.422 457.693 684.395 462.236 685.6C466.779 686.806 474.668 688.459 479.766 689.275C490.533 690.998 495.164 690.406 504.29 686.139C507.341 684.713 511.832 683.339 514.271 683.086C516.709 682.834 523.293 681.76 528.901 680.701C536.372 679.289 540.876 678.908 545.748 679.273C549.406 679.548 554.792 679.379 557.718 678.897C560.644 678.415 565.939 677.777 569.485 677.478L575.932 676.935L575.397 673.745C573.852 664.536 565.812 644.417 556.818 627.256C549.029 612.393 547.901 609.15 542.259 585.428C540.356 577.423 537.34 566.109 535.558 560.287C530.918 545.128 528.576 525.834 529.188 507.801C530.051 482.358 531.288 479.571 546.844 468.021C566.398 453.503 566.806 453.42 607.373 455.827C623.466 456.782 638.83 457.912 641.515 458.339C648.352 459.427 656.214 462.321 659.875 465.099C664.997 468.986 665.735 471.958 665.225 486.629C664.838 497.746 664.425 500.517 662.068 507.801C658.805 517.886 656.951 525.246 656.181 531.177C655.119 539.358 648.654 577.002 646.482 587.652C645.297 593.464 643.675 603.379 642.878 609.687C642.081 615.994 640.612 626.712 639.613 633.504C637.818 645.715 637.755 658.882 639.419 673.468C639.889 677.58 640.178 678.114 641.811 677.879C643.133 677.688 643.854 676.721 644.315 674.523C653.641 630.028 656.06 622.619 668.363 600.865C677.927 583.956 680.65 580.056 693.021 565.557C716.411 538.142 729.087 526.578 744.135 518.929C752.333 514.761 771.989 513.736 782.143 516.947C788.303 518.895 794.63 524.598 797.305 530.615C800.281 537.31 800.747 544.435 798.931 555.47C795.654 575.385 793.414 581.082 778.487 607.481C775.333 613.061 771.383 620.206 769.711 623.36C768.038 626.513 764.345 632.145 761.504 635.875C758.662 639.605 753.363 646.552 749.727 651.312C742.203 661.165 734.291 669.09 726.416 674.661C719.527 679.533 714.526 683.944 715.166 684.581C715.955 685.366 747.547 690.293 760.976 691.726C767.69 692.442 779.369 693.411 786.928 693.879C794.487 694.347 807.455 695.388 815.745 696.192C834.431 698.005 849.627 697.56 872.494 694.53C901.408 690.699 929.589 687.577 945.646 686.426C963.673 685.135 991.772 678.634 1014.8 670.427C1020.9 668.252 1033.47 662.758 1042.74 658.216C1052 653.675 1064.57 648.12 1070.67 645.872C1076.76 643.623 1091.33 637.6 1103.03 632.487C1114.74 627.374 1126.91 622.061 1130.08 620.68C1145.53 613.954 1177.85 602.824 1219.19 589.999C1266.38 575.358 1285 569.253 1289.77 566.858C1309.75 556.824 1356.46 524.498 1360.11 518.174C1361.03 516.593 1364.4 511.131 1367.61 506.036L1373.45 496.774L1373.77 489.12C1374.13 480.358 1374.26 480.842 1364.65 453.99C1360.92 443.559 1355.14 427.284 1351.8 417.823C1348.46 408.362 1344.9 398.805 1343.89 396.586C1342.88 394.366 1339.86 384.641 1337.18 374.974C1333.21 360.691 1324.73 336.841 1323 335.12C1322.48 334.6 1313.59 337.924 1306.97 341.111C1284.17 352.098 1278.43 353.532 1255.1 354.065C1222.98 354.8 1202.61 352.564 1191.9 347.127C1182.75 342.484 1174.41 331.293 1174.41 323.659C1174.41 315.848 1178.32 311.215 1188.08 307.462C1194.77 304.89 1195.81 304.735 1203.67 305.144C1210.86 305.518 1213.66 306.164 1222.74 309.553C1228.59 311.738 1235.97 314.763 1239.14 316.277L1244.9 319.029L1245.45 314.823C1246.27 308.463 1250.51 300.6 1254.22 298.555C1260.41 295.147 1270.14 297.945 1287.7 308.183L1291.49 310.389L1295.43 307.176C1297.6 305.409 1300.8 302.23 1302.54 300.111L1305.71 296.26L1300.24 288.456C1297.23 284.163 1293.21 278.798 1291.31 276.532L1287.86 272.413L1282.43 274.611C1279.3 275.876 1270.57 277.872 1261.83 279.317C1253.5 280.697 1242.68 282.836 1237.8 284.069C1218.21 289.014 1201.1 290.411 1195.06 287.559C1190.59 285.452 1188.47 281.648 1188.79 276.317L1189.04 271.983L1184.13 270.352C1174.7 267.219 1168.89 260.114 1168.89 251.723C1168.89 246.838 1170.59 243.918 1175.29 240.735C1177.86 238.995 1179.34 238.75 1187.33 238.75C1195.22 238.75 1197.9 239.181 1207.37 241.966C1213.38 243.735 1220.9 245.883 1224.07 246.74C1227.24 247.597 1233.37 249.325 1237.69 250.581C1248.68 253.775 1254.7 253.651 1261.4 250.095C1264.28 248.572 1266.63 247.046 1266.63 246.703C1266.63 246.361 1265.77 245.325 1264.73 244.4C1263.69 243.476 1260.08 239.621 1256.71 235.834L1250.59 228.948L1224.25 228.695C1205.68 228.517 1194.04 227.972 1184.79 226.849L1171.68 225.256L1169 227.813C1167.52 229.219 1164.64 232.686 1162.6 235.516C1152.85 249.047 1145.06 258.137 1141.36 260.294C1130.61 266.561 1117.66 259.325 1117.66 247.053C1117.66 244.67 1118.69 238.611 1119.93 233.59C1123.05 221.029 1122.96 220.686 1115.33 216.094C1108.42 211.933 1098.53 202.152 1096.12 197.103C1091.01 186.386 1095.2 175.282 1105.39 172.553C1112.23 170.72 1120.74 173.357 1136.28 182.134C1141.89 185.3 1147.48 188.56 1148.7 189.378C1149.92 190.197 1153.71 191.872 1157.12 193.101C1160.54 194.33 1163.98 195.601 1164.77 195.925C1165.81 196.348 1166.76 195.647 1168.11 193.469C1173.57 184.683 1186.21 180.352 1193.25 184.852C1198.14 187.978 1204.82 190.862 1208.68 191.506C1213.81 192.366 1234.73 188.628 1234.69 186.857C1234.67 185.763 1233.41 184.493 1227.69 179.797C1221.67 174.849 1218.53 173.01 1208.55 168.573C1201.89 165.615 1183.86 153.87 1178.99 149.328C1177.36 147.81 1175.11 144.98 1173.97 143.039C1171.99 139.648 1166.42 120.559 1166.45 117.281C1166.46 116.408 1165.37 112.397 1164.03 108.37C1161.72 101.417 1161.38 100.909 1157.14 98.3219C1154.69 96.8234 1150.29 93.5448 1147.37 91.0361C1144.44 88.5275 1140.03 85.0299 1137.55 83.2638C1132.18 79.4229 1125.49 72.4747 1123.52 68.6813C1121.78 65.3373 1121.68 58.8585 1123.29 55.0042C1126.22 48.0486 1136.36 43.1607 1146.05 44.0353C1154.32 44.7815 1155.72 45.8023 1169.03 60.8362C1171.96 64.1419 1175.83 69.3024 1177.64 72.3039C1183.48 82.0182 1184.09 82.7135 1185.93 81.7347C1186.84 81.2526 1188.55 78.7455 1189.74 76.1635C1193.46 68.0707 1201.94 61.4418 1208.56 61.4418C1215.64 61.4418 1221.46 67.2977 1222.11 75.0796C1222.32 77.6587 1222.01 81.2414 1221.41 83.0412C1219.83 87.8171 1209.68 98.1219 1203.51 101.221C1196.83 104.573 1196.27 106.505 1200.15 112.803C1203.81 118.73 1210.87 126.886 1213.61 128.348C1215.52 129.361 1216.4 129.099 1222.34 125.76C1232.52 120.034 1234.71 118.047 1237.36 112.183C1241.81 102.303 1244.8 89.9963 1244.85 81.2897C1244.9 73.5743 1244.81 73.1889 1241.42 67.6167C1239.35 64.2095 1233.76 57.7663 1227.65 51.7383C1215.85 40.0995 1213.38 37.0245 1211.23 31.301C1209.95 27.8755 1209.87 26.6542 1210.74 24.0372C1212.19 19.6715 1215.46 17.3352 1220.12 17.3352C1223.33 17.3352 1224.64 17.9414 1228.54 21.2577C1235.77 27.3983 1238.16 28.2213 1247.22 27.707C1254.72 27.2817 1255.2 27.1239 1260.59 23.303C1270.74 16.1154 1273.84 14.9818 1285.31 14.2799C1293.52 13.7775 1296.21 13.9171 1298.77 14.9789C1302.86 16.6825 1305.19 20.2256 1305.07 24.6008C1304.91 30.7454 1299.67 34.284 1287.85 36.2377C1284.69 36.7606 1275.55 43.927 1273.73 47.3131C1272.68 49.2698 1275.09 56.9313 1276.98 57.6552C1277.69 57.9232 1279.33 57.1768 1280.65 55.9966C1284.15 52.8446 1289.53 49.4422 1294.56 47.1916C1297.93 45.683 1300.7 45.1985 1306.15 45.1656C1312.51 45.1271 1313.71 45.3921 1316.99 47.5444C1323.2 51.633 1325.34 58.636 1322.21 64.6505C1320.15 68.6242 1316.97 70.2707 1309.81 71.0806C1298.52 72.3576 1284.57 80.8996 1282.58 87.7469C1282.07 89.5323 1281.4 96.5883 1281.1 103.427L1280.55 115.861L1282.65 116.405C1285.11 117.044 1286.42 116.01 1291.54 109.414L1295.17 104.722L1293.34 102.399C1289.19 97.1483 1290.18 88.3083 1295.27 85.2204C1296.83 84.2751 1299.41 83.5002 1301.01 83.4984C1306.49 83.4923 1319.64 91.4639 1326.26 98.8059C1329.55 102.465 1329.55 106.898 1326.26 110.947C1321.58 116.688 1320.24 118.017 1315.59 121.523C1308.56 126.821 1299.02 142.173 1295.36 154.066C1293.54 159.956 1293.59 160.032 1298.49 159.563C1304.49 158.99 1309.28 161.447 1317.86 169.496C1331.57 182.374 1333.94 190.533 1327.71 203.465C1325.96 207.104 1322.87 212.059 1320.85 214.475C1318.82 216.892 1317.17 219.283 1317.17 219.788C1317.17 221.333 1322.58 227.333 1323.47 226.782C1323.93 226.498 1326.06 222.805 1328.19 218.576C1330.33 214.347 1333.83 208.721 1335.98 206.073C1338.13 203.426 1341.21 199.336 1342.82 196.986C1346.56 191.517 1355.16 185.822 1359.67 185.822C1364.86 185.822 1368.93 189.285 1369.93 194.556C1370.37 196.892 1369.93 198.651 1367.91 202.496C1366.48 205.212 1364.8 209.618 1364.16 212.286C1362.84 217.827 1361.29 221.307 1355.67 231.252C1353.48 235.134 1350.84 240.628 1349.8 243.463C1348.04 248.238 1347.98 249.186 1348.94 256.354C1349.51 260.609 1349.98 265.155 1349.98 266.456C1349.98 267.988 1351.49 270.627 1354.27 273.958C1356.64 276.784 1360.41 282.449 1362.65 286.547C1364.9 290.644 1368.92 297.458 1371.59 301.689C1374.26 305.92 1377.54 312.245 1378.89 315.746C1380.23 319.247 1384.03 327.145 1387.34 333.296C1390.64 339.448 1395.18 348.126 1397.43 352.581L1401.52 360.682L1403.62 358.718C1406.41 356.111 1411.55 346.117 1412.85 340.754C1414.01 336.011 1413.61 331.806 1411.04 321.23C1408.93 312.58 1408.45 311.323 1402.66 299.176C1396.71 286.711 1377.39 259.48 1370.09 253.28C1368.05 251.544 1364.29 247.738 1361.72 244.822C1357.72 240.266 1357.07 239.009 1357.07 235.885C1357.07 231.166 1359.89 225.441 1363.17 223.514C1367.83 220.776 1373.31 221.559 1383.23 226.382C1391.21 230.264 1392.2 230.55 1393.2 229.26C1395.13 226.765 1394.45 224.124 1389.01 213.136C1386.1 207.243 1383.03 200.262 1382.19 197.623C1380.82 193.305 1379.7 191.967 1370.98 184.251C1358.78 173.449 1358.12 173.022 1349.53 170.356C1345.63 169.144 1339.85 166.713 1336.68 164.954C1333.51 163.195 1328.3 160.323 1325.11 158.572C1317.23 154.241 1315.94 153.23 1313.75 149.655C1311.31 145.681 1311.25 139.621 1313.6 135.788C1315.54 132.613 1321.33 128.13 1326.04 126.15C1328.56 125.091 1331.97 124.948 1344.21 125.389C1352.5 125.689 1360.23 126.129 1361.38 126.367L1363.47 126.801L1362.82 119.483C1362.17 112.224 1362.13 112.125 1357.62 107.278C1355.12 104.591 1351.72 99.8277 1350.05 96.6929C1348.39 93.5581 1345.47 88.6897 1343.56 85.8744C1337.46 76.8735 1336.12 71.1828 1338.85 65.9276C1340.09 63.5527 1344.9 60.5596 1347.48 60.5596C1348.15 60.5596 1351.61 61.949 1355.17 63.6471C1358.73 65.3452 1361.81 66.7346 1362 66.7346C1362.19 66.7346 1362.31 62.1203 1362.25 56.4808L1362.16 46.227L1366.47 37.7355C1371.86 27.1361 1376.39 22.3888 1382.53 20.9242C1388.43 19.517 1393.26 20.8034 1397.97 25.035C1403.89 30.3632 1404.04 30.9808 1404.98 54.7696C1405.45 66.6049 1406.16 77.1411 1406.54 78.1833C1407.24 80.0442 1407.37 80.0136 1414.07 76.4835C1427.4 69.4548 1439.32 66.0888 1445.18 67.698C1452.45 69.6954 1455.04 77.6436 1450.39 83.7316C1447.07 88.0888 1444.42 89.9986 1435.81 94.2184C1425.27 99.3843 1418.81 103.667 1416.51 107.006C1415.41 108.602 1413.27 113.393 1411.75 117.652C1409.15 124.916 1408.98 126.163 1408.98 137.746C1408.98 150.06 1408.99 150.128 1412.85 161.123C1414.98 167.187 1417.02 172.546 1417.37 173.031C1417.72 173.517 1419.3 177.685 1420.88 182.294C1424.02 191.442 1433.25 209.202 1434.3 208.113C1436.91 205.42 1439.08 183.207 1436.86 181.845C1436.36 181.541 1435.12 179.632 1434.1 177.603C1433.08 175.574 1431.39 172.995 1430.36 171.873C1427.76 169.058 1427.83 161.375 1430.49 155.497C1432.81 150.384 1432.95 145.603 1431.01 138.07C1428.21 127.183 1431.27 118.228 1438.54 116.061C1443.23 114.664 1447.82 116.833 1450.26 121.602C1453.18 127.293 1455.69 140.435 1455.08 146.843C1454.7 150.74 1454.98 153.969 1456.01 157.599C1457.27 162.077 1458.34 163.627 1463.83 168.925C1469.25 174.148 1470.55 174.994 1472.6 174.606L1475 174.149V185.607C1475 195.006 1474.69 197.76 1473.29 200.927C1469.65 209.135 1464.3 229.535 1463.37 238.75C1462.85 243.845 1461.73 253.769 1460.86 260.804L1459.3 273.595L1464.6 286.385C1467.51 293.42 1470.59 300.169 1471.43 301.382C1474.15 305.305 1475 309.408 1474.99 318.494C1474.98 331.842 1473.84 336.819 1465.72 358.749C1457.18 381.8 1455.89 384.546 1451.7 388.549L1448.64 391.473L1449.8 396.929C1450.43 399.93 1451.61 403.974 1452.42 405.914C1454.88 411.858 1461.19 422.211 1462.36 422.223C1464.04 422.239 1469.33 413.707 1471.94 406.796C1473.22 403.4 1474.43 400.456 1474.63 400.254C1474.83 400.052 1475 561.912 1475 759.943H735.5H-0.89267L-4 668.388ZM3.16353 333.506C3.20607 332.478 3.41618 332.269 3.69924 332.973C3.95537 333.61 3.92387 334.371 3.62923 334.664C3.33459 334.957 3.12503 334.436 3.16353 333.506Z" fill="#8659A4"/>
<path d="M1436.96 1495.02C1429.67 1492.36 1426.04 1490 1421.26 1484.81C1417.3 1480.52 1407.92 1467.02 1404.94 1461.36C1404.15 1459.85 1399.28 1453.11 1394.11 1446.38C1380.55 1428.74 1379.69 1427.37 1373.01 1413.12L1366.95 1400.2V1391.87C1366.95 1386.38 1365.9 1377.29 1363.88 1365.21L1360.82 1346.89L1350.75 1326.36C1345.22 1315.06 1338.23 1301.59 1335.21 1296.41C1332.2 1291.24 1327.47 1282.57 1324.69 1277.16C1320.39 1268.77 1319.5 1266.19 1318.59 1259.62C1316.47 1244.19 1311.14 1236.81 1283.86 1211.63C1261.78 1191.24 1226.34 1159.92 1213.29 1149.25C1206.29 1143.54 1185.95 1129.65 1181.07 1127.25C1179.64 1126.55 1174.06 1124.91 1168.69 1123.62C1158.95 1121.27 1158.88 1121.27 1151.27 1122.61C1147.07 1123.35 1138.15 1124.77 1131.45 1125.76C1123.13 1126.99 1118.33 1128.13 1116.32 1129.35C1113.86 1130.84 1111.24 1131.25 1100.32 1131.84C1093.14 1132.22 1086.99 1132.37 1086.66 1132.17C1085.19 1131.28 1058.91 1127.35 1047.33 1126.29C1036.15 1125.27 1034.25 1124.87 1031.66 1122.98C1029.11 1121.12 1025.94 1120.42 1008.07 1117.75C990.248 1115.08 986.505 1114.26 980.65 1111.67C976.92 1110.03 971.533 1108.28 968.678 1107.79C965.773 1107.29 959.445 1104.96 954.312 1102.51C943.682 1097.43 940.758 1096.35 931.498 1094.08C927.763 1093.17 920.881 1090.51 916.205 1088.17C906.358 1083.24 900.848 1081.18 891.161 1078.81C878.674 1075.75 866.329 1074.22 854.16 1074.23C847.696 1074.25 839.116 1073.88 835.093 1073.42C822.16 1071.97 802.15 1071.84 793.218 1073.16C788.669 1073.83 780.415 1074.38 774.875 1074.39C768.425 1074.39 763.206 1074.86 760.36 1075.69C752.154 1078.08 747.838 1078.54 741.91 1077.64C738.765 1077.16 735.171 1076.25 733.922 1075.62C732.674 1074.99 729.159 1073.62 726.113 1072.59C720.799 1070.78 719.728 1070.73 699.654 1071.25C677.512 1071.83 672.742 1072.53 656.968 1077.51C652.385 1078.96 646.578 1079.97 639.991 1080.45C629.804 1081.2 623.934 1081.94 609.955 1084.19C597.803 1086.15 591.399 1087.08 583.798 1087.99C576.368 1088.87 574.634 1089.53 545.748 1102.52C537.249 1106.34 529.954 1109.47 529.536 1109.47C528.077 1109.47 509.761 1115.23 501.362 1118.33C481.134 1125.81 472.133 1128.09 455.561 1129.94C446.846 1130.92 437.471 1131.72 434.728 1131.73C431.984 1131.74 426.017 1132.72 421.468 1133.9C416.379 1135.23 408.844 1136.36 401.88 1136.84C386.639 1137.9 366.673 1141.81 340.502 1148.87C325.524 1152.91 318.01 1153.85 303.066 1153.53C292.677 1153.3 288.121 1152.83 283.27 1151.46C279.805 1150.48 275.851 1149.68 274.485 1149.68C268.791 1149.68 251.89 1156.78 241.055 1163.72C236.988 1166.32 227.613 1171.54 220.221 1175.31C208.788 1181.13 204.967 1182.61 194.634 1185.21C187.953 1186.89 178.765 1189.46 174.216 1190.92C166.065 1193.53 165.812 1193.69 156.804 1202.24C140.348 1217.84 124.526 1229.03 114.98 1231.83C109.655 1233.39 108.776 1234.02 102.189 1241.08C95.8671 1247.85 94.0849 1249.19 85.4242 1253.63C75.3167 1258.81 67.6151 1265.03 58.5249 1275.34C54.5679 1279.83 53.9863 1281.04 52.4357 1288.02C50.6082 1296.25 37.017 1338.31 33.4143 1346.89C32.2285 1349.71 29.3687 1355.11 27.0592 1358.88C23.7009 1364.37 22.5916 1367.19 21.5183 1373C17.4653 1394.92 16.6524 1398.62 14.9558 1402.81C13.9355 1405.34 11.9766 1409.01 10.6027 1410.97C7.85318 1414.9 -3.78839 1426.03 -5.14571 1426.03C-5.70341 1426.03 -6 1246.62 -6 909.265V392.499H0.864905C8.58901 392.499 11.2685 393.373 16.2663 397.521C18.4698 399.349 23.2298 401.635 29.2878 403.773C38.6994 407.094 38.9673 407.135 47.9777 406.654C79.3982 404.973 80.6266 405.037 88.4609 408.739C92.4814 410.639 104.617 414.744 106.215 414.744C108.164 414.744 113.053 420.688 115.019 425.45C118.233 433.232 125.47 440.123 132.613 442.201C136.901 443.449 147.836 443.223 155.166 441.735C161.468 440.456 170.182 439.462 175.522 439.414C180.413 439.371 185.243 442.031 189.51 447.118C191.744 449.782 193.882 452.76 194.262 453.737C195.721 457.492 201.903 465.979 205.178 468.722C207.063 470.301 211.155 473.913 214.271 476.749C218.473 480.574 221.623 482.561 226.459 484.439C230.047 485.832 234.614 488.258 236.609 489.831C240.784 493.122 246.548 502.028 248.957 508.912C249.869 511.515 251.499 515.359 252.579 517.454C255.623 523.355 264.832 536.243 267.004 537.642C268.291 538.47 270.046 541.863 272.167 547.619C275.591 556.914 280.884 566.68 284.779 570.886C288.53 574.937 291.748 580.103 291.748 582.075C291.748 583.069 290.971 584.573 290.021 585.418C287.418 587.733 283.231 595.474 282.065 600.127C281.496 602.396 278.414 609.644 275.217 616.232C269.842 627.305 268.792 628.842 261.308 636.581L253.213 644.953L253.324 649.66C253.462 655.559 252.301 660.722 249.299 667.554L246.953 672.892L236.511 677.397C217.568 685.569 216.768 685.781 196.416 688.039C194.501 688.252 189.8 688.979 185.969 689.655C182.138 690.33 177.143 691.147 174.869 691.469C172.221 691.844 170.733 692.479 170.733 693.235C170.733 693.884 171.041 694.602 171.416 694.83C173.031 695.811 204.098 697.849 219.487 697.983C230.497 698.079 274.358 696.315 275.308 695.738C276.27 695.154 284.273 699.422 290.289 703.727C293.995 706.38 296.638 707.219 312.804 710.868L331.12 715.004L332.678 713.112C334.695 710.665 337.022 702.402 337.009 697.738C337.003 695.731 336.42 691.971 335.713 689.383C334.086 683.425 334.086 677.522 335.713 670.988C336.416 668.165 337.239 661.812 337.543 656.871C338.007 649.33 337.794 646.652 336.216 640.188C333.464 628.915 333.155 624.01 334.732 616.659C337.012 606.038 339.516 598.341 341.142 596.953C344.736 593.886 348.432 588.355 347.928 586.797C346.728 583.079 335.292 578.375 326.354 577.924C325.038 577.857 323.986 577.402 324.017 576.911C324.048 576.421 326.262 574.194 328.937 571.963C332.303 569.156 335.636 567.326 339.763 566.02L345.725 564.133V558.483C345.725 550.34 348.685 548.317 353.084 553.454C354.343 554.925 355.583 555.923 355.839 555.671C356.095 555.42 356.982 552.965 357.81 550.216C359.872 543.372 361.701 543.2 365.749 549.473C367.425 552.069 369.06 554.196 369.383 554.198C369.705 554.2 371.076 553.292 372.43 552.178C375.702 549.487 383.53 545.647 385.744 545.647C387.566 545.647 388.135 546.88 386.712 547.744C386.271 548.012 385.25 550.056 384.444 552.286C382.656 557.23 382.165 558.515 379.853 564.313C378.854 566.816 378.253 569.415 378.516 570.089C378.954 571.209 384.519 571.854 389.475 571.359C392.586 571.047 398.332 575.336 404.169 582.328C407.459 586.268 410.15 589.807 410.15 590.192C410.15 590.577 413.943 593.086 418.579 595.767C424.279 599.064 429.141 601.156 433.597 602.229C443.052 604.507 443.396 604.729 448.948 612.106C451.717 615.787 455.188 620.085 456.661 621.657C459.548 624.738 467.864 629.218 475.759 631.945L480.669 633.641V629.793C480.669 625.332 484.099 603.582 485.039 602.089C485.388 601.534 489.347 599.82 493.836 598.28C498.326 596.741 504.504 594.433 507.565 593.153C516.037 589.61 523.217 590.838 533.967 597.668C539.603 601.249 539.93 602.066 541.636 616.868C542.137 621.211 542.879 625.091 543.285 625.49C543.691 625.889 544.95 626.087 546.082 625.929C549.272 625.486 551.241 618.519 551.927 605.246C552.456 594.999 552.636 594.149 554.597 592.589C557.353 590.398 559.977 590.95 569.69 595.769C574.859 598.332 578.413 599.548 580.742 599.548C585.287 599.548 587.961 602.028 590.316 608.427C592.338 613.923 599.943 657.976 599.943 664.195C599.943 669.096 601.6 671.547 607.211 674.945C622.008 683.907 634.955 688.816 641.448 687.926C644.352 687.527 645.208 686.829 648.124 682.476C652.711 675.63 653.315 675.25 659.18 675.528C662.482 675.685 665.862 675.193 669.051 674.091C676.988 671.35 678.297 672.126 678.297 679.57C678.297 683.561 678.89 686.374 680.472 689.89C684.63 699.129 695.19 712.101 703.543 718.229C711.997 724.433 734.665 733.098 756.918 738.633C773.459 742.748 782.701 743.819 796.456 743.217C806.295 742.787 808.121 742.473 810.503 740.806C813.554 738.671 813.631 738.307 812.309 732.249C810.777 725.231 805.114 717.592 797.13 711.773C793.302 708.983 787.369 703.863 783.946 700.395L777.722 694.089L776.324 685.829C775.555 681.285 775.132 677.05 775.384 676.417C775.636 675.784 777.496 674.581 779.518 673.743L783.195 672.22L794.083 683.306C810.275 699.791 818.735 706.139 822.606 704.706C824.357 704.058 824.52 703.556 824.097 700.095C823.651 696.448 822.952 695.572 812.633 685.738C786.097 660.451 783.718 657.8 779.446 648.743C778.337 646.391 774.856 639.929 771.713 634.384C768.569 628.839 766.147 624.219 766.33 624.117C766.514 624.015 768.221 623.162 770.123 622.221C772.025 621.279 776.036 618.154 779.035 615.274L784.489 610.039L787.689 615.702C789.448 618.817 792.411 623.586 794.273 626.302C796.135 629.017 798.759 633.637 800.103 636.568C804.272 645.663 819.029 662.652 825.619 665.943C830.589 668.425 831.254 668.466 831.944 666.331C832.727 663.907 829.425 658.141 823.586 651.738C809.125 635.878 805.127 630.64 800.947 622.07C798.611 617.281 796.7 613.068 796.7 612.708C796.7 612.348 795.153 609.495 793.263 606.368C790.673 602.084 789.385 598.559 788.039 592.067C785.581 580.211 785.65 577.484 788.427 576.799C791.625 576.011 792.751 576.744 793.987 580.42C794.597 582.235 795.647 584.459 796.32 585.362C797.506 586.954 797.596 586.957 799.302 585.44C800.896 584.022 801.04 582.977 800.839 574.249C800.717 568.954 800.814 564.457 801.053 564.255C801.292 564.054 803.132 564.058 805.14 564.265L808.792 564.64L808.821 570.758C808.836 574.122 809.27 579.185 809.783 582.009C810.297 584.832 811.053 589.312 811.463 591.963C811.874 594.615 812.773 597.84 813.461 599.13C814.695 601.444 814.719 601.403 815.282 596.109C815.596 593.157 815.853 587.731 815.853 584.052C815.853 576.664 816.897 575.2 821.773 575.753C824.043 576.01 824.129 576.212 824.255 581.581C824.555 594.346 830.615 619.99 834.795 626.18C837.941 630.839 843.786 636.338 845.593 636.338C847.287 636.338 847.395 636.005 846.914 632.274C846.626 630.039 845.163 625.322 843.663 621.793C838.029 608.537 836.517 602.403 836.28 591.848C836.087 583.24 835.763 581.366 833.691 576.875C831.498 572.124 831.355 571.137 831.771 563.614C832.025 559.011 832.853 553.938 833.681 551.916C835.351 547.835 843.183 540.288 845.327 540.694C846.115 540.843 847.264 542.499 847.881 544.375C850.578 552.583 855.562 562.623 858.668 566.109C862.757 570.698 863.377 572.803 861.892 577.044C860.279 581.651 860.599 612.413 862.345 620.51C863.276 624.83 863.542 630.194 863.299 639.76C862.862 656.921 863.96 661.379 871.07 671.325C872.62 673.492 874.162 676.342 874.497 677.656C875.082 679.95 877.194 681.577 878.245 680.544C878.522 680.272 877.703 674.701 876.424 668.164C873.855 655.028 873.552 648.461 874.955 636.338C876.261 625.043 876.152 611.359 874.699 604.254C872.827 595.105 872.371 589.511 871.943 570.473C871.517 551.51 871.185 549.668 864.873 531.25C861.969 522.775 861.911 522.366 863.444 521.22C864.323 520.563 865.786 519.779 866.694 519.477C868.233 518.966 868.311 518.217 867.838 508.39L867.331 497.85L871.344 494.584C880.498 487.133 882.018 486.759 882.023 491.96C882.025 493.96 882.63 499.251 883.367 503.718C884.104 508.185 884.873 515.194 885.075 519.294C885.385 525.576 885.849 527.46 888.03 531.278C889.453 533.769 891.659 538.888 892.934 542.652C894.209 546.417 895.546 549.882 895.907 550.353C896.631 551.298 897.753 555.805 902.936 578.586C904.863 587.057 907.194 597.067 908.117 600.831C910.099 608.922 909.971 609.744 904.204 626.071L900.124 637.621L901.537 647.888C902.314 653.535 902.942 659.383 902.932 660.885C902.923 662.387 903.306 663.853 903.785 664.144C904.263 664.435 904.655 665.612 904.655 666.761C904.655 668.98 906.249 669.508 907.939 667.847C908.686 667.113 908.812 662.534 908.41 650.718C907.823 633.474 908.618 626.959 912.701 615.547C914.782 609.733 914.656 607.089 911.261 585.197C911.022 583.657 910.617 582.063 910.361 581.656C909.163 579.751 907.227 567.783 906.845 559.926C906.612 555.131 905.834 541.39 905.117 529.391C903.375 500.254 903.373 490.992 905.111 490.336C905.841 490.061 909.693 490.102 913.671 490.428L920.905 491.02L921.979 500.58C922.57 505.839 923.593 511.681 924.252 513.563C926.028 518.636 927.165 525.747 927.84 536.01C928.257 542.347 928.916 545.959 929.984 547.757C934.412 555.212 939.479 575.78 939.479 586.3C939.479 593.722 941.724 603.628 944.227 607.248C950.116 615.767 953.751 629.482 952.94 640.128C952.251 649.18 953.191 651.738 957.206 651.738C960.078 651.738 960.197 651.604 960.822 647.674C962.409 637.688 960.764 626.501 953.938 600.877C950.121 586.549 949.063 574.471 950.801 565.082C952.095 558.096 953.104 555.628 954.358 556.389C955.132 556.86 954.886 554.471 953.804 551.008C953.043 548.574 952.501 533.161 953.144 532.257C953.529 531.716 956.755 531.142 960.313 530.981C968.05 530.631 967.656 529.962 968.617 545.08C969.293 555.709 969.857 556.702 973.015 552.81C974.337 551.18 975.327 550.713 976.609 551.113C978.129 551.587 978.518 552.838 979.37 559.992C980.617 570.456 981.494 584.218 981.742 597.178C981.847 602.697 982.211 609.435 982.551 612.15C983.496 619.7 986.997 622.514 989.135 617.441C990.734 613.648 989.601 575.883 987.357 558.17C985.552 543.92 985.591 543.11 988.481 535.062L990.285 530.038L996.877 530.588C1010.51 531.724 1010.76 531.803 1011.39 535.093C1011.72 536.835 1011.01 543.882 1009.65 552.325C1003.76 588.997 1001.89 608.513 1003.69 614.512L1004.46 617.071L1005.89 614.923C1007.41 612.644 1010 597.867 1010 591.465C1010 586.453 1014.14 564.643 1015.61 561.903C1016.24 560.726 1017.05 558.435 1017.41 556.811C1017.76 555.186 1019.41 551.847 1021.07 549.39L1024.09 544.922L1032.06 547.774C1036.45 549.344 1041.17 551.058 1042.55 551.584L1045.07 552.54L1044.6 561.713C1044.25 568.635 1043.49 572.881 1041.5 579.014C1038.77 587.413 1035.78 600.683 1036.27 602.149C1036.72 603.465 1045.36 597.328 1048.05 593.782C1051.51 589.222 1058.55 582.748 1061.65 581.272C1064.27 580.022 1064.32 580.044 1070.23 585.2C1073.49 588.052 1076.16 590.811 1076.16 591.331C1076.15 592.373 1075.27 594.068 1070.75 601.687C1069.08 604.51 1066.03 609.708 1063.98 613.237C1061.93 616.766 1058.71 621.468 1056.84 623.685C1049.67 632.153 1034.32 639.3 1027.27 637.452L1023.98 636.589L1015.78 651.222C1011.26 659.27 1006.59 667.78 1005.39 670.133C1004.2 672.486 1001.7 676.144 999.859 678.262C990.672 688.805 986.834 694.999 988.364 696.811C988.888 697.432 989.648 697.939 990.052 697.939C991.266 697.939 996.602 692.32 1001.22 686.176C1003.61 682.999 1007.25 678.164 1009.31 675.432C1020.32 660.801 1024 656.864 1030.7 652.587L1034.43 650.207L1039.41 655.453C1044.2 660.501 1045.05 661.281 1048.62 663.919C1050.2 665.083 1050.19 665.213 1048.41 668.481C1047.4 670.331 1043.2 676.621 1039.07 682.458C1031.62 693.001 1026.51 702.883 1026.57 706.662C1026.61 709.59 1028.77 711.868 1031.51 711.888C1032.85 711.897 1037.86 710.518 1042.65 708.824C1047.43 707.13 1055.46 704.924 1060.48 703.923C1065.5 702.922 1069.71 702 1069.84 701.873C1069.97 701.746 1071.07 697.056 1072.29 691.449C1075.15 678.312 1076.7 671.649 1078.75 663.716C1079.66 660.187 1080.85 654.219 1081.39 650.455C1083.84 633.582 1084.96 628.268 1086.65 625.58C1089.8 620.574 1098.72 614.576 1114.04 607.163C1131.32 598.8 1139.73 593.984 1145.04 589.411C1150.33 584.848 1161.99 578.516 1167.65 577.134C1170.52 576.432 1176.79 576.017 1183.68 576.073C1193.63 576.154 1195.48 576.401 1198.92 578.117C1201.07 579.191 1203.48 580.626 1204.27 581.306C1205.55 582.412 1206.3 581.993 1211.37 577.339L1217.03 572.134L1218 565.094C1220.64 545.967 1221.56 533.135 1221.59 514.673C1221.61 503.71 1222.02 493.008 1222.5 490.89C1222.98 488.773 1223.71 477.415 1224.13 465.651C1224.81 446.369 1226.77 427.431 1228.54 422.872C1230.13 418.788 1234.78 434.462 1237.26 452.266C1237.85 456.569 1238.68 460.09 1239.09 460.09C1239.5 460.09 1239.84 459.371 1239.84 458.494C1239.84 457.616 1240.82 452.637 1242.01 447.429C1243.21 442.222 1244.97 432.757 1245.92 426.395C1248.06 412.078 1248.48 410.245 1252.87 395.922C1256.28 384.802 1257.66 377.794 1261.56 351.86C1263.31 340.26 1263.88 334.212 1265.91 306.086C1266.44 298.793 1267.25 287.627 1267.72 281.275C1268.18 274.922 1269.15 264.72 1269.88 258.602C1271.14 248.025 1271.12 238.858 1269.81 220.529C1269.38 214.613 1269.44 214.288 1270.59 216.363C1272.3 219.441 1275.27 228.769 1275.88 232.935C1276.5 237.275 1281.12 249.083 1283.44 252.288C1286.4 256.372 1291.7 268.24 1295.99 280.419C1299.89 291.485 1300.1 292.562 1300.95 306.086C1302.72 334.187 1303.14 330.94 1292.53 371.11C1290.29 379.553 1289.88 383.62 1291.05 385.434C1292.06 387.007 1297.53 381.088 1300.26 375.454C1304.3 367.132 1313.32 352.933 1317.38 348.498C1320.82 344.752 1322.57 342.389 1327.33 335.097C1327.81 334.364 1330.02 331.098 1332.23 327.839C1337.7 319.793 1343.15 308.912 1349.12 294.1C1355.31 278.743 1357.61 274.158 1361.5 269.448C1365.92 264.092 1366.58 265.428 1365.26 277.171C1364.67 282.487 1363.86 289.916 1363.47 293.681C1362.6 302.093 1360.12 318.032 1359.42 319.776C1358.86 321.134 1357.5 327.476 1357.76 327.476C1357.84 327.476 1359.61 324.877 1361.68 321.701C1363.76 318.524 1366.76 313.983 1368.36 311.609C1369.96 309.235 1371.72 305.963 1372.28 304.337C1372.84 302.711 1373.58 300.996 1373.92 300.525C1375.57 298.28 1380.01 285.275 1380.01 282.703C1380.01 281.106 1378.86 277.065 1377.46 273.723C1376.05 270.381 1373.87 264.264 1372.6 260.13C1371.33 255.996 1369.91 251.458 1369.45 250.046C1368.98 248.635 1368.41 244.207 1368.18 240.207C1367.95 236.208 1367.15 228.315 1366.42 222.668C1364.87 210.825 1365.08 176.824 1366.77 165.345C1367.32 161.58 1368.21 153.687 1368.74 147.805C1369.27 141.923 1370.29 135.186 1370.99 132.833C1371.7 130.48 1372.62 122.78 1373.03 115.721C1373.71 104.115 1374.08 102.079 1376.92 94.4273C1378.65 89.7741 1380.84 83.1113 1381.79 79.6211C1382.74 76.1309 1385.08 69.6886 1386.99 65.3049C1388.89 60.9212 1390.45 56.8815 1390.45 56.3277C1390.45 55.258 1391.99 52.0838 1396.41 43.9933L1399.15 39L1400.12 41.4266C1401.47 44.7573 1401.45 52.3948 1400.07 69.5205C1398.71 86.4066 1398.77 90.2607 1400.5 98.3456C1401.98 105.268 1402.12 113.534 1400.88 121.056C1400 126.389 1400 126.394 1404.37 135.791C1406.77 140.961 1408.74 145.561 1408.74 146.014C1408.74 146.466 1410.42 151.246 1412.47 156.635C1416.08 166.12 1416.45 166.696 1424.06 174.578C1432.21 183.024 1434.3 186.326 1437.5 195.718C1441.96 208.83 1441.96 208.821 1442.7 238.496C1443.19 257.824 1443.79 268.272 1444.55 270.58C1445.47 273.353 1445.73 337.929 1445.94 610.884C1446.11 838.337 1445.91 947.766 1445.32 947.766C1444.72 947.766 1444.43 1037.22 1444.43 1222.41C1444.43 1441.57 1444.21 1497.04 1443.34 1497C1442.74 1496.98 1439.87 1496.09 1436.96 1495.02Z" fill="#333B6D"/>
</svg>
