<svg width="1452" height="1458" viewBox="0 0 1452 1458" fill="none" xmlns="http://www.w3.org/2000/svg">
<path d="M1442.96 1456.02C1435.67 1453.36 1432.04 1451 1427.26 1445.81C1423.3 1441.52 1413.92 1428.02 1410.94 1422.36C1410.15 1420.85 1405.28 1414.11 1400.11 1407.38C1386.55 1389.74 1385.69 1388.37 1379.01 1374.12L1372.95 1361.2V1352.87C1372.95 1347.38 1371.9 1338.29 1369.88 1326.21L1366.82 1307.89L1356.75 1287.36C1351.22 1276.06 1344.23 1262.59 1341.21 1257.41C1338.2 1252.24 1333.47 1243.57 1330.69 1238.16C1326.39 1229.77 1325.5 1227.19 1324.59 1220.62C1322.47 1205.19 1317.14 1197.81 1289.86 1172.63C1267.78 1152.24 1232.34 1120.92 1219.29 1110.25C1212.29 1104.54 1191.95 1090.65 1187.07 1088.25C1185.64 1087.55 1180.06 1085.91 1174.69 1084.62C1164.95 1082.27 1164.88 1082.27 1157.27 1083.61C1153.07 1084.35 1144.15 1085.77 1137.45 1086.76C1129.13 1087.99 1124.33 1089.13 1122.32 1090.35C1119.86 1091.84 1117.24 1092.25 1106.32 1092.84C1099.14 1093.22 1092.99 1093.37 1092.66 1093.17C1091.19 1092.28 1064.91 1088.35 1053.33 1087.29C1042.15 1086.27 1040.25 1085.87 1037.66 1083.98C1035.11 1082.12 1031.94 1081.42 1014.07 1078.75C996.248 1076.08 992.505 1075.26 986.65 1072.67C982.92 1071.03 977.533 1069.28 974.678 1068.79C971.773 1068.29 965.445 1065.96 960.312 1063.51C949.682 1058.43 946.758 1057.35 937.498 1055.08C933.763 1054.17 926.881 1051.51 922.205 1049.17C912.358 1044.24 906.848 1042.18 897.161 1039.81C884.674 1036.75 872.329 1035.22 860.16 1035.23C853.696 1035.25 845.116 1034.88 841.093 1034.42C828.16 1032.97 808.15 1032.84 799.218 1034.16C794.669 1034.83 786.415 1035.38 780.875 1035.39C774.425 1035.39 769.206 1035.86 766.36 1036.69C758.154 1039.08 753.838 1039.54 747.91 1038.64C744.765 1038.16 741.171 1037.25 739.922 1036.62C738.674 1035.99 735.159 1034.62 732.113 1033.59C726.799 1031.78 725.728 1031.73 705.654 1032.25C683.512 1032.83 678.742 1033.53 662.968 1038.51C658.385 1039.96 652.578 1040.97 645.991 1041.45C635.804 1042.2 629.934 1042.94 615.955 1045.19C603.803 1047.15 597.399 1048.08 589.798 1048.99C582.368 1049.87 580.634 1050.53 551.748 1063.52C543.249 1067.34 535.954 1070.47 535.536 1070.47C534.077 1070.47 515.761 1076.23 507.362 1079.33C487.134 1086.81 478.133 1089.09 461.561 1090.94C452.846 1091.92 443.471 1092.72 440.728 1092.73C437.984 1092.74 432.017 1093.72 427.468 1094.9C422.379 1096.23 414.844 1097.36 407.88 1097.84C392.639 1098.9 372.673 1102.81 346.502 1109.87C331.524 1113.91 324.01 1114.85 309.066 1114.53C298.677 1114.3 294.121 1113.83 289.27 1112.46C285.805 1111.48 281.851 1110.68 280.485 1110.68C274.791 1110.68 257.89 1117.78 247.055 1124.72C242.988 1127.32 233.613 1132.54 226.221 1136.31C214.788 1142.13 210.967 1143.61 200.634 1146.21C193.953 1147.89 184.765 1150.46 180.216 1151.92C172.065 1154.53 171.812 1154.69 162.804 1163.24C146.348 1178.84 130.526 1190.03 120.98 1192.83C115.655 1194.39 114.776 1195.02 108.189 1202.08C101.867 1208.85 100.085 1210.19 91.4242 1214.63C81.3167 1219.81 73.6151 1226.03 64.5249 1236.34C60.5679 1240.83 59.9863 1242.04 58.4357 1249.02C56.6082 1257.25 43.017 1299.31 39.4143 1307.89C38.2285 1310.71 35.3687 1316.11 33.0592 1319.88C29.7009 1325.37 28.5916 1328.19 27.5183 1334C23.4653 1355.92 22.6524 1359.62 20.9558 1363.81C19.9355 1366.34 17.9766 1370.01 16.6027 1371.97C13.8532 1375.9 2.21161 1387.03 0.854288 1387.03C0.296585 1387.03 0 1207.62 0 870.265V353.499H6.8649C14.589 353.499 17.2685 354.373 22.2663 358.521C24.4698 360.349 29.2298 362.635 35.2878 364.773C44.6994 368.094 44.9673 368.135 53.9777 367.654C85.3982 365.973 86.6266 366.037 94.4609 369.739C98.4814 371.639 110.617 375.744 112.215 375.744C114.164 375.744 119.053 381.688 121.019 386.45C124.233 394.232 131.47 401.123 138.613 403.201C142.901 404.449 153.836 404.223 161.166 402.735C167.468 401.456 176.182 400.462 181.522 400.414C186.413 400.371 191.243 403.031 195.51 408.118C197.744 410.782 199.882 413.76 200.262 414.737C201.721 418.492 207.903 426.979 211.178 429.722C213.063 431.301 217.155 434.913 220.271 437.749C224.473 441.574 227.623 443.561 232.459 445.439C236.047 446.832 240.614 449.258 242.609 450.831C246.784 454.122 252.548 463.028 254.957 469.912C255.869 472.515 257.499 476.359 258.579 478.454C261.623 484.355 270.832 497.243 273.004 498.642C274.291 499.47 276.046 502.863 278.167 508.619C281.591 517.914 286.884 527.68 290.779 531.886C294.53 535.937 297.748 541.103 297.748 543.075C297.748 544.069 296.971 545.573 296.021 546.418C293.418 548.733 289.231 556.474 288.065 561.127C287.496 563.396 284.414 570.644 281.217 577.232C275.842 588.305 274.792 589.842 267.308 597.581L259.213 605.953L259.324 610.66C259.462 616.559 258.301 621.722 255.299 628.554L252.953 633.892L242.511 638.397C223.568 646.569 222.768 646.781 202.416 649.039C200.501 649.252 195.8 649.979 191.969 650.655C188.138 651.33 183.143 652.147 180.869 652.469C178.221 652.844 176.733 653.479 176.733 654.235C176.733 654.884 177.041 655.602 177.416 655.83C179.031 656.811 210.098 658.849 225.487 658.983C236.497 659.079 280.358 657.315 281.308 656.738C282.27 656.154 290.273 660.422 296.289 664.727C299.995 667.38 302.638 668.219 318.804 671.868L337.12 676.004L338.678 674.112C340.695 671.665 343.022 663.402 343.009 658.738C343.003 656.731 342.42 652.971 341.713 650.383C340.086 644.425 340.086 638.522 341.713 631.988C342.416 629.165 343.239 622.812 343.543 617.871C344.007 610.33 343.794 607.652 342.216 601.188C339.464 589.915 339.155 585.01 340.732 577.659C343.012 567.038 345.516 559.341 347.142 557.953C350.736 554.886 354.432 549.355 353.928 547.797C352.728 544.079 341.292 539.375 332.354 538.924C331.038 538.857 329.986 538.402 330.017 537.911C330.048 537.421 332.262 535.194 334.937 532.963C338.303 530.156 341.636 528.326 345.763 527.02L351.725 525.133V519.483C351.725 511.34 354.685 509.317 359.084 514.454C360.343 515.925 361.583 516.923 361.839 516.671C362.095 516.42 362.982 513.965 363.81 511.216C365.872 504.372 367.701 504.2 371.749 510.473C373.425 513.069 375.06 515.196 375.383 515.198C375.705 515.2 377.076 514.292 378.43 513.178C381.702 510.487 389.53 506.647 391.744 506.647C393.566 506.647 394.135 507.88 392.712 508.744C392.271 509.012 391.25 511.056 390.444 513.286C388.656 518.23 388.165 519.515 385.853 525.313C384.854 527.816 384.253 530.415 384.516 531.089C384.954 532.209 390.519 532.854 395.475 532.359C398.586 532.047 404.332 536.336 410.169 543.328C413.459 547.268 416.15 550.807 416.15 551.192C416.15 551.577 419.943 554.086 424.579 556.767C430.279 560.064 435.141 562.156 439.597 563.229C449.052 565.507 449.396 565.729 454.948 573.106C457.717 576.787 461.188 581.085 462.661 582.657C465.548 585.738 473.864 590.218 481.759 592.945L486.669 594.641V590.793C486.669 586.332 490.099 564.582 491.039 563.089C491.388 562.534 495.347 560.82 499.836 559.28C504.326 557.741 510.504 555.433 513.565 554.153C522.037 550.61 529.217 551.838 539.967 558.668C545.603 562.249 545.93 563.066 547.636 577.868C548.137 582.211 548.879 586.091 549.285 586.49C549.691 586.889 550.95 587.087 552.082 586.929C555.272 586.486 557.241 579.519 557.927 566.246C558.456 555.999 558.636 555.149 560.597 553.589C563.353 551.398 565.977 551.95 575.69 556.769C580.859 559.332 584.413 560.548 586.742 560.548C591.287 560.548 593.961 563.028 596.316 569.427C598.338 574.923 605.943 618.976 605.943 625.195C605.943 630.096 607.6 632.547 613.211 635.945C628.008 644.907 640.955 649.816 647.448 648.926C650.352 648.527 651.208 647.829 654.124 643.476C658.711 636.63 659.315 636.25 665.18 636.528C668.482 636.685 671.862 636.193 675.051 635.091C682.988 632.35 684.297 633.126 684.297 640.57C684.297 644.561 684.89 647.374 686.472 650.89C690.63 660.129 701.19 673.101 709.543 679.229C717.997 685.433 740.665 694.098 762.918 699.633C779.459 703.748 788.701 704.819 802.456 704.217C812.295 703.787 814.121 703.473 816.503 701.806C819.554 699.671 819.631 699.307 818.309 693.249C816.777 686.231 811.114 678.592 803.13 672.773C799.302 669.983 793.369 664.863 789.946 661.395L783.722 655.089L782.324 646.829C781.555 642.285 781.132 638.05 781.384 637.417C781.636 636.784 783.496 635.581 785.518 634.743L789.195 633.22L800.083 644.306C816.275 660.791 824.735 667.139 828.606 665.706C830.357 665.058 830.52 664.556 830.097 661.095C829.651 657.448 828.952 656.572 818.633 646.738C792.097 621.451 789.718 618.8 785.446 609.743C784.337 607.391 780.856 600.929 777.713 595.384C774.569 589.839 772.147 585.219 772.33 585.117C772.514 585.015 774.221 584.162 776.123 583.221C778.025 582.279 782.036 579.154 785.035 576.274L790.489 571.039L793.689 576.702C795.448 579.817 798.411 584.586 800.273 587.302C802.135 590.017 804.759 594.637 806.103 597.568C810.272 606.663 825.029 623.652 831.619 626.943C836.589 629.425 837.254 629.466 837.944 627.331C838.727 624.907 835.425 619.141 829.586 612.738C815.125 596.878 811.127 591.64 806.947 583.07C804.611 578.281 802.7 574.068 802.7 573.708C802.7 573.348 801.153 570.495 799.263 567.368C796.673 563.084 795.385 559.559 794.039 553.067C791.581 541.211 791.65 538.484 794.427 537.799C797.625 537.011 798.751 537.744 799.987 541.42C800.597 543.235 801.647 545.459 802.32 546.362C803.506 547.954 803.596 547.957 805.302 546.44C806.896 545.022 807.04 543.977 806.839 535.249C806.717 529.954 806.814 525.457 807.053 525.255C807.292 525.054 809.132 525.058 811.14 525.265L814.792 525.64L814.821 531.758C814.836 535.122 815.27 540.185 815.783 543.009C816.297 545.832 817.053 550.312 817.463 552.963C817.874 555.615 818.773 558.84 819.461 560.13C820.695 562.444 820.719 562.403 821.282 557.109C821.596 554.157 821.853 548.731 821.853 545.052C821.853 537.664 822.897 536.2 827.773 536.753C830.043 537.01 830.129 537.212 830.255 542.581C830.555 555.346 836.615 580.99 840.795 587.18C843.941 591.839 849.786 597.338 851.593 597.338C853.287 597.338 853.395 597.005 852.914 593.274C852.626 591.039 851.163 586.322 849.663 582.793C844.029 569.537 842.517 563.403 842.28 552.848C842.087 544.24 841.763 542.366 839.691 537.875C837.498 533.124 837.355 532.137 837.771 524.614C838.025 520.011 838.853 514.938 839.681 512.916C841.351 508.835 849.183 501.288 851.327 501.694C852.115 501.843 853.264 503.499 853.881 505.375C856.578 513.583 861.562 523.623 864.668 527.109C868.757 531.698 869.377 533.803 867.892 538.044C866.279 542.651 866.599 573.413 868.345 581.51C869.276 585.83 869.542 591.194 869.299 600.76C868.862 617.921 869.96 622.379 877.07 632.325C878.62 634.492 880.162 637.342 880.497 638.656C881.082 640.95 883.194 642.577 884.245 641.544C884.522 641.272 883.703 635.701 882.424 629.164C879.855 616.028 879.552 609.461 880.955 597.338C882.261 586.043 882.152 572.359 880.699 565.254C878.827 556.105 878.371 550.511 877.943 531.473C877.517 512.51 877.185 510.668 870.873 492.25C867.969 483.775 867.911 483.366 869.444 482.22C870.323 481.563 871.786 480.779 872.694 480.477C874.233 479.966 874.311 479.217 873.838 469.39L873.331 458.85L877.344 455.584C886.498 448.133 888.018 447.759 888.023 452.96C888.025 454.96 888.63 460.251 889.367 464.718C890.104 469.185 890.873 476.194 891.075 480.294C891.385 486.576 891.849 488.46 894.03 492.278C895.453 494.769 897.659 499.888 898.934 503.652C900.209 507.417 901.546 510.882 901.907 511.353C902.631 512.298 903.753 516.805 908.936 539.586C910.863 548.057 913.194 558.067 914.117 561.831C916.099 569.922 915.971 570.744 910.204 587.071L906.124 598.621L907.537 608.888C908.314 614.535 908.942 620.383 908.932 621.885C908.923 623.387 909.306 624.853 909.785 625.144C910.263 625.435 910.655 626.612 910.655 627.761C910.655 629.98 912.249 630.508 913.939 628.847C914.686 628.113 914.812 623.534 914.41 611.718C913.823 594.474 914.618 587.959 918.701 576.547C920.782 570.733 920.656 568.089 917.261 546.197C917.022 544.657 916.617 543.063 916.361 542.656C915.163 540.751 913.227 528.783 912.845 520.926C912.612 516.131 911.834 502.39 911.117 490.391C909.375 461.254 909.373 451.992 911.111 451.336C911.841 451.061 915.693 451.102 919.671 451.428L926.905 452.02L927.979 461.58C928.57 466.839 929.593 472.681 930.252 474.563C932.028 479.636 933.165 486.747 933.84 497.01C934.257 503.347 934.916 506.959 935.984 508.757C940.412 516.212 945.479 536.78 945.479 547.3C945.479 554.722 947.724 564.628 950.227 568.248C956.116 576.767 959.751 590.482 958.94 601.128C958.251 610.18 959.191 612.738 963.206 612.738C966.078 612.738 966.197 612.604 966.822 608.674C968.409 598.688 966.764 587.501 959.938 561.877C956.121 547.549 955.063 535.471 956.801 526.082C958.095 519.096 959.104 516.628 960.358 517.389C961.132 517.86 960.886 515.471 959.804 512.008C959.043 509.574 958.501 494.161 959.144 493.257C959.529 492.716 962.755 492.142 966.313 491.981C974.05 491.631 973.656 490.962 974.617 506.08C975.293 516.709 975.857 517.702 979.015 513.81C980.337 512.18 981.327 511.713 982.609 512.113C984.129 512.587 984.518 513.838 985.37 520.992C986.617 531.456 987.494 545.218 987.742 558.178C987.847 563.697 988.211 570.435 988.551 573.15C989.496 580.7 992.997 583.514 995.135 578.441C996.734 574.648 995.601 536.883 993.357 519.17C991.552 504.92 991.591 504.11 994.481 496.062L996.285 491.038L1002.88 491.588C1016.51 492.724 1016.76 492.803 1017.39 496.093C1017.72 497.835 1017.01 504.882 1015.65 513.325C1009.76 549.997 1007.89 569.513 1009.69 575.512L1010.46 578.071L1011.89 575.923C1013.41 573.644 1016 558.867 1016 552.465C1016 547.453 1020.14 525.643 1021.61 522.903C1022.24 521.726 1023.05 519.435 1023.41 517.811C1023.76 516.186 1025.41 512.847 1027.07 510.39L1030.09 505.922L1038.06 508.774C1042.45 510.344 1047.17 512.058 1048.55 512.584L1051.07 513.54L1050.6 522.713C1050.25 529.635 1049.49 533.881 1047.5 540.014C1044.77 548.413 1041.78 561.683 1042.27 563.149C1042.72 564.465 1051.36 558.328 1054.05 554.782C1057.51 550.222 1064.55 543.748 1067.65 542.272C1070.27 541.022 1070.32 541.044 1076.23 546.2C1079.49 549.052 1082.16 551.811 1082.16 552.331C1082.15 553.373 1081.27 555.068 1076.75 562.687C1075.08 565.51 1072.03 570.708 1069.98 574.237C1067.93 577.766 1064.71 582.468 1062.84 584.685C1055.67 593.153 1040.32 600.3 1033.27 598.452L1029.98 597.589L1021.78 612.222C1017.26 620.27 1012.59 628.78 1011.39 631.133C1010.2 633.486 1007.7 637.144 1005.86 639.262C996.672 649.805 992.834 655.999 994.364 657.811C994.888 658.432 995.648 658.939 996.052 658.939C997.266 658.939 1002.6 653.32 1007.22 647.176C1009.61 643.999 1013.25 639.164 1015.31 636.432C1026.32 621.801 1030 617.864 1036.7 613.587L1040.43 611.207L1045.41 616.453C1050.2 621.501 1051.05 622.281 1054.62 624.919C1056.2 626.083 1056.19 626.213 1054.41 629.481C1053.4 631.331 1049.2 637.621 1045.07 643.458C1037.62 654.001 1032.51 663.883 1032.57 667.662C1032.61 670.59 1034.77 672.868 1037.51 672.888C1038.85 672.897 1043.86 671.518 1048.65 669.824C1053.43 668.13 1061.46 665.924 1066.48 664.923C1071.5 663.922 1075.71 663 1075.84 662.873C1075.97 662.746 1077.07 658.056 1078.29 652.449C1081.15 639.312 1082.7 632.649 1084.75 624.716C1085.66 621.187 1086.85 615.219 1087.39 611.455C1089.84 594.582 1090.96 589.268 1092.65 586.58C1095.8 581.574 1104.72 575.576 1120.04 568.163C1137.32 559.8 1145.73 554.984 1151.04 550.411C1156.33 545.848 1167.99 539.516 1173.65 538.134C1176.52 537.432 1182.79 537.017 1189.68 537.073C1199.63 537.154 1201.48 537.401 1204.92 539.117C1207.07 540.191 1209.48 541.626 1210.27 542.306C1211.55 543.412 1212.3 542.993 1217.37 538.339L1223.03 533.134L1224 526.094C1226.64 506.967 1227.56 494.135 1227.59 475.673C1227.61 464.71 1228.02 454.008 1228.5 451.89C1228.98 449.773 1229.71 438.415 1230.13 426.651C1230.81 407.369 1232.77 388.431 1234.54 383.872C1236.13 379.788 1240.78 395.462 1243.26 413.266C1243.85 417.569 1244.68 421.09 1245.09 421.09C1245.5 421.09 1245.84 420.371 1245.84 419.494C1245.84 418.616 1246.82 413.637 1248.01 408.429C1249.21 403.222 1250.97 393.757 1251.92 387.395C1254.06 373.078 1254.48 371.245 1258.87 356.922C1262.28 345.802 1263.66 338.794 1267.56 312.86C1269.31 301.26 1269.88 295.212 1271.91 267.086C1272.44 259.793 1273.25 248.627 1273.72 242.275C1274.18 235.922 1275.15 225.72 1275.88 219.602C1277.14 209.025 1277.12 199.858 1275.81 181.529C1275.38 175.613 1275.44 175.288 1276.59 177.363C1278.3 180.441 1281.27 189.769 1281.88 193.935C1282.5 198.275 1287.12 210.083 1289.44 213.288C1292.4 217.372 1297.7 229.24 1301.99 241.419C1305.89 252.485 1306.1 253.562 1306.95 267.086C1308.72 295.187 1309.14 291.94 1298.53 332.11C1296.29 340.553 1295.88 344.62 1297.05 346.434C1298.06 348.007 1303.53 342.088 1306.26 336.454C1310.3 328.132 1319.32 313.933 1323.38 309.498C1326.82 305.752 1328.57 303.389 1333.33 296.097C1333.81 295.364 1336.02 292.098 1338.23 288.839C1343.7 280.793 1349.15 269.912 1355.12 255.1C1361.31 239.743 1363.61 235.158 1367.5 230.448C1371.92 225.092 1372.58 226.428 1371.26 238.171C1370.67 243.487 1369.86 250.916 1369.47 254.681C1368.6 263.093 1366.12 279.032 1365.42 280.776C1364.86 282.134 1363.5 288.476 1363.76 288.476C1363.84 288.476 1365.61 285.877 1367.68 282.701C1369.76 279.524 1372.76 274.983 1374.36 272.609C1375.96 270.235 1377.72 266.963 1378.28 265.337C1378.84 263.711 1379.58 261.996 1379.92 261.525C1381.57 259.28 1386.01 246.275 1386.01 243.703C1386.01 242.106 1384.86 238.065 1383.46 234.723C1382.05 231.381 1379.87 225.264 1378.6 221.13C1377.33 216.996 1375.91 212.458 1375.45 211.046C1374.98 209.635 1374.41 205.207 1374.18 201.207C1373.95 197.208 1373.15 189.315 1372.42 183.668C1370.87 171.825 1371.08 137.824 1372.77 126.345C1373.32 122.58 1374.21 114.687 1374.74 108.805C1375.27 102.923 1376.29 96.1857 1376.99 93.8329C1377.7 91.48 1378.62 83.7799 1379.03 76.7214C1379.71 65.1149 1380.08 63.0789 1382.92 55.4273C1384.65 50.7741 1386.84 44.1113 1387.79 40.6211C1388.74 37.1309 1391.08 30.6886 1392.99 26.3049C1394.89 21.9212 1396.45 17.8815 1396.45 17.3277C1396.45 16.258 1397.99 13.0838 1402.41 4.99335L1405.15 0L1406.12 2.42662C1407.47 5.75728 1407.45 13.3948 1406.07 30.5205C1404.71 47.4066 1404.77 51.2607 1406.5 59.3456C1407.98 66.2683 1408.12 74.5342 1406.88 82.056C1406 87.3887 1406 87.394 1410.37 96.791C1412.77 101.961 1414.74 106.561 1414.74 107.014C1414.74 107.466 1416.42 112.246 1418.47 117.635C1422.08 127.12 1422.45 127.696 1430.06 135.578C1438.21 144.024 1440.3 147.326 1443.5 156.718C1447.96 169.83 1447.96 169.821 1448.7 199.496C1449.19 218.824 1449.79 229.272 1450.55 231.58C1451.47 234.353 1451.73 298.929 1451.94 571.884C1452.11 799.337 1451.91 908.766 1451.32 908.766C1450.72 908.766 1450.43 998.22 1450.43 1183.41C1450.43 1402.57 1450.21 1458.04 1449.34 1458C1448.74 1457.98 1445.87 1457.09 1442.96 1456.02Z" fill="#333B6D"/>
</svg>
