<svg width="1479" height="746" viewBox="0 0 1479 746" fill="none" xmlns="http://www.w3.org/2000/svg">
<path d="M0 654.388V202.777L3.10733 202.197C6.53588 201.557 9.38159 202.944 12.96 206.997C17.807 212.488 19.6534 225.246 17.7837 240.326C16.6088 249.803 15.3188 255.873 9.93932 277.237C5.61941 294.393 2.24546 315.23 3.12772 319.304C4.03191 323.48 6.04893 327.078 7.48575 327.078C8.1641 327.078 8.92038 327.574 9.16636 328.18C9.4738 328.938 9.64164 328.869 9.70331 327.96C9.75266 327.232 10.5733 325.644 11.527 324.431C12.9594 322.609 13.2644 320.805 13.2806 314.052C13.3164 299.214 18.1431 274.862 24.2492 258.712C28.1658 248.354 39.5305 223.682 44.7696 214.165C53.5573 198.201 55.5605 195.219 58.4236 193.839C61.9841 192.122 67.986 192.775 70.9746 195.205C75.5834 198.951 75.5891 198.991 73.1679 210.309C71.9359 216.068 70.3883 222.785 69.7289 225.234C67.8496 232.215 69.2678 237.811 72.2849 235.32C75.2817 232.845 83.4065 215.867 85.6321 207.428C86.8943 202.643 88.5803 198.223 89.379 197.607C91.5771 195.91 97.3865 194.585 100.063 195.17C101.371 195.456 103.946 197.061 105.786 198.738L109.132 201.788L108.574 215.21C108.144 225.54 107.517 230.372 105.853 236.175C102.53 247.763 94.5704 267.059 87.2763 281.207C65.9435 322.586 63.6551 327.996 65.086 333.668C65.7938 336.473 70.4226 339.42 74.1292 339.424C75.642 339.425 78.231 338.522 79.8824 337.414C82.5076 335.654 83.301 334.13 86.196 325.285C88.017 319.721 90.2926 313.767 91.2528 312.053C93.1611 308.648 98.0722 297.53 101.956 287.823C109.127 269.901 115.716 257.945 125.217 245.613C128.525 241.32 133.396 234.327 136.041 230.073C140.901 222.255 148.077 208.814 148.077 207.527C148.077 207.143 149.726 203.219 151.74 198.808C155.773 189.979 164.715 175.999 169.848 170.499C198.709 139.573 200.707 138.163 208.123 143.501C210.562 145.257 210.654 148.037 208.48 154.262C206.847 158.942 195.94 179.807 193.767 182.408C192.464 183.969 188.156 193.179 186.96 196.963C185.661 201.071 184.405 214.276 185.002 217.535L185.539 220.464L189.935 215.771C192.353 213.189 196.06 208.497 198.173 205.343C201.567 200.277 207.094 192.441 211.032 187.109C212.845 184.655 219.248 181.526 222.456 181.526C223.989 181.526 226.22 182.477 227.811 183.81C231.112 186.572 231.305 189.486 228.653 196.522C227.648 199.191 225.945 203.784 224.869 206.729C222.187 214.07 212.984 233.068 204.616 248.537C197.998 260.773 195.407 265.422 191.078 272.826C173.744 302.479 172.407 305.107 167.305 319.579C165.081 325.887 161.405 335.117 159.136 340.092C156.867 345.067 154.564 351.729 154.019 354.898C153.131 360.056 153.206 360.991 154.741 363.825C155.684 365.567 157.371 367.589 158.491 368.319C160.314 369.507 160.919 369.493 164.277 368.186C173.255 364.692 175.669 360.025 183.49 331.047C188.561 312.26 189.727 308.864 194.753 298.263C202.103 282.761 203.92 280.879 214.959 277.322C220.558 275.518 221.954 275.55 223.752 277.527C225.001 278.901 225.219 281.465 225.219 294.779C225.219 312.587 226.16 318.256 229.113 318.256C231.931 318.256 233.956 313.713 235.011 305.024C235.512 300.9 236.294 296.335 236.749 294.88C237.204 293.424 238.389 287.689 239.382 282.134C241.474 270.43 245.03 262.444 250.232 257.769C253.026 255.257 254.284 254.743 257.63 254.743C262.95 254.743 266.391 256.631 269.234 261.112C274.017 268.65 273.79 271.448 267.1 287.382C263.553 295.828 252.376 318.757 250.001 322.457C248.878 324.206 248.888 324.751 250.079 326.862C251.608 329.571 253.949 330.378 255.815 328.838C256.502 328.27 259.02 324.169 261.409 319.723C263.798 315.278 267.343 309.195 269.287 306.206C272.326 301.532 272.981 299.617 273.967 292.532C274.955 285.424 275.476 283.91 277.76 281.496C281.073 277.995 283.762 277.295 287.665 278.917C292.293 280.841 293.732 284.457 294.192 295.321C294.545 303.659 294.365 305.117 292.393 309.938C291.187 312.884 287.402 319.433 283.981 324.493C276.572 335.452 271.143 346.962 268.613 357.076C266.14 366.962 265.479 368.061 256.008 378.048C244.996 389.659 231.761 408.256 224.789 421.914C221.64 428.085 218.604 433.683 218.043 434.355C217.483 435.027 214.328 440.639 211.032 446.826C207.736 453.012 203.069 461.691 200.66 466.111C195.843 474.951 189.822 488.929 187.62 496.387C185.38 503.972 185.698 505.944 189.789 509.815C193.556 513.381 197.06 514.195 199.642 512.105C202.289 509.964 218.359 480.438 220.32 474.114C223.468 463.963 226.387 459.291 235.782 449.367C244.732 439.912 284.014 417.055 291.311 417.055C294.208 417.055 296.155 418.398 296.155 420.397C296.155 421.552 291.853 430.944 290.009 433.816C289.542 434.543 287.463 438.116 285.39 441.755C283.317 445.393 280.098 450.055 278.236 452.113C273.294 457.576 264.702 470.892 259.592 481.01C257.142 485.861 254.002 491.475 252.615 493.485C251.228 495.495 247.689 501.999 244.75 507.94C240.243 517.049 239.406 519.478 239.406 523.441C239.406 528.741 240.792 530.16 245.613 529.794C247.803 529.628 248.784 528.815 250.682 525.588C251.976 523.388 257.78 514.454 263.579 505.735C269.979 496.111 276.051 485.712 279.031 479.271C286.224 463.721 293.169 451.116 298.188 444.499C307.056 432.809 310.373 430.581 312.118 435.146C312.583 436.362 313.428 441.622 313.997 446.834C314.928 455.369 314.838 457.58 313.085 469.101C310.02 489.249 309.03 492.179 302.205 501.327C300.384 503.769 295.923 511.959 292.292 519.529C288.661 527.098 285.329 533.436 284.886 533.614C284.443 533.792 282.72 535.922 281.057 538.348C278.233 542.467 264.68 558.983 263.321 559.96C262.984 560.203 261.999 561.791 261.133 563.489C257.187 571.224 240.473 594.747 233.57 602.279C225.105 611.517 222.369 615.226 218.257 623.033C215.072 629.08 214.958 629.988 216.82 634.423C218.778 639.083 221.379 639.988 226.215 637.689C234.699 633.657 242.702 625.444 247.813 615.523C248.941 613.334 252.013 608.769 254.639 605.379C257.266 601.989 262.781 594.306 266.896 588.306C271.011 582.306 275.65 576.431 277.205 575.251C280.669 572.622 291.854 569.094 299.164 568.325C305.659 567.641 319.428 569.81 324.934 572.385C332.829 576.077 334.427 582.56 332.602 603.5C331.028 621.572 327.123 636.858 320.803 649.686C317.884 655.613 314.228 662.559 312.68 665.124C311.131 667.688 309.018 671.817 307.984 674.3L306.104 678.814L309.155 680.262L312.206 681.709L316.854 677.335C328.228 666.634 345.895 660.687 368.42 659.978C374.76 659.779 380.46 659.43 381.086 659.203C383.525 658.32 410.523 660.737 421.539 662.825C427.924 664.035 438.734 666.012 445.562 667.217C452.389 668.422 461.693 670.395 466.236 671.6C470.779 672.806 478.668 674.459 483.766 675.275C494.533 676.998 499.164 676.406 508.29 672.139C511.341 670.713 515.832 669.339 518.271 669.086C520.709 668.834 527.293 667.76 532.901 666.701C540.372 665.289 544.876 664.908 549.748 665.273C553.406 665.548 558.792 665.379 561.718 664.897C564.644 664.415 569.939 663.777 573.485 663.478L579.932 662.935L579.397 659.745C577.852 650.536 569.812 630.417 560.818 613.256C553.029 598.393 551.901 595.15 546.259 571.428C544.356 563.423 541.34 552.109 539.558 546.287C534.918 531.128 532.576 511.834 533.188 493.801C534.051 468.358 535.288 465.571 550.844 454.021C570.398 439.503 570.806 439.42 611.373 441.827C627.466 442.782 642.83 443.912 645.515 444.339C652.352 445.427 660.214 448.321 663.875 451.099C668.997 454.986 669.735 457.958 669.225 472.629C668.838 483.746 668.425 486.517 666.068 493.801C662.805 503.886 660.951 511.246 660.181 517.177C659.119 525.358 652.654 563.002 650.482 573.652C649.297 579.464 647.675 589.379 646.878 595.687C646.081 601.994 644.612 612.712 643.613 619.504C641.818 631.715 641.755 644.882 643.419 659.468C643.889 663.58 644.178 664.114 645.811 663.879C647.133 663.688 647.854 662.721 648.315 660.523C657.641 616.028 660.06 608.619 672.363 586.865C681.927 569.956 684.65 566.056 697.021 551.557C720.411 524.142 733.087 512.578 748.135 504.929C756.333 500.761 775.989 499.736 786.143 502.947C792.303 504.895 798.63 510.598 801.305 516.615C804.281 523.31 804.747 530.435 802.931 541.47C799.654 561.385 797.414 567.082 782.487 593.481C779.333 599.061 775.383 606.206 773.711 609.36C772.038 612.513 768.345 618.145 765.504 621.875C762.662 625.605 757.363 632.552 753.727 637.312C746.203 647.165 738.291 655.09 730.416 660.661C723.527 665.533 718.526 669.944 719.166 670.581C719.955 671.366 751.547 676.293 764.976 677.726C771.69 678.442 783.369 679.411 790.928 679.879C798.487 680.347 811.455 681.388 819.745 682.192C838.431 684.005 853.627 683.56 876.494 680.53C905.408 676.699 933.589 673.577 949.646 672.426C967.673 671.135 995.772 664.634 1018.8 656.427C1024.9 654.252 1037.47 648.758 1046.74 644.216C1056 639.675 1068.57 634.12 1074.67 631.872C1080.76 629.623 1095.33 623.6 1107.03 618.487C1118.74 613.374 1130.91 608.061 1134.08 606.68C1149.53 599.954 1181.85 588.824 1223.19 575.999C1270.38 561.358 1289 555.253 1293.77 552.858C1313.75 542.824 1360.46 510.498 1364.11 504.174C1365.03 502.593 1368.4 497.131 1371.61 492.036L1377.45 482.774L1377.77 475.12C1378.13 466.358 1378.26 466.842 1368.65 439.99C1364.92 429.559 1359.14 413.284 1355.8 403.823C1352.46 394.362 1348.9 384.805 1347.89 382.586C1346.88 380.366 1343.86 370.641 1341.18 360.974C1337.21 346.691 1328.73 322.841 1327 321.12C1326.48 320.6 1317.59 323.924 1310.97 327.111C1288.17 338.098 1282.43 339.532 1259.1 340.065C1226.98 340.8 1206.61 338.564 1195.9 333.127C1186.75 328.484 1178.41 317.293 1178.41 309.659C1178.41 301.848 1182.32 297.215 1192.08 293.462C1198.77 290.89 1199.81 290.735 1207.67 291.144C1214.86 291.518 1217.66 292.164 1226.74 295.553C1232.59 297.738 1239.97 300.763 1243.14 302.277L1248.9 305.029L1249.45 300.823C1250.27 294.463 1254.51 286.6 1258.22 284.555C1264.41 281.147 1274.14 283.945 1291.7 294.183L1295.49 296.389L1299.43 293.176C1301.6 291.409 1304.8 288.23 1306.54 286.111L1309.71 282.26L1304.24 274.456C1301.23 270.163 1297.21 264.798 1295.31 262.532L1291.86 258.413L1286.43 260.611C1283.3 261.876 1274.57 263.872 1265.83 265.317C1257.5 266.697 1246.68 268.836 1241.8 270.069C1222.21 275.014 1205.1 276.411 1199.06 273.559C1194.59 271.452 1192.47 267.648 1192.79 262.317L1193.04 257.983L1188.13 256.352C1178.7 253.219 1172.89 246.114 1172.89 237.723C1172.89 232.838 1174.59 229.918 1179.29 226.735C1181.86 224.995 1183.34 224.75 1191.33 224.75C1199.22 224.75 1201.9 225.181 1211.37 227.966C1217.38 229.735 1224.9 231.883 1228.07 232.74C1231.24 233.597 1237.37 235.325 1241.69 236.581C1252.68 239.775 1258.7 239.651 1265.4 236.095C1268.28 234.572 1270.63 233.046 1270.63 232.703C1270.63 232.361 1269.77 231.325 1268.73 230.4C1267.69 229.476 1264.08 225.621 1260.71 221.834L1254.59 214.948L1228.25 214.695C1209.68 214.517 1198.04 213.972 1188.79 212.849L1175.68 211.256L1173 213.813C1171.52 215.219 1168.64 218.686 1166.6 221.516C1156.85 235.047 1149.06 244.137 1145.36 246.294C1134.61 252.561 1121.66 245.325 1121.66 233.053C1121.66 230.67 1122.69 224.611 1123.93 219.59C1127.05 207.029 1126.96 206.686 1119.33 202.094C1112.42 197.933 1102.53 188.152 1100.12 183.103C1095.01 172.386 1099.2 161.282 1109.39 158.553C1116.23 156.72 1124.74 159.357 1140.28 168.134C1145.89 171.3 1151.48 174.56 1152.7 175.378C1153.92 176.197 1157.71 177.872 1161.12 179.101C1164.54 180.33 1167.98 181.601 1168.77 181.925C1169.81 182.348 1170.76 181.647 1172.11 179.469C1177.57 170.683 1190.21 166.352 1197.25 170.852C1202.14 173.978 1208.82 176.862 1212.68 177.506C1217.81 178.366 1238.73 174.628 1238.69 172.857C1238.67 171.763 1237.41 170.493 1231.69 165.797C1225.67 160.849 1222.53 159.01 1212.55 154.573C1205.89 151.615 1187.86 139.87 1182.99 135.328C1181.36 133.81 1179.11 130.98 1177.97 129.039C1175.99 125.648 1170.42 106.559 1170.45 103.281C1170.46 102.408 1169.37 98.3974 1168.03 94.3697C1165.72 87.4171 1165.38 86.9087 1161.14 84.3219C1158.69 82.8234 1154.29 79.5448 1151.37 77.0361C1148.44 74.5275 1144.03 71.0299 1141.55 69.2638C1136.18 65.4229 1129.49 58.4747 1127.52 54.6813C1125.78 51.3373 1125.68 44.8585 1127.29 41.0042C1130.22 34.0486 1140.36 29.1607 1150.05 30.0353C1158.32 30.7815 1159.72 31.8023 1173.03 46.8362C1175.96 50.1419 1179.83 55.3024 1181.64 58.3039C1187.48 68.0182 1188.09 68.7135 1189.93 67.7347C1190.84 67.2526 1192.55 64.7455 1193.74 62.1635C1197.46 54.0707 1205.94 47.4418 1212.56 47.4418C1219.64 47.4418 1225.46 53.2977 1226.11 61.0796C1226.32 63.6587 1226.01 67.2414 1225.41 69.0412C1223.83 73.8171 1213.68 84.1219 1207.51 87.2213C1200.83 90.5734 1200.27 92.5048 1204.15 98.8029C1207.81 104.73 1214.87 112.886 1217.61 114.348C1219.52 115.361 1220.4 115.099 1226.34 111.76C1236.52 106.034 1238.71 104.047 1241.36 98.183C1245.81 88.3027 1248.8 75.9963 1248.85 67.2897C1248.9 59.5743 1248.81 59.1889 1245.42 53.6167C1243.35 50.2095 1237.76 43.7663 1231.65 37.7383C1219.85 26.0995 1217.38 23.0245 1215.23 17.301C1213.95 13.8755 1213.87 12.6542 1214.74 10.0372C1216.19 5.67148 1219.46 3.33517 1224.12 3.33517C1227.33 3.33517 1228.64 3.94144 1232.54 7.25774C1239.77 13.3983 1242.16 14.2213 1251.22 13.707C1258.72 13.2817 1259.2 13.1239 1264.59 9.30301C1274.74 2.11541 1277.84 0.981772 1289.31 0.279946C1297.52 -0.222474 1300.21 -0.0828982 1302.77 0.978914C1306.86 2.68252 1309.19 6.22561 1309.07 10.6008C1308.91 16.7454 1303.67 20.284 1291.85 22.2377C1288.69 22.7606 1279.55 29.927 1277.73 33.3131C1276.68 35.2698 1279.09 42.9313 1280.98 43.6552C1281.69 43.9232 1283.33 43.1768 1284.65 41.9966C1288.15 38.8446 1293.53 35.4422 1298.56 33.1916C1301.93 31.683 1304.7 31.1985 1310.15 31.1656C1316.51 31.1271 1317.71 31.3921 1320.99 33.5444C1327.2 37.633 1329.34 44.636 1326.21 50.6505C1324.15 54.6242 1320.97 56.2707 1313.81 57.0806C1302.52 58.3576 1288.57 66.8996 1286.58 73.7469C1286.07 75.5323 1285.4 82.5883 1285.1 89.4269L1284.55 101.861L1286.65 102.405C1289.11 103.044 1290.42 102.01 1295.54 95.4144L1299.17 90.7218L1297.34 88.3992C1293.19 83.1483 1294.18 74.3083 1299.27 71.2204C1300.83 70.2751 1303.41 69.5002 1305.01 69.4984C1310.49 69.4923 1323.64 77.4639 1330.26 84.8059C1333.55 88.4649 1333.55 92.8979 1330.26 96.9465C1325.58 102.688 1324.24 104.017 1319.59 107.523C1312.56 112.821 1303.02 128.173 1299.36 140.066C1297.54 145.956 1297.59 146.032 1302.49 145.563C1308.49 144.99 1313.28 147.447 1321.86 155.496C1335.57 168.374 1337.94 176.533 1331.71 189.465C1329.96 193.104 1326.87 198.059 1324.85 200.475C1322.82 202.892 1321.17 205.283 1321.17 205.788C1321.17 207.333 1326.58 213.333 1327.47 212.782C1327.93 212.498 1330.06 208.805 1332.19 204.576C1334.33 200.347 1337.83 194.721 1339.98 192.073C1342.13 189.426 1345.21 185.336 1346.82 182.986C1350.56 177.517 1359.16 171.822 1363.67 171.822C1368.86 171.822 1372.93 175.285 1373.93 180.556C1374.37 182.892 1373.93 184.651 1371.91 188.496C1370.48 191.212 1368.8 195.618 1368.16 198.286C1366.84 203.827 1365.29 207.307 1359.67 217.252C1357.48 221.134 1354.84 226.628 1353.8 229.463C1352.04 234.238 1351.98 235.186 1352.94 242.354C1353.51 246.609 1353.98 251.155 1353.98 252.456C1353.98 253.988 1355.49 256.627 1358.27 259.958C1360.64 262.784 1364.41 268.449 1366.65 272.547C1368.9 276.644 1372.92 283.458 1375.59 287.689C1378.26 291.92 1381.54 298.245 1382.89 301.746C1384.23 305.247 1388.03 313.145 1391.34 319.296C1394.64 325.448 1399.18 334.126 1401.43 338.581L1405.52 346.682L1407.62 344.718C1410.41 342.111 1415.55 332.117 1416.85 326.754C1418.01 322.011 1417.61 317.806 1415.04 307.23C1412.93 298.58 1412.45 297.323 1406.66 285.176C1400.71 272.711 1381.39 245.48 1374.09 239.28C1372.05 237.544 1368.29 233.738 1365.72 230.822C1361.72 226.266 1361.07 225.009 1361.07 221.885C1361.07 217.166 1363.89 211.441 1367.17 209.514C1371.83 206.776 1377.31 207.559 1387.23 212.382C1395.21 216.264 1396.2 216.55 1397.2 215.26C1399.13 212.765 1398.45 210.124 1393.01 199.136C1390.1 193.243 1387.03 186.262 1386.19 183.623C1384.82 179.305 1383.7 177.967 1374.98 170.251C1362.78 159.449 1362.12 159.022 1353.53 156.356C1349.63 155.144 1343.85 152.713 1340.68 150.954C1337.51 149.195 1332.3 146.323 1329.11 144.572C1321.23 140.241 1319.94 139.23 1317.75 135.655C1315.31 131.681 1315.25 125.621 1317.6 121.788C1319.54 118.613 1325.33 114.13 1330.04 112.15C1332.56 111.091 1335.97 110.948 1348.21 111.389C1356.5 111.689 1364.23 112.129 1365.38 112.367L1367.47 112.801L1366.82 105.483C1366.17 98.2236 1366.13 98.1248 1361.62 93.2785C1359.12 90.5912 1355.72 85.8277 1354.05 82.6929C1352.39 79.5581 1349.47 74.6897 1347.56 71.8744C1341.46 62.8735 1340.12 57.1828 1342.85 51.9276C1344.09 49.5527 1348.9 46.5596 1351.48 46.5596C1352.15 46.5596 1355.61 47.949 1359.17 49.6471C1362.73 51.3452 1365.81 52.7346 1366 52.7346C1366.19 52.7346 1366.31 48.1203 1366.25 42.4808L1366.16 32.227L1370.47 23.7355C1375.86 13.1361 1380.39 8.3888 1386.53 6.92423C1392.43 5.51695 1397.26 6.80342 1401.97 11.035C1407.89 16.3632 1408.04 16.9808 1408.98 40.7696C1409.45 52.6049 1410.16 63.1411 1410.54 64.1833C1411.24 66.0442 1411.37 66.0136 1418.07 62.4835C1431.4 55.4548 1443.32 52.0888 1449.18 53.698C1456.45 55.6954 1459.04 63.6436 1454.39 69.7316C1451.07 74.0888 1448.42 75.9986 1439.81 80.2184C1429.27 85.3843 1422.81 89.6674 1420.51 93.0055C1419.41 94.6021 1417.27 99.3932 1415.75 103.652C1413.15 110.916 1412.98 112.163 1412.98 123.746C1412.98 136.06 1412.99 136.128 1416.85 147.123C1418.98 153.187 1421.02 158.546 1421.37 159.031C1421.72 159.517 1423.3 163.685 1424.88 168.294C1428.02 177.442 1437.25 195.202 1438.3 194.113C1440.91 191.42 1443.08 169.207 1440.86 167.845C1440.36 167.541 1439.12 165.632 1438.1 163.603C1437.08 161.574 1435.39 158.995 1434.36 157.873C1431.76 155.058 1431.83 147.375 1434.49 141.497C1436.81 136.384 1436.95 131.603 1435.01 124.07C1432.21 113.183 1435.27 104.228 1442.54 102.061C1447.23 100.664 1451.82 102.833 1454.26 107.602C1457.18 113.293 1459.69 126.435 1459.08 132.843C1458.7 136.74 1458.98 139.969 1460.01 143.599C1461.27 148.077 1462.34 149.627 1467.83 154.925C1473.25 160.148 1474.55 160.994 1476.6 160.606L1479 160.149V171.607C1479 181.006 1478.69 183.76 1477.29 186.927C1473.65 195.135 1468.3 215.535 1467.37 224.75C1466.85 229.845 1465.73 239.769 1464.86 246.804L1463.3 259.595L1468.6 272.385C1471.51 279.42 1474.59 286.169 1475.43 287.382C1478.15 291.305 1479 295.408 1478.99 304.494C1478.98 317.842 1477.84 322.819 1469.72 344.749C1461.18 367.8 1459.89 370.546 1455.7 374.549L1452.64 377.473L1453.8 382.929C1454.43 385.93 1455.61 389.974 1456.42 391.914C1458.88 397.858 1465.19 408.211 1466.36 408.223C1468.04 408.239 1473.33 399.707 1475.94 392.796C1477.22 389.4 1478.43 386.456 1478.63 386.254C1478.83 386.052 1479 547.912 1479 745.943H739.5H3.10733L0 654.388ZM7.16353 319.506C7.20607 318.478 7.41618 318.269 7.69924 318.973C7.95537 319.61 7.92387 320.371 7.62923 320.664C7.33459 320.957 7.12503 320.436 7.16353 319.506Z" fill="#8659A4"/>
</svg>
