<svg width="223" height="379" viewBox="0 0 223 379" fill="none" xmlns="http://www.w3.org/2000/svg">
<path d="M56.6981 252.5C89.0739 229.756 108.325 130.076 88.8419 109.756C65.9169 118.479 41.153 118.244 18.2609 108.081C8.33922 103.677 11.2323 91.4026 21.7787 88.8308C29.622 86.9182 36.8536 84.3248 41.8086 80.061C52.3024 71.0309 61.096 68.6386 81.7099 72.2965C77.7724 71.5538 71.2154 45.9405 81.8527 32.9158C92.49 19.8912 81.144 0.470162 91.485 0.328595C101.826 0.187029 118.899 14.0045 122.429 42.5882C123.186 58.6157 122.567 67.2574 117.663 81.4013C139.58 94.5837 180.542 112.008 200.66 150.686C248.826 235.677 213.844 331.698 115.879 367.28C129.701 275.639 114.33 298.74 56.6981 245.132C64.0698 241.237 47.7731 258.893 56.6981 252.5Z" fill="url(#paint0_linear_984_618)"/>
<path d="M115.879 367.28C69.9673 382.925 42.3117 381.704 0.388566 363.896L5.04069 263.433C23.5897 261.016 42.8596 252.444 56.6981 245.132C114.33 298.74 129.701 275.639 115.879 367.28Z" fill="url(#paint1_radial_984_618)"/>
<defs>
<linearGradient id="paint0_linear_984_618" x1="119.158" y1="252.667" x2="225.635" y2="207.977" gradientUnits="userSpaceOnUse">
<stop stop-color="#264769"/>
<stop offset="0.815" stop-color="#18334D"/>
</linearGradient>
<radialGradient id="paint1_radial_984_618" cx="0" cy="0" r="1" gradientUnits="userSpaceOnUse" gradientTransform="translate(-6.73399 272.855) rotate(-19.6467) scale(128.712 1003.62)">
<stop stop-color="#DDC9C2"/>
<stop offset="1" stop-color="#264769"/>
</radialGradient>
</defs>
</svg>
