<svg width="450" height="360" viewBox="0 0 450 360" fill="none" xmlns="http://www.w3.org/2000/svg">
<path fill-rule="evenodd" clip-rule="evenodd" d="M4.61785 93.0215C-2.09547 155.104 -1.79615 226.706 7.54555 288.535C12.7146 322.748 40.7687 348.975 75.3986 351.973L111.59 355.102C187.053 361.633 262.945 361.633 338.411 355.102L374.602 351.973C409.232 348.975 437.285 322.748 442.454 288.535C451.795 226.706 452.097 155.109 445.382 93.025C444.515 85.8277 443.539 78.6401 442.454 71.4644C437.285 37.2523 409.232 11.0242 374.602 8.02801L338.411 4.89679C262.945 -1.63226 187.053 -1.63226 111.59 4.89679L75.3986 8.02801C40.7687 11.0242 12.7146 37.2523 7.54555 71.4644C6.46166 78.6386 5.48584 85.8253 4.61785 93.0215ZM114.703 40.5395C188.096 34.1896 261.903 34.1896 335.295 40.5395L371.489 43.6707C389.565 45.2346 404.209 58.9258 406.908 76.7844C407.188 78.6391 407.461 80.4945 407.725 82.3509L274.46 156.039C243.7 173.047 206.299 173.047 175.537 156.039L42.2742 82.3518C42.5392 80.4952 42.8119 78.6394 43.0921 76.7844C45.7904 58.9258 60.4347 45.2346 78.5116 43.6707L114.703 40.5395ZM412.125 120.846C416.774 174.934 415.034 229.432 406.908 283.214C404.209 301.074 389.565 314.765 371.489 316.329L335.298 319.461C261.903 325.81 188.096 325.81 114.703 319.461L78.5116 316.329C60.4347 314.765 45.7904 301.074 43.0921 283.214C34.9661 229.432 33.2272 174.936 37.8756 120.847L158.08 187.313C199.697 210.325 250.302 210.325 291.918 187.313L412.125 120.846Z" fill="#7E73A5"/>
</svg>
