<svg width="409" height="293" viewBox="0 0 409 293" fill="none" xmlns="http://www.w3.org/2000/svg">
<g opacity="0.7">
<g filter="url(#filter0_f_141_420)">
<path d="M68.2462 66.0111C92.6297 59.1509 106.411 54.2879 128.24 41.4087C129.436 40.703 130.845 40.4285 132.222 40.6097C141.892 41.8826 148.626 41.5001 156.478 39.8029C160.73 38.8838 161.599 33.1857 157.779 31.1035C153.977 29.0313 153.046 23.5845 155.591 20.0813C155.841 19.7363 156.085 19.3849 156.322 19.0254C158.765 15.3208 155.307 10.8846 150.955 11.7515C142.227 13.4899 136.074 16.1111 127.404 20.2439C126.671 20.5934 125.864 20.7928 125.053 20.8284C75.7634 22.9895 42.6088 29.3083 10.1347 41.5531C5.96745 43.1244 5.061 48.5585 8.55672 51.318C26.1164 65.1796 40.1713 69.514 67.3546 66.1903C67.652 66.1539 67.9578 66.0923 68.2462 66.0111Z" fill="#A1A0B9" fill-opacity="0.6"/>
</g>
<g filter="url(#filter1_f_141_420)">
<path d="M198.56 130.877C223.082 126.237 237.033 122.646 259.559 111.885C260.812 111.286 262.239 111.135 263.595 111.436C272.967 113.51 279.607 113.712 287.456 112.721C291.711 112.184 293.053 106.662 289.481 104.289C285.926 101.927 285.479 96.4983 288.279 93.2766C288.555 92.9593 288.824 92.6351 289.088 92.3024C291.806 88.8742 288.791 84.2204 284.442 84.6978C275.726 85.6546 269.461 87.6982 260.6 91.0084C259.839 91.2927 259.018 91.4209 258.207 91.3856C209.69 89.2775 176.614 92.6229 143.718 101.829C139.429 103.029 138.051 108.363 141.296 111.413C157.305 126.463 170.735 131.903 197.657 130.978C197.956 130.968 198.266 130.933 198.56 130.877Z" fill="#A1A0B9" fill-opacity="0.6"/>
</g>
<g filter="url(#filter2_f_141_420)">
<path d="M71.7351 188.103C99.3263 192.028 115.088 193.415 142.435 191.253C143.598 191.162 144.772 191.409 145.804 191.952C155.58 197.097 162.731 199.437 171.844 201.138C175.76 201.868 178.446 197.378 175.722 194.472C172.96 191.527 174.089 186.13 177.717 184.359C178.096 184.175 178.47 183.982 178.84 183.781C182.386 181.856 181.27 176.857 177.329 175.993C167.236 173.783 159.848 173.538 148.98 173.568C148.302 173.57 147.616 173.455 146.975 173.233C96.8381 155.874 61.19 148.13 24.0576 145.505C19.2873 145.167 16.2109 150.342 18.9337 154.273C30.9782 171.664 43.5743 180.432 71.7351 188.103Z" fill="#A1A0B9" fill-opacity="0.6"/>
</g>
<g filter="url(#filter3_f_141_420)">
<path d="M186.19 281.605C210.988 279.283 225.246 276.886 248.66 267.484C250.11 266.902 251.73 266.903 253.192 267.453C261.984 270.762 268.438 271.79 276.058 271.662C280.8 271.582 283.228 265.94 279.805 262.657C279.697 262.554 279.59 262.452 279.482 262.351C276.1 259.181 276.017 253.334 279.236 249.998C279.909 249.301 280.552 248.566 281.181 247.776C283.871 244.395 281.3 239.626 276.98 239.623C268.011 239.617 261.513 241.173 252.258 243.881C251.377 244.139 250.437 244.192 249.531 244.039C201.068 235.847 167.637 235.778 133.623 242.446C129.47 243.26 127.582 248.07 130.107 251.466C144.89 271.342 157.653 279.403 185.16 281.612C185.499 281.639 185.852 281.636 186.19 281.605Z" fill="#A1A0B9" fill-opacity="0.6"/>
</g>
<g filter="url(#filter4_f_141_420)">
<path d="M304.594 209.097C329.202 203.092 343.145 198.713 365.41 186.603C366.63 185.94 368.048 185.715 369.418 185.944C379.037 187.553 385.78 187.406 393.687 185.984C397.968 185.214 399.035 179.55 395.291 177.335C391.564 175.132 390.823 169.656 393.488 166.243C393.751 165.907 394.006 165.565 394.256 165.214C396.827 161.597 393.526 157.042 389.146 157.757C380.363 159.19 374.123 161.595 365.313 165.422C364.568 165.746 363.755 165.917 362.943 165.924C313.608 166.364 280.253 171.522 247.372 182.626C243.152 184.051 242.057 189.45 245.454 192.33C262.519 206.796 276.414 211.618 303.697 209.245C303.995 209.219 304.303 209.168 304.594 209.097Z" fill="#A1A0B9" fill-opacity="0.6"/>
</g>
</g>
<defs>
<filter id="filter0_f_141_420" x="-4.90303" y="0.341693" width="176.413" height="78.2121" filterUnits="userSpaceOnUse" color-interpolation-filters="sRGB">
<feFlood flood-opacity="0" result="BackgroundImageFix"/>
<feBlend mode="normal" in="SourceGraphic" in2="BackgroundImageFix" result="shape"/>
<feGaussianBlur stdDeviation="5.65" result="effect1_foregroundBlur_141_420"/>
</filter>
<filter id="filter1_f_141_420" x="128.205" y="73.3638" width="174.632" height="69.0138" filterUnits="userSpaceOnUse" color-interpolation-filters="sRGB">
<feFlood flood-opacity="0" result="BackgroundImageFix"/>
<feBlend mode="normal" in="SourceGraphic" in2="BackgroundImageFix" result="shape"/>
<feGaussianBlur stdDeviation="5.65" result="effect1_foregroundBlur_141_420"/>
</filter>
<filter id="filter2_f_141_420" x="6.61357" y="134.189" width="185.663" height="78.3279" filterUnits="userSpaceOnUse" color-interpolation-filters="sRGB">
<feFlood flood-opacity="0" result="BackgroundImageFix"/>
<feBlend mode="normal" in="SourceGraphic" in2="BackgroundImageFix" result="shape"/>
<feGaussianBlur stdDeviation="5.65" result="effect1_foregroundBlur_141_420"/>
</filter>
<filter id="filter3_f_141_420" x="117.667" y="226.353" width="175.913" height="66.5779" filterUnits="userSpaceOnUse" color-interpolation-filters="sRGB">
<feFlood flood-opacity="0" result="BackgroundImageFix"/>
<feBlend mode="normal" in="SourceGraphic" in2="BackgroundImageFix" result="shape"/>
<feGaussianBlur stdDeviation="5.65" result="effect1_foregroundBlur_141_420"/>
</filter>
<filter id="filter4_f_141_420" x="232.146" y="146.382" width="176.735" height="74.7391" filterUnits="userSpaceOnUse" color-interpolation-filters="sRGB">
<feFlood flood-opacity="0" result="BackgroundImageFix"/>
<feBlend mode="normal" in="SourceGraphic" in2="BackgroundImageFix" result="shape"/>
<feGaussianBlur stdDeviation="5.65" result="effect1_foregroundBlur_141_420"/>
</filter>
</defs>
</svg>
