<svg width="34" height="34" viewBox="0 0 34 34" fill="none" xmlns="http://www.w3.org/2000/svg">
<path d="M30.2222 0C31.2241 0 32.185 0.398015 32.8935 1.10649C33.602 1.81496 34 2.77585 34 3.77778V30.2222C34 31.2241 33.602 32.185 32.8935 32.8935C32.185 33.602 31.2241 34 30.2222 34H3.77778C2.77585 34 1.81496 33.602 1.10649 32.8935C0.398015 32.185 0 31.2241 0 30.2222V3.77778C0 2.77585 0.398015 1.81496 1.10649 1.10649C1.81496 0.398015 2.77585 0 3.77778 0H30.2222ZM29.2778 29.2778V19.2667C29.2778 17.6335 28.629 16.0673 27.4742 14.9125C26.3194 13.7577 24.7531 13.1089 23.12 13.1089C21.5144 13.1089 19.6444 14.0911 18.7378 15.5644V13.4678H13.4678V29.2778H18.7378V19.9656C18.7378 18.5111 19.9089 17.3211 21.3633 17.3211C22.0647 17.3211 22.7373 17.5997 23.2332 18.0956C23.7292 18.5916 24.0078 19.2642 24.0078 19.9656V29.2778H29.2778ZM7.32889 10.5022C8.17051 10.5022 8.97766 10.1679 9.57277 9.57277C10.1679 8.97766 10.5022 8.17051 10.5022 7.32889C10.5022 5.57222 9.08556 4.13667 7.32889 4.13667C6.48226 4.13667 5.6703 4.47299 5.07165 5.07165C4.47299 5.6703 4.13667 6.48226 4.13667 7.32889C4.13667 9.08556 5.57222 10.5022 7.32889 10.5022ZM9.95444 29.2778V13.4678H4.72222V29.2778H9.95444Z" fill="white"/>
</svg>
