<svg width="699" height="689" viewBox="0 0 699 689" fill="none" xmlns="http://www.w3.org/2000/svg">
<path d="M265.808 385.659C250.888 341.012 170.61 322.593 170.61 322.593C170.61 322.593 177.559 275.655 201.161 257.345C225.867 238.179 260.458 230.949 260.458 230.949C260.458 230.949 338.04 274.622 359.583 318.66C387.096 374.906 385.853 482.725 385.853 482.725C385.853 482.725 398.882 472.643 417.15 477.12C441.175 483.008 459.762 514.631 452.255 506.251C444.748 497.872 422.621 501.094 422.621 501.094C422.621 501.094 416.385 513.665 406.51 513.895C392.836 514.214 387.073 509.582 384.49 511.112C382.004 512.584 380.675 521.423 376.131 529.544C371.587 537.664 347.739 553.054 347.739 553.054C347.739 553.054 331.824 564.645 333.636 574.067C335.449 583.489 324.987 544.552 329.403 527.441C334.044 509.457 362.872 500.752 362.872 500.752C362.872 500.752 294.076 470.245 265.808 385.659Z" fill="url(#paint0_linear_951_580)"/>
<path d="M273.318 185.792C273.318 185.792 334.378 233.122 365.807 271.018C404.273 317.397 443.745 404.372 443.745 404.372C443.745 404.372 462.153 392.551 479.607 389.582C491.59 387.543 514.416 392.262 522.807 394.088C523.479 394.118 524.087 394.204 524.62 394.355C527.133 395.067 526.045 394.793 522.807 394.088C512.105 393.622 485.167 407.687 485.167 407.687C485.167 407.687 481.022 420.77 473.072 424.482C465.121 428.195 455.614 428.052 454.125 430.335C452.579 432.707 455.868 434.536 455.176 447.754C454.676 457.299 445.508 464.796 445.508 464.796C445.508 464.796 438.394 494.23 444.287 504.159C446.856 507.175 447.769 508.038 445.422 505.655C444.999 505.225 444.622 504.724 444.287 504.159C438.253 497.075 423.085 478.112 419.582 461.44C415.784 443.366 425.732 425.102 425.732 425.102C425.732 425.102 329.468 407.799 276.063 376.379C234.248 351.778 180.495 296.038 180.495 296.038C180.495 296.038 197.187 251.595 216.347 229.291C234.649 207.984 273.318 185.792 273.318 185.792Z" fill="url(#paint1_linear_951_580)"/>
<path d="M354.827 253.319C306.998 257.014 258.804 191.721 258.804 191.721C258.804 191.721 234.417 228.585 209.012 244.315C178.999 262.897 178.999 285.42 178.999 285.42C178.999 285.42 277.862 361.069 327.66 363.577C391.26 366.781 492.449 324.259 492.449 324.259C492.449 324.259 487.945 339.875 499.182 354.624C513.958 374.019 550.914 378.631 540.13 375.082C529.347 371.533 523.888 350.35 523.888 350.35C523.888 350.35 533.347 339.901 529.772 330.911C524.822 318.462 518.242 315.046 518.693 312.131C519.127 309.324 526.951 304.732 532.863 297.518C538.775 290.303 544.129 262.896 544.129 262.896C544.129 262.896 548.947 244.099 558.528 242.115C568.108 240.131 527.376 245.652 512.936 256.203C497.761 267.292 500.622 296.621 500.622 296.621C500.622 296.621 445.439 246.32 354.827 253.319Z" fill="url(#paint2_linear_951_580)"/>
<defs>
<linearGradient id="paint0_linear_951_580" x1="237.428" y1="512.819" x2="373.403" y2="303.749" gradientUnits="userSpaceOnUse">
<stop stop-color="#60CDF9"/>
<stop offset="1" stop-color="#164354"/>
</linearGradient>
<linearGradient id="paint1_linear_951_580" x1="211.614" y1="256.971" x2="490.897" y2="482.607" gradientUnits="userSpaceOnUse">
<stop stop-color="#FF9B84"/>
<stop offset="1" stop-color="#995D4F"/>
</linearGradient>
<linearGradient id="paint2_linear_951_580" x1="221.959" y1="228.352" x2="628.665" y2="411.527" gradientUnits="userSpaceOnUse">
<stop stop-color="#2E9736"/>
<stop offset="1" stop-color="#123215"/>
</linearGradient>
</defs>
</svg>
