<svg width="359" height="464" viewBox="0 0 359 464" fill="none" xmlns="http://www.w3.org/2000/svg">
<path d="M278.641 164.806C278.641 164.806 73.774 120.553 112.43 159.804C151.087 199.055 65.714 273.054 71.7829 309.89C77.8518 346.725 258.39 359.942 258.39 359.942C258.39 359.942 291.367 328.124 298.737 257.111C306.107 186.098 278.641 164.806 278.641 164.806Z" fill="#937268"/>
<path d="M124.168 315.161L166.124 355.094C166.124 355.094 134.584 395.725 106.543 407.017C66.677 423.071 0.343121 397.579 0.942014 393.092C1.54091 388.604 42.1168 378.059 66.046 363.071C90.7891 347.572 124.168 315.161 124.168 315.161Z" fill="url(#paint0_linear_3001_590)"/>
<path d="M161.178 313.841L198.753 334.507L175.025 377.65L109.791 303.241L141.283 285.239L161.178 313.841Z" fill="url(#paint1_linear_3001_590)"/>
<g filter="url(#filter0_f_3001_590)">
<ellipse cx="46.7289" cy="72.8763" rx="46.7289" ry="72.8763" transform="matrix(-0.932006 -0.362444 -0.362444 0.932006 253.3 201.14)" fill="#DBCAC6" fill-opacity="0.5"/>
</g>
<path d="M72.3104 258.168C52.1751 276.116 27.2205 336.589 27.2205 336.589L78.0317 372.41C78.0317 372.41 160.817 310.981 143.786 279.04C134.432 261.498 92.4458 240.219 72.3104 258.168Z" fill="url(#paint2_linear_3001_590)"/>
<path d="M177.717 417.759C177.717 417.759 236.341 405.782 263.413 354.842C290.485 303.902 197.066 261.926 175.587 289.055C154.109 316.184 127.632 369.674 127.632 369.674L177.717 417.759Z" fill="url(#paint3_linear_3001_590)"/>
<path d="M190.415 422.169C218.975 411.679 227.819 385.842 219.591 360.305C210.212 331.198 173.567 318.463 146.933 332.814C124.871 344.701 116.056 383.083 121.543 392.224C127.03 401.365 161.855 432.659 190.415 422.169Z" fill="url(#paint4_radial_3001_590)"/>
<path d="M85.3872 367.449C109.521 355.242 114.411 330.342 104.191 307.158C92.5419 280.731 58.5782 271.904 36.5943 287.559C18.3831 300.527 14.9543 337.152 20.8676 345.238C26.781 353.323 61.2529 379.656 85.3872 367.449Z" fill="url(#paint5_radial_3001_590)"/>
<ellipse cx="293" cy="74.48" rx="32.0591" ry="30.4399" fill="url(#paint6_radial_3001_590)"/>
<ellipse cx="25.4896" cy="25.4063" rx="25.4896" ry="25.4063" transform="matrix(0.742984 -0.669309 0.668952 0.743305 80.2441 59.3799)" fill="url(#paint7_radial_3001_590)"/>
<path fill-rule="evenodd" clip-rule="evenodd" d="M323.151 100.206C322.934 99.3502 322.72 98.5047 322.508 97.6688C316.838 75.2565 312.908 59.724 290.239 33.8725C266.329 11.6801 228.153 0.1877 199.482 2.88747e-06C158.759 -0.00756346 131.16 14.8552 108.123 42.8111C104.962 49.821 101.105 57.1712 97.1723 64.6674C93.3026 72.043 89.3587 79.5599 85.9298 87.0335C118.556 89.4783 128.472 92.1503 154.675 116.202C182.736 135.446 179.879 130.944 210.632 116.202C240.612 97.5979 285.741 96.8542 323.151 100.206Z" fill="url(#paint8_radial_3001_590)"/>
<path d="M93.6803 164.188C115.382 186.489 179.611 193.356 214.059 193.356C248.507 193.356 281.281 199.668 301.724 178.108C323.302 160.404 327.383 124.67 323.151 100.206C285.741 96.8542 240.612 97.5979 210.632 116.202C179.879 130.944 182.736 135.446 154.675 116.202C128.472 92.1503 118.556 89.4783 85.9298 87.0335C80.2814 99.3448 76.0307 111.538 75.8118 122.788C75.2374 152.305 87.3938 157.727 93.6803 164.188Z" fill="url(#paint9_linear_3001_590)"/>
<g opacity="0.7" filter="url(#filter1_f_3001_590)">
<ellipse cx="122.7" cy="124.199" rx="16.9281" ry="16.9363" fill="#D39D9D"/>
<ellipse cx="122.7" cy="124.199" rx="16.9281" ry="16.9363" fill="#E7C2C2"/>
</g>
<g opacity="0.7" filter="url(#filter2_f_3001_590)">
<ellipse cx="244.958" cy="129.844" rx="16.9281" ry="16.9363" fill="#D39D9D"/>
<ellipse cx="244.958" cy="129.844" rx="16.9281" ry="16.9363" fill="#E7C2C2"/>
</g>
<path d="M151.854 97.3719C151.854 105.447 145.317 110.087 137.253 110.087C130.259 109.21 127.465 107.812 126.462 100.551C126.462 92.4753 132.364 86.5643 140.427 86.5643C149.082 87.23 151.413 90.6737 151.854 97.3719Z" fill="#48160A"/>
<path d="M216.745 102.975C216.745 110.48 222.72 114.791 230.091 114.791C236.485 113.976 243.101 110.905 244.018 104.157C244.018 96.652 235.141 89.3867 227.77 89.3867C219.859 90.0053 217.147 96.7503 216.745 102.975Z" fill="#48160A"/>
<path d="M144.33 67.746C146.505 72.3473 138.747 80.1991 133.111 81.4924C128.003 83.8754 122.704 83.3216 121.275 80.2554C119.845 77.1891 123.512 70.6228 128.62 68.2397C133.391 64.5921 142.501 63.2084 144.33 67.746Z" fill="#A2877E"/>
<path d="M232.138 69.2158C235.318 65.2431 245.773 68.7774 249.405 73.2783C253.785 76.8269 255.611 81.835 253.482 84.4643C251.354 87.0935 243.848 86.6747 239.468 83.1261C234.1 80.4352 228.863 72.8493 232.138 69.2158Z" fill="#A2877E"/>
<path d="M176.942 107.326C173.874 109.372 171.941 111.497 169.885 114.868C169.441 115.597 170.085 116.478 170.927 116.34C174.37 115.778 176.222 116.231 178.2 120.98C179.629 141.002 166.311 140.786 153.866 137.638C152.983 137.415 152.307 138.35 152.905 139.036C157.576 144.399 166.343 146.507 180.08 137.843C192.261 145.476 202.659 145.987 213.012 137.249C213.853 136.54 213.018 135.308 211.991 135.703C192.513 143.182 180.097 138.014 182.902 120.98C184.171 117.595 186.747 116.105 191.551 115.504C192.308 115.409 192.725 114.552 192.28 113.932C189.794 110.464 187.369 108.244 183.536 106.638C181.375 105.733 178.891 106.027 176.942 107.326Z" fill="#48160A"/>
<path d="M230.515 93.5682C230.785 94.4517 228.568 96.3866 226.194 97.1127C223.82 97.8389 221.677 97.7113 221.407 96.8277C221.137 95.9442 223.354 94.0093 225.728 93.2832C228.102 92.557 230.245 92.6846 230.515 93.5682Z" fill="white"/>
<ellipse cx="165.02" cy="206.999" rx="42.3202" ry="42.3406" fill="url(#paint10_radial_3001_590)"/>
<path d="M144.8 204.726C144.8 213.297 139.408 226.224 130.694 232.403C123.557 237.463 110.906 243.223 103.891 243.223C88.3089 243.223 83.2009 224.39 83.2009 208.8C83.2009 193.211 105.707 176.89 121.289 176.89C136.871 176.89 144.8 189.137 144.8 204.726Z" fill="url(#paint11_radial_3001_590)"/>
<path d="M286.5 310C250.412 307.531 190.154 269.563 178.185 237.107C162.818 184.79 189.046 184.718 200.871 185.529C212.696 186.339 224.851 197.759 243.189 202.934C261.527 208.109 287.492 201.496 292.919 185.529C305.373 224.676 306.346 268.853 286.5 310Z" fill="url(#paint12_radial_3001_590)"/>
<path d="M166.134 173.411C166.817 175.647 161.206 180.544 155.198 182.382C149.189 184.22 143.764 183.897 143.081 181.661C142.398 179.424 148.009 174.527 154.017 172.689C160.026 170.852 165.45 171.175 166.134 173.411Z" fill="white"/>
<path d="M141.485 91.0343C141.764 91.9493 139.469 93.9529 137.01 94.7049C134.552 95.4569 132.332 95.3248 132.052 94.4098C131.773 93.4948 134.069 91.4912 136.527 90.7392C138.986 89.9872 141.205 90.1193 141.485 91.0343Z" fill="white"/>
<path d="M303.439 139.757C324.732 140.876 336.21 145.783 356.104 160.457" stroke="#EBDDC8" stroke-width="2"/>
<path d="M303.251 130.316C321.376 126.282 332.735 125.132 358.737 128.434" stroke="#EBDDC8" stroke-width="2"/>
<path d="M303.36 120.401C321.148 116.459 332.296 106.396 357.812 109.616" stroke="#EBDDC8" stroke-width="2"/>
<path d="M94.298 127.101C73.0055 128.219 61.5273 133.126 41.6328 147.8" stroke="#EBDDC8" stroke-width="2"/>
<path d="M94.4865 117.659C76.3611 113.625 65.0019 112.475 39 115.777" stroke="#EBDDC8" stroke-width="2"/>
<path d="M94.3768 107.744C76.5888 103.802 65.4414 93.7399 39.9251 96.9594" stroke="#EBDDC8" stroke-width="2"/>
<defs>
<filter id="filter0_f_3001_590" x="96.0278" y="145.742" width="174.614" height="212.763" filterUnits="userSpaceOnUse" color-interpolation-filters="sRGB">
<feFlood flood-opacity="0" result="BackgroundImageFix"/>
<feBlend mode="normal" in="SourceGraphic" in2="BackgroundImageFix" result="shape"/>
<feGaussianBlur stdDeviation="18.1821" result="effect1_foregroundBlur_3001_590"/>
</filter>
<filter id="filter1_f_3001_590" x="99.9717" y="101.463" width="45.4562" height="45.4721" filterUnits="userSpaceOnUse" color-interpolation-filters="sRGB">
<feFlood flood-opacity="0" result="BackgroundImageFix"/>
<feBlend mode="normal" in="SourceGraphic" in2="BackgroundImageFix" result="shape"/>
<feGaussianBlur stdDeviation="2.9" result="effect1_foregroundBlur_3001_590"/>
</filter>
<filter id="filter2_f_3001_590" x="222.23" y="107.108" width="45.4562" height="45.4721" filterUnits="userSpaceOnUse" color-interpolation-filters="sRGB">
<feFlood flood-opacity="0" result="BackgroundImageFix"/>
<feBlend mode="normal" in="SourceGraphic" in2="BackgroundImageFix" result="shape"/>
<feGaussianBlur stdDeviation="2.9" result="effect1_foregroundBlur_3001_590"/>
</filter>
<linearGradient id="paint0_linear_3001_590" x1="127.761" y1="346.815" x2="11.315" y2="413.36" gradientUnits="userSpaceOnUse">
<stop stop-color="#937268"/>
<stop offset="1" stop-color="#7A5246"/>
</linearGradient>
<linearGradient id="paint1_linear_3001_590" x1="127.761" y1="346.815" x2="11.315" y2="413.36" gradientUnits="userSpaceOnUse">
<stop stop-color="#937268"/>
<stop offset="1" stop-color="#7A5246"/>
</linearGradient>
<linearGradient id="paint2_linear_3001_590" x1="145.656" y1="243.88" x2="83.8679" y2="373.566" gradientUnits="userSpaceOnUse">
<stop stop-color="#7C5448"/>
<stop offset="0.755" stop-color="#937268"/>
</linearGradient>
<linearGradient id="paint3_linear_3001_590" x1="145.617" y1="412.152" x2="292.995" y2="267.194" gradientUnits="userSpaceOnUse">
<stop stop-color="#937268"/>
<stop offset="1" stop-color="#7D5549"/>
</linearGradient>
<radialGradient id="paint4_radial_3001_590" cx="0" cy="0" r="1" gradientUnits="userSpaceOnUse" gradientTransform="translate(170.652 373.184) rotate(78.0748) scale(83.9745 84.4644)">
<stop offset="0.375" stop-color="#B59B94"/>
<stop offset="1" stop-color="#7A5246"/>
</radialGradient>
<radialGradient id="paint5_radial_3001_590" cx="0" cy="0" r="1" gradientUnits="userSpaceOnUse" gradientTransform="translate(62.2528 323.311) rotate(71.7904) scale(79.3333 75.0093)">
<stop offset="0.375" stop-color="#B59B94"/>
<stop offset="1" stop-color="#7A5246"/>
</radialGradient>
<radialGradient id="paint6_radial_3001_590" cx="0" cy="0" r="1" gradientUnits="userSpaceOnUse" gradientTransform="translate(296.728 62.0916) rotate(-20.682) scale(33.0721 55.1598)">
<stop stop-color="#7A5246"/>
<stop offset="1" stop-color="#382D2A"/>
</radialGradient>
<radialGradient id="paint7_radial_3001_590" cx="0" cy="0" r="1" gradientUnits="userSpaceOnUse" gradientTransform="translate(28.4535 15.0665) rotate(-21.6179) scale(26.4617 45.7483)">
<stop stop-color="#7A5246"/>
<stop offset="1" stop-color="#382D2A"/>
</radialGradient>
<radialGradient id="paint8_radial_3001_590" cx="0" cy="0" r="1" gradientUnits="userSpaceOnUse" gradientTransform="translate(178.041 171.306) rotate(-84.3111) scale(84.9378 93.9936)">
<stop offset="0.18" stop-color="#E7D8D5"/>
<stop offset="0.770732" stop-color="#A18279"/>
<stop offset="1" stop-color="#7A5246"/>
</radialGradient>
<linearGradient id="paint9_linear_3001_590" x1="182.418" y1="182.535" x2="205.951" y2="59.2811" gradientUnits="userSpaceOnUse">
<stop stop-color="#E7D8D5"/>
<stop offset="0.58" stop-color="#A98C84"/>
<stop offset="1" stop-color="#7C5549"/>
</linearGradient>
<radialGradient id="paint10_radial_3001_590" cx="0" cy="0" r="1" gradientUnits="userSpaceOnUse" gradientTransform="translate(165.02 206.999) rotate(90) scale(42.3406 42.3202)">
<stop stop-color="#E8F8FB"/>
<stop offset="1" stop-color="#A5DDEA"/>
</radialGradient>
<radialGradient id="paint11_radial_3001_590" cx="0" cy="0" r="1" gradientUnits="userSpaceOnUse" gradientTransform="translate(133.985 187.71) rotate(111.451) scale(73.2922 80.6379)">
<stop stop-color="#7B5347"/>
<stop offset="0.92" stop-color="#D0BCB7"/>
</radialGradient>
<radialGradient id="paint12_radial_3001_590" cx="0" cy="0" r="1" gradientUnits="userSpaceOnUse" gradientTransform="translate(190.412 211.702) rotate(32.4523) scale(131.51 141.486)">
<stop stop-color="#825C51"/>
<stop offset="1" stop-color="#D9C7C2"/>
</radialGradient>
</defs>
</svg>
