<svg width="392" height="487" viewBox="0 0 392 487" fill="none" xmlns="http://www.w3.org/2000/svg">
<path d="M123.576 115.831L216.427 200.146L160.581 251.811L55.3406 160.018C55.3406 160.018 36.3514 138.281 63.1597 111.06C89.968 83.8385 123.576 115.831 123.576 115.831Z" fill="#7A5246"/>
<path d="M278.642 187.806C278.642 187.806 73.775 143.553 112.431 182.804C151.088 222.055 65.7149 296.054 71.7839 332.89C77.8528 369.725 258.391 382.942 258.391 382.942C258.391 382.942 291.368 351.124 298.738 280.111C306.108 209.098 278.642 187.806 278.642 187.806Z" fill="#937268"/>
<ellipse cx="306.834" cy="113.844" rx="30.0004" ry="28.4852" transform="rotate(3.28534 306.834 113.844)" fill="url(#paint0_radial_3003_694)"/>
<ellipse cx="23.8528" cy="23.7748" rx="23.8528" ry="23.7748" transform="matrix(0.78012 -0.625629 0.625255 0.78042 108.878 88.3262)" fill="url(#paint1_radial_3003_694)"/>
<path fill-rule="evenodd" clip-rule="evenodd" d="M331.703 141.206C331.546 140.395 331.392 139.593 331.239 138.801C327.143 117.558 324.305 102.837 304.513 77.4691C283.365 55.4537 248.315 42.6696 221.54 40.9567C183.495 38.7657 158.687 51.5149 135.666 76.3971C132.337 82.7767 127.955 89.8719 123.879 96.6643C120.125 105.04 115.696 110.133 112.092 116.931C142.442 120.965 130.14 119.789 157.64 137.758C189.689 150.525 219.769 155.287 253.958 146.626C287.734 134.602 296.933 136.068 331.703 141.206Z" fill="url(#paint2_radial_3003_694)"/>
<path d="M115.809 186.963C134.888 208.962 194.526 218.822 226.708 220.669C258.891 222.516 289.172 230.172 309.427 211.126C330.535 195.742 334.345 164.288 331.703 141.206C296.933 136.068 287.734 134.602 253.958 146.626C219.769 155.287 189.689 150.525 157.64 137.758C130.14 119.789 142.442 120.965 112.092 116.931C106.154 128.13 103.495 138.068 102.687 148.566C100.567 176.112 110.283 180.591 115.809 186.963Z" fill="url(#paint3_linear_3003_694)"/>
<g opacity="0.7" filter="url(#filter0_f_3003_694)">
<ellipse cx="145.065" cy="151.161" rx="15.841" ry="15.8487" transform="rotate(3.28534 145.065 151.161)" fill="#D39D9D"/>
<ellipse cx="145.065" cy="151.161" rx="15.841" ry="15.8487" transform="rotate(3.28534 145.065 151.161)" fill="#E7C2C2"/>
</g>
<g opacity="0.7" filter="url(#filter1_f_3003_694)">
<ellipse cx="267.93" cy="160.875" rx="15.841" ry="15.8487" transform="rotate(3.28534 267.93 160.875)" fill="#D39D9D"/>
<ellipse cx="267.93" cy="160.875" rx="15.841" ry="15.8487" transform="rotate(3.28534 267.93 160.875)" fill="#E7C2C2"/>
</g>
<path d="M157.948 98.7006C159.733 103.116 152.064 110.035 146.729 110.941C141.829 112.894 136.908 112.092 135.737 109.151C134.567 106.21 138.345 100.272 143.245 98.3194C147.897 95.1675 156.483 94.3633 157.948 98.7006Z" fill="#A2877E"/>
<path d="M265.639 105.733C268.823 102.192 278.401 106.054 281.553 110.454C285.455 114.004 286.892 118.781 284.763 121.123C282.634 123.465 275.643 122.672 271.742 119.121C266.871 116.319 262.385 108.952 265.639 105.733Z" fill="#A2877E"/>
<path d="M200.918 172.651C209.484 174.509 215.419 162.322 213.068 160.973C210.718 159.624 207.779 157.938 203.846 157.712C199.913 157.486 193.455 158.936 192.798 159.809C192.141 160.682 194.718 171.306 200.918 172.651Z" fill="#BA7070"/>
<path d="M168.222 118.029C158.325 117.46 144.459 127.24 146.846 130.512C149.233 133.783 159.687 125.303 167.778 125.767C174.099 126.13 180.147 136.165 183.02 132.588C185.894 129.011 175.652 118.455 168.222 118.029Z" fill="#48160A"/>
<path d="M247.542 121.975C258.251 122.59 271.943 134.833 268.972 138.058C266.001 141.283 255.815 130.861 247.061 130.359C240.221 129.966 232.478 140.017 229.832 135.811C227.187 131.606 239.503 121.514 247.542 121.975Z" fill="#48160A"/>
<path d="M203.285 128.648C199.485 130.682 197.339 132.743 194.835 136.495C194.547 136.926 194.908 137.485 195.421 137.419C199.136 136.94 200.971 137.197 202.676 142.06C202.944 161.281 189.919 159.872 178.246 156.06C177.722 155.888 177.27 156.435 177.581 156.89C181.48 162.609 189.669 165.583 203.529 157.914C214.982 166.042 225.037 166.812 235.669 158.072C236.184 157.648 235.702 156.869 235.072 157.087C215.519 163.876 203.435 158.527 207.069 142.312C208.492 139.091 211.127 137.865 216.005 137.627C216.467 137.605 216.748 137.101 216.506 136.706C214.053 132.712 211.669 130.296 207.335 128.447C206.029 127.89 204.537 127.977 203.285 128.648Z" fill="#48160A"/>
<path d="M313.088 175.388C332.92 177.575 343.381 182.775 361.18 197.551" stroke="#EBDDC8" stroke-width="1.21214"/>
<path d="M313.417 166.557C330.567 163.76 341.241 163.296 365.356 167.775" stroke="#EBDDC8" stroke-width="1.21214"/>
<path d="M314.052 157.3C330.882 154.571 341.836 145.768 365.501 150.144" stroke="#EBDDC8" stroke-width="1.21214"/>
<path d="M118.376 152.348C98.4234 152.251 87.4368 156.22 68.0635 168.862" stroke="#EBDDC8" stroke-width="1.21214"/>
<path d="M119.058 143.538C102.341 138.797 91.7904 137.114 67.3211 138.805" stroke="#EBDDC8" stroke-width="1.21214"/>
<path d="M119.488 134.269C103.081 129.632 93.2058 119.633 69.1946 121.273" stroke="#EBDDC8" stroke-width="1.21214"/>
<path d="M124.168 338.161L166.124 378.094C166.124 378.094 134.584 418.725 106.543 430.017C66.677 446.071 0.3431 420.579 0.941996 416.092C1.54089 411.604 42.1168 401.059 66.046 386.071C90.7891 370.572 124.168 338.161 124.168 338.161Z" fill="url(#paint4_linear_3003_694)"/>
<path d="M161.178 336.841L198.753 357.507L175.025 400.65L109.791 326.241L141.283 308.239L161.178 336.841Z" fill="url(#paint5_linear_3003_694)"/>
<g filter="url(#filter2_f_3003_694)">
<ellipse cx="46.7289" cy="72.8763" rx="46.7289" ry="72.8763" transform="matrix(-0.932006 -0.362444 -0.362444 0.932006 253.3 224.14)" fill="#DBCAC6" fill-opacity="0.5"/>
</g>
<path d="M72.3104 281.168C52.1751 299.116 27.2205 359.589 27.2205 359.589L78.0317 395.41C78.0317 395.41 160.817 333.981 143.786 302.04C134.432 284.498 92.4457 263.219 72.3104 281.168Z" fill="url(#paint6_linear_3003_694)"/>
<path d="M177.717 440.759C177.717 440.759 236.341 428.782 263.413 377.842C290.485 326.902 197.066 284.926 175.587 312.055C154.109 339.184 127.632 392.674 127.632 392.674L177.717 440.759Z" fill="url(#paint7_linear_3003_694)"/>
<path d="M365.806 223.14C337.586 257.914 277.885 281.063 277.885 281.063L252.903 224.336C252.903 224.336 292.971 183.535 325.547 169.192C358.124 154.85 394.026 188.365 365.806 223.14Z" fill="url(#paint8_linear_3003_694)"/>
<path d="M190.415 445.169C218.975 434.679 227.819 408.842 219.591 383.305C210.212 354.198 173.567 341.463 146.933 355.814C124.871 367.701 116.056 406.083 121.543 415.224C127.03 424.365 161.855 455.659 190.415 445.169Z" fill="url(#paint9_radial_3003_694)"/>
<path d="M85.3881 390.449C109.522 378.242 114.412 353.342 104.192 330.158C92.5428 303.731 58.5792 294.904 36.5953 310.559C18.3841 323.527 14.9553 360.152 20.8686 368.238C26.782 376.323 61.2538 402.656 85.3881 390.449Z" fill="url(#paint10_radial_3003_694)"/>
<defs>
<filter id="filter0_f_3003_694" x="125.709" y="131.796" width="38.7134" height="38.7286" filterUnits="userSpaceOnUse" color-interpolation-filters="sRGB">
<feFlood flood-opacity="0" result="BackgroundImageFix"/>
<feBlend mode="normal" in="SourceGraphic" in2="BackgroundImageFix" result="shape"/>
<feGaussianBlur stdDeviation="1.7576" result="effect1_foregroundBlur_3003_694"/>
</filter>
<filter id="filter1_f_3003_694" x="248.573" y="141.51" width="38.7134" height="38.7286" filterUnits="userSpaceOnUse" color-interpolation-filters="sRGB">
<feFlood flood-opacity="0" result="BackgroundImageFix"/>
<feBlend mode="normal" in="SourceGraphic" in2="BackgroundImageFix" result="shape"/>
<feGaussianBlur stdDeviation="1.7576" result="effect1_foregroundBlur_3003_694"/>
</filter>
<filter id="filter2_f_3003_694" x="96.0278" y="168.742" width="174.614" height="212.763" filterUnits="userSpaceOnUse" color-interpolation-filters="sRGB">
<feFlood flood-opacity="0" result="BackgroundImageFix"/>
<feBlend mode="normal" in="SourceGraphic" in2="BackgroundImageFix" result="shape"/>
<feGaussianBlur stdDeviation="18.1821" result="effect1_foregroundBlur_3003_694"/>
</filter>
<radialGradient id="paint0_radial_3003_694" cx="0" cy="0" r="1" gradientUnits="userSpaceOnUse" gradientTransform="translate(310.322 102.251) rotate(-20.682) scale(30.9483 51.6176)">
<stop stop-color="#7A5246"/>
<stop offset="1" stop-color="#382D2A"/>
</radialGradient>
<radialGradient id="paint1_radial_3003_694" cx="0" cy="0" r="1" gradientUnits="userSpaceOnUse" gradientTransform="translate(26.6264 14.099) rotate(-21.6179) scale(24.7625 42.8105)">
<stop stop-color="#7A5246"/>
<stop offset="1" stop-color="#382D2A"/>
</radialGradient>
<radialGradient id="paint2_radial_3003_694" cx="0" cy="0" r="1" gradientUnits="userSpaceOnUse" gradientTransform="translate(194.235 198.137) rotate(-81.0258) scale(79.4834 87.9577)">
<stop offset="0.18" stop-color="#E7D8D5"/>
<stop offset="0.785" stop-color="#A18279"/>
<stop offset="1" stop-color="#7A5246"/>
</radialGradient>
<linearGradient id="paint3_linear_3003_694" x1="197.869" y1="208.981" x2="226.233" y2="96.258" gradientUnits="userSpaceOnUse">
<stop stop-color="#E7D8D5"/>
<stop offset="0.58" stop-color="#A98C84"/>
<stop offset="1" stop-color="#7C5549"/>
</linearGradient>
<linearGradient id="paint4_linear_3003_694" x1="127.761" y1="369.815" x2="11.315" y2="436.36" gradientUnits="userSpaceOnUse">
<stop stop-color="#937268"/>
<stop offset="1" stop-color="#7A5246"/>
</linearGradient>
<linearGradient id="paint5_linear_3003_694" x1="127.761" y1="369.815" x2="11.315" y2="436.36" gradientUnits="userSpaceOnUse">
<stop stop-color="#937268"/>
<stop offset="1" stop-color="#7A5246"/>
</linearGradient>
<linearGradient id="paint6_linear_3003_694" x1="145.656" y1="266.88" x2="83.8679" y2="396.566" gradientUnits="userSpaceOnUse">
<stop stop-color="#7C5448"/>
<stop offset="0.755" stop-color="#937268"/>
</linearGradient>
<linearGradient id="paint7_linear_3003_694" x1="145.617" y1="435.152" x2="292.995" y2="290.194" gradientUnits="userSpaceOnUse">
<stop stop-color="#937268"/>
<stop offset="1" stop-color="#7D5549"/>
</linearGradient>
<linearGradient id="paint8_linear_3003_694" x1="367.816" y1="179.699" x2="260.778" y2="244.1" gradientUnits="userSpaceOnUse">
<stop stop-color="#583F38"/>
<stop offset="1" stop-color="#937268"/>
</linearGradient>
<radialGradient id="paint9_radial_3003_694" cx="0" cy="0" r="1" gradientUnits="userSpaceOnUse" gradientTransform="translate(170.652 396.184) rotate(78.0748) scale(83.9745 84.4644)">
<stop offset="0.375" stop-color="#B59B94"/>
<stop offset="1" stop-color="#7A5246"/>
</radialGradient>
<radialGradient id="paint10_radial_3003_694" cx="0" cy="0" r="1" gradientUnits="userSpaceOnUse" gradientTransform="translate(62.2538 346.311) rotate(71.7904) scale(79.3333 75.0093)">
<stop offset="0.375" stop-color="#B59B94"/>
<stop offset="1" stop-color="#7A5246"/>
</radialGradient>
</defs>
</svg>
