<svg width="643" height="633" viewBox="0 0 643 633" fill="none" xmlns="http://www.w3.org/2000/svg">
<path d="M462.475 293.104C439.798 324.162 425.77 339.904 395.113 360.861C389.092 359.324 386.718 354.886 386.752 348.559C416.293 329.4 429.085 314.862 447.658 284.672C455.288 282.725 459.827 286.158 462.475 293.104Z" fill="#333B6D"/>
<path fill-rule="evenodd" clip-rule="evenodd" d="M355.305 242.607C393.602 257.36 419.948 269.342 447.658 284.672C429.085 314.862 416.293 329.4 386.752 348.559C361.804 311.876 331.607 267.675 331.607 267.675L355.305 242.607Z" fill="url(#paint0_linear_905_379)"/>
<path d="M499.497 315.699C532.333 340.93 535.674 355.217 531.08 367.13C516.251 408.57 491.172 435.486 461.065 396.122C460.43 407.85 459.562 416.648 452.453 420.855C436.114 427.724 420.837 399.872 419.247 396.751C418.707 395.692 408.442 380.488 395.113 360.861C425.77 339.904 439.798 324.162 462.475 293.104C473.935 299.794 485.99 307.194 499.497 315.699Z" fill="url(#paint1_linear_905_379)"/>
<path fill-rule="evenodd" clip-rule="evenodd" d="M275.134 507.406C342.54 559.607 395.485 535.358 443.012 485.827C478.649 448.686 488.188 404.633 465.071 358.424C403.042 419.213 360.91 451.716 275.134 507.406ZM261.064 495.576C186.873 428.339 179.578 330.989 230.363 278.063C281.147 225.136 343.2 231.462 417.391 298.699C433.982 313.735 446.973 328.757 456.578 343.611C387.723 410.313 344.778 443.466 261.064 495.576Z" fill="url(#paint2_linear_905_379)"/>
<path d="M261.064 495.576C265.824 499.889 270.513 503.827 275.134 507.406C360.91 451.716 403.042 419.213 465.071 358.424C462.612 353.509 459.783 348.569 456.578 343.611C387.723 410.313 344.778 443.466 261.064 495.576Z" fill="url(#paint3_linear_905_379)"/>
<path d="M140.471 450.967C184.891 458.515 209.461 460.312 251.884 453.111C255.478 447.016 253.682 441.441 248.352 436.232C208.341 444.029 185.783 442.239 145.418 432.122C137.599 436.62 136.796 443.096 140.471 450.967Z" fill="#333B6D"/>
<path fill-rule="evenodd" clip-rule="evenodd" d="M185.041 323.347C158.486 362.787 148.72 394.482 145.418 432.122C185.783 442.239 208.341 444.029 248.352 436.232C248.218 384.434 232.267 324.139 225.269 325.121L185.041 323.347Z" fill="url(#paint4_linear_905_379)"/>
<path d="M129.392 499.316C123.917 546.496 133.182 560.998 146.893 567.179C193.651 589.607 236.547 591.804 227.964 535.111C238.309 544.31 246.387 550.898 255.678 548.687C274.683 541.289 263.725 506.001 262.399 502.145C261.949 500.836 257.528 480.03 251.884 453.111C209.461 460.312 184.891 458.515 140.471 450.967C136.787 465.682 133.215 481.461 129.392 499.316Z" fill="url(#paint5_linear_905_379)"/>
<path d="M86.1192 249.417C79.3923 236.013 75.4318 221.94 74.0197 207.733L49.7787 234.792C65.6344 285.285 79.9466 296.517 106.306 313.917L137.101 302.179C115.478 290.056 97.5545 272.202 86.1192 249.417Z" fill="url(#paint6_linear_905_379)"/>
<path d="M328.935 95.8086C338.858 105.307 347.249 116.475 353.623 129.177C360.662 143.202 363.834 161.152 364.167 179.444L376.291 169.194C370.675 134.067 364.071 118.494 348.027 95.8086L328.935 95.8086Z" fill="url(#paint7_linear_905_379)"/>
<path d="M279.413 304.661C244.422 321.247 206.587 324.426 172.959 316.214C159.781 319.864 161.542 325.87 165.366 336.876C217.216 348.514 306.865 352.465 376.291 251.191C374.921 240.561 375.537 229.783 355.62 231.922C343.434 268.083 319.282 285.763 279.413 304.661Z" fill="#333B6D"/>
<path d="M172.959 316.214C206.587 324.426 244.422 321.247 279.413 304.661C319.282 285.763 343.434 268.083 355.62 231.922C361.18 215.424 364.551 200.486 364.167 179.444C363.834 161.152 360.662 143.202 353.623 129.177C347.249 116.475 338.858 105.307 328.935 95.8086C287.664 56.3082 219.879 39.1474 160.329 67.3744C120.169 86.4104 92.0222 119.187 79.9807 155.667C74.4042 172.56 72.2817 190.248 74.0197 207.733C75.4318 221.94 79.3923 236.013 86.1192 249.417C97.5545 272.202 115.478 290.056 137.101 302.179C148.204 308.404 160.283 313.118 172.959 316.214Z" fill="url(#paint8_linear_905_379)"/>
<path d="M287.579 247.684C247.609 269.216 197.942 255.397 176.403 217.635C154.865 179.873 169.127 131.615 209.097 110.083C249.067 88.5513 298.734 102.37 320.273 140.132C341.811 177.894 327.549 226.151 287.579 247.684Z" fill="url(#paint9_linear_905_379)" stroke="url(#paint10_linear_905_379)" stroke-width="21"/>
<path fill-rule="evenodd" clip-rule="evenodd" d="M485.784 369.522C479.131 370.43 472.08 371.534 464.393 372.756C443.039 408.011 441.24 427.623 451.887 462.392C471.495 467.547 487.517 471.19 502.98 472.906C483.281 437.087 484.158 413.418 485.65 373.145L485.65 373.144C485.694 371.951 485.739 370.745 485.784 369.522Z" fill="url(#paint11_linear_905_379)"/>
<path d="M572.649 467.709L568.741 375.034C535.73 365.356 514.444 365.614 485.784 369.522C485.739 370.745 485.694 371.951 485.65 373.144L485.65 373.145C484.158 413.418 483.281 437.087 502.98 472.906C524.551 475.299 545.035 473.943 572.649 467.709Z" fill="#264769"/>
<path fill-rule="evenodd" clip-rule="evenodd" d="M364.24 461.354C317.974 462.583 303.865 480.702 286.858 515.667C302.751 533.866 322.08 551.731 341.573 567.582C342.219 520.11 353.747 497.978 390.862 465.152C381.771 463.393 372.635 462.063 364.24 461.354Z" fill="url(#paint12_linear_905_379)"/>
<path d="M439.667 623.155C442.012 609.101 445.92 483.383 445.92 483.383C436.07 476.632 413.609 469.551 390.862 465.152C353.747 497.978 342.219 520.11 341.573 567.582C389.296 606.391 438.002 633.132 439.667 623.155Z" fill="#254465"/>
<path d="M612.54 372.818C629.155 409.086 617.016 450.551 585.425 464.22C553.835 477.889 514.756 459.569 498.141 423.301C481.526 387.033 493.665 345.568 525.256 331.899C556.846 318.23 595.925 336.55 612.54 372.818Z" fill="url(#paint13_linear_905_379)"/>
<ellipse cx="73.8703" cy="84.8316" rx="73.8703" ry="84.8316" transform="matrix(0.997699 -0.067802 0.0717667 0.997421 371.275 463.774)" fill="url(#paint14_linear_905_379)"/>
<line y1="-2.5" x2="160.305" y2="-2.5" transform="matrix(0.416498 -0.909137 0.917769 0.397115 248.559 263.74)" stroke="url(#paint15_linear_905_379)" stroke-width="5"/>
<line y1="-2.5" x2="163.511" y2="-2.5" transform="matrix(0.930816 0.365488 -0.383877 0.923384 163.361 171.935)" stroke="url(#paint16_linear_905_379)" stroke-width="5"/>
<line y1="-2.5" x2="163.511" y2="-2.5" transform="matrix(0.930816 0.365488 -0.383877 0.923384 186.81 124.838)" stroke="url(#paint17_linear_905_379)" stroke-width="5"/>
<line y1="-2.5" x2="160.305" y2="-2.5" transform="matrix(0.416498 -0.909137 0.917769 0.397115 195.408 239.432)" stroke="url(#paint18_linear_905_379)" stroke-width="5"/>
<defs>
<linearGradient id="paint0_linear_905_379" x1="367.204" y1="233.893" x2="444.531" y2="340.085" gradientUnits="userSpaceOnUse">
<stop stop-color="#8659A4"/>
<stop offset="1" stop-color="#333B6D"/>
</linearGradient>
<linearGradient id="paint1_linear_905_379" x1="456.082" y1="278.663" x2="501.714" y2="411.262" gradientUnits="userSpaceOnUse">
<stop stop-color="#091624"/>
<stop offset="1" stop-color="#27486A"/>
</linearGradient>
<linearGradient id="paint2_linear_905_379" x1="431.197" y1="294.134" x2="357.314" y2="465.199" gradientUnits="userSpaceOnUse">
<stop stop-color="#8659A4"/>
<stop offset="1" stop-color="#333B6D"/>
</linearGradient>
<linearGradient id="paint3_linear_905_379" x1="431.197" y1="294.134" x2="357.314" y2="465.199" gradientUnits="userSpaceOnUse">
<stop stop-color="#8659A4"/>
<stop offset="1" stop-color="#333B6D"/>
</linearGradient>
<linearGradient id="paint4_linear_905_379" x1="168.09" y1="325.663" x2="189.07" y2="476.229" gradientUnits="userSpaceOnUse">
<stop stop-color="#8659A4"/>
<stop offset="1" stop-color="#333B6D"/>
</linearGradient>
<linearGradient id="paint5_linear_905_379" x1="168.09" y1="325.663" x2="203.06" y2="581.698" gradientUnits="userSpaceOnUse">
<stop stop-color="#091624"/>
<stop offset="1" stop-color="#27486A"/>
</linearGradient>
<linearGradient id="paint6_linear_905_379" x1="151.234" y1="71.6854" x2="176.1" y2="342.845" gradientUnits="userSpaceOnUse">
<stop offset="0.55" stop-color="#333B6D"/>
<stop offset="1" stop-color="#8659A4"/>
</linearGradient>
<linearGradient id="paint7_linear_905_379" x1="151.234" y1="71.6854" x2="275.573" y2="334.002" gradientUnits="userSpaceOnUse">
<stop stop-color="#333B6D"/>
<stop offset="1" stop-color="#8659A4"/>
</linearGradient>
<linearGradient id="paint8_linear_905_379" x1="151.234" y1="71.6854" x2="275.573" y2="334.002" gradientUnits="userSpaceOnUse">
<stop stop-color="#8659A4"/>
<stop offset="1" stop-color="#333B6D"/>
</linearGradient>
<linearGradient id="paint9_linear_905_379" x1="203.895" y1="100.963" x2="288.957" y2="258.864" gradientUnits="userSpaceOnUse">
<stop stop-color="#9CC6CF"/>
<stop offset="1" stop-color="#247E92"/>
</linearGradient>
<linearGradient id="paint10_linear_905_379" x1="264.433" y1="91.6225" x2="225.859" y2="275.741" gradientUnits="userSpaceOnUse">
<stop stop-color="#27486A"/>
<stop offset="1" stop-color="#091624"/>
</linearGradient>
<linearGradient id="paint11_linear_905_379" x1="438.495" y1="420.161" x2="537.762" y2="420.161" gradientUnits="userSpaceOnUse">
<stop stop-color="#8659A4"/>
<stop offset="1" stop-color="#333B6D"/>
</linearGradient>
<linearGradient id="paint12_linear_905_379" x1="363.348" y1="461.354" x2="363.348" y2="625.151" gradientUnits="userSpaceOnUse">
<stop stop-color="#8659A4"/>
<stop offset="0.475" stop-color="#333B6D"/>
</linearGradient>
<linearGradient id="paint13_linear_905_379" x1="516.799" y1="334.765" x2="574.155" y2="467.32" gradientUnits="userSpaceOnUse">
<stop stop-color="#091624"/>
<stop offset="1" stop-color="#27486A"/>
</linearGradient>
<linearGradient id="paint14_linear_905_379" x1="73.8703" y1="0" x2="73.8703" y2="169.663" gradientUnits="userSpaceOnUse">
<stop stop-color="#091624"/>
<stop offset="1" stop-color="#27486A"/>
</linearGradient>
<linearGradient id="paint15_linear_905_379" x1="160.305" y1="0.5" x2="0" y2="0.5" gradientUnits="userSpaceOnUse">
<stop stop-color="#22405F"/>
<stop offset="1" stop-color="#0C1C2C"/>
</linearGradient>
<linearGradient id="paint16_linear_905_379" x1="163.511" y1="0.5" x2="0" y2="0.5" gradientUnits="userSpaceOnUse">
<stop stop-color="#14273C"/>
<stop offset="1" stop-color="#172E45"/>
</linearGradient>
<linearGradient id="paint17_linear_905_379" x1="163.511" y1="0.5" x2="0" y2="0.5" gradientUnits="userSpaceOnUse">
<stop stop-color="#1D3751"/>
<stop offset="1" stop-color="#203D5A"/>
</linearGradient>
<linearGradient id="paint18_linear_905_379" x1="160.305" y1="0.5" x2="0" y2="0.5" gradientUnits="userSpaceOnUse">
<stop stop-color="#254565"/>
<stop offset="1" stop-color="#0C1C2C"/>
</linearGradient>
</defs>
</svg>
