<svg width="1084" height="614" viewBox="0 0 1084 614" fill="none" xmlns="http://www.w3.org/2000/svg">
<path d="M83.7138 31.0253L63.3868 73.0595L24.0031 123.1L0.5 165.134L40.5189 225.684V333.271L0.5 390.818V466.88L63.3868 490.399L113.569 545.444L173.915 600.489L286.984 614L367.022 600.489H450.236L570.292 545.444L606.5 432.853L570.292 390.818V275.224L606.5 136.111L570.292 49.5403L500.418 0L420.38 15.5126H340.343L206.947 0H140.248L83.7138 31.0253Z" fill="url(#paint0_linear_974_1090)"/>
<path d="M985.181 31.0253L1009.2 73.0595L1055.73 123.1L1083.5 165.134L1036.22 225.684V333.271L1083.5 390.818V466.88L1009.2 490.399L949.907 545.444L878.607 600.489L745.014 614L650.448 600.489H552.129L410.28 545.444L367.5 432.853L410.28 390.818V275.224L367.5 136.111L410.28 49.5403L492.838 0L587.404 15.5126H681.97L839.58 0H918.385L985.181 31.0253Z" fill="url(#paint1_linear_974_1090)"/>
<defs>
<linearGradient id="paint0_linear_974_1090" x1="725.5" y1="0" x2="725.5" y2="614" gradientUnits="userSpaceOnUse">
<stop stop-color="#92D2F5"/>
<stop offset="1" stop-color="#2487BD"/>
</linearGradient>
<linearGradient id="paint1_linear_974_1090" x1="725.5" y1="0" x2="725.5" y2="614" gradientUnits="userSpaceOnUse">
<stop stop-color="#92D2F5"/>
<stop offset="1" stop-color="#2487BD"/>
</linearGradient>
</defs>
</svg>
