<svg width="1084" height="614" viewBox="0 0 1084 614" fill="none" xmlns="http://www.w3.org/2000/svg">
<path d="M83.8512 31.0253L63.4906 73.0595L24.0419 123.1L0.5 165.134L40.5849 225.684V333.271L0.5 390.818V466.88L63.4906 490.399L113.756 545.444L174.201 600.489L287.457 614L367.627 600.489H450.978L571.233 545.444L607.5 432.853L571.233 390.818V275.224L607.5 136.111L571.233 49.5403L501.243 0L421.073 15.5126H340.904L207.287 0H140.479L83.8512 31.0253Z" fill="#865AA4"/>
<path d="M985.181 31.0253L1009.2 73.0595L1055.73 123.1L1083.5 165.134L1036.22 225.684V333.271L1083.5 390.818V466.88L1009.2 490.399L949.907 545.444L878.607 600.489L745.014 614L650.448 600.489H552.129L410.28 545.444L367.5 432.853L410.28 390.818V275.224L367.5 136.111L410.28 49.5403L492.838 0L587.404 15.5126H681.97L839.58 0H918.385L985.181 31.0253Z" fill="#865AA4"/>
</svg>
