<svg width="1440" height="514" viewBox="0 0 1440 514" fill="none" xmlns="http://www.w3.org/2000/svg">
<path d="M2.5 252V507L1437.5 512V260L1310 199.5H1246.5L1175.5 177.5L1098.5 192L1029.5 206.5L974.5 177.5L920.5 143.5L873.5 192L756 206.5L605.5 177.5L537 211.5L493 177.5L258 199.5L203 177.5H134.5L42.5 206.5L2.5 252Z" fill="#EEB8D4"/>
<path d="M59 231.725L23 295.189L40.5 322H850.418L1221.29 295.189L1413.5 365.5L1355.5 322L1299.86 231.725L1221.29 219.847H1050.88H979.5L893.167 204.575L823.5 219.847L719.5 219.847H593L545 231.725L485 204.575H365.16H286.595L207 231.725L91 204.575L59 231.725Z" fill="#DB66B5"/>
<path d="M100.5 264.5L41.5 299.5L34 341L22 389.5L1412.5 368L1380.5 322L1324 275L1249.5 249.567H1150.5L1071.5 241.5L1012 231.824L893.5 221.5L843 241.5L763.54 249.567H680.637H615.615H535.5L408 221.5L267.5 241.5L216 249.567L100.5 264.5Z" fill="#8659A4"/>
<path d="M68.1049 322.846L104.43 316.839L141.764 301.217L296.314 248.767H445.224L705.942 270.29L937.58 248.767L1202.76 270.29L1315.26 301.217L1352.6 334.766L1418.69 366.217L1439.37 453.986V513.5H0.5V431.217L17.6535 386.914L47.4198 366.217L68.1049 322.846Z" fill="#333B6D"/>
<path d="M115.025 315.838L91.8169 295.816L71.1318 274.293L77.6905 259.778L109.475 268.787L77.6905 236.253L95.3485 217.232L127.133 259.778L109.475 204.719L135.205 199.213L151.854 255.773L158.917 208.723L185.152 217.232L174.053 268.787L192.72 236.253L212.9 243.26L185.152 289.81L115.025 315.838Z" fill="#333B6D"/>
<path d="M323.389 206.22L387.462 273.793L489.374 276.295L495.428 243.26V206.22L503.5 184.697L545.88 131.14L589.268 118.126H678.062L707.828 98.1046H635.683H558.492H509.555L345.083 108.115L271.929 98.1046H163.963L92.3216 81.5869L60.0327 98.1046V118.126L83.2404 138.648H131.674L219.459 161.673L281.01 180.693L323.389 206.22Z" fill="#333B6D"/>
<path d="M647.287 73.5784L598.349 104.111H517.627L555.97 84.0897L580.187 58.5624L647.287 49.5527V73.5784Z" fill="#333B6D"/>
<path d="M129.151 84.0896L117.547 66.0703L153.872 75.08L184.648 66.0703H208.864L192.215 84.0896L170.521 92.5987L153.872 100.607L129.151 84.0896Z" fill="#333B6D"/>
<path d="M237.117 100.607L224.504 90.096H245.189L252.757 81.5869L265.37 90.096L252.757 100.607H237.117Z" fill="#333B6D"/>
<path d="M324.902 33.0353H351.642H372.327L403.102 47.0503H443.968L494.419 28.03L532.762 0L570.096 12.5134L561.015 33.0353L521.158 68.5734L489.374 101.609L412.183 110.618L372.327 94.1007L365.768 76.0814L332.47 47.0503L324.902 33.0353Z" fill="#333B6D"/>
<path d="M583.718 250.769L623.07 275.795H738.1L788.551 250.769V240.257H757.776L788.551 206.221L772.406 190.204L729.018 231.248L757.776 168.681L729.018 154.666L705.811 220.736V142.152H675.035V220.736L650.314 154.666L623.07 168.681L660.909 240.257L650.314 250.769L603.394 190.204L583.718 206.221L635.683 261.78L583.718 231.248V250.769Z" fill="#333B6D"/>
<path d="M811.254 54.5581L795.109 74.5795L811.254 95.602L831.434 113.621L858.174 131.641L883.399 165.176L893.994 208.223L906.607 272.291H969.671L982.284 217.232L1007.51 151.161L1131.62 113.621L1144.23 87.0929L1142.21 54.5581L1131.62 44.0469L1088.23 54.5581L1045.35 74.5795L982.284 95.602H940.914L883.399 54.5581H811.254Z" fill="#333B6D"/>
<path d="M1086.72 111.619L1007.51 126.135L1027.19 163.675L1068.56 192.205L1086.72 202.717L1109.93 242.259V286.807H1194.18V242.259H1205.28L1253.71 215.23L1282.47 192.205H1345.53L1388.42 163.675L1399.52 152.663V126.135H1368.74L1332.92 111.619H1282.47L1243.12 126.135H1178.04H1138.68L1086.72 111.619Z" fill="#333B6D"/>
<path d="M1280.45 97.604V133.142H1323.84L1334.43 124.132V97.604L1347.05 83.0885L1372.27 76.081L1365.21 40.543L1323.84 54.558V63.5676H1304.16L1244.63 40.543H1210.83V63.5676L1260.77 83.0885L1280.45 97.604Z" fill="#333B6D"/>
<path d="M1259.26 263.282V288.809L1282.97 299.321L1300.63 267.286L1296.09 255.273L1269.35 249.768L1259.26 263.282Z" fill="#333B6D"/>
<path d="M1327.37 284.805L1339.48 329.853L1375.8 353.378L1384.89 337.862L1404.56 353.378L1413.64 343.868L1395.48 323.847L1413.64 329.853V311.333H1395.48L1404.56 294.815L1395.48 284.805L1375.8 311.333L1384.89 274.294L1375.8 268.287L1362.18 311.333V274.294H1350.07V311.333L1339.48 284.805H1327.37Z" fill="#333B6D"/>
</svg>
