<svg width="1084" height="614" viewBox="0 0 1084 614" fill="none" xmlns="http://www.w3.org/2000/svg">
<path d="M79.0451 31.0253L59.8585 73.0595L22.6845 123.1L0.5 165.134L38.2736 225.684V333.271L0.5 390.818V466.88L59.8585 490.399L107.225 545.444L164.186 600.489L270.911 614L346.458 600.489H425.003L538.324 545.444L572.5 432.853L538.324 390.818V275.224L572.5 136.111L538.324 49.5403L472.37 0L396.823 15.5126H321.276L195.364 0H132.408L79.0451 31.0253Z" fill="url(#paint0_linear_974_1096)"/>
<path d="M981.886 31.0253L1006.71 73.0595L1054.8 123.1L1083.5 165.134L1034.63 225.684V333.271L1083.5 390.818V466.88L1006.71 490.399L945.429 545.444L871.739 600.489L733.668 614L635.932 600.489H534.318L387.714 545.444L343.5 432.853L387.714 390.818V275.224L343.5 136.111L387.714 49.5403L473.039 0L570.775 15.5126H668.51L831.404 0H912.85L981.886 31.0253Z" fill="url(#paint1_linear_974_1096)"/>
<defs>
<linearGradient id="paint0_linear_974_1096" x1="707" y1="-174" x2="732" y2="648" gradientUnits="userSpaceOnUse">
<stop stop-color="#7EBDE0"/>
<stop offset="1" stop-color="#D2A4D6"/>
</linearGradient>
<linearGradient id="paint1_linear_974_1096" x1="707" y1="-174" x2="732" y2="648" gradientUnits="userSpaceOnUse">
<stop stop-color="#7EBDE0"/>
<stop offset="1" stop-color="#D2A4D6"/>
</linearGradient>
</defs>
</svg>
