<svg width="1440" height="4211" viewBox="0 0 1440 4211" fill="none" xmlns="http://www.w3.org/2000/svg">
<path d="M2 211.5L-13.5 447H1452.5L1462 351L1309.5 199.5H1246L1175 177.5L1098 192L1029 206.5L974 177.5L920 143.5L873 192L755.5 206.5L605 177.5L536.5 211.5L492.5 177.5L257.5 199.5L202.5 177.5H134L42 206.5L2 211.5Z" fill="#EEB8D4"/>
<path d="M58.5 231.725L22.5 295.189L40 322H849.918L1220.79 295.189L1413 365.5L1355 322L1299.36 231.725L1220.79 219.847H1050.38H979L892.667 204.575L823 219.847L719 219.847H592.5L544.5 231.725L484.5 204.575H364.66H286.095L206.5 231.725L90.5 204.575L58.5 231.725Z" fill="#DB66B5"/>
<path d="M100 264.5L41 299.5L33.5 341L21.5 389.5L1412 368L1380 322L1323.5 275L1249 249.567H1150L1071 241.5L1011.5 231.824L893 221.5L842.5 241.5L763.04 249.567H680.137H615.115H535L407.5 221.5L267 241.5L215.5 249.567L100 264.5Z" fill="#8659A4"/>
<path d="M67.6049 322.846L103.93 316.839L141.264 301.217L295.814 248.767H444.724L705.442 270.29L937.08 248.767L1202.26 270.29L1314.76 301.217L1352.1 334.766L1418.19 366.217L1438.87 453.986L1453 4673H0V431.217L17.1535 386.914L46.9198 366.217L67.6049 322.846Z" fill="#333B6D"/>
<path d="M114.525 315.838L91.3169 295.816L70.6318 274.293L77.1905 259.778L108.975 268.787L77.1905 236.253L94.8485 217.232L126.633 259.778L108.975 204.719L134.705 199.213L151.354 255.773L158.417 208.723L184.652 217.232L173.553 268.787L192.22 236.253L212.4 243.26L184.652 289.81L114.525 315.838Z" fill="#333B6D"/>
<path d="M322.889 206.22L386.962 273.793L488.874 276.295L494.928 243.26V206.22L503 184.697L545.38 131.14L588.768 118.126H677.562L707.328 98.1046H635.183H557.992H509.055L344.583 108.115L271.429 98.1046H163.463L91.8216 81.5869L59.5327 98.1046V118.126L82.7404 138.648H131.174L218.959 161.673L280.51 180.693L322.889 206.22Z" fill="#333B6D"/>
<path d="M646.787 73.5784L597.849 104.111H517.127L555.47 84.0897L579.687 58.5624L646.787 49.5527V73.5784Z" fill="#333B6D"/>
<path d="M128.651 84.0896L117.047 66.0703L153.372 75.08L184.148 66.0703H208.364L191.715 84.0896L170.021 92.5987L153.372 100.607L128.651 84.0896Z" fill="#333B6D"/>
<path d="M236.617 100.607L224.004 90.096H244.689L252.257 81.5869L264.87 90.096L252.257 100.607H236.617Z" fill="#333B6D"/>
<path d="M324.402 33.0353H351.142H371.827L402.602 47.0503H443.468L493.919 28.03L532.262 0L569.596 12.5134L560.515 33.0353L520.658 68.5734L488.874 101.609L411.683 110.618L371.827 94.1007L365.268 76.0814L331.97 47.0503L324.402 33.0353Z" fill="#333B6D"/>
<path d="M583.218 250.769L622.57 275.795H737.6L788.051 250.769V240.257H757.276L788.051 206.221L771.906 190.204L728.518 231.248L757.276 168.681L728.518 154.666L705.311 220.736V142.152H674.535V220.736L649.814 154.666L622.57 168.681L660.409 240.257L649.814 250.769L602.894 190.204L583.218 206.221L635.183 261.78L583.218 231.248V250.769Z" fill="#333B6D"/>
<path d="M810.754 54.5581L794.609 74.5795L810.754 95.602L830.934 113.621L857.674 131.641L882.899 165.176L893.494 208.223L906.107 272.291H969.171L981.784 217.232L1007.01 151.161L1131.12 113.621L1143.73 87.0929L1141.71 54.5581L1131.12 44.0469L1087.73 54.5581L1044.85 74.5795L981.784 95.602H940.414L882.899 54.5581H810.754Z" fill="#333B6D"/>
<path d="M1086.22 111.619L1007.01 126.135L1026.69 163.675L1068.06 192.205L1086.22 202.717L1109.43 242.259V286.807H1193.68V242.259H1204.78L1253.21 215.23L1281.97 192.205H1345.03L1387.92 163.675L1399.02 152.663V126.135H1368.24L1332.42 111.619H1281.97L1242.62 126.135H1177.54H1138.18L1086.22 111.619Z" fill="#333B6D"/>
<path d="M1279.95 97.604V133.142H1323.34L1333.93 124.132V97.604L1346.55 83.0885L1371.77 76.081L1364.71 40.543L1323.34 54.558V63.5676H1303.66L1244.13 40.543H1210.33V63.5676L1260.28 83.0885L1279.95 97.604Z" fill="#333B6D"/>
<path d="M1258.76 263.282V288.809L1282.47 299.321L1300.13 267.286L1295.59 255.273L1268.85 249.768L1258.76 263.282Z" fill="#333B6D"/>
<path d="M1326.87 284.805L1338.98 329.853L1375.3 353.378L1384.39 337.862L1404.06 353.378L1413.14 343.868L1394.98 323.847L1413.14 329.853V311.333H1394.98L1404.06 294.815L1394.98 284.805L1375.3 311.333L1384.39 274.294L1375.3 268.287L1361.68 311.333V274.294H1349.57V311.333L1338.98 284.805H1326.87Z" fill="#333B6D"/>
</svg>
