<svg width="1088" height="614" viewBox="0 0 1088 614" fill="none" xmlns="http://www.w3.org/2000/svg">
<path d="M81.6541 31.0253L61.8302 73.0595L23.4214 123.1L0.5 165.134L39.5283 225.684V333.271L0.5 390.818V466.88L61.8302 490.399L110.77 545.444L169.623 600.489L279.893 614L357.95 600.489H439.104L556.189 545.444L591.5 432.853L556.189 390.818V275.224L591.5 136.111L556.189 49.5403L488.044 0L409.987 15.5126H331.931L201.836 0H136.789L81.6541 31.0253Z" fill="url(#paint0_linear_974_1106)"/>
<path d="M987.808 31.0253L1012.16 73.0595L1059.34 123.1L1087.5 165.134L1039.56 225.684V333.271L1087.5 390.818V466.88L1012.16 490.399L952.041 545.444L879.745 600.489L744.286 614L648.399 600.489H548.708L404.877 545.444L361.5 432.853L404.877 390.818V275.224L361.5 136.111L404.877 49.5403L488.588 0L584.475 15.5126H680.362L840.173 0H920.079L987.808 31.0253Z" fill="url(#paint1_linear_974_1106)"/>
<defs>
<linearGradient id="paint0_linear_974_1106" x1="543.5" y1="-185" x2="543.5" y2="683.5" gradientUnits="userSpaceOnUse">
<stop stop-color="#CFA5D6"/>
<stop offset="1" stop-color="#865AA4"/>
</linearGradient>
<linearGradient id="paint1_linear_974_1106" x1="543.5" y1="-185" x2="543.5" y2="683.5" gradientUnits="userSpaceOnUse">
<stop stop-color="#CFA5D6"/>
<stop offset="1" stop-color="#865AA4"/>
</linearGradient>
</defs>
</svg>
