<svg width="437" height="283" viewBox="0 0 437 283" fill="none" xmlns="http://www.w3.org/2000/svg">
<g opacity="0.7">
<g filter="url(#filter0_f_141_419)">
<path d="M187.246 114.011C211.63 107.151 225.411 102.288 247.24 89.4087C248.436 88.703 249.845 88.4285 251.222 88.6097C260.892 89.8826 267.626 89.5001 275.478 87.8029C279.73 86.8838 280.599 81.1857 276.779 79.1035C272.977 77.0313 272.046 71.5845 274.591 68.0813C274.841 67.7363 275.085 67.3849 275.322 67.0254C277.765 63.3208 274.307 58.8846 269.955 59.7515C261.227 61.4899 255.074 64.1111 246.404 68.2439C245.671 68.5934 244.864 68.7928 244.053 68.8284C194.763 70.9895 161.609 77.3083 129.135 89.5531C124.967 91.1244 124.061 96.5585 127.557 99.318C145.116 113.18 159.171 117.514 186.355 114.19C186.652 114.154 186.958 114.092 187.246 114.011Z" fill="#A1A0B9" fill-opacity="0.6"/>
</g>
<g filter="url(#filter1_f_141_419)">
<path d="M352.734 146.998C377.256 142.358 391.206 138.767 413.733 128.005C414.986 127.407 416.413 127.256 417.769 127.556C427.14 129.631 433.78 129.833 441.629 128.842C445.884 128.304 447.227 122.783 443.655 120.41C440.099 118.048 439.653 112.619 442.453 109.397C442.728 109.08 442.998 108.756 443.261 108.423C445.979 104.995 442.964 100.341 438.616 100.819C429.9 101.775 423.635 103.819 414.774 107.129C414.013 107.413 413.192 107.542 412.381 107.506C363.864 105.398 330.788 108.744 297.892 117.95C293.603 119.15 292.225 124.483 295.47 127.534C311.479 142.584 324.909 148.024 351.83 147.099C352.13 147.088 352.44 147.054 352.734 146.998Z" fill="#A1A0B9" fill-opacity="0.6"/>
</g>
<g filter="url(#filter2_f_141_419)">
<path d="M228.071 207.444C255.662 211.369 271.424 212.756 298.771 210.595C299.934 210.503 301.108 210.75 302.14 211.293C311.916 216.438 319.066 218.778 328.18 220.479C332.096 221.209 334.782 216.719 332.058 213.813C329.296 210.868 330.425 205.471 334.053 203.701C334.432 203.516 334.805 203.323 335.176 203.122C338.722 201.197 337.606 196.198 333.665 195.335C323.572 193.124 316.184 192.879 305.316 192.909C304.638 192.911 303.952 192.796 303.311 192.574C253.174 175.215 217.526 167.471 180.393 164.846C175.623 164.509 172.547 169.683 175.27 173.614C187.314 191.005 199.91 199.773 228.071 207.444Z" fill="#A1A0B9" fill-opacity="0.6"/>
</g>
<g filter="url(#filter3_f_141_419)">
<path d="M69.1901 270.958C93.9884 268.637 108.246 266.24 131.66 256.838C133.11 256.256 134.73 256.256 136.192 256.807C144.984 260.116 151.438 261.144 159.058 261.015C163.8 260.935 166.228 255.294 162.805 252.011C162.697 251.908 162.59 251.806 162.482 251.705C159.1 248.535 159.017 242.688 162.236 239.352C162.909 238.655 163.552 237.92 164.181 237.129C166.871 233.749 164.3 228.98 159.98 228.977C151.011 228.97 144.513 230.527 135.258 233.235C134.377 233.492 133.437 233.546 132.531 233.393C84.0683 225.201 50.6366 225.132 16.623 231.8C12.4703 232.614 10.5817 237.424 13.107 240.82C27.8895 260.695 40.6533 268.757 68.1599 270.966C68.4985 270.993 68.8519 270.99 69.1901 270.958Z" fill="#A1A0B9" fill-opacity="0.6"/>
</g>
<g filter="url(#filter4_f_141_419)">
<path d="M382.089 46.6495C404.715 35.2627 417.315 27.8594 436.286 11.0517C437.326 10.1307 438.656 9.59244 440.042 9.50764C449.777 8.91203 456.314 7.25167 463.699 4.08738C467.697 2.37388 467.463 -3.38533 463.316 -4.7004C459.189 -6.00925 457.235 -11.1783 459.065 -15.1026C459.245 -15.489 459.417 -15.8804 459.581 -16.2785C461.273 -20.3813 457.032 -24.0762 452.924 -22.3947C444.689 -19.023 439.149 -15.276 431.427 -9.56466C430.774 -9.08168 430.02 -8.73212 429.23 -8.54235C381.259 2.98395 349.919 15.5128 320.378 33.729C316.587 36.0666 316.734 41.5738 320.692 43.6156C340.574 53.872 355.198 55.445 381.248 46.9955C381.533 46.903 381.821 46.7842 382.089 46.6495Z" fill="#A1A0B9" fill-opacity="0.6"/>
</g>
</g>
<defs>
<filter id="filter0_f_141_419" x="114.097" y="48.3417" width="176.413" height="78.2121" filterUnits="userSpaceOnUse" color-interpolation-filters="sRGB">
<feFlood flood-opacity="0" result="BackgroundImageFix"/>
<feBlend mode="normal" in="SourceGraphic" in2="BackgroundImageFix" result="shape"/>
<feGaussianBlur stdDeviation="5.65" result="effect1_foregroundBlur_141_419"/>
</filter>
<filter id="filter1_f_141_419" x="282.379" y="89.4845" width="174.632" height="69.0138" filterUnits="userSpaceOnUse" color-interpolation-filters="sRGB">
<feFlood flood-opacity="0" result="BackgroundImageFix"/>
<feBlend mode="normal" in="SourceGraphic" in2="BackgroundImageFix" result="shape"/>
<feGaussianBlur stdDeviation="5.65" result="effect1_foregroundBlur_141_419"/>
</filter>
<filter id="filter2_f_141_419" x="162.95" y="153.53" width="185.663" height="78.3279" filterUnits="userSpaceOnUse" color-interpolation-filters="sRGB">
<feFlood flood-opacity="0" result="BackgroundImageFix"/>
<feBlend mode="normal" in="SourceGraphic" in2="BackgroundImageFix" result="shape"/>
<feGaussianBlur stdDeviation="5.65" result="effect1_foregroundBlur_141_419"/>
</filter>
<filter id="filter3_f_141_419" x="0.666797" y="215.706" width="175.913" height="66.5779" filterUnits="userSpaceOnUse" color-interpolation-filters="sRGB">
<feFlood flood-opacity="0" result="BackgroundImageFix"/>
<feBlend mode="normal" in="SourceGraphic" in2="BackgroundImageFix" result="shape"/>
<feGaussianBlur stdDeviation="5.65" result="effect1_foregroundBlur_141_419"/>
</filter>
<filter id="filter4_f_141_419" x="306.327" y="-34.1105" width="171.539" height="97.8533" filterUnits="userSpaceOnUse" color-interpolation-filters="sRGB">
<feFlood flood-opacity="0" result="BackgroundImageFix"/>
<feBlend mode="normal" in="SourceGraphic" in2="BackgroundImageFix" result="shape"/>
<feGaussianBlur stdDeviation="5.65" result="effect1_foregroundBlur_141_419"/>
</filter>
</defs>
</svg>
