<svg width="125" height="119" viewBox="0 0 125 119" fill="none" xmlns="http://www.w3.org/2000/svg">
<g filter="url(#filter0_d_197_122)">
<path d="M23.2632 66.0283C13.0475 49.5717 18.9191 40.0334 30.4836 39.1716C33.5763 25.7801 37.7558 22.211 51.4406 25.8754C59.4309 12.1718 65 11.4961 76.9764 23.4099C88.7659 19.1046 92.7376 21.7132 95.2037 35.1211C105.193 38.211 107.592 42.676 106.739 55.0215C103.753 68.23 99.0212 76.4142 87.8272 84.2308C80.6504 89.4161 76.5166 91.8323 68.8955 95.0415C66.861 96.1281 62.8358 94.5081 57.5291 91.6471C55.0806 90.4219 52.5942 88.8849 49.317 86.9695C49.1226 86.8562 48.9272 86.7423 48.731 86.628C39.0198 80.9688 28.688 73.1001 23.2632 66.0283Z" fill="#FAF4F4"/>
<path d="M68.8955 95.0416C65.8474 96.6694 58.3308 92.2222 48.731 86.628M68.8955 95.0416C60.085 93.8155 56.7951 91.3144 48.731 86.628M68.8955 95.0416C76.0305 91.6206 83.2157 87.4509 87.8272 84.2307M68.8955 95.0416C76.5166 91.8323 80.6504 89.4161 87.8272 84.2307M48.731 86.628C39.0198 80.9688 28.688 73.1001 23.2632 66.0283C13.0475 49.5717 18.9191 40.0334 30.4836 39.1716C33.5763 25.7801 37.7558 22.211 51.4406 25.8754C59.4309 12.1718 65 11.4961 76.9764 23.4099C88.7659 19.1046 92.7376 21.7132 95.2037 35.1211C105.193 38.211 107.592 42.676 106.739 55.0215C103.753 68.23 99.0212 76.4142 87.8272 84.2307" stroke="#FFE6E6"/>
<path d="M69.4238 94.2491C67.4524 97.5568 64.1504 98.1931 55.7753 97.9473C40.3981 96.5445 41.3468 93.2325 49.3473 86.148L69.4238 94.2491Z" fill="#FFEEEE" stroke="#FFE6E6"/>
<path d="M68.3331 94.2548C70.6394 97.3384 73.9899 97.626 82.2934 96.5062C97.4397 93.5037 96.15 90.309 87.4528 84.0996L68.3331 94.2548Z" fill="#FFEEEE" stroke="#FFE6E6"/>
<path d="M48.4312 86.9287C56.2205 91.495 60.7642 93.1162 69.1798 94.5365" stroke="#FEF6FF"/>
<path d="M87.854 84.1622C81.2086 89.8843 77.0557 91.9875 69.1802 94.5365" stroke="#FEF6FF"/>
<path d="M95.4619 35.057C91.3582 61.9455 85.9908 75.1973 69.1803 94.5365" stroke="#FFE6E6"/>
<path d="M30.4497 39.2068C41.3876 65.5297 49.2211 78.4006 69.1805 94.5365" stroke="#FFE6E6"/>
<path d="M51.1982 26.066C53.7544 51.8504 57.8334 66.8689 69.1804 94.5365" stroke="#FFE6E6"/>
<path d="M76.7876 23.2995C76.5357 51.4212 74.8179 67.0105 69.1798 94.5366" stroke="#FFE6E6"/>
</g>
<defs>
<filter id="filter0_d_197_122" x="0.199512" y="0.199963" width="124.498" height="118.595" filterUnits="userSpaceOnUse" color-interpolation-filters="sRGB">
<feFlood flood-opacity="0" result="BackgroundImageFix"/>
<feColorMatrix in="SourceAlpha" type="matrix" values="0 0 0 0 0 0 0 0 0 0 0 0 0 0 0 0 0 0 127 0" result="hardAlpha"/>
<feOffset dy="3"/>
<feGaussianBlur stdDeviation="8.65"/>
<feComposite in2="hardAlpha" operator="out"/>
<feColorMatrix type="matrix" values="0 0 0 0 0 0 0 0 0 0 0 0 0 0 0 0 0 0 0.25 0"/>
<feBlend mode="normal" in2="BackgroundImageFix" result="effect1_dropShadow_197_122"/>
<feBlend mode="normal" in="SourceGraphic" in2="effect1_dropShadow_197_122" result="shape"/>
</filter>
</defs>
</svg>
