<svg width="617" height="729" viewBox="0 0 617 729" fill="none" xmlns="http://www.w3.org/2000/svg">
<g filter="url(#filter0_f_1080_539)">
<path d="M355.1 208.399C322.694 213.258 305.303 217.612 277.581 232.348C276.461 237.438 278.951 240.933 283.803 243.364C309.723 228.762 325.722 224.864 355.898 222.729C360.298 217.792 359.403 213.072 355.1 208.399Z" fill="#4D425B"/>
<path fill-rule="evenodd" clip-rule="evenodd" d="M352.856 307.975C356.175 273.67 357.057 249.358 355.898 222.729C325.722 224.864 309.723 228.762 283.803 243.364C302.348 276.225 324.642 315.923 324.642 315.923L352.856 307.975Z" fill="#4D425B"/>
<path d="M351.934 172C345.157 137.7 335.503 129.659 324.638 128.461C287.285 123.432 257.132 131.692 275.761 169.444C266.548 165.363 259.487 162.594 253.558 166.265C242.073 175.789 257.551 198.004 259.332 200.403C259.936 201.216 267.651 214.781 277.581 232.348C305.303 217.612 322.694 213.258 355.1 208.399C354.353 197.249 353.289 185.38 351.934 172Z" fill="#4D425B"/>
<path fill-rule="evenodd" clip-rule="evenodd" d="M235.676 489.13C292.31 533.792 336.794 513.045 376.725 470.667C406.667 438.89 414.682 401.199 395.259 361.663C343.143 413.673 307.744 441.482 235.676 489.13ZM223.855 479.008C161.52 421.481 155.391 338.19 198.06 292.907C240.728 247.624 292.864 253.036 355.199 310.563C369.138 323.427 380.054 336.28 388.123 348.989C330.272 406.058 294.191 434.423 223.855 479.008Z" fill="#4D425B"/>
<path d="M223.855 479.008C227.854 482.699 231.794 486.068 235.676 489.13C307.744 441.482 343.143 413.673 395.259 361.663C393.193 357.458 390.817 353.231 388.123 348.989C330.272 406.058 294.191 434.423 223.855 479.008Z" fill="#4D425B"/>
<path d="M76.8677 268.397C71.2158 256.929 67.8882 244.889 66.7018 232.734L46.3348 255.884C59.6566 299.086 71.6815 308.695 93.8287 323.583L119.702 313.54C101.535 303.167 86.4755 287.892 76.8677 268.397Z" fill="#4D425B"/>
<path d="M280.879 136.972C289.216 145.099 296.266 154.655 301.622 165.522C307.536 177.522 310.2 192.879 310.481 208.529L320.667 199.76C315.948 169.706 310.4 156.382 296.92 136.972L280.879 136.972Z" fill="#4D425B"/>
<path d="M239.271 315.663C209.872 329.854 178.084 332.574 149.83 325.548C138.758 328.671 140.237 333.809 143.45 343.226C187.014 353.183 262.336 356.564 320.667 269.915C319.516 260.82 320.034 251.599 303.3 253.429C293.061 284.368 272.768 299.495 239.271 315.663Z" fill="#4D425B"/>
<path d="M149.83 325.548C178.084 332.574 209.872 329.854 239.271 315.663C272.768 299.495 293.061 284.368 303.3 253.429C307.971 239.314 310.803 226.533 310.481 208.529C310.2 192.879 307.536 177.522 301.622 165.522C296.266 154.655 289.216 145.099 280.879 136.972C246.204 103.176 189.251 88.494 139.218 112.645C105.476 128.931 81.8273 156.975 71.7102 188.186C67.0249 202.64 65.2416 217.774 66.7018 232.734C67.8882 244.889 71.2158 256.929 76.8677 268.397C86.4755 287.892 101.535 303.167 119.702 313.54C129.031 318.866 139.179 322.899 149.83 325.548Z" fill="#4D425B"/>
<path d="M90.8713 378.478C106.636 346.053 116.932 329.241 141.541 305.077C147.262 305.62 150.117 309.418 151.079 315.341C127.203 337.656 117.843 353.158 105.676 384.161C99.0385 387.118 94.37 384.582 90.8713 378.478Z" fill="#4D425B"/>
<path fill-rule="evenodd" clip-rule="evenodd" d="M196.306 409.77C157.746 408.404 132.171 399.785 105.676 384.161C117.843 353.158 127.203 337.656 151.079 315.341C185.351 339.882 217.861 378.711 213.939 382.795L196.306 409.77Z" fill="#4D425B"/>
<path d="M51.2324 354.553C17.3978 335.836 19.587 303.625 21.8999 291.798C28.8948 250.83 42.4345 249.564 76.0014 281.906C74.7405 270.842 74.1509 262.483 79.9601 257.49C93.7502 248.635 112.018 272.414 113.954 275.097C114.611 276.007 126.336 288.701 141.541 305.077C116.932 329.241 106.636 346.053 90.8713 378.478C79.3945 373.925 55.0554 356.668 51.2324 354.553Z" fill="#4D425B"/>
<path d="M250.502 274.719C212.833 295.383 165.579 282.286 144.956 245.467C124.333 208.647 138.152 162.047 175.821 141.383C213.49 120.718 260.744 133.815 281.367 170.635C301.99 207.454 288.171 254.054 250.502 274.719Z" fill="#4D425B"/>
<path fill-rule="evenodd" clip-rule="evenodd" d="M420.386 394.432C415.091 392.485 409.422 390.529 403.234 388.41C373.125 406.551 363.841 420.629 357.628 451.061C370.058 462.704 380.446 471.788 391.202 479.198C391.138 444.395 401.384 426.892 418.818 397.111L418.819 397.11C419.335 396.229 419.858 395.336 420.386 394.432Z" fill="#4D425B"/>
<path d="M444.903 502.835L479.586 431.401C459.064 411.046 443.196 402.821 420.386 394.432C419.858 395.336 419.335 396.229 418.819 397.11L418.818 397.111C401.384 426.892 391.138 444.395 391.202 479.198C406.206 489.535 421.926 496.614 444.903 502.835Z" fill="#4D425B"/>
<path fill-rule="evenodd" clip-rule="evenodd" d="M329.423 459.577C292.397 447.734 276.059 458.446 252.633 481.954C260.055 501.054 270.297 520.838 281.241 539.043C295.255 500.899 310.689 486.232 349.448 470.029C342.741 466.088 335.877 462.479 329.423 459.577Z" fill="#4D425B"/>
<path d="M343.198 611.12C349.054 600.426 387.909 500.022 387.909 500.022C382.02 491.839 366.228 479.892 349.448 470.029C310.689 486.232 295.255 500.899 281.241 539.043C308.035 583.612 339.041 618.712 343.198 611.12Z" fill="#4D425B"/>
<path d="M514.937 439.189C522.751 472.292 505.998 505.203 477.715 511.679C449.431 518.155 420.168 496.569 412.354 463.466C404.541 430.363 421.293 397.453 449.577 390.977C477.86 384.501 507.123 406.086 514.937 439.189Z" fill="#4D425B"/>
<ellipse cx="62.0703" cy="72.574" rx="62.0703" ry="72.574" transform="matrix(0.997614 -0.0690386 0.0704818 0.997513 308.266 487.829)" fill="#4D425B"/>
</g>
<defs>
<filter id="filter0_f_1080_539" x="-79.2507" y="0.703125" width="696.108" height="727.757" filterUnits="userSpaceOnUse" color-interpolation-filters="sRGB">
<feFlood flood-opacity="0" result="BackgroundImageFix"/>
<feBlend mode="normal" in="SourceGraphic" in2="BackgroundImageFix" result="shape"/>
<feGaussianBlur stdDeviation="50" result="effect1_foregroundBlur_1080_539"/>
</filter>
</defs>
</svg>
