<svg width="276" height="317" viewBox="0 0 276 317" fill="none" xmlns="http://www.w3.org/2000/svg">
<path d="M260.119 74.2634C244.307 70.8779 229.989 62.5256 219.251 50.4242C208.514 38.3228 201.919 23.1048 200.428 6.98893V0H145.882V216.673C145.849 226.265 142.813 235.606 137.202 243.382C131.591 251.159 123.687 256.98 114.6 260.028C105.513 263.076 95.7004 263.198 86.5409 260.376C77.3814 257.554 69.3355 251.931 63.5338 244.296C57.6419 236.533 54.3736 227.094 54.2027 217.347C54.0318 207.6 56.9672 198.051 62.5832 190.086C68.1993 182.122 76.204 176.154 85.4367 173.05C94.6693 169.946 104.65 169.866 113.931 172.822V117.354C93.2346 114.49 72.1615 118.173 53.6594 127.887C35.1572 137.602 20.1513 152.862 10.7406 171.533C1.32999 190.204 -2.01475 211.352 1.17428 232.02C4.3633 252.688 13.9266 271.841 28.5265 286.8C42.4495 301.059 60.302 310.842 79.8049 314.9C99.3078 318.958 119.576 317.107 138.024 309.583C156.471 302.06 172.26 289.204 183.375 272.659C194.49 256.113 200.427 236.627 200.428 216.689V105.975C222.472 121.749 248.902 130.207 276 130.159V75.9116C270.663 75.9182 265.341 75.3658 260.119 74.2634Z" fill="#7E73A5"/>
</svg>
