<svg width="200" height="124" viewBox="0 0 200 124" fill="none" xmlns="http://www.w3.org/2000/svg">
<ellipse cx="100" cy="106.617" rx="100" ry="17" fill="black" fill-opacity="0.15"/>
<g filter="url(#filter0_g_822_2167)">
<mask id="path-2-inside-1_822_2167" fill="white">
<path d="M33.3157 3.31124C33.9257 3.86784 34.5063 4.46041 35.0829 5.06112C35.1849 5.16727 35.2868 5.27342 35.3919 5.38278C35.7151 5.72103 36.0369 6.06102 36.3578 6.40204C36.5071 6.56026 36.5071 6.56026 36.6594 6.72168C37.3183 7.43035 37.9197 8.17591 38.5065 8.96199C38.6383 9.13376 38.7701 9.30541 38.9021 9.47689C40.3424 11.3815 41.5029 13.4186 42.6024 15.5919C42.9428 16.2575 43.2927 16.9167 43.6419 17.5764C43.7399 17.5715 43.8379 17.5665 43.9389 17.5615C47.9261 17.3657 51.763 17.2766 55.6954 18.1647C56.2296 18.2612 56.2296 18.2612 56.7658 18.2265C57.0505 17.8968 57.0505 17.8968 57.2795 17.4418C57.3722 17.2757 57.4648 17.1096 57.5603 16.9385C57.657 16.7601 57.7538 16.5818 57.8535 16.398C58.6897 14.9122 59.5228 13.6262 60.6173 12.3752C60.822 12.1236 61.0241 11.8695 61.226 11.6149C62.2185 10.3636 63.2173 9.20098 64.3859 8.162C64.8848 7.70443 65.3528 7.21243 65.8213 6.71505C67.5521 5.01206 69.723 3.82965 72.0293 3.95385C74.4513 4.2209 76.5052 5.54275 78.3565 7.28091C78.6048 7.51174 78.8567 7.73643 79.11 7.9601C79.9143 8.67032 80.7046 9.38787 81.4632 10.1613C82.0781 10.7696 82.7329 11.3267 83.3879 11.8775C83.6826 12.1692 83.915 12.4546 84.1663 12.7924C84.8525 13.6935 85.6036 14.5166 86.3537 15.3479C86.9449 16.0118 87.4752 16.6775 87.9598 17.4456C88.2306 17.8658 88.5389 18.245 88.8443 18.6329C89.9886 20.1418 90.8858 22.0194 90.8681 24.0372C90.8668 24.2274 90.8655 24.4177 90.8642 24.6137C90.8617 24.8312 90.8617 24.8312 90.8592 25.053C90.765 25.053 90.6709 25.053 90.5739 25.053C90.5605 25.1737 90.547 25.2944 90.5332 25.4188C90.327 26.3227 89.6275 26.9077 88.9674 27.413C87.2197 28.5024 85.0598 28.8286 83.1419 28.2242C80.791 27.4087 79.0169 25.7146 77.4501 23.5902C77.2917 23.3765 77.2917 23.3765 77.1302 23.1585C76.0381 21.6602 75.0249 20.102 74.0532 18.5008C73.9556 18.3405 73.9556 18.3405 73.856 18.1769C73.5084 17.599 73.19 17.0141 72.8901 16.4027C72.6166 15.8666 72.3078 15.3569 72.0026 14.8438C71.333 13.7141 71.333 13.7141 71.1734 13.3505C70.6497 13.4536 70.3069 13.7125 69.8745 14.0577C69.664 14.2253 69.664 14.2253 69.4491 14.3961C69.3032 14.5137 69.1573 14.6312 69.0069 14.7523C68.8638 14.8661 68.7206 14.9799 68.5731 15.0971C66.5868 16.6844 64.7497 18.3784 63.185 20.502C63.5783 20.8008 63.9639 21.0079 64.3969 21.2189C66.7392 22.361 69.1263 23.6354 71.1734 25.3781C71.2841 25.4721 71.3948 25.566 71.5088 25.6628C72.4025 26.4247 73.2877 27.1985 74.1691 27.9787C74.2552 28.0545 74.3412 28.1302 74.4299 28.2083C76.0684 29.6574 77.4542 31.3252 78.7339 33.1798C78.8579 33.3517 78.9822 33.5234 79.1067 33.6948C82.4428 38.3369 82.4428 38.3369 82.4428 40.0064C82.612 39.9988 82.7812 39.9913 82.9555 39.9835C86.4185 39.8756 89.8117 41.2164 92.4233 43.8767C92.7049 44.1079 92.7049 44.1079 93.0383 44.0298C93.4775 43.8913 93.8293 43.6894 94.2287 43.4393C94.3841 43.3437 94.5395 43.2482 94.6995 43.1497C94.865 43.0477 95.0306 42.9457 95.2011 42.8406C97.7382 41.3054 100.293 40.2748 103.106 39.6096C103.421 39.5279 103.421 39.5279 103.726 39.349C104.296 39.1276 104.833 39.1441 105.432 39.1448C105.624 39.1437 105.624 39.1437 105.82 39.1427C106.092 39.1418 106.364 39.1417 106.636 39.1424C107.041 39.1429 107.446 39.1391 107.851 39.1349C111.746 39.1194 115.424 39.7669 118.533 42.6069C118.656 42.5446 118.656 42.5446 118.78 42.4809C128.7 37.4396 140.367 34.3063 150.908 38.8471C152.946 39.7642 154.765 40.8721 156.478 42.4444C156.609 42.5615 156.739 42.6786 156.873 42.7993C157.736 43.5873 158.553 44.4225 159.363 45.2793C159.686 45.6187 160.014 45.9487 160.348 46.2742C162.208 48.1256 163.484 50.2032 164.7 52.6245C164.898 53.0153 165.099 53.4035 165.301 53.7914C167.178 57.423 168.625 61.172 169.856 65.1338C170.106 65.927 170.371 66.7125 170.645 67.4953C170.69 67.625 170.736 67.7547 170.782 67.8884C171.102 68.7874 171.472 69.6306 171.908 70.4647C172.108 71.174 171.876 71.7077 171.602 72.3594C171.435 72.7237 171.261 73.0812 171.082 73.438C171.018 73.5664 170.955 73.6949 170.889 73.8272C170.028 75.5466 169.098 77.0937 167.89 78.5274C167.782 78.6611 167.674 78.7947 167.562 78.9325C165.78 81.0661 163.595 82.3761 161.328 83.7285C161.137 83.8451 160.946 83.9617 160.755 84.0784C157.544 86.0056 154.064 87.3021 150.63 88.6046C150.63 89.1824 150.76 89.4261 151 89.9316C151.079 90.0994 151.157 90.2671 151.238 90.44C151.323 90.6188 151.407 90.7975 151.494 90.9817C152.02 92.0984 152.519 93.1894 152.885 94.3877C153.196 95.4417 153.196 95.4417 153.863 96.2273C154.301 96.43 154.741 96.578 155.194 96.7314C156.815 97.6322 158.341 98.8407 159.046 100.795C159.609 103.028 159.217 105.545 158.278 107.557C158.075 107.925 157.859 108.259 157.62 108.597C157.534 108.72 157.449 108.843 157.362 108.97C155.393 111.659 152.494 112.57 149.545 112.933C146.638 113.201 143.87 113.049 141.405 111.052C140.473 110.095 140.145 108.581 140.042 107.201C139.95 104.146 141.355 101.981 143.069 99.8196C143.165 99.6954 143.26 99.5711 143.358 99.4431C144.41 98.1484 145.818 97.3131 147.206 96.5689C146.987 95.706 146.646 94.9694 146.261 94.1918C146.198 94.0638 146.135 93.9358 146.071 93.804C145.542 92.739 144.97 91.7192 144.353 90.7176C144.175 90.7528 143.998 90.788 143.815 90.8243C141.84 91.1769 139.893 91.2595 137.898 91.2662C137.711 91.268 137.711 91.268 137.519 91.2698C134.963 91.2902 132.53 90.8756 130.043 90.2198C129.8 90.1574 129.8 90.1574 129.551 90.0938C128.772 89.8924 128 89.6802 127.235 89.4173C127.299 89.542 127.363 89.6666 127.429 89.7951C128.029 90.9744 128.609 92.1651 129.17 93.369C129.238 93.5137 129.305 93.6584 129.375 93.8075C129.748 94.6197 130.058 95.4237 130.323 96.2885C130.645 97.3698 130.645 97.3698 131.325 98.1803C131.763 98.3808 132.203 98.5288 132.656 98.6819C134.276 99.5827 135.802 100.791 136.507 102.745C137.071 104.978 136.679 107.496 135.739 109.508C135.536 109.875 135.32 110.209 135.081 110.547C134.996 110.67 134.911 110.793 134.823 110.92C132.855 113.61 129.955 114.52 127.007 114.883C124.099 115.151 121.332 114.999 118.867 113.002C117.935 112.045 117.606 110.531 117.504 109.151C117.411 106.096 118.817 103.931 120.53 101.77C120.626 101.646 120.721 101.522 120.82 101.394C121.871 100.099 123.279 99.2635 124.667 98.5193C123.85 95.3538 121.761 92.2967 119.978 89.7525C119.907 89.6498 119.835 89.5472 119.762 89.4414C119.236 88.7123 118.642 88.1664 117.963 87.6294C117.864 87.7472 117.766 87.8649 117.665 87.9862C116.873 88.9194 116.101 89.7318 115.11 90.3925C115.187 90.536 115.265 90.6796 115.344 90.8274C116.294 92.6259 116.96 94.349 116.612 96.4927C116.296 97.8828 115.626 99.0347 114.682 99.9821C114.576 100.091 114.576 100.091 114.469 100.202C111.588 102.93 107.562 103.298 103.983 103.07C101.767 102.788 99.8298 101.614 98.277 99.8196C98.1829 99.7123 98.0887 99.6051 97.9917 99.4945C98.0388 100.728 98.0859 101.962 98.1344 103.233C98.5801 103.469 98.5801 103.469 99.0348 103.71C101.317 104.99 103.107 107.159 103.983 109.897C104.39 111.288 104.262 113.19 103.751 114.521C102.598 116.961 100.671 118.402 98.4196 119.324C97.7587 119.536 97.101 119.693 96.4225 119.812C96.2548 119.841 96.0871 119.871 95.9144 119.902C92.9296 120.309 89.3567 120.283 86.8204 118.206C86.6423 118.041 86.4669 117.872 86.2944 117.699C86.2081 117.614 86.1219 117.528 86.033 117.441C84.8634 116.204 84.1738 114.704 84.0922 112.883C84.1382 110.261 85.6607 107.991 87.2334 106.214C88.4104 104.943 89.8366 104.175 91.2871 103.395C91.2913 102.83 91.2938 102.264 91.2961 101.699C91.2972 101.541 91.2984 101.382 91.2997 101.219C91.3025 100.251 91.2552 99.3173 91.1445 98.3568C91.0684 98.4844 90.9922 98.612 90.9138 98.7434C89.0474 101.742 86.1994 102.86 83.1254 103.489C79.9751 103.889 76.8041 103.634 74.1858 101.423C72.8627 100.133 71.9955 98.6841 71.8466 96.6787C71.7996 94.6531 72.1338 92.4762 73.3897 90.9365C73.5989 90.6975 73.8124 90.4633 74.0265 90.23C73.9168 90.2195 73.8072 90.209 73.6942 90.1981C70.2152 89.854 66.8525 89.238 63.6397 87.5856C63.2669 87.4437 63.1248 87.4877 62.7571 87.6294C62.4298 87.9188 62.121 88.2105 61.812 88.5234C61.7234 88.6115 61.6348 88.6997 61.5436 88.7905C61.2813 89.0523 61.0204 89.3157 60.76 89.5798C60.6287 89.7129 60.4974 89.8459 60.3621 89.983C60.1306 90.2196 59.8997 90.4571 59.6695 90.6954C59.4423 90.9302 59.2138 91.1634 58.9841 91.395C57.6866 92.7063 56.4594 94.0839 55.3393 95.5937C55.2129 95.7599 55.0864 95.926 54.9598 96.0921C54.2141 97.076 53.5119 98.0575 52.9142 99.1695C52.9953 99.2082 53.0764 99.247 53.1599 99.2869C54.5242 100.159 55.2462 101.928 55.6691 103.568C55.9308 105.276 55.7607 106.766 54.9291 108.241C54.5806 108.796 54.2211 109.282 53.7701 109.734C53.6647 109.843 53.6647 109.843 53.5572 109.954C50.6907 112.669 46.6365 113.083 43.0713 112.822C40.8385 112.519 38.8694 111.502 37.3202 109.611C36.2006 107.912 35.9776 106.281 36.0815 104.208C36.3436 102.138 37.176 100.285 38.6492 99.0069C40.3572 97.7814 42.6917 96.6036 44.738 96.9943C45.3485 97.0933 45.9144 97.1744 46.4949 96.894C47.1767 96.1548 47.5804 95.1362 48.0155 94.1989C48.4589 93.2875 49.0519 92.4938 49.6332 91.6928C49.7024 91.5975 49.7716 91.5022 49.8429 91.4039C50.6812 90.2566 51.5392 89.1504 52.4863 88.117C52.6039 87.9829 52.7216 87.8488 52.8429 87.7107C52.9606 87.5766 53.0782 87.4425 53.1995 87.3043C53.2743 87.2134 53.3492 87.1225 53.4263 87.0288C54.1755 86.1372 55.0007 85.3911 55.8575 84.6409C56.3132 84.2417 56.7543 83.8257 57.1937 83.4035C57.1231 83.3331 57.0525 83.2627 56.9797 83.1901C56.7658 82.9159 56.7658 82.9159 56.7658 82.4283C56.6816 82.4396 56.5975 82.451 56.5108 82.4626C55.5769 82.5799 54.6546 82.6191 53.7155 82.6238C53.4851 82.6255 53.4851 82.6255 53.2501 82.6272C52.7518 82.63 52.2535 82.6311 51.7552 82.6314C51.5846 82.6316 51.4141 82.6319 51.2384 82.6321C48.9766 82.6315 46.7265 82.5765 44.4711 82.3775C44.3597 82.3679 44.2483 82.3583 44.1336 82.3485C41.7104 82.134 39.3611 81.7529 37.0444 80.8943C36.9492 80.8597 36.8541 80.8251 36.7561 80.7894C33.5598 79.6261 30.3993 78.2463 27.3798 76.577C27.2829 76.5235 27.1861 76.4699 27.0863 76.4148C24.1702 74.7795 21.9599 72.4989 19.962 69.5879C19.8691 69.4605 19.7763 69.3331 19.6806 69.2019C18.0239 66.9202 16.7853 64.5273 16.0601 61.671C15.9282 61.1547 15.8044 60.7755 15.5398 60.3234C15.5019 59.9018 15.5019 59.9018 15.5042 59.4294C15.5031 59.1956 15.5031 59.1956 15.5019 58.957C15.5398 58.5355 15.5398 58.5355 15.8251 58.0479C15.9191 57.6181 16.0039 57.1909 16.0837 56.7577C16.5229 54.5356 17.2856 52.6598 18.6016 50.919C19.5417 49.6599 19.9415 48.5788 20.2066 46.9638C20.3079 46.3502 20.4271 45.7411 20.5443 45.1313C20.5671 45.0108 20.5899 44.8903 20.6133 44.7661C20.9285 43.1252 21.4301 41.5712 21.9591 40.0064C22.02 39.8224 22.081 39.6384 22.1437 39.4488C22.8924 37.1906 23.6705 34.9842 24.6694 32.8548C24.7562 32.6549 24.8424 32.4547 24.928 32.2542C25.6634 30.5619 26.6213 29.1147 27.6651 27.6536C27.7745 27.4992 27.7745 27.4992 27.886 27.3416C30.3604 23.868 33.497 21.0584 37.08 19.2018C36.0934 17.2872 34.9001 15.5516 33.3711 14.1631C33.2157 14.017 33.0605 13.8708 32.9053 13.7244C30.891 11.8136 30.891 11.8136 28.6636 10.2623C28.6339 10.3668 28.6041 10.4714 28.5734 10.5791C28.2984 11.2782 27.9229 11.8793 27.5403 12.5073C27.4577 12.6435 27.3752 12.7797 27.2901 12.9201C26.0275 14.9909 24.6957 16.9748 23.2429 18.8767C23.149 19.0001 23.055 19.1235 22.9582 19.2506C22.7968 19.4616 22.6347 19.6718 22.4717 19.8811C22.3172 20.0822 22.1657 20.2864 22.017 20.4932C20.4702 22.6131 18.2587 24.4583 15.8251 24.8905C13.6779 25.0285 11.6446 24.7011 9.91014 23.1039C9.27474 22.41 8.88844 21.8524 8.78733 20.8303C8.75589 17.8897 10.3244 15.8447 12.0226 13.807C12.3753 13.3821 12.7144 12.9473 13.0524 12.5073C13.5808 11.8368 14.1419 11.2331 14.7369 10.64C14.9898 10.3853 15.2383 10.1247 15.4824 9.85911C16.6763 8.5638 17.977 7.45797 19.3053 6.34816C19.668 6.04362 20.0282 5.73555 20.3877 5.42619C24.3352 2.04249 28.7704 -0.654503 33.3157 3.31124ZM94.1401 86.0041C94.4639 87.1601 94.8501 88.2749 95.2546 89.397C95.8668 91.1137 96.3931 92.8409 96.8505 94.6185C96.9917 94.538 96.9917 94.538 97.1358 94.4559C97.2052 94.1676 97.2625 93.8754 97.3141 93.5823C97.6472 91.9782 98.3266 90.7947 99.2756 89.5798C99.1681 89.5188 99.1681 89.5188 99.0584 89.4564C97.4612 88.5417 95.9937 87.5568 94.5681 86.3291C94.4269 86.2218 94.2856 86.1146 94.1401 86.0041Z"/>
</mask>
<path d="M33.3157 3.31124C33.9257 3.86784 34.5063 4.46041 35.0829 5.06112C35.1849 5.16727 35.2868 5.27342 35.3919 5.38278C35.7151 5.72103 36.0369 6.06102 36.3578 6.40204C36.5071 6.56026 36.5071 6.56026 36.6594 6.72168C37.3183 7.43035 37.9197 8.17591 38.5065 8.96199C38.6383 9.13376 38.7701 9.30541 38.9021 9.47689C40.3424 11.3815 41.5029 13.4186 42.6024 15.5919C42.9428 16.2575 43.2927 16.9167 43.6419 17.5764C43.7399 17.5715 43.8379 17.5665 43.9389 17.5615C47.9261 17.3657 51.763 17.2766 55.6954 18.1647C56.2296 18.2612 56.2296 18.2612 56.7658 18.2265C57.0505 17.8968 57.0505 17.8968 57.2795 17.4418C57.3722 17.2757 57.4648 17.1096 57.5603 16.9385C57.657 16.7601 57.7538 16.5818 57.8535 16.398C58.6897 14.9122 59.5228 13.6262 60.6173 12.3752C60.822 12.1236 61.0241 11.8695 61.226 11.6149C62.2185 10.3636 63.2173 9.20098 64.3859 8.162C64.8848 7.70443 65.3528 7.21243 65.8213 6.71505C67.5521 5.01206 69.723 3.82965 72.0293 3.95385C74.4513 4.2209 76.5052 5.54275 78.3565 7.28091C78.6048 7.51174 78.8567 7.73643 79.11 7.9601C79.9143 8.67032 80.7046 9.38787 81.4632 10.1613C82.0781 10.7696 82.7329 11.3267 83.3879 11.8775C83.6826 12.1692 83.915 12.4546 84.1663 12.7924C84.8525 13.6935 85.6036 14.5166 86.3537 15.3479C86.9449 16.0118 87.4752 16.6775 87.9598 17.4456C88.2306 17.8658 88.5389 18.245 88.8443 18.6329C89.9886 20.1418 90.8858 22.0194 90.8681 24.0372C90.8668 24.2274 90.8655 24.4177 90.8642 24.6137C90.8617 24.8312 90.8617 24.8312 90.8592 25.053C90.765 25.053 90.6709 25.053 90.5739 25.053C90.5605 25.1737 90.547 25.2944 90.5332 25.4188C90.327 26.3227 89.6275 26.9077 88.9674 27.413C87.2197 28.5024 85.0598 28.8286 83.1419 28.2242C80.791 27.4087 79.0169 25.7146 77.4501 23.5902C77.2917 23.3765 77.2917 23.3765 77.1302 23.1585C76.0381 21.6602 75.0249 20.102 74.0532 18.5008C73.9556 18.3405 73.9556 18.3405 73.856 18.1769C73.5084 17.599 73.19 17.0141 72.8901 16.4027C72.6166 15.8666 72.3078 15.3569 72.0026 14.8438C71.333 13.7141 71.333 13.7141 71.1734 13.3505C70.6497 13.4536 70.3069 13.7125 69.8745 14.0577C69.664 14.2253 69.664 14.2253 69.4491 14.3961C69.3032 14.5137 69.1573 14.6312 69.0069 14.7523C68.8638 14.8661 68.7206 14.9799 68.5731 15.0971C66.5868 16.6844 64.7497 18.3784 63.185 20.502C63.5783 20.8008 63.9639 21.0079 64.3969 21.2189C66.7392 22.361 69.1263 23.6354 71.1734 25.3781C71.2841 25.4721 71.3948 25.566 71.5088 25.6628C72.4025 26.4247 73.2877 27.1985 74.1691 27.9787C74.2552 28.0545 74.3412 28.1302 74.4299 28.2083C76.0684 29.6574 77.4542 31.3252 78.7339 33.1798C78.8579 33.3517 78.9822 33.5234 79.1067 33.6948C82.4428 38.3369 82.4428 38.3369 82.4428 40.0064C82.612 39.9988 82.7812 39.9913 82.9555 39.9835C86.4185 39.8756 89.8117 41.2164 92.4233 43.8767C92.7049 44.1079 92.7049 44.1079 93.0383 44.0298C93.4775 43.8913 93.8293 43.6894 94.2287 43.4393C94.3841 43.3437 94.5395 43.2482 94.6995 43.1497C94.865 43.0477 95.0306 42.9457 95.2011 42.8406C97.7382 41.3054 100.293 40.2748 103.106 39.6096C103.421 39.5279 103.421 39.5279 103.726 39.349C104.296 39.1276 104.833 39.1441 105.432 39.1448C105.624 39.1437 105.624 39.1437 105.82 39.1427C106.092 39.1418 106.364 39.1417 106.636 39.1424C107.041 39.1429 107.446 39.1391 107.851 39.1349C111.746 39.1194 115.424 39.7669 118.533 42.6069C118.656 42.5446 118.656 42.5446 118.78 42.4809C128.7 37.4396 140.367 34.3063 150.908 38.8471C152.946 39.7642 154.765 40.8721 156.478 42.4444C156.609 42.5615 156.739 42.6786 156.873 42.7993C157.736 43.5873 158.553 44.4225 159.363 45.2793C159.686 45.6187 160.014 45.9487 160.348 46.2742C162.208 48.1256 163.484 50.2032 164.7 52.6245C164.898 53.0153 165.099 53.4035 165.301 53.7914C167.178 57.423 168.625 61.172 169.856 65.1338C170.106 65.927 170.371 66.7125 170.645 67.4953C170.69 67.625 170.736 67.7547 170.782 67.8884C171.102 68.7874 171.472 69.6306 171.908 70.4647C172.108 71.174 171.876 71.7077 171.602 72.3594C171.435 72.7237 171.261 73.0812 171.082 73.438C171.018 73.5664 170.955 73.6949 170.889 73.8272C170.028 75.5466 169.098 77.0937 167.89 78.5274C167.782 78.6611 167.674 78.7947 167.562 78.9325C165.78 81.0661 163.595 82.3761 161.328 83.7285C161.137 83.8451 160.946 83.9617 160.755 84.0784C157.544 86.0056 154.064 87.3021 150.63 88.6046C150.63 89.1824 150.76 89.4261 151 89.9316C151.079 90.0994 151.157 90.2671 151.238 90.44C151.323 90.6188 151.407 90.7975 151.494 90.9817C152.02 92.0984 152.519 93.1894 152.885 94.3877C153.196 95.4417 153.196 95.4417 153.863 96.2273C154.301 96.43 154.741 96.578 155.194 96.7314C156.815 97.6322 158.341 98.8407 159.046 100.795C159.609 103.028 159.217 105.545 158.278 107.557C158.075 107.925 157.859 108.259 157.62 108.597C157.534 108.72 157.449 108.843 157.362 108.97C155.393 111.659 152.494 112.57 149.545 112.933C146.638 113.201 143.87 113.049 141.405 111.052C140.473 110.095 140.145 108.581 140.042 107.201C139.95 104.146 141.355 101.981 143.069 99.8196C143.165 99.6954 143.26 99.5711 143.358 99.4431C144.41 98.1484 145.818 97.3131 147.206 96.5689C146.987 95.706 146.646 94.9694 146.261 94.1918C146.198 94.0638 146.135 93.9358 146.071 93.804C145.542 92.739 144.97 91.7192 144.353 90.7176C144.175 90.7528 143.998 90.788 143.815 90.8243C141.84 91.1769 139.893 91.2595 137.898 91.2662C137.711 91.268 137.711 91.268 137.519 91.2698C134.963 91.2902 132.53 90.8756 130.043 90.2198C129.8 90.1574 129.8 90.1574 129.551 90.0938C128.772 89.8924 128 89.6802 127.235 89.4173C127.299 89.542 127.363 89.6666 127.429 89.7951C128.029 90.9744 128.609 92.1651 129.17 93.369C129.238 93.5137 129.305 93.6584 129.375 93.8075C129.748 94.6197 130.058 95.4237 130.323 96.2885C130.645 97.3698 130.645 97.3698 131.325 98.1803C131.763 98.3808 132.203 98.5288 132.656 98.6819C134.276 99.5827 135.802 100.791 136.507 102.745C137.071 104.978 136.679 107.496 135.739 109.508C135.536 109.875 135.32 110.209 135.081 110.547C134.996 110.67 134.911 110.793 134.823 110.92C132.855 113.61 129.955 114.52 127.007 114.883C124.099 115.151 121.332 114.999 118.867 113.002C117.935 112.045 117.606 110.531 117.504 109.151C117.411 106.096 118.817 103.931 120.53 101.77C120.626 101.646 120.721 101.522 120.82 101.394C121.871 100.099 123.279 99.2635 124.667 98.5193C123.85 95.3538 121.761 92.2967 119.978 89.7525C119.907 89.6498 119.835 89.5472 119.762 89.4414C119.236 88.7123 118.642 88.1664 117.963 87.6294C117.864 87.7472 117.766 87.8649 117.665 87.9862C116.873 88.9194 116.101 89.7318 115.11 90.3925C115.187 90.536 115.265 90.6796 115.344 90.8274C116.294 92.6259 116.96 94.349 116.612 96.4927C116.296 97.8828 115.626 99.0347 114.682 99.9821C114.576 100.091 114.576 100.091 114.469 100.202C111.588 102.93 107.562 103.298 103.983 103.07C101.767 102.788 99.8298 101.614 98.277 99.8196C98.1829 99.7123 98.0887 99.6051 97.9917 99.4945C98.0388 100.728 98.0859 101.962 98.1344 103.233C98.5801 103.469 98.5801 103.469 99.0348 103.71C101.317 104.99 103.107 107.159 103.983 109.897C104.39 111.288 104.262 113.19 103.751 114.521C102.598 116.961 100.671 118.402 98.4196 119.324C97.7587 119.536 97.101 119.693 96.4225 119.812C96.2548 119.841 96.0871 119.871 95.9144 119.902C92.9296 120.309 89.3567 120.283 86.8204 118.206C86.6423 118.041 86.4669 117.872 86.2944 117.699C86.2081 117.614 86.1219 117.528 86.033 117.441C84.8634 116.204 84.1738 114.704 84.0922 112.883C84.1382 110.261 85.6607 107.991 87.2334 106.214C88.4104 104.943 89.8366 104.175 91.2871 103.395C91.2913 102.83 91.2938 102.264 91.2961 101.699C91.2972 101.541 91.2984 101.382 91.2997 101.219C91.3025 100.251 91.2552 99.3173 91.1445 98.3568C91.0684 98.4844 90.9922 98.612 90.9138 98.7434C89.0474 101.742 86.1994 102.86 83.1254 103.489C79.9751 103.889 76.8041 103.634 74.1858 101.423C72.8627 100.133 71.9955 98.6841 71.8466 96.6787C71.7996 94.6531 72.1338 92.4762 73.3897 90.9365C73.5989 90.6975 73.8124 90.4633 74.0265 90.23C73.9168 90.2195 73.8072 90.209 73.6942 90.1981C70.2152 89.854 66.8525 89.238 63.6397 87.5856C63.2669 87.4437 63.1248 87.4877 62.7571 87.6294C62.4298 87.9188 62.121 88.2105 61.812 88.5234C61.7234 88.6115 61.6348 88.6997 61.5436 88.7905C61.2813 89.0523 61.0204 89.3157 60.76 89.5798C60.6287 89.7129 60.4974 89.8459 60.3621 89.983C60.1306 90.2196 59.8997 90.4571 59.6695 90.6954C59.4423 90.9302 59.2138 91.1634 58.9841 91.395C57.6866 92.7063 56.4594 94.0839 55.3393 95.5937C55.2129 95.7599 55.0864 95.926 54.9598 96.0921C54.2141 97.076 53.5119 98.0575 52.9142 99.1695C52.9953 99.2082 53.0764 99.247 53.1599 99.2869C54.5242 100.159 55.2462 101.928 55.6691 103.568C55.9308 105.276 55.7607 106.766 54.9291 108.241C54.5806 108.796 54.2211 109.282 53.7701 109.734C53.6647 109.843 53.6647 109.843 53.5572 109.954C50.6907 112.669 46.6365 113.083 43.0713 112.822C40.8385 112.519 38.8694 111.502 37.3202 109.611C36.2006 107.912 35.9776 106.281 36.0815 104.208C36.3436 102.138 37.176 100.285 38.6492 99.0069C40.3572 97.7814 42.6917 96.6036 44.738 96.9943C45.3485 97.0933 45.9144 97.1744 46.4949 96.894C47.1767 96.1548 47.5804 95.1362 48.0155 94.1989C48.4589 93.2875 49.0519 92.4938 49.6332 91.6928C49.7024 91.5975 49.7716 91.5022 49.8429 91.4039C50.6812 90.2566 51.5392 89.1504 52.4863 88.117C52.6039 87.9829 52.7216 87.8488 52.8429 87.7107C52.9606 87.5766 53.0782 87.4425 53.1995 87.3043C53.2743 87.2134 53.3492 87.1225 53.4263 87.0288C54.1755 86.1372 55.0007 85.3911 55.8575 84.6409C56.3132 84.2417 56.7543 83.8257 57.1937 83.4035C57.1231 83.3331 57.0525 83.2627 56.9797 83.1901C56.7658 82.9159 56.7658 82.9159 56.7658 82.4283C56.6816 82.4396 56.5975 82.451 56.5108 82.4626C55.5769 82.5799 54.6546 82.6191 53.7155 82.6238C53.4851 82.6255 53.4851 82.6255 53.2501 82.6272C52.7518 82.63 52.2535 82.6311 51.7552 82.6314C51.5846 82.6316 51.4141 82.6319 51.2384 82.6321C48.9766 82.6315 46.7265 82.5765 44.4711 82.3775C44.3597 82.3679 44.2483 82.3583 44.1336 82.3485C41.7104 82.134 39.3611 81.7529 37.0444 80.8943C36.9492 80.8597 36.8541 80.8251 36.7561 80.7894C33.5598 79.6261 30.3993 78.2463 27.3798 76.577C27.2829 76.5235 27.1861 76.4699 27.0863 76.4148C24.1702 74.7795 21.9599 72.4989 19.962 69.5879C19.8691 69.4605 19.7763 69.3331 19.6806 69.2019C18.0239 66.9202 16.7853 64.5273 16.0601 61.671C15.9282 61.1547 15.8044 60.7755 15.5398 60.3234C15.5019 59.9018 15.5019 59.9018 15.5042 59.4294C15.5031 59.1956 15.5031 59.1956 15.5019 58.957C15.5398 58.5355 15.5398 58.5355 15.8251 58.0479C15.9191 57.6181 16.0039 57.1909 16.0837 56.7577C16.5229 54.5356 17.2856 52.6598 18.6016 50.919C19.5417 49.6599 19.9415 48.5788 20.2066 46.9638C20.3079 46.3502 20.4271 45.7411 20.5443 45.1313C20.5671 45.0108 20.5899 44.8903 20.6133 44.7661C20.9285 43.1252 21.4301 41.5712 21.9591 40.0064C22.02 39.8224 22.081 39.6384 22.1437 39.4488C22.8924 37.1906 23.6705 34.9842 24.6694 32.8548C24.7562 32.6549 24.8424 32.4547 24.928 32.2542C25.6634 30.5619 26.6213 29.1147 27.6651 27.6536C27.7745 27.4992 27.7745 27.4992 27.886 27.3416C30.3604 23.868 33.497 21.0584 37.08 19.2018C36.0934 17.2872 34.9001 15.5516 33.3711 14.1631C33.2157 14.017 33.0605 13.8708 32.9053 13.7244C30.891 11.8136 30.891 11.8136 28.6636 10.2623C28.6339 10.3668 28.6041 10.4714 28.5734 10.5791C28.2984 11.2782 27.9229 11.8793 27.5403 12.5073C27.4577 12.6435 27.3752 12.7797 27.2901 12.9201C26.0275 14.9909 24.6957 16.9748 23.2429 18.8767C23.149 19.0001 23.055 19.1235 22.9582 19.2506C22.7968 19.4616 22.6347 19.6718 22.4717 19.8811C22.3172 20.0822 22.1657 20.2864 22.017 20.4932C20.4702 22.6131 18.2587 24.4583 15.8251 24.8905C13.6779 25.0285 11.6446 24.7011 9.91014 23.1039C9.27474 22.41 8.88844 21.8524 8.78733 20.8303C8.75589 17.8897 10.3244 15.8447 12.0226 13.807C12.3753 13.3821 12.7144 12.9473 13.0524 12.5073C13.5808 11.8368 14.1419 11.2331 14.7369 10.64C14.9898 10.3853 15.2383 10.1247 15.4824 9.85911C16.6763 8.5638 17.977 7.45797 19.3053 6.34816C19.668 6.04362 20.0282 5.73555 20.3877 5.42619C24.3352 2.04249 28.7704 -0.654503 33.3157 3.31124ZM94.1401 86.0041C94.4639 87.1601 94.8501 88.2749 95.2546 89.397C95.8668 91.1137 96.3931 92.8409 96.8505 94.6185C96.9917 94.538 96.9917 94.538 97.1358 94.4559C97.2052 94.1676 97.2625 93.8754 97.3141 93.5823C97.6472 91.9782 98.3266 90.7947 99.2756 89.5798C99.1681 89.5188 99.1681 89.5188 99.0584 89.4564C97.4612 88.5417 95.9937 87.5568 94.5681 86.3291C94.4269 86.2218 94.2856 86.1146 94.1401 86.0041Z" fill="#4A2013"/>
<path d="M33.3157 3.31124C33.9257 3.86784 34.5063 4.46041 35.0829 5.06112C35.1849 5.16727 35.2868 5.27342 35.3919 5.38278C35.7151 5.72103 36.0369 6.06102 36.3578 6.40204C36.5071 6.56026 36.5071 6.56026 36.6594 6.72168C37.3183 7.43035 37.9197 8.17591 38.5065 8.96199C38.6383 9.13376 38.7701 9.30541 38.9021 9.47689C40.3424 11.3815 41.5029 13.4186 42.6024 15.5919C42.9428 16.2575 43.2927 16.9167 43.6419 17.5764C43.7399 17.5715 43.8379 17.5665 43.9389 17.5615C47.9261 17.3657 51.763 17.2766 55.6954 18.1647C56.2296 18.2612 56.2296 18.2612 56.7658 18.2265C57.0505 17.8968 57.0505 17.8968 57.2795 17.4418C57.3722 17.2757 57.4648 17.1096 57.5603 16.9385C57.657 16.7601 57.7538 16.5818 57.8535 16.398C58.6897 14.9122 59.5228 13.6262 60.6173 12.3752C60.822 12.1236 61.0241 11.8695 61.226 11.6149C62.2185 10.3636 63.2173 9.20098 64.3859 8.162C64.8848 7.70443 65.3528 7.21243 65.8213 6.71505C67.5521 5.01206 69.723 3.82965 72.0293 3.95385C74.4513 4.2209 76.5052 5.54275 78.3565 7.28091C78.6048 7.51174 78.8567 7.73643 79.11 7.9601C79.9143 8.67032 80.7046 9.38787 81.4632 10.1613C82.0781 10.7696 82.7329 11.3267 83.3879 11.8775C83.6826 12.1692 83.915 12.4546 84.1663 12.7924C84.8525 13.6935 85.6036 14.5166 86.3537 15.3479C86.9449 16.0118 87.4752 16.6775 87.9598 17.4456C88.2306 17.8658 88.5389 18.245 88.8443 18.6329C89.9886 20.1418 90.8858 22.0194 90.8681 24.0372C90.8668 24.2274 90.8655 24.4177 90.8642 24.6137C90.8617 24.8312 90.8617 24.8312 90.8592 25.053C90.765 25.053 90.6709 25.053 90.5739 25.053C90.5605 25.1737 90.547 25.2944 90.5332 25.4188C90.327 26.3227 89.6275 26.9077 88.9674 27.413C87.2197 28.5024 85.0598 28.8286 83.1419 28.2242C80.791 27.4087 79.0169 25.7146 77.4501 23.5902C77.2917 23.3765 77.2917 23.3765 77.1302 23.1585C76.0381 21.6602 75.0249 20.102 74.0532 18.5008C73.9556 18.3405 73.9556 18.3405 73.856 18.1769C73.5084 17.599 73.19 17.0141 72.8901 16.4027C72.6166 15.8666 72.3078 15.3569 72.0026 14.8438C71.333 13.7141 71.333 13.7141 71.1734 13.3505C70.6497 13.4536 70.3069 13.7125 69.8745 14.0577C69.664 14.2253 69.664 14.2253 69.4491 14.3961C69.3032 14.5137 69.1573 14.6312 69.0069 14.7523C68.8638 14.8661 68.7206 14.9799 68.5731 15.0971C66.5868 16.6844 64.7497 18.3784 63.185 20.502C63.5783 20.8008 63.9639 21.0079 64.3969 21.2189C66.7392 22.361 69.1263 23.6354 71.1734 25.3781C71.2841 25.4721 71.3948 25.566 71.5088 25.6628C72.4025 26.4247 73.2877 27.1985 74.1691 27.9787C74.2552 28.0545 74.3412 28.1302 74.4299 28.2083C76.0684 29.6574 77.4542 31.3252 78.7339 33.1798C78.8579 33.3517 78.9822 33.5234 79.1067 33.6948C82.4428 38.3369 82.4428 38.3369 82.4428 40.0064C82.612 39.9988 82.7812 39.9913 82.9555 39.9835C86.4185 39.8756 89.8117 41.2164 92.4233 43.8767C92.7049 44.1079 92.7049 44.1079 93.0383 44.0298C93.4775 43.8913 93.8293 43.6894 94.2287 43.4393C94.3841 43.3437 94.5395 43.2482 94.6995 43.1497C94.865 43.0477 95.0306 42.9457 95.2011 42.8406C97.7382 41.3054 100.293 40.2748 103.106 39.6096C103.421 39.5279 103.421 39.5279 103.726 39.349C104.296 39.1276 104.833 39.1441 105.432 39.1448C105.624 39.1437 105.624 39.1437 105.82 39.1427C106.092 39.1418 106.364 39.1417 106.636 39.1424C107.041 39.1429 107.446 39.1391 107.851 39.1349C111.746 39.1194 115.424 39.7669 118.533 42.6069C118.656 42.5446 118.656 42.5446 118.78 42.4809C128.7 37.4396 140.367 34.3063 150.908 38.8471C152.946 39.7642 154.765 40.8721 156.478 42.4444C156.609 42.5615 156.739 42.6786 156.873 42.7993C157.736 43.5873 158.553 44.4225 159.363 45.2793C159.686 45.6187 160.014 45.9487 160.348 46.2742C162.208 48.1256 163.484 50.2032 164.7 52.6245C164.898 53.0153 165.099 53.4035 165.301 53.7914C167.178 57.423 168.625 61.172 169.856 65.1338C170.106 65.927 170.371 66.7125 170.645 67.4953C170.69 67.625 170.736 67.7547 170.782 67.8884C171.102 68.7874 171.472 69.6306 171.908 70.4647C172.108 71.174 171.876 71.7077 171.602 72.3594C171.435 72.7237 171.261 73.0812 171.082 73.438C171.018 73.5664 170.955 73.6949 170.889 73.8272C170.028 75.5466 169.098 77.0937 167.89 78.5274C167.782 78.6611 167.674 78.7947 167.562 78.9325C165.78 81.0661 163.595 82.3761 161.328 83.7285C161.137 83.8451 160.946 83.9617 160.755 84.0784C157.544 86.0056 154.064 87.3021 150.63 88.6046C150.63 89.1824 150.76 89.4261 151 89.9316C151.079 90.0994 151.157 90.2671 151.238 90.44C151.323 90.6188 151.407 90.7975 151.494 90.9817C152.02 92.0984 152.519 93.1894 152.885 94.3877C153.196 95.4417 153.196 95.4417 153.863 96.2273C154.301 96.43 154.741 96.578 155.194 96.7314C156.815 97.6322 158.341 98.8407 159.046 100.795C159.609 103.028 159.217 105.545 158.278 107.557C158.075 107.925 157.859 108.259 157.62 108.597C157.534 108.72 157.449 108.843 157.362 108.97C155.393 111.659 152.494 112.57 149.545 112.933C146.638 113.201 143.87 113.049 141.405 111.052C140.473 110.095 140.145 108.581 140.042 107.201C139.95 104.146 141.355 101.981 143.069 99.8196C143.165 99.6954 143.26 99.5711 143.358 99.4431C144.41 98.1484 145.818 97.3131 147.206 96.5689C146.987 95.706 146.646 94.9694 146.261 94.1918C146.198 94.0638 146.135 93.9358 146.071 93.804C145.542 92.739 144.97 91.7192 144.353 90.7176C144.175 90.7528 143.998 90.788 143.815 90.8243C141.84 91.1769 139.893 91.2595 137.898 91.2662C137.711 91.268 137.711 91.268 137.519 91.2698C134.963 91.2902 132.53 90.8756 130.043 90.2198C129.8 90.1574 129.8 90.1574 129.551 90.0938C128.772 89.8924 128 89.6802 127.235 89.4173C127.299 89.542 127.363 89.6666 127.429 89.7951C128.029 90.9744 128.609 92.1651 129.17 93.369C129.238 93.5137 129.305 93.6584 129.375 93.8075C129.748 94.6197 130.058 95.4237 130.323 96.2885C130.645 97.3698 130.645 97.3698 131.325 98.1803C131.763 98.3808 132.203 98.5288 132.656 98.6819C134.276 99.5827 135.802 100.791 136.507 102.745C137.071 104.978 136.679 107.496 135.739 109.508C135.536 109.875 135.32 110.209 135.081 110.547C134.996 110.67 134.911 110.793 134.823 110.92C132.855 113.61 129.955 114.52 127.007 114.883C124.099 115.151 121.332 114.999 118.867 113.002C117.935 112.045 117.606 110.531 117.504 109.151C117.411 106.096 118.817 103.931 120.53 101.77C120.626 101.646 120.721 101.522 120.82 101.394C121.871 100.099 123.279 99.2635 124.667 98.5193C123.85 95.3538 121.761 92.2967 119.978 89.7525C119.907 89.6498 119.835 89.5472 119.762 89.4414C119.236 88.7123 118.642 88.1664 117.963 87.6294C117.864 87.7472 117.766 87.8649 117.665 87.9862C116.873 88.9194 116.101 89.7318 115.11 90.3925C115.187 90.536 115.265 90.6796 115.344 90.8274C116.294 92.6259 116.96 94.349 116.612 96.4927C116.296 97.8828 115.626 99.0347 114.682 99.9821C114.576 100.091 114.576 100.091 114.469 100.202C111.588 102.93 107.562 103.298 103.983 103.07C101.767 102.788 99.8298 101.614 98.277 99.8196C98.1829 99.7123 98.0887 99.6051 97.9917 99.4945C98.0388 100.728 98.0859 101.962 98.1344 103.233C98.5801 103.469 98.5801 103.469 99.0348 103.71C101.317 104.99 103.107 107.159 103.983 109.897C104.39 111.288 104.262 113.19 103.751 114.521C102.598 116.961 100.671 118.402 98.4196 119.324C97.7587 119.536 97.101 119.693 96.4225 119.812C96.2548 119.841 96.0871 119.871 95.9144 119.902C92.9296 120.309 89.3567 120.283 86.8204 118.206C86.6423 118.041 86.4669 117.872 86.2944 117.699C86.2081 117.614 86.1219 117.528 86.033 117.441C84.8634 116.204 84.1738 114.704 84.0922 112.883C84.1382 110.261 85.6607 107.991 87.2334 106.214C88.4104 104.943 89.8366 104.175 91.2871 103.395C91.2913 102.83 91.2938 102.264 91.2961 101.699C91.2972 101.541 91.2984 101.382 91.2997 101.219C91.3025 100.251 91.2552 99.3173 91.1445 98.3568C91.0684 98.4844 90.9922 98.612 90.9138 98.7434C89.0474 101.742 86.1994 102.86 83.1254 103.489C79.9751 103.889 76.8041 103.634 74.1858 101.423C72.8627 100.133 71.9955 98.6841 71.8466 96.6787C71.7996 94.6531 72.1338 92.4762 73.3897 90.9365C73.5989 90.6975 73.8124 90.4633 74.0265 90.23C73.9168 90.2195 73.8072 90.209 73.6942 90.1981C70.2152 89.854 66.8525 89.238 63.6397 87.5856C63.2669 87.4437 63.1248 87.4877 62.7571 87.6294C62.4298 87.9188 62.121 88.2105 61.812 88.5234C61.7234 88.6115 61.6348 88.6997 61.5436 88.7905C61.2813 89.0523 61.0204 89.3157 60.76 89.5798C60.6287 89.7129 60.4974 89.8459 60.3621 89.983C60.1306 90.2196 59.8997 90.4571 59.6695 90.6954C59.4423 90.9302 59.2138 91.1634 58.9841 91.395C57.6866 92.7063 56.4594 94.0839 55.3393 95.5937C55.2129 95.7599 55.0864 95.926 54.9598 96.0921C54.2141 97.076 53.5119 98.0575 52.9142 99.1695C52.9953 99.2082 53.0764 99.247 53.1599 99.2869C54.5242 100.159 55.2462 101.928 55.6691 103.568C55.9308 105.276 55.7607 106.766 54.9291 108.241C54.5806 108.796 54.2211 109.282 53.7701 109.734C53.6647 109.843 53.6647 109.843 53.5572 109.954C50.6907 112.669 46.6365 113.083 43.0713 112.822C40.8385 112.519 38.8694 111.502 37.3202 109.611C36.2006 107.912 35.9776 106.281 36.0815 104.208C36.3436 102.138 37.176 100.285 38.6492 99.0069C40.3572 97.7814 42.6917 96.6036 44.738 96.9943C45.3485 97.0933 45.9144 97.1744 46.4949 96.894C47.1767 96.1548 47.5804 95.1362 48.0155 94.1989C48.4589 93.2875 49.0519 92.4938 49.6332 91.6928C49.7024 91.5975 49.7716 91.5022 49.8429 91.4039C50.6812 90.2566 51.5392 89.1504 52.4863 88.117C52.6039 87.9829 52.7216 87.8488 52.8429 87.7107C52.9606 87.5766 53.0782 87.4425 53.1995 87.3043C53.2743 87.2134 53.3492 87.1225 53.4263 87.0288C54.1755 86.1372 55.0007 85.3911 55.8575 84.6409C56.3132 84.2417 56.7543 83.8257 57.1937 83.4035C57.1231 83.3331 57.0525 83.2627 56.9797 83.1901C56.7658 82.9159 56.7658 82.9159 56.7658 82.4283C56.6816 82.4396 56.5975 82.451 56.5108 82.4626C55.5769 82.5799 54.6546 82.6191 53.7155 82.6238C53.4851 82.6255 53.4851 82.6255 53.2501 82.6272C52.7518 82.63 52.2535 82.6311 51.7552 82.6314C51.5846 82.6316 51.4141 82.6319 51.2384 82.6321C48.9766 82.6315 46.7265 82.5765 44.4711 82.3775C44.3597 82.3679 44.2483 82.3583 44.1336 82.3485C41.7104 82.134 39.3611 81.7529 37.0444 80.8943C36.9492 80.8597 36.8541 80.8251 36.7561 80.7894C33.5598 79.6261 30.3993 78.2463 27.3798 76.577C27.2829 76.5235 27.1861 76.4699 27.0863 76.4148C24.1702 74.7795 21.9599 72.4989 19.962 69.5879C19.8691 69.4605 19.7763 69.3331 19.6806 69.2019C18.0239 66.9202 16.7853 64.5273 16.0601 61.671C15.9282 61.1547 15.8044 60.7755 15.5398 60.3234C15.5019 59.9018 15.5019 59.9018 15.5042 59.4294C15.5031 59.1956 15.5031 59.1956 15.5019 58.957C15.5398 58.5355 15.5398 58.5355 15.8251 58.0479C15.9191 57.6181 16.0039 57.1909 16.0837 56.7577C16.5229 54.5356 17.2856 52.6598 18.6016 50.919C19.5417 49.6599 19.9415 48.5788 20.2066 46.9638C20.3079 46.3502 20.4271 45.7411 20.5443 45.1313C20.5671 45.0108 20.5899 44.8903 20.6133 44.7661C20.9285 43.1252 21.4301 41.5712 21.9591 40.0064C22.02 39.8224 22.081 39.6384 22.1437 39.4488C22.8924 37.1906 23.6705 34.9842 24.6694 32.8548C24.7562 32.6549 24.8424 32.4547 24.928 32.2542C25.6634 30.5619 26.6213 29.1147 27.6651 27.6536C27.7745 27.4992 27.7745 27.4992 27.886 27.3416C30.3604 23.868 33.497 21.0584 37.08 19.2018C36.0934 17.2872 34.9001 15.5516 33.3711 14.1631C33.2157 14.017 33.0605 13.8708 32.9053 13.7244C30.891 11.8136 30.891 11.8136 28.6636 10.2623C28.6339 10.3668 28.6041 10.4714 28.5734 10.5791C28.2984 11.2782 27.9229 11.8793 27.5403 12.5073C27.4577 12.6435 27.3752 12.7797 27.2901 12.9201C26.0275 14.9909 24.6957 16.9748 23.2429 18.8767C23.149 19.0001 23.055 19.1235 22.9582 19.2506C22.7968 19.4616 22.6347 19.6718 22.4717 19.8811C22.3172 20.0822 22.1657 20.2864 22.017 20.4932C20.4702 22.6131 18.2587 24.4583 15.8251 24.8905C13.6779 25.0285 11.6446 24.7011 9.91014 23.1039C9.27474 22.41 8.88844 21.8524 8.78733 20.8303C8.75589 17.8897 10.3244 15.8447 12.0226 13.807C12.3753 13.3821 12.7144 12.9473 13.0524 12.5073C13.5808 11.8368 14.1419 11.2331 14.7369 10.64C14.9898 10.3853 15.2383 10.1247 15.4824 9.85911C16.6763 8.5638 17.977 7.45797 19.3053 6.34816C19.668 6.04362 20.0282 5.73555 20.3877 5.42619C24.3352 2.04249 28.7704 -0.654503 33.3157 3.31124ZM94.1401 86.0041C94.4639 87.1601 94.8501 88.2749 95.2546 89.397C95.8668 91.1137 96.3931 92.8409 96.8505 94.6185C96.9917 94.538 96.9917 94.538 97.1358 94.4559C97.2052 94.1676 97.2625 93.8754 97.3141 93.5823C97.6472 91.9782 98.3266 90.7947 99.2756 89.5798C99.1681 89.5188 99.1681 89.5188 99.0584 89.4564C97.4612 88.5417 95.9937 87.5568 94.5681 86.3291C94.4269 86.2218 94.2856 86.1146 94.1401 86.0041Z" stroke="#4A2013" stroke-width="12.7546" mask="url(#path-2-inside-1_822_2167)"/>
</g>
<path d="M48.8483 20.1371C48.9474 20.1369 49.0464 20.1366 49.1485 20.1363C51.3635 20.136 53.4593 20.4879 55.6242 20.9905C55.4713 21.6081 55.2714 22.0857 54.9644 22.6158C54.4649 23.5888 54.5642 24.6116 54.6256 25.704C54.7197 25.704 54.8139 25.704 54.9109 25.704C55.126 25.9415 55.126 25.9415 55.3567 26.2526C55.4335 26.3544 55.5104 26.4562 55.5896 26.5611C55.7668 26.8418 55.7668 26.8418 55.7668 27.1668C56.9697 27.6808 58.3421 27.8215 59.6184 27.6544C60.0316 27.3043 60.1629 26.9012 60.3316 26.3542C60.4258 26.3542 60.5199 26.3542 60.6169 26.3542C60.6404 26.198 60.6404 26.198 60.6643 26.0386C60.8063 25.156 60.9959 24.4025 61.3302 23.591C61.3772 23.4301 61.4243 23.2692 61.4728 23.1034C63.1024 23.2272 64.6081 24.3919 66.0425 25.218C66.3359 25.3864 66.63 25.5528 66.9242 25.7192C68.5542 26.6489 69.9996 27.8816 71.4583 29.1173C71.5942 29.2321 71.5942 29.2321 71.7329 29.3492C73.7006 31.0243 75.5339 32.8964 77.0217 35.1311C77.1385 35.2979 77.2552 35.4647 77.3755 35.6365C78.9849 37.9425 80.3356 40.5181 81.1691 43.3169C81.3152 43.791 81.4843 44.2488 81.6578 44.7106C82.1589 46.0683 82.5806 47.4282 82.8085 48.8806C82.8489 49.1358 82.8943 49.3899 82.9456 49.6425C83.9544 54.6766 83.8659 61.9411 81.4812 66.4174C80.543 68.1115 79.3854 69.6183 78.1629 71.0516C78.0537 71.1802 77.9444 71.3089 77.8319 71.4414C76.5525 72.8498 74.9461 73.8503 73.3183 74.6427C73.0348 74.7862 72.7646 74.9456 72.4925 75.115C71.8576 75.4839 71.1893 75.6901 70.5071 75.9175C70.0661 76.0777 69.6596 76.2691 69.2383 76.4864C68.1334 77.03 66.9687 77.3042 65.8021 77.6217C65.3511 77.748 64.9054 77.8923 64.4596 78.0406C63.6741 78.3005 62.8869 78.5508 62.0969 78.7923C61.9361 78.8426 61.9361 78.8426 61.772 78.8939C54.9229 80.9698 44.3243 80.9991 37.6431 78.1557C37.2343 77.9866 36.8189 77.8462 36.402 77.7054C34.9364 77.1979 33.5031 76.5912 32.0868 75.9276C31.9704 75.8755 31.854 75.8233 31.7341 75.7696C27.7845 73.963 24.7549 71.9652 22.1013 68.1259C21.972 67.9444 21.8426 67.763 21.7129 67.5818C20.8423 66.3556 20.0771 65.1109 19.391 63.7374C19.3189 63.5973 19.2468 63.4571 19.1725 63.3127C18.244 61.3844 18.1241 58.8286 18.4855 56.6836C18.9888 54.8082 19.9563 53.2528 21.0777 51.7934C21.8518 50.7517 22.085 49.6138 22.3331 48.2965C22.5141 47.3386 22.5141 47.3386 22.6719 47.1588C22.7186 46.8652 22.7591 46.5703 22.7967 46.275C22.9535 45.1612 23.1807 44.1149 23.5785 43.0801C23.8842 42.2801 24.1196 41.4524 24.3659 40.6268C25.0895 38.2339 25.9459 35.9257 26.9514 33.6683C27.0456 33.6683 27.1397 33.6683 27.2367 33.6683C27.2518 33.5507 27.2669 33.4332 27.2824 33.3121C28.101 29.4579 32.589 25.3658 35.3644 23.3904C35.9277 23.0061 36.5001 22.6425 37.0796 22.2908C37.1842 22.226 37.2889 22.1613 37.3967 22.0946C37.7281 21.9261 38.005 21.943 38.3635 21.9657C38.7491 22.7565 38.9728 23.5683 39.1965 24.4355C39.3838 24.9514 39.5382 25.2099 39.9326 25.5415C41.242 25.8014 42.5785 25.4498 43.7753 24.8405C44.156 24.4856 44.3751 24.0595 44.6401 23.591C44.7342 23.591 44.8284 23.591 44.9254 23.591C44.9332 23.2592 44.9386 22.9274 44.9432 22.5955C44.9465 22.4107 44.9498 22.2259 44.9532 22.0355C44.9249 21.4687 44.8187 21.0302 44.6401 20.5029C45.3288 19.7181 47.8962 20.1385 48.8483 20.1371Z" fill="#956346"/>
<path d="M144.068 39.6817C144.115 39.7353 144.162 39.7889 144.21 39.8442C144.54 39.8853 144.87 39.9215 145.2 39.9559C146.458 40.1112 147.584 40.5444 148.77 41.0311C149.164 41.1851 149.566 41.2993 149.97 41.4188C152.183 42.1946 154.081 43.7494 155.808 45.4591C156.14 45.783 156.483 46.0886 156.826 46.3964C157.536 47.0588 158.207 47.765 158.876 48.4789C158.979 48.5877 159.081 48.6965 159.187 48.8086C159.477 49.121 159.762 49.4381 160.044 49.7589C160.125 49.8475 160.206 49.9361 160.289 50.0274C160.954 50.8192 161.187 51.6915 161.435 52.7353C161.499 52.9966 161.499 52.9966 161.563 53.2632C162.271 56.2871 162.228 59.2771 162.188 62.3893C162.184 62.7778 162.181 63.1662 162.178 63.5547C162.132 69.5019 162.132 69.5019 161.547 72.1561C161.469 72.5221 161.404 72.8888 161.342 73.2587C161.052 74.9428 160.606 76.5213 160.047 78.1137C159.946 78.4029 159.846 78.6927 159.747 78.9831C159.588 79.4493 159.425 79.9131 159.26 80.3766C159.211 80.5206 159.162 80.6646 159.111 80.813C158.695 81.9501 158.195 82.4597 157.219 82.9581C157.095 83.0047 156.971 83.0512 156.844 83.0991C156.709 83.1515 156.574 83.2039 156.435 83.2578C156.308 83.306 156.181 83.3542 156.05 83.4039C155.458 83.6446 154.882 83.9034 154.312 84.2064C153.635 84.5559 152.938 84.7886 152.227 85.0286C151.82 85.1741 151.433 85.3396 151.04 85.527C150.303 85.8762 149.548 86.1085 148.775 86.3295C148.708 86.2291 148.64 86.1288 148.57 86.0254C147.975 85.1563 147.352 84.3628 146.66 83.5931C146.197 83.0678 145.772 82.5098 145.351 81.941C145.237 81.7868 145.122 81.6326 145.004 81.4737C144.781 81.1283 144.781 81.1283 144.781 80.8033C144.666 80.7508 144.666 80.7508 144.548 80.6972C144.089 80.3996 143.74 79.9904 143.363 79.5741C141.945 78.0521 140.358 76.937 138.66 75.8668C138.548 75.7948 138.435 75.7227 138.319 75.6485C138.217 75.5846 138.115 75.5207 138.01 75.4549C137.902 75.3668 137.902 75.3668 137.791 75.2771C137.791 75.1698 137.791 75.0625 137.791 74.952C137.676 74.9352 137.561 74.9185 137.443 74.9012C136.926 74.7874 136.454 74.6169 135.958 74.4187C134.895 74.0137 133.599 73.851 132.535 74.3171C131.864 74.796 131.305 75.3665 131.086 76.2523C130.941 77.3923 131.009 78.3654 131.561 79.3468C131.991 79.9211 132.509 80.2753 133.083 80.6407C133.248 80.751 133.248 80.751 133.417 80.8636C134.172 81.3588 134.947 81.7531 135.758 82.1169C138.018 83.1514 141.437 85.2276 142.784 87.6298C142.784 87.7907 142.784 87.9516 142.784 88.1174C141.202 88.5243 139.618 88.514 138.005 88.5136C137.791 88.5138 137.791 88.5138 137.574 88.5141C135.197 88.5099 132.972 88.2887 130.658 87.6298C130.516 87.5907 130.373 87.5516 130.226 87.5113C128.863 87.1331 127.522 86.6838 126.201 86.1466C126.059 86.0907 126.059 86.0907 125.914 86.0337C125.547 85.8758 125.274 85.723 125.003 85.3968C124.921 84.8 125.208 84.3761 125.469 83.8813C126.404 82.0772 126.873 80.0766 127.407 78.0851C127.519 77.6667 127.632 77.2485 127.745 76.8303C129.125 71.8474 129.125 71.8474 129.894 66.7128C129.945 66.175 129.945 66.175 130.088 65.6874C130.301 61.1851 129.88 56.9615 128.77 52.6315C128.678 52.2629 128.596 51.8951 128.52 51.522C128.347 50.7699 128.114 50.063 127.859 49.3424C127.809 49.2007 127.759 49.059 127.707 48.913C127.078 47.165 126.294 45.5314 125.413 43.9317C125.224 43.5555 125.086 43.175 124.952 42.7698C126.925 41.3299 129.96 40.7105 132.268 40.4004C132.668 40.3406 132.668 40.3406 133.091 40.1782C136.441 39.0483 140.617 39.2425 144.068 39.6817Z" fill="#6D432C"/>
<path d="M114.539 43.0954C114.653 43.1428 114.766 43.1902 114.883 43.2389C115.902 43.7401 116.861 44.6785 117.677 45.5335C117.677 45.6408 117.677 45.748 117.677 45.8586C117.819 45.9122 117.96 45.9658 118.105 46.0211C118.36 46.385 118.596 46.7461 118.827 47.1284C118.891 47.2307 118.955 47.3331 119.021 47.4385C119.817 48.7314 119.817 48.7314 119.817 49.4344C119.911 49.4344 120.005 49.4344 120.102 49.4344C120.139 49.5404 120.175 49.6464 120.212 49.7556C120.427 50.3758 120.639 50.9836 120.905 51.5778C121.128 52.0973 121.251 52.6164 121.386 53.1727C121.436 53.28 121.486 53.3872 121.538 53.4978C121.731 53.9676 121.755 54.4494 121.814 54.9606C121.861 55.0142 121.908 55.0679 121.957 55.1231C122.322 56.8319 122.281 58.5823 122.272 60.328C122.269 60.8047 122.269 61.2814 122.269 61.7582C122.268 62.0639 122.267 62.3696 122.266 62.6753C122.266 62.8165 122.266 62.9578 122.266 63.1033C122.261 63.822 122.216 64.4917 122.1 65.2003C122.079 65.4804 122.062 65.7609 122.048 66.0416C121.948 67.8758 121.785 69.6649 121.467 71.4681C121.437 71.6351 121.408 71.802 121.378 71.974C121.228 72.7836 121.046 73.5418 120.776 74.3096C120.584 74.9019 120.466 75.518 120.334 76.1309C120.06 77.3662 119.722 78.5099 119.247 79.6661C118.821 79.5651 118.497 79.4094 118.125 79.155C118.022 79.0851 117.919 79.0152 117.812 78.9432C117.706 78.87 117.6 78.7968 117.49 78.7213C117.28 78.578 117.069 78.4347 116.859 78.2915C116.757 78.2222 116.656 78.1529 116.551 78.0816C116.122 77.7906 115.687 77.5089 115.252 77.228C115.252 77.1207 115.252 77.0135 115.252 76.9029C115.064 76.9029 114.876 76.9029 114.682 76.9029C114.682 76.7957 114.682 76.6884 114.682 76.5779C114.575 76.5563 114.468 76.5347 114.359 76.5125C114.218 76.4838 114.078 76.4551 113.933 76.4255C113.794 76.3972 113.655 76.3689 113.512 76.3398C113.113 76.2528 113.113 76.2528 112.823 76.1626C111.772 75.8917 110.493 75.9891 109.55 76.5969C109.015 77.0404 108.77 77.4365 108.619 78.1728C108.463 79.4901 108.573 80.527 109.261 81.6165C109.635 81.9074 109.635 81.9074 109.974 82.1041C109.974 82.2114 109.974 82.3186 109.974 82.4292C110.129 82.4974 110.129 82.4974 110.287 82.5669C110.664 82.7431 111.021 82.939 111.383 83.1504C111.952 83.4774 112.523 83.7768 113.113 84.0545C113.419 84.2001 113.725 84.3457 114.031 84.4913C114.295 84.6167 114.56 84.742 114.824 84.8672C114.824 84.9745 114.824 85.0818 114.824 85.1923C115.203 85.367 115.578 85.5327 115.966 85.6799C115.966 85.8408 115.966 86.0017 115.966 86.1675C115.683 86.4578 115.406 86.7138 115.101 86.97C115.021 87.0399 114.941 87.1098 114.858 87.1818C112.31 89.3684 108.964 89.9441 105.837 89.5807C105.343 89.422 105.343 89.422 104.981 89.2557C104.817 89.2121 104.652 89.1685 104.482 89.1236C103.197 88.7652 101.978 88.2426 100.845 87.4678C100.468 87.2888 100.089 87.1342 99.7034 86.9802C99.7034 86.8729 99.7034 86.7656 99.7034 86.6551C99.6026 86.6388 99.5019 86.6224 99.3981 86.6056C97.4913 86.0773 95.8923 84.134 94.4976 82.6556C93.9563 82.0852 93.4053 81.5269 92.8562 80.9663C93.0896 80.2311 93.4157 79.5791 93.7567 78.9042C94.6091 77.1911 95.2966 75.5238 95.8519 73.6522C95.8914 73.5196 95.9309 73.387 95.9717 73.2503C96.0376 73.0265 96.1029 72.8023 96.1672 72.5778C96.245 72.3093 96.3247 72.0416 96.4058 71.7744C98.5079 64.7924 98.9295 55.9296 96.1372 49.1093C95.7992 48.3701 95.4055 47.6864 94.996 46.9963C94.8971 46.7818 94.8003 46.5659 94.7107 46.3462C100.026 42.5365 108.548 39.696 114.539 43.0954Z" fill="#6D432C"/>
<path d="M83.4412 42.7701C84.9592 42.7039 86.2219 42.965 87.578 43.7453C87.7081 43.818 87.7081 43.818 87.8407 43.8921C90.9054 45.6118 93.5298 47.8899 94.7485 51.6779C95.6042 54.5925 95.7624 57.5703 95.762 60.6191C95.7626 61.1358 95.7678 61.6523 95.7732 62.169C95.7822 64.0631 95.654 65.6737 95.1385 67.4756C95.0837 67.7658 95.0323 68.0569 94.9869 68.3492C94.8816 68.9921 94.7182 69.5879 94.5272 70.2038C94.4246 70.566 94.3557 70.9218 94.2915 71.2952C94.1733 71.9389 93.9753 72.4915 93.7279 73.0838C93.5687 73.4912 93.4404 73.8998 93.3141 74.3218C91.9222 78.721 89.0604 83.2746 85.2956 85.3546C84.7583 85.611 84.214 85.8121 83.6552 85.999C83.2918 86.1214 82.954 86.2532 82.6031 86.4104C81.9905 86.6771 81.3713 86.8446 80.7308 87.0002C80.6231 87.0277 80.5153 87.0551 80.4043 87.0834C78.9675 87.4406 77.5699 87.5063 76.1036 87.5082C76.0001 87.5084 75.8967 87.5086 75.79 87.5088C70.2863 87.5063 64.2217 86.0042 59.7612 82.1038C60.2213 81.7544 60.479 81.7028 61.0183 81.6162C61.6308 81.5172 62.1717 81.3541 62.7569 81.1286C63.2099 80.992 63.6655 80.868 64.121 80.7426C65.0869 80.4722 66.0391 80.1789 66.9868 79.8334C67.467 79.6649 67.9495 79.5133 68.4346 79.3642C69.3488 79.0828 70.2406 78.7956 71.1131 78.3706C71.536 78.1654 71.9648 77.9817 72.3947 77.7966C77.4747 75.5647 81.8303 71.6898 84.1745 65.9575C85.1383 63.3782 85.4595 60.5844 85.4622 57.806C85.4627 57.6325 85.4632 57.4591 85.4637 57.2803C85.4644 56.9156 85.4647 56.5509 85.4647 56.1862C85.465 55.6335 85.4676 55.0807 85.4703 54.5279C85.4707 54.1713 85.471 53.8147 85.4712 53.4581C85.4727 53.2142 85.4727 53.2142 85.4743 52.9654C85.467 50.3564 84.8421 47.8404 84.1544 45.3707C84.0766 45.0763 83.9993 44.7817 83.9226 44.4869C83.7717 43.9107 83.612 43.3391 83.4412 42.7701Z" fill="#916245"/>
<path d="M135.213 39.7829C135.434 39.7628 135.434 39.7628 135.66 39.7423C135.797 39.7268 135.934 39.7113 136.075 39.6953C137.122 40.0556 137.68 41.5949 138.174 42.627C138.245 42.778 138.315 42.9289 138.388 43.0844C138.497 43.3099 138.497 43.3099 138.608 43.54C139.012 44.3926 139.364 45.2463 139.664 46.153C139.784 46.4974 139.922 46.8203 140.073 47.1478C140.365 47.7911 140.569 48.4566 140.779 49.1389C140.92 49.5674 141.082 49.9677 141.259 50.3782C142.79 54.1789 143.529 58.5592 143.524 62.7208C143.524 62.833 143.524 62.9452 143.524 63.0608C143.522 64.8762 143.434 66.6519 143.212 68.4502C143.196 68.6195 143.18 68.7888 143.164 68.9632C142.91 71.3816 142.19 73.791 141.5 76.0894C141.406 76.0894 141.312 76.0894 141.215 76.0894C141.144 76.5721 141.144 76.5721 141.072 77.0646C140.281 76.9863 139.764 76.6431 139.11 76.1707C138.921 76.0369 138.732 75.9031 138.542 75.7694C138.388 75.6605 138.235 75.5515 138.076 75.4393C137.982 75.3856 137.888 75.332 137.791 75.2767C137.791 75.1695 137.791 75.0622 137.791 74.9517C137.676 74.9349 137.561 74.9181 137.443 74.9009C136.926 74.7871 136.454 74.6166 135.958 74.4183C134.895 74.0134 133.599 73.8507 132.535 74.3168C131.864 74.7957 131.305 75.3662 131.086 76.2519C130.941 77.392 131.009 78.3651 131.561 79.3465C131.991 79.9208 132.509 80.275 133.083 80.6404C133.248 80.7507 133.248 80.7507 133.417 80.8633C134.172 81.3585 134.947 81.7528 135.758 82.1166C138.018 83.1511 141.437 85.2273 142.784 87.6295C142.784 87.7904 142.784 87.9513 142.784 88.1171C141.202 88.5239 139.618 88.5137 138.005 88.5133C137.791 88.5135 137.791 88.5135 137.574 88.5138C135.197 88.5096 132.972 88.2884 130.658 87.6295C130.516 87.5904 130.373 87.5513 130.226 87.511C128.863 87.1328 127.522 86.6835 126.201 86.1463C126.059 86.0904 126.059 86.0904 125.914 86.0334C125.547 85.8754 125.274 85.7227 125.003 85.3965C124.921 84.7997 125.208 84.3757 125.469 83.881C126.404 82.0769 126.873 80.0763 127.407 78.0848C127.519 77.6664 127.632 77.2482 127.745 76.83C129.125 71.8471 129.125 71.8471 129.894 66.7125C129.945 66.1747 129.945 66.1747 130.088 65.6871C130.301 61.1848 129.88 56.9611 128.77 52.6312C128.678 52.2626 128.596 51.8948 128.52 51.5217C128.347 50.7696 128.114 50.0627 127.859 49.3421C127.809 49.2004 127.759 49.0587 127.707 48.9126C127.078 47.1646 126.294 45.5311 125.413 43.9314C125.224 43.5552 125.086 43.1747 124.952 42.7695C126.946 41.3138 129.969 40.7345 132.296 40.3905C132.763 40.3138 133.202 40.1579 133.654 40.0064C134.174 39.906 134.691 39.8591 135.213 39.7829Z" fill="#916245"/>
<path d="M104.126 42.4453C104.519 43.2943 104.834 44.1367 105.106 45.0452C105.239 45.4484 105.384 45.8324 105.54 46.2236C106.418 48.4524 106.918 50.8487 107.389 53.2235C107.421 53.3855 107.421 53.3855 107.454 53.5509C107.687 54.7251 107.873 55.8762 107.977 57.0735C108.024 57.1808 108.071 57.2881 108.12 57.3986C108.931 62.9852 108.25 70.0228 106.103 75.129C105.974 75.4544 105.881 75.7786 105.793 76.1207C105.368 77.6225 104.673 79.0542 103.88 80.3416C103.676 80.6669 103.676 80.6669 103.448 81.139C103.389 81.2429 103.33 81.3469 103.27 81.4539C103.176 81.4539 103.081 81.4539 102.984 81.4539C102.947 81.549 102.909 81.6442 102.871 81.7422C102.227 83.1 100.904 83.9858 99.8087 84.8306C99.6369 84.9685 99.4698 85.114 99.3067 85.265C98.6712 85.8416 98.6712 85.8416 98.117 85.8456C96.7051 85.2759 95.5787 83.8241 94.507 82.6689C93.9657 82.0903 93.4096 81.5299 92.8562 80.9663C93.0896 80.2311 93.4157 79.5791 93.7567 78.9041C94.6091 77.1911 95.2966 75.5237 95.8519 73.6522C95.8914 73.5196 95.9309 73.3869 95.9717 73.2503C96.0376 73.0264 96.1029 72.8023 96.1672 72.5778C96.245 72.3093 96.3247 72.0415 96.4058 71.7743C98.5079 64.7923 98.9295 55.9295 96.1372 49.1093C95.7992 48.37 95.4055 47.6864 94.996 46.9963C94.8971 46.7818 94.8003 46.5659 94.7107 46.3461C97.2331 44.5382 101.038 42.1255 104.126 42.4453Z" fill="#926346"/>
<path d="M149.916 41.6323C150.845 41.8137 151.604 42.1285 152.421 42.6583C152.531 42.7288 152.641 42.7993 152.755 42.8719C153.864 43.607 154.834 44.505 155.804 45.4567C156.137 45.7804 156.482 46.0874 156.826 46.3967C157.535 47.0591 158.207 47.7652 158.876 48.4792C158.979 48.588 159.081 48.6968 159.187 48.8089C159.477 49.1212 159.761 49.4384 160.044 49.7591C160.125 49.8477 160.206 49.9364 160.289 50.0277C160.954 50.8194 161.187 51.6917 161.435 52.7356C161.477 52.9098 161.52 53.084 161.563 53.2635C162.27 56.2873 162.228 59.2773 162.188 62.3895C162.184 62.778 162.181 63.1664 162.178 63.5549C162.132 69.5022 162.132 69.5022 161.547 72.1563C161.469 72.5224 161.404 72.889 161.341 73.2589C161.052 74.943 160.606 76.5216 160.047 78.114C159.945 78.4031 159.846 78.6929 159.747 78.9833C159.588 79.4495 159.424 79.9133 159.26 80.3769C159.211 80.5209 159.162 80.6649 159.111 80.8132C158.695 81.9504 158.195 82.4599 157.219 82.9584C157.095 83.0049 156.971 83.0514 156.843 83.0993C156.709 83.1517 156.574 83.2041 156.435 83.2581C156.308 83.3062 156.181 83.3544 156.05 83.4041C155.458 83.6449 154.882 83.9036 154.311 84.2066C153.635 84.556 152.939 84.7891 152.227 85.0275C151.814 85.1762 151.427 85.3506 151.03 85.5475C150.335 85.8794 149.667 85.9683 148.917 86.0047C148.992 85.2077 149.201 84.6925 149.568 84.0136C150.211 82.7905 150.708 81.5117 151.198 80.2024C151.297 79.9464 151.4 79.6925 151.506 79.4406C152.081 78.071 152.475 76.6502 152.876 75.2062C152.947 74.9536 153.018 74.701 153.089 74.4484C153.46 73.1664 153.46 73.1664 153.768 71.864C153.862 71.864 153.956 71.864 154.053 71.864C154.049 71.7061 154.044 71.5481 154.04 71.3853C154.04 70.6687 154.148 69.9875 154.258 69.2838C154.47 67.814 154.592 66.3638 154.623 64.875C154.63 64.5926 154.63 64.5926 154.638 64.3046C154.707 61.1192 154.547 58.1064 154.053 54.9603C154.018 54.7237 153.984 54.4871 153.95 54.2505C153.518 51.5079 152.685 48.9391 151.74 46.3784C151.419 45.5084 151.114 44.6621 150.915 43.7453C150.82 43.7453 150.726 43.7453 150.629 43.7453C150.509 43.516 150.39 43.2855 150.273 43.0545C150.206 42.9263 150.14 42.7981 150.072 42.666C149.916 42.2825 149.916 42.2825 149.916 41.6323Z" fill="#916245"/>
<path d="M125.095 42.7702C125.193 43.0397 125.288 43.3109 125.38 43.5829C125.548 43.931 125.721 44.2761 125.897 44.619C127.333 47.457 128.532 50.2379 129.159 53.4581C129.24 53.8657 129.327 54.2713 129.415 54.6772C130.015 57.5046 130.254 60.1715 130.266 63.077C130.267 63.1928 130.268 63.3086 130.268 63.4279C130.275 64.8125 130.201 66.12 129.945 67.4757C129.905 67.7633 129.866 68.0511 129.829 68.3391C129.429 71.0252 128.804 73.6029 128.052 76.1849C127.694 77.4147 127.367 78.647 127.074 79.8995C126.719 81.3933 126.173 82.701 125.523 84.0543C125.182 84.7492 125.182 84.7492 125.095 85.5172C123.907 85.1786 122.925 84.2232 122.242 83.0791C122.242 82.9719 122.242 82.8646 122.242 82.7541C122.148 82.7541 122.054 82.7541 121.957 82.7541C121.609 82.4236 121.337 82.0568 121.101 81.6163C121.078 80.9168 121.217 80.534 121.507 79.9192C121.901 79.0366 122.102 78.1002 122.322 77.1466C122.79 75.1505 122.79 75.1505 123.047 74.4031C123.229 73.8486 123.329 73.3527 123.401 72.7683C123.512 71.8796 123.512 71.8796 123.668 71.7016C123.72 71.3086 123.763 70.9178 123.802 70.5232C123.886 69.709 123.981 68.903 124.105 68.0953C124.427 65.7047 124.397 63.2668 124.407 60.8537C124.408 60.5864 124.409 60.3191 124.411 60.0518C124.427 57.7337 124.426 55.3562 123.668 53.1725C123.602 52.9407 123.538 52.7083 123.475 52.4754C122.863 50.2863 122.139 48.2683 120.999 46.3581C120.815 46.0209 120.815 46.0209 120.815 45.6958C120.721 45.6958 120.627 45.6958 120.53 45.6958C120.436 45.4277 120.342 45.1595 120.245 44.8832C121.211 44.3068 122.166 43.7923 123.201 43.3975C123.558 43.2599 123.558 43.2599 123.954 42.9327C124.757 42.5778 124.757 42.5778 125.095 42.7702Z" fill="#6D432C"/>
<path d="M88.0817 84.2451C88.2229 84.2988 88.3641 84.3524 88.5096 84.4077C88.5096 84.5149 88.5096 84.6222 88.5096 84.7327C88.6038 84.7327 88.6979 84.7327 88.7949 84.7327C89.2229 85.647 89.2229 85.647 89.2229 86.1955C89.317 86.1955 89.4112 86.1955 89.5082 86.1955C90.0913 87.5015 90.5729 88.8227 91.03 90.1917C91.2121 90.7236 91.4058 91.2479 91.6034 91.7726C91.9572 92.7322 92.2185 93.5948 92.2185 94.6474C92.3127 94.6474 92.4068 94.6474 92.5038 94.6474C92.5314 94.8064 92.559 94.9655 92.5874 95.1293C92.6249 95.3446 92.6624 95.5598 92.7 95.775C92.7196 95.8874 92.7391 95.9998 92.7593 96.1156C92.8597 96.6884 92.9648 97.2588 93.0834 97.827C93.337 99.1349 93.4981 100.435 93.5319 101.773C93.5384 102.023 93.5384 102.023 93.545 102.278C93.5521 102.611 93.5568 102.944 93.5587 103.277C93.5725 103.959 93.5928 104.444 93.8646 105.059C94.2517 105.407 94.58 105.504 95.0591 105.612C95.5588 105.759 95.9504 106.073 96.3732 106.401C96.4562 106.462 96.5391 106.524 96.6245 106.587C97.7308 107.42 98.4887 108.325 99.2084 109.601C99.2996 109.758 99.3908 109.916 99.4848 110.078C99.7639 110.995 99.7095 111.939 99.5472 112.882C98.9405 114.296 98.1131 115.006 96.926 115.777C96.7695 115.89 96.613 116.002 96.4518 116.118C95.8996 116.477 95.356 116.595 94.7327 116.702C94.0632 116.762 94.0632 116.762 93.5024 117.077C92.8931 117.113 92.2829 117.108 91.6728 117.108C91.3678 117.108 91.063 117.111 90.758 117.114C88.8313 117.123 87.0934 116.843 85.6371 115.287C85.0483 114.572 84.4714 113.841 84.4441 112.821C84.5101 112.248 84.6126 111.762 84.8007 111.226C84.8949 111.226 84.989 111.226 85.086 111.226C85.0978 111.112 85.1096 110.998 85.1217 110.881C85.4974 109.24 86.9551 107.81 88.148 106.911C88.6087 106.61 89.0775 106.391 89.575 106.182C89.9675 106.011 90.3427 105.817 90.7207 105.608C90.8369 105.545 90.9531 105.481 91.0729 105.415C91.4043 105.215 91.4043 105.215 91.6479 104.725C91.6794 104.303 91.6946 103.898 91.6959 103.476C91.697 103.352 91.6982 103.228 91.6994 103.1C91.7022 102.697 91.7022 102.294 91.7014 101.89C91.7015 101.754 91.7016 101.617 91.7016 101.477C91.6987 99.4004 91.5708 97.4679 91.0773 95.4601C91.04 95.2879 91.0027 95.1157 90.9642 94.9382C90.8693 94.5117 90.7627 94.0927 90.6494 93.6722C90.6121 93.5241 90.5747 93.3759 90.5363 93.2233C90.235 92.1004 89.8211 91.081 89.3395 90.0468C89.0275 89.3684 88.8161 88.727 88.6523 87.9834C88.5581 87.9834 88.464 87.9834 88.367 87.9834C88.2728 87.608 88.1787 87.2325 88.0817 86.8457C87.9875 86.8457 87.8934 86.8457 87.7964 86.8457C87.7022 86.4702 87.6081 86.0948 87.5111 85.7079C87.4169 85.7079 87.3228 85.7079 87.2258 85.7079C87.2931 85.0175 87.649 84.7002 88.0817 84.2451Z" fill="#6D432C"/>
<path d="M32.0426 5.74305C32.2056 5.88824 32.2056 5.88824 32.3719 6.03637C32.3719 6.14365 32.3719 6.25092 32.3719 6.36145C32.455 6.4044 32.5381 6.44735 32.6238 6.4916C32.9552 6.69429 33.1987 6.91783 33.4774 7.2046C33.5758 7.30496 33.6742 7.40532 33.7756 7.50872C33.8772 7.61285 33.9789 7.71698 34.0837 7.82427C34.2886 8.02772 34.4936 8.2309 34.6989 8.43378C35.4012 9.12854 35.4012 9.12854 35.6529 9.44963C35.6529 9.5569 35.6529 9.66418 35.6529 9.7747C35.7941 9.82834 35.9353 9.88198 36.0808 9.93724C36.8176 10.7518 37.4997 11.7351 38.0779 12.7004C38.0779 12.8076 38.0779 12.9149 38.0779 13.0254C38.1721 13.0254 38.2662 13.0254 38.3632 13.0254C38.6022 13.3928 38.8235 13.7593 39.0408 14.1429C39.1043 14.2537 39.1678 14.3645 39.2333 14.4786C39.42 14.806 39.6051 15.1345 39.7897 15.4635C39.8835 15.6288 39.9773 15.7941 40.0739 15.9644C40.6456 17.0039 40.6456 17.0039 40.6456 17.739C40.7398 17.739 40.8339 17.739 40.9309 17.739C41.6632 18.9053 42.7252 20.7674 42.6071 22.25C42.5001 22.615 42.5001 22.615 42.2148 22.9401C41.7244 23.0112 41.7244 23.0112 41.2162 22.9401C40.846 22.3729 40.6669 21.7689 40.4762 21.1014C39.9169 19.2705 39.1365 17.5817 38.2206 15.9511C38.2206 15.8438 38.2206 15.7365 38.2206 15.626C38.1264 15.626 38.0323 15.626 37.9353 15.626C37.897 15.4953 37.8588 15.3645 37.8194 15.2298C37.7355 15.0237 37.7355 15.0237 37.65 14.8133C37.5087 14.7597 37.3675 14.706 37.222 14.6508C37.222 14.5435 37.222 14.4362 37.222 14.3257C37.0808 14.2721 36.9396 14.2184 36.7941 14.1632C36.55 13.8997 36.313 13.6276 36.0808 13.3505C34.4236 11.4207 30.8129 7.25729 28.3153 7.15381C27.8124 7.14659 27.8124 7.14659 27.3791 7.33666C27.2044 7.82565 27.2044 7.82565 27.0938 8.31188C26.9997 8.31188 26.9055 8.31188 26.8085 8.31188C26.7709 8.4295 26.7332 8.54712 26.6944 8.6683C26.5206 9.13151 26.3175 9.50853 26.0674 9.92327C25.9326 10.1479 25.9326 10.1479 25.795 10.3771C25.6999 10.5336 25.6048 10.6902 25.5069 10.8515C25.4105 11.0114 25.3141 11.1713 25.2148 11.3361C24.6328 12.2988 24.0437 13.2537 23.4306 14.1911C23.2351 14.4827 23.2351 14.4827 23.0996 14.8133C23.0055 14.8133 22.9113 14.8133 22.8143 14.8133C22.7702 14.9139 22.7261 15.0145 22.6806 15.1181C22.5825 15.3416 22.4845 15.565 22.3864 15.7885C22.2922 15.7885 22.1981 15.7885 22.1011 15.7885C22.0639 15.8807 22.0268 15.9729 21.9885 16.0679C21.0744 18.03 19.2288 20.0612 17.5363 21.1522C17.4421 21.1522 17.348 21.1522 17.251 21.1522C17.251 21.2595 17.251 21.3668 17.251 21.4773C17.1496 21.5106 17.0483 21.5439 16.9439 21.5782C16.8128 21.622 16.6817 21.6658 16.5466 21.7109C16.4159 21.7543 16.2851 21.7977 16.1504 21.8424C15.833 21.9308 15.833 21.9308 15.6818 22.1274C14.2919 22.2739 13.0412 22.192 11.8303 21.3148C11.405 20.8033 11.2654 20.6276 11.2329 19.9129C11.4305 18.677 12.2618 17.5266 12.9715 16.6012C13.0656 16.6012 13.1598 16.6012 13.2568 16.6012C13.288 16.5143 13.3193 16.4273 13.3515 16.3377C13.609 15.8153 13.9516 15.4004 14.3088 14.9657C14.4212 14.8281 14.4212 14.8281 14.5358 14.6878C15.0718 14.0398 15.6254 13.4169 16.1989 12.8121C16.2714 12.7351 16.344 12.6581 16.4187 12.5787C16.9301 12.0502 16.9301 12.0502 17.251 12.0502C17.298 11.8893 17.3451 11.7284 17.3936 11.5626C17.6856 11.2521 17.6856 11.2521 18.0712 10.9023C18.2145 10.7722 18.3577 10.6421 18.5053 10.508C18.6577 10.3718 18.8102 10.2357 18.9628 10.0998C19.1034 9.97343 19.2441 9.8471 19.3891 9.71693C27.622 2.4103 27.622 2.4103 32.0426 5.74305Z" fill="#6D432C"/>
<path d="M73.6693 7.28295C74.7321 7.92906 75.7919 8.59411 76.7368 9.45052C76.7368 9.55779 76.7368 9.66507 76.7368 9.77559C76.8634 9.81247 76.9899 9.84934 77.1202 9.88733C77.666 10.1338 77.9086 10.4265 78.306 10.9133C78.6918 11.2916 79.0838 11.6559 79.4834 12.0149C80.2417 12.6977 80.9699 13.4054 81.6839 14.1476C82.0409 14.516 82.4055 14.8719 82.7755 15.2231C83.4885 15.9461 84.1331 16.7564 84.7877 17.5468C84.8793 17.6563 84.971 17.7658 85.0654 17.8786C85.6689 18.608 86.2075 19.3657 86.7224 20.1779C86.8471 20.3676 86.9719 20.5572 87.0968 20.7468C88.0062 22.2055 88.0062 22.2055 88.0062 22.941C88.1004 22.941 88.1945 22.941 88.2915 22.941C88.3938 24.087 88.3938 24.087 87.9884 24.6984C86.75 25.6778 85.0078 25.6575 83.5841 25.3791C81.9318 24.9818 80.5199 23.3637 79.4472 21.9658C79.3031 21.6959 79.1604 21.425 79.0192 21.1531C78.8455 20.925 78.6669 20.7016 78.4843 20.4827C77.957 19.8205 77.5457 19.1281 77.1375 18.3665C76.7726 17.71 76.364 17.0941 75.9528 16.4745C75.7383 16.1145 75.7383 16.1145 75.7383 15.7894C75.5971 15.7358 75.4558 15.6822 75.3103 15.6269C75.1688 15.3666 75.1688 15.3666 75.0429 15.0377C74.8546 14.5784 74.6583 14.174 74.392 13.7679C74.1231 13.3562 73.9002 12.9405 73.6877 12.4879C73.2718 11.611 72.7942 10.6471 72.172 9.93813C71.0724 9.89737 70.2974 10.2903 69.3904 10.954C69.2068 11.0842 69.2068 11.0842 69.0194 11.2171C67.0001 12.6696 65.0902 14.2777 63.3277 16.1145C63.2516 16.193 63.1755 16.2715 63.0971 16.3523C61.6978 17.8112 60.6048 19.4499 59.8885 21.468C59.7502 21.833 59.5827 22.1623 59.4048 22.5042C58.9745 23.3604 58.7277 24.2758 58.4776 25.2165C58.2694 25.2024 58.0614 25.1848 57.8535 25.1657C57.7377 25.1563 57.6218 25.1469 57.5025 25.1372C57.1937 25.054 57.1937 25.054 56.9084 24.5664C56.9603 24.0112 57.0665 23.4796 57.1937 22.941C57.2879 22.941 57.382 22.941 57.479 22.941C57.5114 22.7816 57.5438 22.6221 57.5771 22.4578C57.7664 21.7044 58.109 21.0876 58.4776 20.4319C58.542 20.313 58.6063 20.1941 58.6726 20.0716C58.8367 19.7754 59.0128 19.4881 59.1909 19.2027C59.285 19.2027 59.3792 19.2027 59.4762 19.2027C59.4841 19.0954 59.492 18.9881 59.5001 18.8776C59.6698 18.1804 60.008 17.6724 60.3766 17.0897C60.4538 16.9669 60.5311 16.8441 60.6106 16.7176C61.3498 15.5632 62.1633 14.5303 63.0424 13.5139C63.1423 13.3971 63.2421 13.2802 63.345 13.1598C65.6926 10.4152 65.6926 10.4152 67.0366 9.28798C67.2688 9.08193 67.5006 8.87538 67.732 8.66831C67.9278 8.49506 68.1239 8.32233 68.3205 8.15023C68.4647 8.02138 68.4647 8.02138 68.6119 7.88992C69.0091 7.56651 69.438 7.38264 69.8896 7.17501C70.0524 7.08922 70.0524 7.08922 70.2184 7.00169C71.3266 6.56432 72.6188 6.72687 73.6693 7.28295Z" fill="#6C422C"/>
<path d="M112.97 78.6904C113.581 78.9347 114.126 79.29 114.681 79.6656C114.852 79.7791 114.852 79.7791 115.026 79.8949C117.71 81.6919 117.71 81.6919 118.811 82.9214C119.109 83.2474 119.42 83.5146 119.754 83.79C120.388 84.3386 120.843 84.9876 121.332 85.6985C121.681 86.1803 122.053 86.6071 122.447 87.0407C123.283 87.9772 123.986 88.9857 124.667 90.0679C124.731 90.1687 124.795 90.2694 124.861 90.3732C125.609 91.5626 126.285 92.6621 126.521 94.1313C126.616 94.1313 126.71 94.1313 126.807 94.1313C128.336 97.5396 128.336 97.5396 128.67 98.9871C128.807 99.5081 128.907 99.7538 129.232 100.145C129.649 100.348 129.649 100.348 130.132 100.501C130.933 100.806 131.609 101.174 132.317 101.699C132.399 101.761 132.482 101.822 132.567 101.885C133.368 102.498 133.982 103.113 134.224 104.209C134.311 105.241 134.244 106.151 133.939 107.134C133.86 107.411 133.86 107.411 133.779 107.693C133.738 107.83 133.696 107.968 133.654 108.109C133.56 108.109 133.466 108.109 133.369 108.109C133.342 108.22 133.316 108.331 133.288 108.445C132.676 109.87 131.311 110.851 130.046 111.402C128.281 112.016 126.528 112.2 124.694 112.224C124.489 112.228 124.489 112.228 124.281 112.232C123.014 112.231 121.573 111.919 120.53 111.035C119.827 110.012 120.038 108.621 120.132 107.393C120.448 105.442 122.311 103.394 123.677 102.268C124.672 101.531 125.688 100.955 126.833 100.596C127.145 100.476 127.145 100.476 127.377 99.9826C127.509 98.274 126.896 96.8255 126.2 95.3503C126.131 95.2007 126.061 95.0511 125.989 94.8969C125.567 94.0016 125.121 93.1506 124.587 92.3345C123.811 91.1385 123.811 91.1385 123.811 90.5555C123.717 90.5555 123.623 90.5555 123.526 90.5555C123.098 89.8429 123.098 89.8429 123.098 89.4178C123.004 89.4178 122.909 89.4178 122.812 89.4178C122.765 89.2032 122.718 88.9887 122.67 88.7676C122.576 88.7676 122.482 88.7676 122.385 88.7676C122.174 88.5003 122.174 88.5003 121.948 88.148C121.872 88.0329 121.797 87.9179 121.72 87.7994C121.529 87.4673 121.529 87.4673 121.386 86.9797C121.197 86.8678 121.007 86.7603 120.815 86.6547C120.538 86.3995 120.265 86.138 119.995 85.8724C119.494 85.3835 118.995 84.927 118.426 84.5417C118.273 84.4344 118.12 84.3271 117.962 84.2166C117.962 84.1093 117.962 84.0021 117.962 83.8915C117.865 83.8777 117.768 83.8639 117.668 83.8496C117.141 83.698 116.713 83.4132 116.251 83.0992C116.164 83.042 116.078 82.9848 115.99 82.9258C115.613 82.675 115.239 82.4199 114.869 82.1582C114.57 81.9615 114.294 81.823 113.968 81.6973C113.501 81.5062 113.108 81.263 112.684 80.9659C112.52 80.8854 112.355 80.805 112.185 80.7221C111.282 80.2812 111.282 80.2812 110.972 79.9907C110.857 79.3913 110.857 79.3913 110.83 78.8529C111.518 78.3301 112.181 78.515 112.97 78.6904Z" fill="#6D432C"/>
<path d="M135.509 76.7402C136.12 76.9844 136.666 77.3379 137.22 77.7154C137.393 77.8328 137.393 77.8328 137.57 77.9525C140.866 80.2074 140.866 80.2074 142.071 81.6163C142.265 81.7872 142.265 81.7872 142.463 81.9617C143.011 82.4705 143.417 83.1094 143.856 83.7369C144.212 84.2192 144.588 84.6527 144.986 85.0905C145.822 86.027 146.525 87.0355 147.206 88.1177C147.27 88.2185 147.334 88.3192 147.4 88.423C148.148 89.6124 148.824 90.7119 149.06 92.1811C149.155 92.1811 149.249 92.1811 149.346 92.1811C150.875 95.5894 150.875 95.5894 151.209 97.0369C151.346 97.5579 151.446 97.8036 151.771 98.1949C152.188 98.3978 152.188 98.3978 152.671 98.5505C153.472 98.8557 154.148 99.224 154.856 99.7492C154.938 99.8103 155.021 99.8714 155.106 99.9344C155.907 100.548 156.521 101.163 156.764 102.258C156.85 103.291 156.783 104.201 156.478 105.184C156.399 105.461 156.399 105.461 156.318 105.743C156.277 105.88 156.235 106.018 156.193 106.159C156.099 106.159 156.005 106.159 155.908 106.159C155.881 106.27 155.855 106.38 155.827 106.494C155.215 107.92 153.85 108.901 152.585 109.452C150.82 110.065 149.067 110.25 147.233 110.273C147.028 110.278 147.028 110.278 146.82 110.282C145.553 110.281 144.112 109.969 143.069 109.085C142.366 108.062 142.577 106.671 142.671 105.443C142.987 103.491 144.85 101.444 146.216 100.318C147.211 99.5809 148.227 99.0047 149.372 98.6457C149.684 98.5261 149.684 98.5261 149.916 98.0324C150.048 96.3238 149.435 94.8753 148.739 93.4001C148.67 93.2505 148.6 93.1009 148.529 92.9467C148.106 92.0514 147.66 91.2004 147.126 90.3843C146.35 89.1883 146.35 89.1883 146.35 88.6053C146.256 88.6053 146.162 88.6053 146.065 88.6053C145.637 87.8927 145.637 87.8927 145.637 87.4676C145.543 87.4676 145.449 87.4676 145.352 87.4676C145.304 87.253 145.257 87.0385 145.209 86.8174C145.115 86.8174 145.021 86.8174 144.924 86.8174C144.713 86.5501 144.713 86.5501 144.487 86.1978C144.411 86.0827 144.336 85.9677 144.259 85.8492C144.068 85.5171 144.068 85.5171 143.925 85.0295C143.736 84.9176 143.546 84.8101 143.354 84.7045C143.077 84.4493 142.804 84.1878 142.534 83.9223C142.033 83.4333 141.534 82.9768 140.965 82.5915C140.812 82.4842 140.659 82.3769 140.501 82.2664C140.501 82.1591 140.501 82.0519 140.501 81.9413C140.404 81.9275 140.307 81.9137 140.207 81.8994C139.68 81.7478 139.252 81.463 138.79 81.149C138.704 81.0918 138.617 81.0346 138.529 80.9757C138.152 80.7248 137.779 80.4697 137.408 80.2081C137.109 80.0113 136.833 79.8729 136.507 79.7471C136.04 79.556 135.647 79.3128 135.223 79.0157C134.892 78.85 134.559 78.6873 134.225 78.5281C133.75 78.2942 133.671 78.2318 133.369 77.7154C133.324 77.2989 133.324 77.2989 133.369 76.9027C134.057 76.3799 134.72 76.5648 135.509 76.7402Z" fill="#6D432C"/>
<path d="M59.761 85.0298C59.761 85.1371 59.761 85.2443 59.761 85.3549C60.0435 85.4621 60.3259 85.5694 60.6169 85.6799C60.3903 86.3771 59.9848 86.7077 59.4757 87.1428C59.3816 87.1428 59.2874 87.1428 59.1904 87.1428C59.1904 87.25 59.1904 87.3573 59.1904 87.4678C58.6966 87.9554 58.6966 87.9554 58.3345 87.9554C58.2805 88.0991 58.2805 88.0991 58.2253 88.2456C58.0286 88.6478 57.8229 88.8692 57.5143 89.1643C57.4132 89.2621 57.312 89.36 57.2078 89.4608C57.0233 89.6346 56.8384 89.8079 56.6528 89.9801C56.2887 90.3184 56.0303 90.5933 55.7668 91.0436C55.6727 91.0436 55.5785 91.0436 55.4815 91.0436C55.4492 91.1341 55.4168 91.2246 55.3835 91.3179C55.0928 91.9013 54.6628 92.3109 54.2395 92.7712C53.8081 93.2499 53.4241 93.717 53.0832 94.2842C52.9288 94.5306 52.9288 94.5306 52.7712 94.7819C52.677 94.7819 52.5829 94.7819 52.4859 94.7819C52.452 94.8683 52.4182 94.9546 52.3833 95.0435C52.1472 95.5454 51.8574 95.9933 51.5586 96.4479C51.5011 96.538 51.4435 96.6281 51.3842 96.721C51.2356 96.9479 51.0768 97.166 50.9167 97.3825C50.8226 97.3825 50.7284 97.3825 50.6314 97.3825C50.5932 97.4764 50.5549 97.5703 50.5155 97.667C50.3461 98.0327 50.3461 98.0327 50.1143 98.3273C49.7845 98.9251 49.8686 99.545 49.9895 100.217C50.013 100.301 50.0366 100.384 50.0608 100.471C50.1903 100.484 50.3197 100.498 50.4531 100.511C50.9908 100.653 51.1281 100.821 51.4873 101.283C51.605 101.387 51.7227 101.491 51.8439 101.598C52.7514 102.451 53.0931 103.384 53.2604 104.686C53.3107 105.585 53.2547 106.208 52.789 106.952C52.2113 107.689 51.5336 108.14 50.7741 108.598C50.5437 108.761 50.5437 108.761 50.3088 108.928C49.7373 109.301 49.1599 109.456 48.5184 109.603C48.404 109.63 48.2896 109.658 48.1718 109.686C47.3746 109.87 46.5955 110.027 45.7813 110.06C45.6863 110.066 45.5914 110.072 45.4935 110.078C43.4716 110.196 41.4132 109.994 39.79 108.435C39.0052 107.545 38.4452 106.719 38.4348 105.418C38.4654 103.974 38.8098 102.701 39.6741 101.619C41.4951 99.7886 43.8625 99.7544 46.1621 99.748C46.4042 99.744 46.4042 99.744 46.6511 99.7399C46.7961 99.7396 46.941 99.7393 47.0903 99.739C47.6011 99.6363 47.8347 99.4126 48.2064 99.0079C48.3476 98.7665 48.3476 98.7665 48.4917 98.5203C48.5858 98.5203 48.68 98.5203 48.777 98.5203C48.7871 98.412 48.7972 98.3036 48.8076 98.192C48.96 97.5329 49.2493 97.0284 49.5705 96.4581C49.6673 96.2844 49.6673 96.2844 49.7661 96.1071C50.29 95.1801 50.8606 94.3219 51.4873 93.4817C51.591 93.3337 51.6947 93.1858 51.8016 93.0334C53.6296 90.4724 55.7132 88.1208 58.0492 86.1675C58.3941 85.8517 58.7379 85.5346 59.0807 85.2158C59.3331 85.0298 59.3331 85.0298 59.761 85.0298Z" fill="#6D432C"/>
<path d="M87.2925 86.9795C87.1208 87.3848 86.9424 87.7404 86.7219 88.1172C86.6277 88.1172 86.6121 88.4926 86.5151 88.4926C86.4768 88.5865 86.476 88.5557 86.4366 88.6524C86.2672 89.0181 86.2182 89.3022 85.9864 89.5968C85.6566 90.1947 85.6737 90.2797 85.7947 90.9514C85.8182 91.0352 85.8952 91.0266 85.9195 91.1129C86.0489 91.1263 86.1249 91.2322 86.2583 91.246C86.796 91.3874 86.9333 91.556 87.2925 92.0181C87.4102 92.122 87.5279 92.2259 87.6491 92.333C88.5566 93.186 88.8983 94.1191 89.0656 95.4205C89.1158 96.3194 89.0599 96.9431 88.5942 97.6865C88.0165 98.4233 87.3387 98.875 86.5792 99.3322C86.4257 99.4411 86.2722 99.5501 86.114 99.6623C85.5425 100.035 84.9651 100.191 84.3236 100.338C84.2092 100.365 84.0948 100.392 83.977 100.42C83.1798 100.605 82.4007 100.761 81.5865 100.795C81.4915 100.801 81.3965 100.807 81.2987 100.813C79.2768 100.93 77.2184 100.729 75.5952 99.1697C74.8104 98.2796 74.2504 97.4538 74.24 96.1526C74.2705 94.7083 74.615 93.436 75.4793 92.3533C77.3003 90.5233 79.6677 90.4891 81.9673 90.4827C82.2094 90.4787 82.2094 90.4787 82.4563 90.4746C82.6012 90.4743 82.7461 90.474 82.8954 90.4737C83.4063 90.371 83.6399 90.1472 84.0115 89.7426C84.1528 89.5012 84.1528 89.5012 84.2968 89.255C84.391 89.255 85.0557 87.7109 85.1527 87.7109C85.1675 87.5868 85.7221 86.8363 85.7221 86.8363C86.2507 86.0081 87.3081 86.8364 87.3081 86.8364L87.2925 86.9795Z" fill="#6D432C"/>
<path d="M160.9 51.0591C161.493 51.6346 161.868 52.3695 162.184 53.172C162.184 53.333 162.184 53.4939 162.184 53.6597C162.278 53.6597 162.372 53.6597 162.469 53.6597C162.684 54.0822 162.898 54.5056 163.111 54.9295C163.173 55.0494 163.234 55.1694 163.297 55.293C163.355 55.4087 163.413 55.5245 163.472 55.6437C163.553 55.8033 163.553 55.8033 163.635 55.9662C163.753 56.2602 163.753 56.2602 163.753 56.7478C163.847 56.7478 163.942 56.7478 164.039 56.7478C164.35 57.2649 164.554 57.791 164.752 58.3732C165.008 59.0675 165.27 59.7357 165.608 60.3846C165.925 60.9955 166.116 61.6441 166.32 62.3128C166.451 62.7211 166.597 63.1096 166.758 63.5032C167.013 64.138 167.184 64.778 167.351 65.4486C167.495 65.969 167.694 66.4497 167.896 66.9438C168.037 67.3235 168.134 67.6972 168.229 68.0949C168.437 68.9465 168.783 69.6845 169.158 70.4555C169.331 70.9292 169.337 71.0737 169.174 71.5386C169.103 71.78 169.103 71.78 169.031 72.0262C168.937 72.0262 168.843 72.0262 168.746 72.0262C168.69 72.1975 168.69 72.1975 168.633 72.3722C168.195 73.556 167.569 74.7353 166.892 75.7646C166.797 75.7646 166.703 75.7646 166.606 75.7646C166.571 75.8576 166.536 75.9506 166.499 76.0465C166.293 76.4716 166.052 76.7638 165.75 77.1055C165.65 77.2203 165.55 77.3351 165.447 77.4534C165.18 77.715 165.18 77.715 164.894 77.715C164.894 77.8223 164.894 77.9295 164.894 78.0401C164.587 78.3072 164.281 78.5515 163.958 78.7918C163.863 78.8633 163.768 78.9348 163.67 79.0085C162.986 79.514 162.287 79.9791 161.569 80.4171C161.478 80.4728 161.386 80.5285 161.292 80.5858C160.653 80.9657 160.653 80.9657 160.33 80.9657C160.33 81.073 160.33 81.1803 160.33 81.2908C160.051 81.4583 159.771 81.6238 159.492 81.7885C159.258 81.9271 159.258 81.9271 159.02 82.0685C158.887 82.1337 158.755 82.1989 158.618 82.266C158.524 82.2124 158.43 82.1587 158.333 82.1035C158.395 81.9557 158.457 81.808 158.521 81.6558C159.66 78.9252 160.799 76.0701 161.237 73.0738C161.304 72.6631 161.38 72.2669 161.468 71.8624C162.06 68.9981 162.017 66.0789 162.038 63.1526C162.041 62.778 162.046 62.4036 162.05 62.0291C162.096 58.368 161.945 55.1876 160.974 51.688C160.9 51.3842 160.9 51.3842 160.9 51.0591Z" fill="#6D432C"/>
<path d="M102.375 91.127C102.702 91.2065 103.006 91.3173 103.323 91.4394C105.883 92.3391 108.716 92.0971 111.319 91.5898C111.837 91.5064 112.184 91.5114 112.684 91.6933C113.005 92.0794 113.005 92.0794 113.255 92.506C113.361 92.6201 113.361 92.6201 113.47 92.7365C114.05 93.4363 114.149 94.5077 114.2 95.4317C114.176 96.3472 113.958 96.8718 113.426 97.5504C112.895 98.091 112.312 98.468 111.686 98.8449C111.532 98.9539 111.379 99.0628 111.221 99.1751C110.649 99.548 110.072 99.7036 109.43 99.8506C109.316 99.8778 109.201 99.905 109.084 99.933C108.286 100.118 107.507 100.274 106.693 100.308C106.598 100.314 106.503 100.32 106.405 100.326C104.383 100.443 102.325 100.241 100.702 98.6824C99.9171 97.7923 99.3571 96.9665 99.3467 95.6653C99.378 94.1828 99.7302 92.9128 100.648 91.8356C101.231 91.2319 101.567 90.9876 102.375 91.127Z" fill="#6D432C"/>
<path d="M35.3676 57.3983C35.7599 57.6116 35.7599 57.6116 36.0809 58.0485C36.2764 58.7956 36.3399 59.5685 36.4158 60.3411C36.5455 61.4731 36.7396 62.3096 37.5074 63.0871C38.3512 63.7176 39.2278 63.8612 40.2178 63.8998C40.3847 63.91 40.5517 63.9203 40.7237 63.9309C42.1949 63.9839 43.5186 63.8196 44.6934 62.7315C45.4123 61.9345 45.9682 61.03 46.2982 59.9481C46.4943 59.349 46.6004 59.0515 47.065 58.6986C47.5642 58.6072 47.5642 58.6072 48.0635 58.6986C48.4112 59.0237 48.4112 59.0237 48.6341 59.5113C48.7065 60.4946 48.5752 61.1471 48.1438 62.0103C48.0925 62.1154 48.0413 62.2206 47.9885 62.329C47.2247 63.8417 46.255 64.9815 44.9252 65.8502C44.784 65.944 44.6428 66.0379 44.4973 66.1346C43.4216 66.6453 42.3441 66.7212 41.1896 66.7137C41.0454 66.7129 40.9012 66.7121 40.7526 66.7112C38.8638 66.6777 36.9834 66.3475 35.537 64.8445C34.9984 64.1845 34.6892 63.4149 34.3691 62.5995C34.3174 62.487 34.2657 62.3744 34.2125 62.2585C33.8447 61.3751 33.9165 60.267 33.8966 59.3081C33.8923 59.1947 33.8881 59.0813 33.8837 58.9645C33.8781 58.404 33.9046 58.104 34.203 57.6497C34.6261 57.3052 34.8577 57.3035 35.3676 57.3983Z" fill="#4D2215"/>
<path d="M138.504 83.8916C139.921 84.6303 141.936 86.1185 142.784 87.6299C142.784 87.7908 142.784 87.9518 142.784 88.1175C141.284 88.5213 139.786 88.4869 138.255 88.4761C137.816 88.4731 137.377 88.4727 136.939 88.4728C136.657 88.472 136.376 88.471 136.094 88.4699C135.964 88.4697 135.834 88.4696 135.701 88.4694C135.004 88.4635 134.341 88.4137 133.654 88.2801C133.654 88.2264 133.654 88.1728 133.654 88.1175C134.548 88.1175 135.443 88.1175 136.364 88.1175C136.488 87.8527 136.612 87.5879 136.739 87.315C137.09 86.5788 137.472 85.8851 137.887 85.1944C138.129 84.7748 138.32 84.3471 138.504 83.8916Z" fill="#6D432C"/>
<path d="M39.6474 26.1915C40.2655 26.5502 40.7138 26.9757 41.0739 27.6543C41.1399 28.2557 41.1263 28.6481 40.9224 29.2085C40.4555 29.8778 39.9386 30.4693 39.2195 30.7425C38.499 30.8287 37.9492 30.8315 37.2937 30.458C36.8713 30.0249 36.6788 29.7164 36.615 29.0688C36.6662 27.9913 36.95 27.4929 37.6492 26.7756C38.3339 26.1563 38.7931 26.0564 39.6474 26.1915Z" fill="#C48769"/>
<path d="M44.3548 26.3541C44.9282 26.6867 45.2968 27.0377 45.6387 27.6544C45.765 28.4404 45.7154 29.1017 45.4069 29.8182C44.493 30.9964 44.493 30.9964 43.9018 31.1464C43.3129 31.187 42.9075 31.1232 42.438 30.702C41.8509 29.9841 41.7293 29.4795 41.7515 28.5179C41.8247 27.7455 42.0739 27.1943 42.5093 26.6081C43.1246 26.2352 43.6724 26.2295 44.3548 26.3541Z" fill="#C48769"/>
<path d="M54.2659 54.5399C54.2659 54.5399 54.9801 52.8142 57.6582 52.8849C60.3363 52.9556 61.6673 55.6432 61.6673 55.6432" stroke="#4A2013" stroke-width="3.18865" stroke-linecap="round"/>
<path d="M24.1311 51.7798C24.1311 51.7798 26.6762 49.5065 28.6523 50.2864C29.8036 50.7408 31.0039 51.7798 31.0039 51.7798" stroke="#4A2013" stroke-width="3.18865" stroke-linecap="round"/>
<path d="M70.1686 66.2104C75.7212 60.0919 82.3961 46.2583 82.3961 46.2583C82.3961 46.2583 86.4222 60.4501 81.1733 68.0978C74.4208 77.9363 54.53 80.2115 54.53 80.2115C54.53 80.2115 63.7215 73.3144 70.1686 66.2104Z" fill="#804A2C"/>
<defs>
<filter id="filter0_g_822_2167" x="7.44763" y="0.000120878" width="165.875" height="121.447" filterUnits="userSpaceOnUse" color-interpolation-filters="sRGB">
<feFlood flood-opacity="0" result="BackgroundImageFix"/>
<feBlend mode="normal" in="SourceGraphic" in2="BackgroundImageFix" result="shape"/>
<feTurbulence type="fractalNoise" baseFrequency="0.99900001287460327 0.99900001287460327" numOctaves="3" seed="5226" />
<feDisplacementMap in="shape" scale="2.678469181060791" xChannelSelector="R" yChannelSelector="G" result="displacedImage" width="100%" height="100%" />
<feMerge result="effect1_texture_822_2167">
<feMergeNode in="displacedImage"/>
</feMerge>
</filter>
</defs>
</svg>
